<svg width="150" height="158" viewBox="0 0 150 158" fill="none" xmlns="http://www.w3.org/2000/svg">
<path d="M88 102L88.385 156.744" stroke="black"/>
<path d="M92.6535 157.334C92.6535 158.312 90.7417 157.924 88.3833 157.924C86.025 157.924 84.1132 158.312 84.1132 157.334C84.1132 156.356 86.025 155.563 88.3833 155.563C90.7417 155.563 92.6535 156.356 92.6535 157.334Z" fill="black"/>
<path d="M69.6989 103.621V155.563" stroke="black"/>
<path d="M73.4365 156.744C73.4365 157.722 71.5247 157.334 69.1664 157.334C66.8081 157.334 64.8963 157.722 64.8963 156.744C64.8963 155.766 66.8081 154.973 69.1664 154.973C71.5247 154.973 73.4365 155.766 73.4365 156.744Z" fill="black"/>
<path d="M71.7186 9.52233C76.1389 7.33685 81.1753 7.54262 85.5253 9.8944C87.911 11.1842 90.7027 12.5278 89.7821 15.2821C89.0406 17.5002 86.7471 16.9204 84.6542 17.4061C83.4868 17.6771 82.1908 17.6855 81.6259 18.9901C81.2314 19.9012 81.4546 20.5898 81.6483 21.577C81.8369 22.5382 82.4922 23.5274 83.1493 24.3212H118.282C118.834 24.3212 119.282 24.7689 119.282 25.3212V103.321C119.282 103.873 118.834 104.321 118.282 104.321H84.5995C84.3225 104.321 84.0561 104.207 83.8739 103.999C83.2033 103.231 82.4721 102.206 82.2831 101.218C82.2621 101.108 82.2413 101.003 82.2206 100.9C82.0701 100.157 81.9532 99.5813 82.2792 98.8514C82.7218 97.8606 83.6287 97.6974 84.5448 97.5321C84.7278 97.4991 84.9115 97.4654 85.0917 97.4257C85.6142 97.3103 86.1496 97.2655 86.6669 97.2225C88.0701 97.1059 89.3398 97.0005 89.8514 95.5223C90.6804 93.1263 88.3753 91.878 86.2518 90.7284C86.1492 90.6728 86.0466 90.6176 85.9452 90.5624C81.9343 88.3782 77.2744 88.1509 73.1698 90.1161C73.1074 90.146 73.044 90.1765 72.9803 90.2069C70.5645 91.3613 67.3323 92.9062 68.2001 95.5692C68.6871 97.0638 69.9277 97.1062 71.3339 97.1542C72.0771 97.1795 72.8671 97.2063 73.6161 97.4501C73.7136 97.4818 73.8095 97.5124 73.9032 97.5419C74.7172 97.7975 75.3807 98.0054 75.7841 98.8651C76.1356 99.6144 76.006 100.216 75.8378 100.998C75.8214 101.074 75.8046 101.152 75.788 101.231C75.5116 102.553 74.2307 103.542 72.9852 104.21C72.8461 104.284 72.6899 104.321 72.5321 104.321H40.2821C39.73 104.321 39.2822 103.873 39.2821 103.321V69.1024C39.2821 68.8488 39.3773 68.6031 39.5565 68.4237C40.2166 67.7632 41.0515 67.0932 41.8573 66.91C41.9545 66.8879 42.0486 66.8655 42.1395 66.8436L42.6112 66.7382C43.0643 66.6527 43.4739 66.6483 43.9598 66.91C44.8395 67.3839 44.9836 68.3508 45.1288 69.328C45.1578 69.5233 45.1865 69.7197 45.2216 69.912C45.3231 70.4695 45.3621 71.0408 45.3993 71.5926C45.5002 73.0894 45.5915 74.4436 46.9042 74.9921C49.0321 75.8809 50.146 73.4245 51.1718 71.162C51.2213 71.0526 51.2709 70.9438 51.3202 70.8358C53.2689 66.5626 53.4787 61.5939 51.7401 57.2128L51.66 57.0106C50.6387 54.432 49.2726 50.9818 46.9042 51.9022C45.5749 52.4188 45.5345 53.7414 45.4891 55.2411C45.4652 56.0338 45.4397 56.8762 45.2216 57.6747C45.1932 57.7785 45.1668 57.8806 45.1405 57.9803C44.9118 58.848 44.7248 59.5547 43.9598 59.9833C43.2934 60.3565 42.7601 60.2179 42.0653 60.037C41.9976 60.0194 41.9283 60.0013 41.8573 59.9833C40.785 59.7117 39.961 58.5468 39.3759 57.3339C39.3132 57.2041 39.2822 57.061 39.2821 56.9169V25.3212C39.2821 24.769 39.7299 24.3213 40.2821 24.3212H72.6014C73.5751 23.6315 74.4129 22.7421 74.6307 21.6503C74.8275 20.6641 75.0309 19.9595 74.6083 19.0643C74.1151 18.02 73.2791 17.8638 72.2557 17.536C69.9098 16.7846 67.2111 18.0195 66.3895 15.5282C65.407 12.5481 69.0998 10.8171 71.7186 9.52233Z" fill="#A8E6F1"/>
<ellipse cx="70.6486" cy="49.4336" rx="2.37362" ry="7.5828" fill="black"/>
<path d="M72.9562 38.6855C73.158 39.4298 71.3704 39.1931 69.4143 39.8192C67.4583 40.4454 66.0743 41.6973 65.8725 40.953C65.6707 40.2086 67.0929 39.0976 69.0489 38.4715C71.005 37.8453 72.7543 37.9411 72.9562 38.6855Z" fill="black"/>
<path d="M92.9438 40.6479C92.7788 41.4029 91.3354 40.2331 89.3513 39.7213C87.3672 39.2096 85.5939 39.5497 85.7588 38.7948C85.9237 38.0398 87.6658 37.8426 89.6499 38.3543C91.634 38.866 93.1087 39.8929 92.9438 40.6479Z" fill="black"/>
<ellipse cx="88.6501" cy="49.4336" rx="2.37362" ry="7.5828" fill="black"/>
<path d="M64.78 66.8659C64.4482 66.5952 64.5694 66.4632 64.5694 66.4632C64.5694 66.4632 64.641 66.6071 64.78 66.8659C65.3185 67.3051 67.0503 68.1095 72.4302 69.3076C78.0743 70.5645 93.1611 68.4618 93.1611 68.4618C93.1611 68.4618 85.2425 81.7063 79.2188 80.3648C71.4773 78.6409 65.9083 68.9668 64.78 66.8659Z" fill="black"/>
<path d="M111.483 68.6382C111.483 68.6382 117.759 80.6384 119.942 88.9209C122.951 100.341 122.284 118.916 122.284 118.916" stroke="black"/>
<line y1="-0.3" x2="2.07565" y2="-0.3" transform="matrix(0.563993 0.82578 0.83816 -0.545425 122.576 118.345)" stroke="black" stroke-width="0.6"/>
<line y1="-0.3" x2="2.07671" y2="-0.3" transform="matrix(-0.582528 0.812811 0.825834 0.563913 122.576 118.345)" stroke="black" stroke-width="0.6"/>
<line y1="-0.35" x2="2.424" y2="-0.35" transform="matrix(0.00563127 0.999984 0.999986 -0.00536266 122.48 118.342)" stroke="black" stroke-width="0.7"/>
<path d="M46.699 69C46.699 69 40.4227 81.0003 38.2401 89.2827C35.2307 100.703 35.8983 119.278 35.8983 119.278" stroke="black"/>
<line y1="-0.3" x2="2.07565" y2="-0.3" transform="matrix(-0.563993 0.82578 -0.83816 -0.545425 35.6055 118.707)" stroke="black" stroke-width="0.6"/>
<line y1="-0.3" x2="2.07671" y2="-0.3" transform="matrix(0.582528 0.812811 -0.825834 0.563913 35.6055 118.707)" stroke="black" stroke-width="0.6"/>
<line y1="-0.35" x2="2.424" y2="-0.35" transform="matrix(-0.00563127 0.999984 -0.999986 -0.00536266 35.7017 118.704)" stroke="black" stroke-width="0.7"/>
<path d="M109.043 27.4458L47.07 27.2582C47.07 27.2582 51.1184 22.3325 53.4424 22.3395L103.021 22.4896C105.345 22.4966 109.043 27.4458 109.043 27.4458Z" fill="#185D6D"/>
<path d="M100.858 19.8466C100.875 27.8488 89.0443 23.2521 76.2819 23.2788C63.5194 23.3054 53.183 27.9484 53.1663 19.9462C53.1496 11.944 63.471 0.122682 76.2334 0.0960307C88.9959 0.0693794 100.842 11.8445 100.858 19.8466Z" fill="#185D6D"/>
<path d="M61.8285 49.5171L61.1685 53.5019L41.0143 52.4274L41.0713 50.1424L61.8285 49.5171Z" fill="#185D6D"/>
<path d="M64.1924 42.7383C76.3252 41.756 85.0228 41.7459 97.1651 42.7568C99.576 42.9578 101.231 45.283 100.646 47.6523L98.3526 56.9541C97.9094 58.7506 96.3044 60.0035 94.4932 59.9531C90.016 59.8287 87.059 59.4038 84.6944 58.2324C82.4036 57.0977 79.5574 56.703 77.0791 57.8701C74.263 59.1964 71.4639 59.7668 67.4043 59.9395C65.7036 60.0117 64.1613 58.8766 63.6416 57.1914L60.7627 47.8545C60.0148 45.4287 61.6847 42.9413 64.1924 42.7383Z" stroke="#185D6D" stroke-width="2"/>
<path d="M100 53.9956L100.746 50.026L120.872 51.5356L120.766 53.8188L100 53.9956Z" fill="#185D6D"/>
<path d="M119.778 73.6064C119.778 65.6064 119.778 60.1064 119.937 57L109.978 57.3972C103.438 65.3464 90.1782 82.9976 89.4604 90.0081C88.7426 97.0187 92.1308 104.863 93.9146 107.909L119.778 107.909L119.778 95.1064L119.778 73.6064L119.778 73.6064Z" fill="#185D6D"/>
<path d="M38.0418 75.5L38.0418 57L48.9132 57.7663C55.4534 65.7156 68.7133 83.3667 69.4311 90.3773C70.1489 97.3878 66.7607 105.232 64.9769 108.278L38.0418 108.278L38.0418 97.5001L38.0418 75.5Z" fill="#185D6D"/>
</svg>
