<svg width="153" height="160" viewBox="0 0 153 160" fill="none" xmlns="http://www.w3.org/2000/svg">
<path d="M91 104L91.385 158.744" stroke="black"/>
<path d="M95.6535 159.334C95.6535 160.312 93.7417 159.924 91.3833 159.924C89.025 159.924 87.1132 160.312 87.1132 159.334C87.1132 158.356 89.025 157.563 91.3833 157.563C93.7417 157.563 95.6535 158.356 95.6535 159.334Z" fill="black"/>
<path d="M72.6989 105.621V157.563" stroke="black"/>
<path d="M76.4365 158.744C76.4365 159.722 74.5247 159.334 72.1664 159.334C69.8081 159.334 67.8963 159.722 67.8963 158.744C67.8963 157.766 69.8081 156.973 72.1664 156.973C74.5247 156.973 76.4365 157.766 76.4365 158.744Z" fill="black"/>
<path d="M74.7186 11.5223C79.1389 9.33685 84.1753 9.54262 88.5253 11.8944C90.911 13.1842 93.7027 14.5278 92.7821 17.2821C92.0406 19.5002 89.7471 18.9204 87.6542 19.4061C86.4868 19.6771 85.1908 19.6855 84.6259 20.9901C84.2314 21.9012 84.4546 22.5898 84.6483 23.577C84.8369 24.5382 85.4922 25.5274 86.1493 26.3212H121.282C121.834 26.3212 122.282 26.7689 122.282 27.3212V105.321C122.282 105.873 121.834 106.321 121.282 106.321H87.5995C87.3225 106.321 87.0561 106.207 86.8739 105.999C86.2033 105.231 85.4721 104.206 85.2831 103.218C85.2621 103.108 85.2413 103.003 85.2206 102.9C85.0701 102.157 84.9532 101.581 85.2792 100.851C85.7218 99.8606 86.6287 99.6974 87.5448 99.5321C87.7278 99.4991 87.9115 99.4654 88.0917 99.4257C88.6142 99.3103 89.1496 99.2655 89.6669 99.2225C91.0701 99.1059 92.3398 99.0005 92.8514 97.5223C93.6804 95.1263 91.3753 93.878 89.2518 92.7284C89.1492 92.6728 89.0466 92.6176 88.9452 92.5624C84.9343 90.3782 80.2744 90.1509 76.1698 92.1161C76.1074 92.146 76.044 92.1765 75.9803 92.2069C73.5645 93.3613 70.3323 94.9062 71.2001 97.5692C71.6871 99.0638 72.9277 99.1062 74.3339 99.1542C75.0771 99.1795 75.8671 99.2063 76.6161 99.4501C76.7136 99.4818 76.8095 99.5124 76.9032 99.5419C77.7172 99.7975 78.3807 100.005 78.7841 100.865C79.1356 101.614 79.006 102.216 78.8378 102.998C78.8214 103.074 78.8046 103.152 78.788 103.231C78.5116 104.553 77.2307 105.542 75.9852 106.21C75.8461 106.284 75.6899 106.321 75.5321 106.321H43.2821C42.73 106.321 42.2822 105.873 42.2821 105.321V71.1024C42.2821 70.8488 42.3773 70.6031 42.5565 70.4237C43.2166 69.7632 44.0515 69.0932 44.8573 68.91C44.9545 68.8879 45.0486 68.8655 45.1395 68.8436L45.6112 68.7382C46.0643 68.6527 46.4739 68.6483 46.9598 68.91C47.8395 69.3839 47.9836 70.3508 48.1288 71.328C48.1578 71.5233 48.1865 71.7197 48.2216 71.912C48.3231 72.4695 48.3621 73.0408 48.3993 73.5926C48.5002 75.0894 48.5915 76.4436 49.9042 76.9921C52.0321 77.8809 53.146 75.4245 54.1718 73.162C54.2213 73.0526 54.2709 72.9438 54.3202 72.8358C56.2689 68.5626 56.4787 63.5939 54.7401 59.2128L54.66 59.0106C53.6387 56.432 52.2726 52.9818 49.9042 53.9022C48.5749 54.4188 48.5345 55.7414 48.4891 57.2411C48.4652 58.0338 48.4397 58.8762 48.2216 59.6747C48.1932 59.7785 48.1668 59.8806 48.1405 59.9803C47.9118 60.848 47.7248 61.5547 46.9598 61.9833C46.2934 62.3565 45.7601 62.2179 45.0653 62.037C44.9976 62.0194 44.9283 62.0013 44.8573 61.9833C43.785 61.7117 42.961 60.5468 42.3759 59.3339C42.3132 59.2041 42.2822 59.061 42.2821 58.9169V27.3212C42.2821 26.769 42.7299 26.3213 43.2821 26.3212H75.6014C76.5751 25.6315 77.4129 24.7421 77.6307 23.6503C77.8275 22.6641 78.0309 21.9595 77.6083 21.0643C77.1151 20.02 76.2791 19.8638 75.2557 19.536C72.9098 18.7846 70.2111 20.0195 69.3895 17.5282C68.407 14.5481 72.0998 12.8171 74.7186 11.5223Z" fill="#A8E6F1"/>
<ellipse cx="73.6486" cy="51.4336" rx="2.37362" ry="7.5828" fill="black"/>
<path d="M75.9562 40.6855C76.158 41.4298 74.3704 41.1931 72.4143 41.8192C70.4583 42.4454 69.0743 43.6973 68.8725 42.953C68.6707 42.2086 70.0929 41.0976 72.0489 40.4715C74.005 39.8453 75.7543 39.9411 75.9562 40.6855Z" fill="black"/>
<path d="M95.9438 42.6479C95.7788 43.4029 94.3354 42.2331 92.3513 41.7213C90.3672 41.2096 88.5939 41.5497 88.7588 40.7948C88.9237 40.0398 90.6658 39.8426 92.6499 40.3543C94.634 40.866 96.1087 41.8929 95.9438 42.6479Z" fill="black"/>
<ellipse cx="91.6501" cy="51.4336" rx="2.37362" ry="7.5828" fill="black"/>
<path d="M67.78 68.8659C67.4482 68.5952 67.5694 68.4632 67.5694 68.4632C67.5694 68.4632 67.641 68.6071 67.78 68.8659C68.3185 69.3051 70.0503 70.1095 75.4302 71.3076C81.0743 72.5645 96.1611 70.4618 96.1611 70.4618C96.1611 70.4618 88.2425 83.7063 82.2188 82.3648C74.4773 80.6409 68.9083 70.9668 67.78 68.8659Z" fill="black"/>
<path d="M10.7922 98.0977L55.2706 84.7927" stroke="black"/>
<path d="M114.483 70.6382C114.483 70.6382 120.759 82.6384 122.942 90.9209C125.951 102.341 125.284 120.916 125.284 120.916" stroke="black"/>
<line y1="-0.3" x2="2.07565" y2="-0.3" transform="matrix(0.563993 0.82578 0.83816 -0.545425 125.576 120.345)" stroke="black" stroke-width="0.6"/>
<line y1="-0.3" x2="2.07671" y2="-0.3" transform="matrix(-0.582528 0.812811 0.825834 0.563913 125.576 120.345)" stroke="black" stroke-width="0.6"/>
<line y1="-0.35" x2="2.424" y2="-0.35" transform="matrix(0.00563127 0.999984 0.999986 -0.00536266 125.48 120.342)" stroke="black" stroke-width="0.7"/>
<rect x="0.25882" y="84.6951" width="26" height="31" rx="1" transform="rotate(-15 0.25882 84.6951)" fill="#185D6D"/>
<g clip-path="url(#clip0_4096_6617)">
<rect x="1.74237" y="86.3682" width="24" height="28" rx="1" transform="rotate(-15 1.74237 86.3682)" fill="#A8E6F1"/>
<rect x="4.45068" y="88.7483" width="19" height="2" rx="1" transform="rotate(-15 4.45068 88.7483)" fill="#185D6D"/>
<rect x="5.22714" y="91.646" width="19" height="2" rx="1" transform="rotate(-15 5.22714 91.646)" fill="#185D6D"/>
<rect x="6.0036" y="94.5439" width="12" height="2" rx="1" transform="rotate(-15 6.0036 94.5439)" fill="#185D6D"/>
</g>
<rect x="5.34726" y="84.3669" width="15" height="2" rx="1" transform="rotate(-15 5.34726 84.3669)" fill="black"/>
<rect x="10.6252" y="80.8823" width="3" height="3" rx="1.5" transform="rotate(-15 10.6252 80.8823)" fill="black"/>
<path d="M112.043 27.4458L50.07 27.2582C50.07 27.2582 54.1184 22.3325 56.4424 22.3395L106.021 22.4896C108.345 22.4966 112.043 27.4458 112.043 27.4458Z" fill="#185D6D"/>
<path d="M103.858 19.8466C103.875 27.8488 92.0443 23.2521 79.2819 23.2788C66.5194 23.3054 56.183 27.9484 56.1663 19.9462C56.1496 11.944 66.471 0.122682 79.2334 0.0960307C91.9959 0.0693794 103.842 11.8445 103.858 19.8466Z" fill="#185D6D"/>
<path d="M81.9243 85.8661L86.0022 88.0022L82 96L77.6752 88.3248L81.9243 85.8661Z" fill="#185D6D"/>
<path d="M82 118L86.3594 113.384L82 90L77.6406 113.384L82 118Z" fill="#185D6D"/>
<defs>
<clipPath id="clip0_4096_6617">
<rect x="1.74237" y="86.3682" width="24" height="28" rx="1" transform="rotate(-15 1.74237 86.3682)" fill="white"/>
</clipPath>
</defs>
</svg>
