<svg width="150" height="153" viewBox="0 0 150 153" fill="none" xmlns="http://www.w3.org/2000/svg">
<rect x="11.4348" y="59.0292" width="6.95652" height="52.8641" fill="#185D6D"/>
<rect x="53.1739" y="45.8131" width="6.95652" height="66.0801" fill="#185D6D"/>
<rect x="42.7392" y="59.0292" width="6.95652" height="52.8641" fill="#185D6D"/>
<rect x="63.6086" y="66.2379" width="6.95652" height="45.6553" fill="#185D6D"/>
<rect x="74.0435" y="78.2524" width="6.95652" height="33.6408" fill="#185D6D"/>
<rect x="32.3044" y="71.0438" width="6.95652" height="40.8495" fill="#185D6D"/>
<rect x="32.3044" y="71.0438" width="6.95652" height="40.8495" fill="#185D6D"/>
<rect x="1" y="84.2598" width="6.95652" height="27.6335" fill="#185D6D"/>
<rect x="21.8696" y="35" width="6.95652" height="76.8932" fill="#185D6D"/>
<path d="M88 97L88.385 151.744" stroke="black"/>
<path d="M92.6535 152.334C92.6535 153.312 90.7417 152.924 88.3833 152.924C86.025 152.924 84.1132 153.312 84.1132 152.334C84.1132 151.356 86.025 150.563 88.3833 150.563C90.7417 150.563 92.6535 151.356 92.6535 152.334Z" fill="black"/>
<path d="M69.6989 98.621V150.563" stroke="black"/>
<path d="M73.4365 151.744C73.4365 152.722 71.5247 152.334 69.1664 152.334C66.8081 152.334 64.8963 152.722 64.8963 151.744C64.8963 150.766 66.8081 149.973 69.1664 149.973C71.5247 149.973 73.4365 150.766 73.4365 151.744Z" fill="black"/>
<path d="M71.7186 4.52233C76.1389 2.33685 81.1753 2.54262 85.5253 4.8944C87.911 6.18421 90.7027 7.52777 89.7821 10.2821C89.0406 12.5002 86.7471 11.9204 84.6542 12.4061C83.4868 12.6771 82.1908 12.6855 81.6259 13.9901C81.2314 14.9012 81.4546 15.5898 81.6483 16.577C81.8369 17.5382 82.4922 18.5274 83.1493 19.3212H118.282C118.834 19.3212 119.282 19.7689 119.282 20.3212V98.3212C119.282 98.8734 118.834 99.3212 118.282 99.3212H84.5995C84.3225 99.3211 84.0561 99.2075 83.8739 98.9989C83.2033 98.2313 82.4721 97.2055 82.2831 96.2176C82.2621 96.1082 82.2413 96.0026 82.2206 95.9003C82.0701 95.1573 81.9532 94.5813 82.2792 93.8514C82.7218 92.8606 83.6287 92.6974 84.5448 92.5321C84.7278 92.4991 84.9115 92.4654 85.0917 92.4257C85.6142 92.3103 86.1496 92.2655 86.6669 92.2225C88.0701 92.1059 89.3398 92.0005 89.8514 90.5223C90.6804 88.1263 88.3753 86.878 86.2518 85.7284C86.1492 85.6728 86.0466 85.6176 85.9452 85.5624C81.9343 83.3782 77.2744 83.1509 73.1698 85.1161C73.1074 85.146 73.044 85.1765 72.9803 85.2069C70.5645 86.3613 67.3323 87.9062 68.2001 90.5692C68.6871 92.0638 69.9277 92.1062 71.3339 92.1542C72.0771 92.1795 72.8671 92.2063 73.6161 92.4501C73.7136 92.4818 73.8095 92.5124 73.9032 92.5419C74.7172 92.7975 75.3807 93.0054 75.7841 93.8651C76.1356 94.6144 76.006 95.2156 75.8378 95.9979C75.8214 96.0739 75.8046 96.1516 75.788 96.2313C75.5116 97.5528 74.2307 98.5419 72.9852 99.2098C72.8461 99.2844 72.6899 99.3212 72.5321 99.3212H40.2821C39.73 99.321 39.2822 98.8733 39.2821 98.3212V64.1024C39.2821 63.8488 39.3773 63.6031 39.5565 63.4237C40.2166 62.7632 41.0515 62.0932 41.8573 61.91C41.9545 61.8879 42.0486 61.8655 42.1395 61.8436L42.6112 61.7382C43.0643 61.6527 43.4739 61.6483 43.9598 61.91C44.8395 62.3839 44.9836 63.3508 45.1288 64.328C45.1578 64.5233 45.1865 64.7197 45.2216 64.912C45.3231 65.4695 45.3621 66.0408 45.3993 66.5926C45.5002 68.0894 45.5915 69.4436 46.9042 69.9921C49.0321 70.8809 50.146 68.4245 51.1718 66.162C51.2213 66.0526 51.2709 65.9438 51.3202 65.8358C53.2689 61.5626 53.4787 56.5939 51.7401 52.2128L51.66 52.0106C50.6387 49.432 49.2726 45.9818 46.9042 46.9022C45.5749 47.4188 45.5345 48.7414 45.4891 50.2411C45.4652 51.0338 45.4397 51.8762 45.2216 52.6747C45.1932 52.7785 45.1668 52.8806 45.1405 52.9803C44.9118 53.848 44.7248 54.5547 43.9598 54.9833C43.2934 55.3565 42.7601 55.2179 42.0653 55.037C41.9976 55.0194 41.9283 55.0013 41.8573 54.9833C40.785 54.7117 39.961 53.5468 39.3759 52.3339C39.3132 52.2041 39.2822 52.061 39.2821 51.9169V20.3212C39.2821 19.769 39.7299 19.3213 40.2821 19.3212H72.6014C73.5751 18.6315 74.4129 17.7421 74.6307 16.6503C74.8275 15.6641 75.0309 14.9595 74.6083 14.0643C74.1151 13.02 73.2791 12.8638 72.2557 12.536C69.9098 11.7846 67.2111 13.0195 66.3895 10.5282C65.407 7.54811 69.0998 5.8171 71.7186 4.52233Z" fill="#A8E6F1"/>
<ellipse cx="70.6486" cy="41.4337" rx="2.37362" ry="7.5828" fill="black"/>
<ellipse cx="88.6501" cy="41.4337" rx="2.37362" ry="7.5828" fill="black"/>
<path d="M137 97L110 68.4096" stroke="black"/>
<path d="M41.699 71C41.699 71 35.4227 83.0003 33.2401 91.2827C30.2307 102.703 30.8983 121.278 30.8983 121.278" stroke="black"/>
<line y1="-0.3" x2="2.07565" y2="-0.3" transform="matrix(-0.563993 0.82578 -0.83816 -0.545425 30.6055 120.707)" stroke="black" stroke-width="0.6"/>
<line y1="-0.3" x2="2.07671" y2="-0.3" transform="matrix(0.582528 0.812811 -0.825834 0.563913 30.6055 120.707)" stroke="black" stroke-width="0.6"/>
<line y1="-0.35" x2="2.424" y2="-0.35" transform="matrix(-0.00563127 0.999984 -0.999986 -0.00536266 30.7017 120.704)" stroke="black" stroke-width="0.7"/>
<path d="M73.8645 64.1733C66.4185 61.6562 66.0036 61.3289 66.0036 61.3289C66.0036 61.3289 72.6724 66.9997 81.6724 66.4997C87.7758 66.1607 94.5953 63.3275 94.5953 63.3275C94.5953 63.3275 79.3759 66.0365 73.8645 64.1733Z" fill="black"/>
<rect x="22.665" y="118" width="20.5094" height="2.51486" transform="rotate(15.3322 22.665 118)" fill="#185D6D"/>
<path d="M43.9294 125.096L41.6896 125.854L42.3276 123.357L43.9294 125.096Z" fill="#185D6D"/>
<path d="M72.9562 30.6854C73.158 31.4297 71.3704 31.193 69.4143 31.8191C67.4583 32.4453 66.0743 33.6972 65.8725 32.9529C65.6707 32.2086 67.0929 31.0976 69.0489 30.4714C71.005 29.8453 72.7543 29.9411 72.9562 30.6854Z" fill="black"/>
<path d="M92.9438 32.648C92.7788 33.403 91.3354 32.2331 89.3513 31.7214C87.3672 31.2097 85.5939 31.5498 85.7588 30.7948C85.9237 30.0398 87.6658 29.8426 89.6499 30.3544C91.634 30.8661 93.1087 31.893 92.9438 32.648Z" fill="black"/>
<path d="M79.6197 36.3302C77.4434 36.3302 74.8062 34.8657 71.9712 34.0345C68.1847 32.9243 54.6614 31.2594 51.0385 37.9198C48.8117 42.0136 51.9443 54.117 55.064 55.6811C59.4921 57.9013 70.5723 57.1758 72.7763 54.571C75.5942 51.2408 76.5628 41.2501 76.5628 40.1401C76.5628 39.03 77.8459 37.9953 79.6197 37.9954" stroke="#185D6D" stroke-width="3"/>
<path d="M69.9584 34.1101C77.6069 35.7752 75.9967 39.6605 75.5942 45.7659" stroke="#185D6D" stroke-width="2"/>
<path d="M78.5724 39.1054C77.3648 39.1054 77.2044 44.1008 75.9967 47.431" stroke="#185D6D"/>
<path d="M38.0206 34.0053L37.9378 38.9826L50.3065 40.2991L50.5492 37.487L38.0206 34.0053Z" fill="#185D6D"/>
<path d="M75.1034 35.4848C78.2867 39.0358 76.9873 39.6488 75.8998 41.4512" stroke="#185D6D" stroke-width="2"/>
<path d="M79.3803 36.3302C81.5566 36.3302 84.1938 34.8657 87.0288 34.0345C90.8153 32.9243 104.339 31.2594 107.962 37.9198C110.188 42.0136 107.056 54.117 103.936 55.6811C99.5079 57.9013 88.4277 57.1758 86.2237 54.571C83.4058 51.2408 82.4372 41.2501 82.4372 40.1401C82.4372 39.03 81.1541 37.9953 79.3803 37.9954" stroke="#185D6D" stroke-width="3"/>
<path d="M89.0416 34.1101C81.3931 35.7752 83.0033 39.6605 83.4058 45.7659" stroke="#185D6D" stroke-width="2"/>
<path d="M80.4276 39.1054C81.6352 39.1054 81.7956 44.1008 83.0033 47.431" stroke="#185D6D"/>
<path d="M120.979 34.0053L121.062 38.9826L108.694 40.2991L108.451 37.487L120.979 34.0053Z" fill="#185D6D"/>
<path d="M83.8966 35.4848C80.7133 39.0358 82.0127 39.6488 83.1002 41.4512" stroke="#185D6D" stroke-width="2"/>
<rect x="120.19" y="75" width="21.8855" height="24" rx="1" transform="rotate(17.4334 120.19 75)" fill="#185D6D"/>
<rect x="121.197" y="77.4125" width="18.5185" height="4" transform="rotate(17.4334 121.197 77.4125)" fill="#A8E6F1"/>
<path d="M119.4 83.1369L122.612 84.1456L122.013 86.0538L118.801 85.045L119.4 83.1369Z" fill="#A8E6F1"/>
<path d="M123.02 88.4663L126.232 89.4751L125.633 91.3832L122.421 90.3744L123.02 88.4663Z" fill="#A8E6F1"/>
<path d="M127.838 89.9794L131.051 90.9881L130.452 92.8962L127.239 91.8875L127.838 89.9794Z" fill="#A8E6F1"/>
<path d="M132.657 91.4925L135.869 92.5012L135.27 94.4094L132.058 93.4006L132.657 91.4925Z" fill="#A8E6F1"/>
<path d="M129.037 86.1631L132.249 87.1719L131.65 89.08L128.438 88.0713L129.037 86.1631Z" fill="#A8E6F1"/>
<path d="M118.201 86.9531L121.414 87.9619L120.814 89.87L117.602 88.8613L118.201 86.9531Z" fill="#A8E6F1"/>
<path d="M117.003 90.7694L120.215 91.7782L119.616 93.6863L116.404 92.6775L117.003 90.7694Z" fill="#A8E6F1"/>
<path d="M115.805 94.5856L119.017 95.5944L118.418 97.5025L115.205 96.4938L115.805 94.5856Z" fill="#A8E6F1"/>
<path d="M120.623 96.0988L123.835 97.1076L123.236 99.0157L120.024 98.0069L120.623 96.0988Z" fill="#A8E6F1"/>
<path d="M125.442 97.6119L128.654 98.6207L128.055 100.529L124.842 99.5201L125.442 97.6119Z" fill="#A8E6F1"/>
<path d="M130.26 99.125L133.472 100.134L132.873 102.042L129.661 101.033L130.26 99.125Z" fill="#A8E6F1"/>
<path d="M121.821 92.2825L125.034 93.2913L124.435 95.1994L121.222 94.1907L121.821 92.2825Z" fill="#A8E6F1"/>
<path d="M126.64 93.7957L129.852 94.8044L129.253 96.7125L126.041 95.7038L126.64 93.7957Z" fill="#A8E6F1"/>
<path d="M131.458 95.3088L134.671 96.3175L134.072 98.2257L130.859 97.2169L131.458 95.3088Z" fill="#A8E6F1"/>
<path d="M133.855 87.6762L137.068 88.685L136.468 90.5931L133.256 89.5843L133.855 87.6762Z" fill="#A8E6F1"/>
<path d="M124.218 84.65L127.431 85.6588L126.831 87.5669L123.619 86.5582L124.218 84.65Z" fill="#A8E6F1"/>
<line x1="136.723" y1="97.416" x2="130.723" y2="93.416" stroke="black"/>
</svg>
