<svg width="151" height="153" viewBox="0 0 151 153" fill="none" xmlns="http://www.w3.org/2000/svg">
<path d="M88 97L88.385 151.744" stroke="black"/>
<path d="M92.6535 152.334C92.6535 153.312 90.7417 152.924 88.3833 152.924C86.025 152.924 84.1132 153.312 84.1132 152.334C84.1132 151.356 86.025 150.563 88.3833 150.563C90.7417 150.563 92.6535 151.356 92.6535 152.334Z" fill="black"/>
<path d="M54.9367 2.46556L57.196 2.77167L57.0059 4.17485C57.6748 4.36235 58.3398 4.63812 59.0009 5.00218C59.6642 5.35037 60.3134 5.80163 60.9488 6.35595L58.6437 8.17494C58.3502 7.95758 58.0308 7.75284 57.6855 7.56074C57.3401 7.36863 56.9826 7.20717 56.6128 7.07634L56.0779 11.0243C56.9884 11.4544 57.7498 11.9128 58.362 12.3994C58.9922 12.8723 59.4398 13.4415 59.7049 14.1071C59.9699 14.7727 60.0358 15.597 59.9027 16.5801C59.7867 17.4362 59.4811 18.2021 58.9859 18.8778C58.5087 19.5397 57.897 20.0623 57.1508 20.4456C56.4046 20.8289 55.5937 21.0339 54.7182 21.0606L54.5313 22.44L52.2719 22.1339L52.4653 20.7069C51.6169 20.4144 50.8174 19.9993 50.0667 19.4616C49.3341 18.9103 48.7449 18.3138 48.299 17.6721L50.6928 15.9135C50.9648 16.2895 51.2897 16.6322 51.6675 16.9417C52.0634 17.2375 52.4657 17.4858 52.8745 17.6865L53.506 13.0251C52.5501 12.5727 51.7592 12.0941 51.1333 11.5895C50.5095 11.0691 50.082 10.4703 49.8508 9.7931C49.6197 9.11593 49.6262 8.29336 49.8703 7.32537C50.1763 6.13972 50.7707 5.26763 51.6537 4.70912C52.5388 4.13475 53.5698 3.85463 54.7465 3.86874L54.9367 2.46556ZM52.6727 8.09256C52.5924 8.56606 52.6619 8.94684 52.8812 9.23489C53.1185 9.50924 53.4632 9.76583 53.9152 10.0047L54.3534 6.77023C53.9262 6.82537 53.5527 6.96045 53.2329 7.17546C52.9311 7.37677 52.7444 7.68247 52.6727 8.09256ZM57.0487 16.1934C57.1089 15.7495 57.003 15.3395 56.731 14.9636C56.477 14.574 56.124 14.2597 55.6719 14.0209L55.1306 18.0164C55.6436 17.9244 56.0754 17.7165 56.4261 17.3927C56.7789 17.053 56.9864 16.6532 57.0487 16.1934Z" fill="#185D6D"/>
<path d="M8.48118 32.247L10.7162 31.7964L10.9961 33.1844C11.6895 33.1426 12.4081 33.1854 13.152 33.3129C13.8927 33.4247 14.654 33.6384 15.4358 33.9541L13.8534 36.4277C13.505 36.3184 13.1361 36.2295 12.7469 36.1611C12.3577 36.0927 11.967 36.0572 11.5748 36.0547L12.3622 39.9601C13.3633 40.0683 14.2328 40.2521 14.9706 40.5114C15.7209 40.7519 16.3303 41.1432 16.7987 41.6853C17.2671 42.2274 17.5993 42.9847 17.7953 43.9571C17.9661 44.8041 17.9282 45.6278 17.6815 46.4283C17.4474 47.21 17.0406 47.9041 16.461 48.5106C15.8814 49.1172 15.1824 49.5764 14.3639 49.8883L14.639 51.2528L12.404 51.7035L12.1194 50.2919C11.222 50.2933 10.3306 50.1629 9.44533 49.9007C8.57257 49.6196 7.82047 49.249 7.18905 48.7887L8.87497 46.3432C9.25507 46.6093 9.67431 46.8268 10.1327 46.9955C10.6036 47.1454 11.065 47.2482 11.517 47.304L10.5873 42.6928C9.53591 42.5783 8.6319 42.3852 7.87525 42.1134C7.11544 41.8259 6.51545 41.4001 6.07527 40.8359C5.63509 40.2718 5.37186 39.4924 5.28559 38.4979C5.18642 37.2774 5.46253 36.2587 6.11393 35.4419C6.76218 34.6093 7.64455 34.0071 8.76105 33.6351L8.48118 32.247ZM8.18468 38.3051C8.26386 38.7788 8.45423 39.1158 8.75577 39.3162C9.06984 39.4977 9.47954 39.6273 9.98485 39.7049L9.33974 36.5053C8.95409 36.6973 8.6454 36.9472 8.41367 37.2551C8.19447 37.5441 8.11814 37.8941 8.18468 38.3051ZM14.9721 44.5263C14.8836 44.0871 14.6493 43.7345 14.2692 43.4684C13.9016 43.1834 13.4652 43.0021 12.9599 42.9244L13.7568 46.8769C14.2113 46.622 14.5513 46.2842 14.7765 45.8633C14.9987 45.4268 15.0639 44.9812 14.9721 44.5263Z" fill="#185D6D"/>
<path d="M69.6989 98.621V150.563" stroke="black"/>
<path d="M73.4365 151.744C73.4365 152.722 71.5247 152.334 69.1664 152.334C66.8081 152.334 64.8963 152.722 64.8963 151.744C64.8963 150.766 66.8081 149.973 69.1664 149.973C71.5247 149.973 73.4365 150.766 73.4365 151.744Z" fill="black"/>
<path d="M71.7186 4.52233C76.1389 2.33685 81.1753 2.54262 85.5253 4.8944C87.911 6.18421 90.7027 7.52777 89.7821 10.2821C89.0406 12.5002 86.7471 11.9204 84.6542 12.4061C83.4868 12.6771 82.1908 12.6855 81.6259 13.9901C81.2314 14.9012 81.4546 15.5898 81.6483 16.577C81.8369 17.5382 82.4922 18.5274 83.1493 19.3212H118.282C118.834 19.3212 119.282 19.7689 119.282 20.3212V98.3212C119.282 98.8734 118.834 99.3212 118.282 99.3212H84.5995C84.3225 99.3211 84.0561 99.2075 83.8739 98.9989C83.2033 98.2313 82.4721 97.2055 82.2831 96.2176C82.2621 96.1082 82.2413 96.0026 82.2206 95.9003C82.0701 95.1573 81.9532 94.5813 82.2792 93.8514C82.7218 92.8606 83.6287 92.6974 84.5448 92.5321C84.7278 92.4991 84.9115 92.4654 85.0917 92.4257C85.6142 92.3103 86.1496 92.2655 86.6669 92.2225C88.0701 92.1059 89.3398 92.0005 89.8514 90.5223C90.6804 88.1263 88.3753 86.878 86.2518 85.7284C86.1492 85.6728 86.0466 85.6176 85.9452 85.5624C81.9343 83.3782 77.2744 83.1509 73.1698 85.1161C73.1074 85.146 73.044 85.1765 72.9803 85.2069C70.5645 86.3613 67.3323 87.9062 68.2001 90.5692C68.6871 92.0638 69.9277 92.1062 71.3339 92.1542C72.0771 92.1795 72.8671 92.2063 73.6161 92.4501C73.7136 92.4818 73.8095 92.5124 73.9032 92.5419C74.7172 92.7975 75.3807 93.0054 75.7841 93.8651C76.1356 94.6144 76.006 95.2156 75.8378 95.9979C75.8214 96.0739 75.8046 96.1516 75.788 96.2313C75.5116 97.5528 74.2307 98.5419 72.9852 99.2098C72.8461 99.2844 72.6899 99.3212 72.5321 99.3212H40.2821C39.73 99.321 39.2822 98.8733 39.2821 98.3212V64.1024C39.2821 63.8488 39.3773 63.6031 39.5565 63.4237C40.2166 62.7632 41.0515 62.0932 41.8573 61.91C41.9545 61.8879 42.0486 61.8655 42.1395 61.8436L42.6112 61.7382C43.0643 61.6527 43.4739 61.6483 43.9598 61.91C44.8395 62.3839 44.9836 63.3508 45.1288 64.328C45.1578 64.5233 45.1865 64.7197 45.2216 64.912C45.3231 65.4695 45.3621 66.0408 45.3993 66.5926C45.5002 68.0894 45.5915 69.4436 46.9042 69.9921C49.0321 70.8809 50.146 68.4245 51.1718 66.162C51.2213 66.0526 51.2709 65.9438 51.3202 65.8358C53.2689 61.5626 53.4787 56.5939 51.7401 52.2128L51.66 52.0106C50.6387 49.432 49.2726 45.9818 46.9042 46.9022C45.5749 47.4188 45.5345 48.7414 45.4891 50.2411C45.4652 51.0338 45.4397 51.8762 45.2216 52.6747C45.1932 52.7785 45.1668 52.8806 45.1405 52.9803C44.9118 53.848 44.7248 54.5547 43.9598 54.9833C43.2934 55.3565 42.7601 55.2179 42.0653 55.037C41.9976 55.0194 41.9283 55.0013 41.8573 54.9833C40.785 54.7117 39.961 53.5468 39.3759 52.3339C39.3132 52.2041 39.2822 52.061 39.2821 51.9169V20.3212C39.2821 19.769 39.7299 19.3213 40.2821 19.3212H72.6014C73.5751 18.6315 74.4129 17.7421 74.6307 16.6503C74.8275 15.6641 75.0309 14.9595 74.6083 14.0643C74.1151 13.02 73.2791 12.8638 72.2557 12.536C69.9098 11.7846 67.2111 13.0195 66.3895 10.5282C65.407 7.54811 69.0998 5.8171 71.7186 4.52233Z" fill="#A8E6F1"/>
<ellipse cx="70.6486" cy="41.4337" rx="2.37362" ry="7.5828" fill="black"/>
<path d="M72.9562 30.6854C73.158 31.4297 71.3704 31.193 69.4143 31.8191C67.4583 32.4453 66.0743 33.6972 65.8725 32.9529C65.6707 32.2086 67.0929 31.0976 69.0489 30.4714C71.005 29.8453 72.7544 29.9411 72.9562 30.6854Z" fill="black"/>
<path d="M93.2583 28.2202C93.0934 28.9752 91.6499 27.8053 89.6658 27.2936C87.6817 26.7819 85.9084 27.122 86.0733 26.367C86.2382 25.612 87.9804 25.4148 89.9644 25.9266C91.9485 26.4383 93.4232 27.4652 93.2583 28.2202Z" fill="black"/>
<ellipse cx="88.6501" cy="41.4337" rx="2.37362" ry="7.5828" fill="black"/>
<path d="M51.4547 76.0424C51.4547 76.0424 30.5 88.4999 23.336 86.3852C11.2488 82.8173 6.5 66.5 6.5 66.5" stroke="black"/>
<path d="M7.73005 64.851L6.49999 67" stroke="black" stroke-width="0.6"/>
<path d="M6.5 67L5.25023 64.8345" stroke="black" stroke-width="0.6"/>
<path d="M6.74948 67.123L4.49999 66.22" stroke="black" stroke-width="0.7"/>
<path d="M116.794 92.2371C116.794 87.3365 115.439 86 123.12 86" stroke="#185D6D" stroke-width="3"/>
<path d="M129.445 92.2371C129.445 87.3365 130.801 86 123.119 86" stroke="#185D6D" stroke-width="3"/>
<path d="M99.4393 98.62C99.4393 96.9631 100.782 95.62 102.439 95.62H145.225C146.882 95.62 148.225 96.9631 148.225 98.62V120C148.225 121.657 146.882 123 145.225 123H102.439C100.782 123 99.4393 121.657 99.4393 120V98.62Z" fill="#185D6D"/>
<path d="M97.3333 94.1347C97.3581 92.4957 98.6938 91.18 100.333 91.18H147.289C148.946 91.18 150.289 92.5231 150.289 94.18V114.356C150.289 115.492 149.643 116.541 148.611 117.016C126.075 127.398 104.674 119.607 98.6652 116.986C97.6259 116.533 97.0108 115.495 97.0279 114.361L97.3333 94.1347Z" fill="#185D6D"/>
<path d="M119 117C119 116.448 119.448 116 120 116H127.007C127.559 116 128.007 116.448 128.007 117V119.44C128.007 119.992 127.559 120.44 127.007 120.44H120C119.448 120.44 119 119.992 119 119.44V117Z" fill="#A8E6F1"/>
<path d="M115 62.5001C115 62.5001 120.791 62.3727 123.5 70.5C125 75 125 85 125 85" stroke="black"/>
<line y1="-0.3" x2="2.07565" y2="-0.3" transform="matrix(0.563993 0.82578 0.83816 -0.545425 125.21 85.0032)" stroke="black" stroke-width="0.6"/>
<line y1="-0.3" x2="2.07671" y2="-0.3" transform="matrix(-0.582528 0.812811 0.825834 0.563913 125.21 85.0032)" stroke="black" stroke-width="0.6"/>
<line y1="-0.35" x2="2.424" y2="-0.35" transform="matrix(0.00563127 0.999984 0.999986 -0.00536266 125.114 85)" stroke="black" stroke-width="0.7"/>
<path d="M27.0355 8.80476L31.5665 8.29104L31.8855 11.105C33.2744 11.1408 34.699 11.3496 36.1593 11.7315C37.616 12.0817 39.0962 12.6384 40.5997 13.4019L37.0216 18.0587C36.346 17.781 35.6263 17.5406 34.8626 17.3373C34.0988 17.1341 33.3264 16.9962 32.5452 16.9237L33.4429 24.841C35.4191 25.2288 37.1201 25.7445 38.5456 26.388C39.9994 26.9961 41.1463 27.8805 41.9865 29.0413C42.8266 30.202 43.3584 31.7681 43.5819 33.7394C43.7766 35.4564 43.5594 37.0913 42.9303 38.6441C42.3294 40.1614 41.3994 41.4745 40.1403 42.5834C38.8812 43.6924 37.4094 44.4872 35.7249 44.9681L36.0385 47.7343L31.5075 48.2481L31.1831 45.3864C29.3946 45.2349 27.6409 44.8218 25.922 44.1472C24.2312 43.4372 22.7963 42.5693 21.6173 41.5436L25.397 36.9606C26.1086 37.5562 26.9066 38.0615 27.791 38.4765C28.7036 38.8561 29.6054 39.1404 30.4963 39.3292L29.4364 29.9811C27.3612 29.5723 25.593 29.032 24.1321 28.3603C22.6675 27.6569 21.5452 26.7052 20.765 25.5055C19.9849 24.3057 19.5944 22.7076 19.5934 20.711C19.6056 18.262 20.3309 16.2797 21.7693 14.764C23.2041 13.2165 25.0659 12.1681 27.3545 11.6187L27.0355 8.80476ZM25.4033 20.8252C25.4796 21.7827 25.801 22.4869 26.3674 22.938C26.9621 23.3536 27.7561 23.6823 28.7497 23.9239L28.0143 17.4374C27.2128 17.7538 26.5547 18.1987 26.0401 18.7724C25.5536 19.3106 25.3413 19.9949 25.4033 20.8252ZM37.8586 34.3883C37.7576 33.498 37.3513 32.7551 36.6397 32.1595C35.9563 31.5284 35.1178 31.0921 34.1242 30.8505L35.0327 38.8632C35.9823 38.4335 36.7177 37.8187 37.239 37.0189C37.7566 36.1873 37.9631 35.3104 37.8586 34.3883Z" fill="#185D6D"/>
<path d="M73.4771 62.6461C66.7774 58.5361 66.4457 58.1248 66.4457 58.1248C66.4457 58.1248 70.3789 67.4978 79.2647 69.0118C85.2906 70.0385 93.8769 66.4318 93.8769 66.4318C93.8769 66.4318 78.4362 65.6883 73.4771 62.6461Z" fill="black"/>
</svg>
