<svg width="150" height="153" viewBox="0 0 150 153" fill="none" xmlns="http://www.w3.org/2000/svg">
<path d="M4.41932 73.0684L8.16053 49.3988L23.0242 61.0744L36.1677 27.769L49.4178 33.1481L57.4184 12" stroke="#185D6D" stroke-width="5"/>
<path d="M88 97L88.385 151.744" stroke="black"/>
<path d="M92.6535 152.334C92.6535 153.312 90.7417 152.924 88.3833 152.924C86.025 152.924 84.1132 153.312 84.1132 152.334C84.1132 151.356 86.025 150.563 88.3833 150.563C90.7417 150.563 92.6535 151.356 92.6535 152.334Z" fill="black"/>
<path d="M69.6989 98.621V150.563" stroke="black"/>
<path d="M73.4365 151.744C73.4365 152.722 71.5247 152.334 69.1664 152.334C66.808 152.334 64.8962 152.722 64.8962 151.744C64.8962 150.766 66.808 149.973 69.1664 149.973C71.5247 149.973 73.4365 150.766 73.4365 151.744Z" fill="black"/>
<path d="M71.7186 4.52233C76.1389 2.33685 81.1753 2.54262 85.5253 4.8944C87.911 6.18421 90.7027 7.52777 89.7821 10.2821C89.0406 12.5002 86.7471 11.9204 84.6542 12.4061C83.4868 12.6771 82.1908 12.6855 81.6259 13.9901C81.2314 14.9012 81.4546 15.5898 81.6483 16.577C81.8369 17.5382 82.4922 18.5274 83.1493 19.3212H118.282C118.834 19.3212 119.282 19.7689 119.282 20.3212V98.3212C119.282 98.8734 118.834 99.3212 118.282 99.3212H84.5995C84.3225 99.3211 84.0561 99.2075 83.8739 98.9989C83.2033 98.2313 82.4721 97.2055 82.2831 96.2176C82.2621 96.1082 82.2413 96.0026 82.2206 95.9003C82.0701 95.1573 81.9532 94.5813 82.2792 93.8514C82.7218 92.8606 83.6287 92.6974 84.5448 92.5321C84.7278 92.4991 84.9115 92.4654 85.0917 92.4257C85.6142 92.3103 86.1496 92.2655 86.6669 92.2225C88.0701 92.1059 89.3398 92.0005 89.8514 90.5223C90.6804 88.1263 88.3753 86.878 86.2518 85.7284C86.1492 85.6728 86.0466 85.6176 85.9452 85.5624C81.9343 83.3782 77.2744 83.1509 73.1698 85.1161C73.1074 85.146 73.044 85.1765 72.9803 85.2069C70.5645 86.3613 67.3323 87.9062 68.2001 90.5692C68.6871 92.0638 69.9277 92.1062 71.3339 92.1542C72.0771 92.1795 72.8671 92.2063 73.6161 92.4501C73.7136 92.4818 73.8095 92.5124 73.9032 92.5419C74.7172 92.7975 75.3807 93.0054 75.7841 93.8651C76.1356 94.6144 76.006 95.2156 75.8378 95.9979C75.8214 96.0739 75.8046 96.1516 75.788 96.2313C75.5116 97.5528 74.2307 98.5419 72.9852 99.2098C72.8461 99.2844 72.6899 99.3212 72.5321 99.3212H40.2821C39.73 99.321 39.2822 98.8733 39.2821 98.3212V64.1024C39.2821 63.8488 39.3773 63.6031 39.5565 63.4237C40.2166 62.7632 41.0515 62.0932 41.8573 61.91C41.9545 61.8879 42.0486 61.8655 42.1395 61.8436L42.6112 61.7382C43.0643 61.6527 43.4739 61.6483 43.9598 61.91C44.8395 62.3839 44.9836 63.3508 45.1288 64.328C45.1578 64.5233 45.1865 64.7197 45.2216 64.912C45.3231 65.4695 45.3621 66.0408 45.3993 66.5926C45.5002 68.0894 45.5915 69.4436 46.9042 69.9921C49.0321 70.8809 50.146 68.4245 51.1718 66.162C51.2213 66.0526 51.2709 65.9438 51.3202 65.8358C53.2689 61.5626 53.4787 56.5939 51.7401 52.2128L51.66 52.0106C50.6387 49.432 49.2726 45.9818 46.9042 46.9022C45.5749 47.4188 45.5345 48.7414 45.4891 50.2411C45.4652 51.0338 45.4397 51.8762 45.2216 52.6747C45.1932 52.7785 45.1668 52.8806 45.1405 52.9803C44.9118 53.848 44.7248 54.5547 43.9598 54.9833C43.2934 55.3565 42.7601 55.2179 42.0653 55.037C41.9976 55.0194 41.9283 55.0013 41.8573 54.9833C40.785 54.7117 39.961 53.5468 39.3759 52.3339C39.3132 52.2041 39.2822 52.061 39.2821 51.9169V20.3212C39.2821 19.769 39.7299 19.3213 40.2821 19.3212H72.6014C73.5751 18.6315 74.4129 17.7421 74.6307 16.6503C74.8275 15.6641 75.0309 14.9595 74.6083 14.0643C74.1151 13.02 73.2791 12.8638 72.2557 12.536C69.9098 11.7846 67.2111 13.0195 66.3895 10.5282C65.407 7.54811 69.0998 5.8171 71.7186 4.52233Z" fill="#A8E6F1"/>
<ellipse cx="70.6486" cy="41.4337" rx="2.37362" ry="7.5828" fill="black"/>
<path d="M72.9562 30.6854C73.158 31.4297 71.3704 31.193 69.4143 31.8191C67.4583 32.4453 66.0743 33.6972 65.8725 32.9529C65.6707 32.2086 67.0929 31.0976 69.0489 30.4714C71.005 29.8453 72.7543 29.9411 72.9562 30.6854Z" fill="black"/>
<path d="M92.9438 32.648C92.7788 33.403 91.3354 32.2331 89.3513 31.7214C87.3672 31.2097 85.5939 31.5498 85.7588 30.7948C85.9237 30.0398 87.6658 29.8426 89.6499 30.3544C91.634 30.8661 93.1087 31.893 92.9438 32.648Z" fill="black"/>
<ellipse cx="88.6501" cy="41.4337" rx="2.37362" ry="7.5828" fill="black"/>
<path d="M64.78 58.866C64.4482 58.5954 64.5694 58.4634 64.5694 58.4634C64.5694 58.4634 64.641 58.6072 64.78 58.866C65.3185 59.3052 67.0503 60.1097 72.4302 61.3077C78.0743 62.5646 93.1611 60.4619 93.1611 60.4619C93.1611 60.4619 85.2425 73.7064 79.2188 72.365C71.4773 70.641 65.9083 60.967 64.78 58.866Z" fill="black"/>
<path d="M116.898 66C116.898 66 133.317 63.7176 135.5 72C138.509 83.4202 116.898 91 116.898 91" stroke="black"/>
<line y1="-0.3" x2="2.07565" y2="-0.3" transform="matrix(0.0951027 0.995467 0.997342 -0.0728651 117.486 90.8215)" stroke="black" stroke-width="0.6"/>
<path d="M118 90.5L114.706 90.2387" stroke="black" stroke-width="0.6"/>
<path d="M117 90.7167L115.038 92.1407" stroke="black" stroke-width="0.7"/>
<path d="M41.5 77.5C41.5 77.5 25.1826 73.7824 23 65.5C19.9905 54.0798 20.5 34 20.5 34" stroke="black"/>
<line y1="-0.3" x2="2.07565" y2="-0.3" transform="matrix(-0.563993 -0.82578 -0.83816 0.545425 20.1707 34.7141)" stroke="black" stroke-width="0.6"/>
<line y1="-0.3" x2="2.07671" y2="-0.3" transform="matrix(0.582528 -0.812811 -0.825834 -0.563913 20 34.688)" stroke="black" stroke-width="0.6"/>
<path d="M20.5137 34.424L20.5 32" stroke="black" stroke-width="0.7"/>
<path d="M78.9243 74.8661L83.0022 77.0022L79 85L74.6752 77.3248L78.9243 74.8661Z" fill="#185D6D"/>
<path d="M79 107L83.3594 102.384L79 79L74.6406 102.384L79 107Z" fill="#185D6D"/>
<path d="M50 11.5L57 8L59 15L50 11.5Z" stroke="#185D6D" stroke-width="5"/>
</svg>
