<svg width="151" height="153" viewBox="0 0 151 153" fill="none" xmlns="http://www.w3.org/2000/svg">
<path d="M88 97L88.385 151.744" stroke="black"/>
<path d="M92.6535 152.334C92.6535 153.312 90.7417 152.924 88.3833 152.924C86.025 152.924 84.1132 153.312 84.1132 152.334C84.1132 151.356 86.025 150.563 88.3833 150.563C90.7417 150.563 92.6535 151.356 92.6535 152.334Z" fill="black"/>
<path d="M69.6989 98.621V150.563" stroke="black"/>
<path d="M73.4365 151.744C73.4365 152.722 71.5247 152.334 69.1664 152.334C66.808 152.334 64.8962 152.722 64.8962 151.744C64.8962 150.766 66.808 149.973 69.1664 149.973C71.5247 149.973 73.4365 150.766 73.4365 151.744Z" fill="black"/>
<path d="M71.7186 4.52233C76.1389 2.33685 81.1753 2.54262 85.5253 4.8944C87.911 6.18421 90.7027 7.52777 89.7821 10.2821C89.0406 12.5002 86.7471 11.9204 84.6542 12.4061C83.4868 12.6771 82.1908 12.6855 81.6259 13.9901C81.2314 14.9012 81.4546 15.5898 81.6483 16.577C81.8369 17.5382 82.4922 18.5274 83.1493 19.3212H118.282C118.834 19.3212 119.282 19.7689 119.282 20.3212V98.3212C119.282 98.8734 118.834 99.3212 118.282 99.3212H84.5995C84.3225 99.3211 84.0561 99.2075 83.8739 98.9989C83.2033 98.2313 82.4721 97.2055 82.2831 96.2176C82.2621 96.1082 82.2413 96.0026 82.2206 95.9003C82.0701 95.1573 81.9532 94.5813 82.2792 93.8514C82.7218 92.8606 83.6287 92.6974 84.5448 92.5321C84.7278 92.4991 84.9115 92.4654 85.0917 92.4257C85.6142 92.3103 86.1496 92.2655 86.6669 92.2225C88.0701 92.1059 89.3398 92.0005 89.8514 90.5223C90.6804 88.1263 88.3753 86.878 86.2518 85.7284C86.1492 85.6728 86.0466 85.6176 85.9452 85.5624C81.9343 83.3782 77.2744 83.1509 73.1698 85.1161C73.1074 85.146 73.044 85.1765 72.9803 85.2069C70.5645 86.3613 67.3323 87.9062 68.2001 90.5692C68.6871 92.0638 69.9277 92.1062 71.3339 92.1542C72.0771 92.1795 72.8671 92.2063 73.6161 92.4501C73.7136 92.4818 73.8095 92.5124 73.9032 92.5419C74.7172 92.7975 75.3807 93.0054 75.7841 93.8651C76.1356 94.6144 76.006 95.2156 75.8378 95.9979C75.8214 96.0739 75.8046 96.1516 75.788 96.2313C75.5116 97.5528 74.2307 98.5419 72.9852 99.2098C72.8461 99.2844 72.6899 99.3212 72.5321 99.3212H40.2821C39.73 99.321 39.2822 98.8733 39.2821 98.3212V64.1024C39.2821 63.8488 39.3773 63.6031 39.5565 63.4237C40.2166 62.7632 41.0515 62.0932 41.8573 61.91C41.9545 61.8879 42.0486 61.8655 42.1395 61.8436L42.6112 61.7382C43.0643 61.6527 43.4739 61.6483 43.9598 61.91C44.8395 62.3839 44.9836 63.3508 45.1288 64.328C45.1578 64.5233 45.1865 64.7197 45.2216 64.912C45.3231 65.4695 45.3621 66.0408 45.3993 66.5926C45.5002 68.0894 45.5915 69.4436 46.9042 69.9921C49.0321 70.8809 50.146 68.4245 51.1718 66.162C51.2213 66.0526 51.2709 65.9438 51.3202 65.8358C53.2689 61.5626 53.4787 56.5939 51.7401 52.2128L51.66 52.0106C50.6387 49.432 49.2726 45.9818 46.9042 46.9022C45.5749 47.4188 45.5345 48.7414 45.4891 50.2411C45.4652 51.0338 45.4397 51.8762 45.2216 52.6747C45.1932 52.7785 45.1668 52.8806 45.1405 52.9803C44.9118 53.848 44.7248 54.5547 43.9598 54.9833C43.2934 55.3565 42.7601 55.2179 42.0653 55.037C41.9976 55.0194 41.9283 55.0013 41.8573 54.9833C40.785 54.7117 39.961 53.5468 39.3759 52.3339C39.3132 52.2041 39.2822 52.061 39.2821 51.9169V20.3212C39.2821 19.769 39.7299 19.3213 40.2821 19.3212H72.6014C73.5751 18.6315 74.4129 17.7421 74.6307 16.6503C74.8275 15.6641 75.0309 14.9595 74.6083 14.0643C74.1151 13.02 73.2791 12.8638 72.2557 12.536C69.9098 11.7846 67.2111 13.0195 66.3895 10.5282C65.407 7.54811 69.0998 5.8171 71.7186 4.52233Z" fill="#A8E6F1"/>
<ellipse cx="70.6486" cy="41.4337" rx="2.37362" ry="7.5828" fill="black"/>
<path d="M72.9562 30.6854C73.158 31.4297 71.3704 31.193 69.4143 31.8191C67.4583 32.4453 66.0743 33.6972 65.8725 32.9529C65.6707 32.2086 67.0929 31.0976 69.0489 30.4714C71.005 29.8453 72.7544 29.9411 72.9562 30.6854Z" fill="black"/>
<path d="M93.2583 28.2202C93.0934 28.9752 91.6499 27.8053 89.6658 27.2936C87.6817 26.7819 85.9084 27.122 86.0733 26.367C86.2382 25.612 87.9804 25.4148 89.9644 25.9266C91.9485 26.4383 93.4232 27.4652 93.2583 28.2202Z" fill="black"/>
<ellipse cx="88.6501" cy="41.4337" rx="2.37362" ry="7.5828" fill="black"/>
<path d="M51.4547 76.0424C51.4547 76.0424 42.0124 100.5 33.5 100.5C27.4999 100.5 16 99 16 99" stroke="black"/>
<path d="M13.9346 96.4007L16.3228 99.3066" stroke="black" stroke-linecap="round"/>
<path d="M16.3344 99.2435L13.0362 98.6598" stroke="black" stroke-linecap="round"/>
<path d="M16.3308 99.2632L13 100.923" stroke="black" stroke-linecap="round"/>
<path d="M73.4771 62.6461C66.7774 58.5361 66.4457 58.1248 66.4457 58.1248C66.4457 58.1248 70.3789 67.4978 79.2647 69.0118C85.2906 70.0385 93.8769 66.4318 93.8769 66.4318C93.8769 66.4318 78.4362 65.6883 73.4771 62.6461Z" fill="black"/>
<path d="M78.9243 74.8661L83.0022 77.0022L79 85L74.6752 77.3248L78.9243 74.8661Z" fill="#185D6D"/>
<path d="M79 107L83.3594 102.384L79 79L74.6406 102.384L79 107Z" fill="#185D6D"/>
<ellipse cx="43.5" cy="44" rx="8.5" ry="13" fill="#185D6D"/>
<path d="M127 46C127 53.1797 123.194 59 118.5 59C113.806 59 110 53.1797 110 46C110 38.8203 113.806 33 118.5 33C123.194 33 127 38.8203 127 46Z" fill="#185D6D"/>
<path d="M43 41C43 41 43 33 43 20.5C43 8 50.5 8 62.5 8C74.5 8 80 8 90 8C100 8 116.5 8 116.5 20.5C116.5 33 116.5 41 116.5 41" stroke="#185D6D" stroke-width="3"/>
<path d="M89 72C99 72 115.5 72 115.5 59.5C115.5 47 115.5 39 115.5 39" stroke="#185D6D" stroke-width="3"/>
<circle cx="87.5" cy="71.5" r="3.5" fill="#185D6D"/>
<path d="M116.794 92.2371C116.794 87.3365 115.439 86 123.12 86" stroke="#185D6D" stroke-width="3"/>
<path d="M129.445 92.2371C129.445 87.3365 130.801 86 123.119 86" stroke="#185D6D" stroke-width="3"/>
<path d="M99.4393 98.62C99.4393 96.9631 100.782 95.62 102.439 95.62H145.225C146.882 95.62 148.225 96.9631 148.225 98.62V120C148.225 121.657 146.882 123 145.225 123H102.439C100.782 123 99.4393 121.657 99.4393 120V98.62Z" fill="#185D6D"/>
<path d="M97.3333 94.1347C97.3581 92.4957 98.6938 91.18 100.333 91.18H147.289C148.946 91.18 150.289 92.5231 150.289 94.18V114.356C150.289 115.492 149.643 116.541 148.611 117.016C126.075 127.398 104.674 119.607 98.6652 116.986C97.6259 116.533 97.0108 115.495 97.0279 114.361L97.3333 94.1347Z" fill="#185D6D"/>
<path d="M119 117C119 116.448 119.448 116 120 116H127.007C127.559 116 128.007 116.448 128.007 117V119.44C128.007 119.992 127.559 120.44 127.007 120.44H120C119.448 120.44 119 119.992 119 119.44V117Z" fill="#A8E6F1"/>
<path d="M115 62.5001C115 62.5001 120.791 62.3727 123.5 70.5C125 75 125 85 125 85" stroke="black"/>
<line y1="-0.3" x2="2.07565" y2="-0.3" transform="matrix(0.563993 0.82578 0.83816 -0.545425 125.21 85.0032)" stroke="black" stroke-width="0.6"/>
<line y1="-0.3" x2="2.07671" y2="-0.3" transform="matrix(-0.582528 0.812811 0.825834 0.563913 125.21 85.0032)" stroke="black" stroke-width="0.6"/>
<line y1="-0.35" x2="2.424" y2="-0.35" transform="matrix(0.00563127 0.999984 0.999986 -0.00536266 125.114 85)" stroke="black" stroke-width="0.7"/>
</svg>
