<svg width="150" height="150" viewBox="0 0 150 150" fill="none" xmlns="http://www.w3.org/2000/svg">
<path d="M88 94L88.385 148.744" stroke="black"/>
<path d="M92.6535 149.334C92.6535 150.312 90.7417 149.924 88.3833 149.924C86.025 149.924 84.1132 150.312 84.1132 149.334C84.1132 148.356 86.025 147.563 88.3833 147.563C90.7417 147.563 92.6535 148.356 92.6535 149.334Z" fill="black"/>
<path d="M69.6989 95.6211V147.563" stroke="black"/>
<path d="M73.4365 148.744C73.4365 149.722 71.5247 149.334 69.1664 149.334C66.808 149.334 64.8962 149.722 64.8962 148.744C64.8962 147.766 66.808 146.973 69.1664 146.973C71.5247 146.973 73.4365 147.766 73.4365 148.744Z" fill="black"/>
<path d="M71.7186 1.52233C76.1389 -0.663151 81.1753 -0.457383 85.5253 1.8944C87.911 3.18421 90.7027 4.52777 89.7821 7.2821C89.0406 9.50024 86.7471 8.92042 84.6542 9.40612C83.4868 9.6771 82.1908 9.68547 81.6259 10.9901C81.2314 11.9012 81.4546 12.5898 81.6483 13.577C81.8369 14.5382 82.4922 15.5274 83.1493 16.3212H118.282C118.834 16.3212 119.282 16.7689 119.282 17.3212V95.3212C119.282 95.8734 118.834 96.3212 118.282 96.3212H84.5995C84.3225 96.3211 84.0561 96.2075 83.8739 95.9989C83.2033 95.2313 82.4721 94.2055 82.2831 93.2176C82.2621 93.1082 82.2413 93.0026 82.2206 92.9003C82.0701 92.1573 81.9532 91.5813 82.2792 90.8514C82.7218 89.8606 83.6287 89.6974 84.5448 89.5321C84.7278 89.4991 84.9115 89.4654 85.0917 89.4257C85.6142 89.3103 86.1496 89.2655 86.6669 89.2225C88.0701 89.1059 89.3398 89.0005 89.8514 87.5223C90.6804 85.1263 88.3753 83.878 86.2518 82.7284C86.1492 82.6728 86.0466 82.6176 85.9452 82.5624C81.9343 80.3782 77.2744 80.1509 73.1698 82.1161C73.1074 82.146 73.044 82.1765 72.9803 82.2069C70.5645 83.3613 67.3323 84.9062 68.2001 87.5692C68.6871 89.0638 69.9277 89.1062 71.3339 89.1542C72.0771 89.1795 72.8671 89.2063 73.6161 89.4501C73.7136 89.4818 73.8095 89.5124 73.9032 89.5419C74.7172 89.7975 75.3807 90.0054 75.7841 90.8651C76.1356 91.6144 76.006 92.2156 75.8378 92.9979C75.8214 93.0739 75.8046 93.1516 75.788 93.2313C75.5116 94.5528 74.2307 95.5419 72.9852 96.2098C72.8461 96.2844 72.6899 96.3212 72.5321 96.3212H40.2821C39.73 96.321 39.2822 95.8733 39.2821 95.3212V61.1024C39.2821 60.8488 39.3773 60.6031 39.5565 60.4237C40.2166 59.7632 41.0515 59.0932 41.8573 58.91C41.9545 58.8879 42.0486 58.8655 42.1395 58.8436L42.6112 58.7382C43.0643 58.6527 43.4739 58.6483 43.9598 58.91C44.8395 59.3839 44.9836 60.3508 45.1288 61.328C45.1578 61.5233 45.1865 61.7197 45.2216 61.912C45.3231 62.4695 45.3621 63.0408 45.3993 63.5926C45.5002 65.0894 45.5915 66.4436 46.9042 66.9921C49.0321 67.8809 50.146 65.4245 51.1718 63.162C51.2213 63.0526 51.2709 62.9438 51.3202 62.8358C53.2689 58.5626 53.4787 53.5939 51.7401 49.2128L51.66 49.0106C50.6387 46.432 49.2726 42.9818 46.9042 43.9022C45.5749 44.4188 45.5345 45.7414 45.4891 47.2411C45.4652 48.0338 45.4397 48.8762 45.2216 49.6747C45.1932 49.7785 45.1668 49.8806 45.1405 49.9803C44.9118 50.848 44.7248 51.5547 43.9598 51.9833C43.2934 52.3565 42.7601 52.2179 42.0653 52.037C41.9976 52.0194 41.9283 52.0013 41.8573 51.9833C40.785 51.7117 39.961 50.5468 39.3759 49.3339C39.3132 49.2041 39.2822 49.061 39.2821 48.9169V17.3212C39.2821 16.769 39.7299 16.3213 40.2821 16.3212H72.6014C73.5751 15.6315 74.4129 14.7421 74.6307 13.6503C74.8275 12.6641 75.0309 11.9595 74.6083 11.0643C74.1151 10.02 73.2791 9.8638 72.2557 9.536C69.9098 8.7846 67.2111 10.0195 66.3895 7.52819C65.407 4.54811 69.0998 2.8171 71.7186 1.52233Z" fill="#A8E6F1"/>
<ellipse cx="70.6486" cy="41.4336" rx="2.37362" ry="7.5828" fill="black"/>
<path d="M72.9562 30.6855C73.158 31.4298 71.3704 31.1931 69.4143 31.8192C67.4583 32.4454 66.0743 33.6973 65.8725 32.953C65.6707 32.2086 67.0929 31.0976 69.0489 30.4715C71.005 29.8453 72.7543 29.9411 72.9562 30.6855Z" fill="black"/>
<path d="M92.9438 32.6479C92.7788 33.4029 91.3354 32.2331 89.3513 31.7213C87.3672 31.2096 85.5939 31.5497 85.7588 30.7948C85.9237 30.0398 87.6658 29.8426 89.6499 30.3543C91.634 30.866 93.1087 31.8929 92.9438 32.6479Z" fill="black"/>
<ellipse cx="88.6501" cy="41.4336" rx="2.37362" ry="7.5828" fill="black"/>
<path d="M64.78 58.8659C64.4482 58.5952 64.5694 58.4632 64.5694 58.4632C64.5694 58.4632 64.641 58.6071 64.78 58.8659C65.3185 59.3051 67.0503 60.1095 72.4302 61.3076C78.0743 62.5645 93.1611 60.4618 93.1611 60.4618C93.1611 60.4618 85.2425 73.7063 79.2188 72.3648C71.4773 70.6409 65.9083 60.9668 64.78 58.8659Z" fill="black"/>
<path d="M26 85L52.2705 74.7927" stroke="black"/>
<path d="M118.846 64.0925C118.846 64.0925 116.055 70.2889 113.51 73.1163C110 77.0148 102.69 79.6048 102.69 79.6048" stroke="black"/>
<line y1="-0.3" x2="1.11668" y2="-0.3" transform="matrix(-0.286263 0.958151 0.687363 0.726314 102.993 79.7087)" stroke="black" stroke-width="0.6"/>
<line y1="-0.3" x2="1.13208" y2="-0.3" transform="matrix(-0.879141 -0.476561 0.0334931 0.999439 102.993 79.7087)" stroke="black" stroke-width="0.6"/>
<line y1="-0.35" x2="1.0101" y2="-0.35" transform="matrix(-0.915696 0.401872 0.395579 0.918432 102.967 79.6436)" stroke="black" stroke-width="0.7"/>
<g clip-path="url(#clip0_4096_6320)">
<path d="M21.7635 74.3022C21.5775 74.3022 21.3933 74.3389 21.2214 74.4101C21.0495 74.4813 20.8934 74.5856 20.7618 74.7172C20.6303 74.8487 20.5259 75.0049 20.4547 75.1768C20.3835 75.3486 20.3469 75.5329 20.3469 75.7189C20.3469 75.9049 20.3835 76.0891 20.4547 76.261C20.5259 76.4329 20.6303 76.5891 20.7618 76.7206C20.8934 76.8522 21.0495 76.9565 21.2214 77.0277C21.3933 77.0989 21.5775 77.1356 21.7635 77.1356C22.0873 77.1194 22.4055 77.2244 22.656 77.4302C22.8459 77.5946 23.0697 77.9232 23.1292 78.5919C23.1428 78.7793 23.1936 78.9621 23.2786 79.1297C23.3635 79.2972 23.481 79.4463 23.6241 79.568C23.7672 79.6898 23.933 79.7819 24.1121 79.8389C24.2911 79.8959 24.4797 79.9168 24.6668 79.9003C24.854 79.8837 25.036 79.8301 25.2022 79.7426C25.3685 79.655 25.5156 79.5353 25.6352 79.3903C25.7547 79.2454 25.8442 79.0781 25.8984 78.8982C25.9527 78.7183 25.9706 78.5294 25.9512 78.3426C25.8379 77.0817 25.3562 76.0362 24.5374 75.3109C23.7675 74.6444 22.7817 74.2852 21.7635 74.3022ZM15.1137 71.5284C14.3551 70.8947 13.4633 70.4403 12.5048 70.199C11.5462 69.9576 10.5456 69.9355 9.57737 70.1344C7.95225 70.47 6.47128 71.3016 5.3387 72.5144C4.21387 73.7016 3.07487 75.2939 3.00404 77.6031C2.97287 78.6514 3.1032 80.3514 4.06937 81.6547C4.95054 82.8901 5.40104 83.5304 5.63337 84.1537C5.87987 84.8791 5.89404 85.6554 5.89404 86.8539V86.8737C5.9082 88.0411 6.1547 89.6561 6.75537 91.1379C7.33904 92.5886 8.3817 94.1866 10.1639 94.8411L10.2262 94.8637L10.2885 94.8807C11.3199 95.1556 12.3909 95.0819 13.221 94.3141C13.9265 93.6539 14.19 92.7104 14.326 91.9794C14.4564 91.2881 14.5187 90.4862 14.581 89.7354C14.6335 88.8288 14.7404 87.9262 14.9012 87.0324C15.3319 85.0434 15.8504 84.7714 15.9524 84.7374C16.8675 84.4966 17.4115 84.7941 17.7827 85.6441C18.2587 86.7349 18.4004 88.3131 18.5335 89.8657C18.6667 91.3872 18.9869 92.8804 19.6669 93.8834C20.0267 94.4132 20.5764 94.9317 21.364 95.1017C22.1574 95.2774 22.8997 95.0366 23.5089 94.6512C25.6764 93.2827 26.838 90.4947 27.1355 87.0381C27.2885 85.4372 27.45 84.7572 27.671 84.2274C27.8514 83.8125 28.0646 83.4127 28.3085 83.0317C28.4842 82.7342 28.6995 82.3687 28.9744 81.8786C29.4107 81.0937 30.1644 79.6119 30.2494 77.8496C30.3344 75.9909 29.6685 73.9566 27.5237 72.2367C25.546 70.6217 23.6477 69.9899 21.8995 70.0777C20.1712 70.1656 18.7999 70.9504 17.8337 71.7806L17.7912 71.8174L17.7544 71.8542C16.8874 72.7212 16.6295 72.7099 16.621 72.7099C16.6182 72.7099 16.519 72.7042 16.2754 72.5456C15.8978 72.2786 15.5484 71.9739 15.2327 71.6361L15.176 71.5794L15.1137 71.5284Z" fill="#A8E6F1"/>
</g>
<path d="M96.9304 64.5803C96.8033 64.4264 96.5965 64.3489 96.3554 64.365C96.1143 64.381 95.8587 64.4892 95.6449 64.6657C95.431 64.8423 95.2764 65.0728 95.215 65.3065C95.1536 65.5401 95.1905 65.7579 95.3176 65.9118L90.4791 69.9063L91.4374 71.067L96.2758 67.0725L97.2341 68.2333L92.3956 72.2277L93.3539 73.3884L98.1923 69.394L99.1506 70.5547L94.3121 74.5492L95.2704 75.7099L100.109 71.7154L101.063 72.8715L100.12 77.9001C100.081 78.1098 100.122 78.3017 100.237 78.4409L108.382 88.307C108.509 88.4609 108.716 88.5384 108.957 88.5224C109.198 88.5064 109.454 88.3982 109.668 88.2216C109.882 88.045 110.036 87.8146 110.098 87.5809C110.159 87.3472 110.122 87.1294 109.995 86.9755L102.028 77.3253L102.971 72.2966C103.011 72.087 102.969 71.8951 102.854 71.7559L96.9304 64.5803Z" fill="#185D6D"/>
<g clip-path="url(#clip1_4096_6320)">
<path d="M21.7635 74.3022C21.5775 74.3022 21.3933 74.3389 21.2214 74.4101C21.0495 74.4813 20.8934 74.5856 20.7618 74.7172C20.6303 74.8487 20.5259 75.0049 20.4547 75.1768C20.3835 75.3486 20.3469 75.5329 20.3469 75.7189C20.3469 75.9049 20.3835 76.0891 20.4547 76.261C20.5259 76.4329 20.6303 76.5891 20.7618 76.7206C20.8934 76.8522 21.0495 76.9565 21.2214 77.0277C21.3933 77.0989 21.5775 77.1356 21.7635 77.1356C22.0873 77.1194 22.4055 77.2244 22.656 77.4302C22.8459 77.5946 23.0697 77.9232 23.1292 78.5919C23.1428 78.7793 23.1936 78.9621 23.2786 79.1297C23.3635 79.2972 23.481 79.4463 23.6241 79.568C23.7672 79.6898 23.933 79.7819 24.1121 79.8389C24.2911 79.8959 24.4797 79.9168 24.6668 79.9003C24.854 79.8837 25.036 79.8301 25.2022 79.7426C25.3685 79.655 25.5156 79.5353 25.6352 79.3903C25.7547 79.2454 25.8442 79.0781 25.8984 78.8982C25.9527 78.7183 25.9706 78.5294 25.9512 78.3426C25.8379 77.0817 25.3562 76.0362 24.5374 75.3109C23.7675 74.6444 22.7817 74.2852 21.7635 74.3022ZM15.1137 71.5284C14.3551 70.8947 13.4633 70.4403 12.5048 70.199C11.5462 69.9576 10.5456 69.9355 9.57737 70.1344C7.95225 70.47 6.47128 71.3016 5.3387 72.5144C4.21387 73.7016 3.07487 75.2939 3.00404 77.6031C2.97287 78.6514 3.1032 80.3514 4.06937 81.6547C4.95054 82.8901 5.40104 83.5304 5.63337 84.1537C5.87987 84.8791 5.89404 85.6554 5.89404 86.8539V86.8737C5.9082 88.0411 6.1547 89.6561 6.75537 91.1379C7.33904 92.5886 8.3817 94.1866 10.1639 94.8411L10.2262 94.8637L10.2885 94.8807C11.3199 95.1556 12.3909 95.0819 13.221 94.3141C13.9265 93.6539 14.19 92.7104 14.326 91.9794C14.4564 91.2881 14.5187 90.4862 14.581 89.7354C14.6335 88.8288 14.7404 87.9262 14.9012 87.0324C15.3319 85.0434 15.8504 84.7714 15.9524 84.7374C16.8675 84.4966 17.4115 84.7941 17.7827 85.6441C18.2587 86.7349 18.4004 88.3131 18.5335 89.8657C18.6667 91.3872 18.9869 92.8804 19.6669 93.8834C20.0267 94.4132 20.5764 94.9317 21.364 95.1017C22.1574 95.2774 22.8997 95.0366 23.5089 94.6512C25.6764 93.2827 26.838 90.4947 27.1355 87.0381C27.2885 85.4372 27.45 84.7572 27.671 84.2274C27.8514 83.8125 28.0646 83.4127 28.3085 83.0317C28.4842 82.7342 28.6995 82.3687 28.9744 81.8786C29.4107 81.0937 30.1644 79.6119 30.2494 77.8496C30.3344 75.9909 29.6685 73.9566 27.5237 72.2367C25.546 70.6217 23.6477 69.9899 21.8995 70.0777C20.1712 70.1656 18.7999 70.9504 17.8337 71.7806L17.7912 71.8174L17.7544 71.8542C16.8874 72.7212 16.6295 72.7099 16.621 72.7099C16.6182 72.7099 16.519 72.7042 16.2754 72.5456C15.8978 72.2786 15.5484 71.9739 15.2327 71.6361L15.176 71.5794L15.1137 71.5284ZM7.4212 74.4382C8.14773 73.6646 9.09417 73.1325 10.1327 72.9139C10.6812 72.7985 11.2486 72.8078 11.7929 72.9412C12.3373 73.0746 12.8447 73.3287 13.2777 73.6846C14.207 74.6196 15.244 75.4866 16.5077 75.5404C17.8394 75.5971 18.8735 74.7414 19.7235 73.8971C20.3639 73.3587 21.1459 72.9536 22.0497 72.9054C22.9479 72.8629 24.1804 73.1604 25.7415 74.4354L25.7529 74.4439C27.1752 75.5829 27.4699 76.7361 27.4245 77.7164C27.3707 78.7931 26.8919 79.8017 26.5065 80.4931C26.3346 80.8028 26.1656 81.0956 25.9994 81.3714C25.631 82.0004 25.2939 82.5671 25.0559 83.1451C24.6734 84.0744 24.4807 85.0944 24.3192 86.7746V86.7887C24.0529 89.8997 23.0612 91.5884 22.0015 92.2571H21.9959C21.7494 91.8717 21.4859 91.0076 21.364 89.6221L21.347 89.4407C21.228 88.0467 21.058 86.0521 20.3865 84.5107C20.0239 83.6806 19.4515 82.8249 18.5222 82.3007C17.5192 81.7284 16.2952 81.6916 15.1987 82.0061C13.6177 82.4594 12.677 83.9554 12.1359 86.4402L12.133 86.4544C11.9516 87.4417 11.8286 88.4389 11.7647 89.4407L11.7619 89.4889C11.6995 90.2794 11.6485 90.9226 11.5465 91.4581L11.521 91.6167C11.4757 91.9199 11.4275 92.2401 11.0904 92.1579C10.4302 91.8887 9.8352 91.1861 9.38754 90.0754C8.96287 89.0194 8.74084 87.8929 8.73304 86.7547C8.73304 85.6639 8.73304 84.4371 8.31654 83.2187C7.8802 82.0316 7.1067 80.9719 6.35304 79.9689C5.9677 79.4589 5.8147 78.5607 5.84304 77.6881C5.8827 76.3734 6.4947 75.4186 7.40987 74.4552L7.4212 74.4382Z" fill="#185D6D"/>
</g>
<defs>
<clipPath id="clip0_4096_6320">
<rect width="34" height="34" fill="white" transform="translate(0 61)"/>
</clipPath>
<clipPath id="clip1_4096_6320">
<rect width="34" height="34" fill="white" transform="translate(0 61)"/>
</clipPath>
</defs>
</svg>
