<svg width="156" height="150" viewBox="0 0 156 150" fill="none" xmlns="http://www.w3.org/2000/svg">
<path d="M94 94L94.385 148.744" stroke="black"/>
<path d="M98.6534 149.334C98.6534 150.312 96.7416 149.924 94.3833 149.924C92.025 149.924 90.1132 150.312 90.1132 149.334C90.1132 148.356 92.025 147.563 94.3833 147.563C96.7416 147.563 98.6534 148.356 98.6534 149.334Z" fill="black"/>
<path d="M75.699 95.6211V147.563" stroke="black"/>
<path d="M79.4365 148.744C79.4365 149.722 77.5247 149.334 75.1664 149.334C72.808 149.334 70.8962 149.722 70.8962 148.744C70.8962 147.766 72.808 146.973 75.1664 146.973C77.5247 146.973 79.4365 147.766 79.4365 148.744Z" fill="black"/>
<path d="M77.7186 1.52233C82.1389 -0.663151 87.1753 -0.457383 91.5253 1.8944C93.911 3.18421 96.7027 4.52777 95.7821 7.2821C95.0406 9.50024 92.7471 8.92042 90.6542 9.40612C89.4868 9.6771 88.1908 9.68547 87.6259 10.9901C87.2314 11.9012 87.4546 12.5898 87.6483 13.577C87.8369 14.5382 88.4922 15.5274 89.1493 16.3212H124.282C124.834 16.3212 125.282 16.7689 125.282 17.3212V95.3212C125.282 95.8734 124.834 96.3212 124.282 96.3212H90.5995C90.3225 96.3211 90.0561 96.2075 89.8739 95.9989C89.2033 95.2313 88.4721 94.2055 88.2831 93.2176C88.2621 93.1082 88.2413 93.0026 88.2206 92.9003C88.0701 92.1573 87.9532 91.5813 88.2792 90.8514C88.7218 89.8606 89.6287 89.6974 90.5448 89.5321C90.7278 89.4991 90.9115 89.4654 91.0917 89.4257C91.6142 89.3103 92.1496 89.2655 92.6669 89.2225C94.0701 89.1059 95.3398 89.0005 95.8514 87.5223C96.6804 85.1263 94.3753 83.878 92.2518 82.7284C92.1492 82.6728 92.0466 82.6176 91.9452 82.5624C87.9343 80.3782 83.2744 80.1509 79.1698 82.1161C79.1074 82.146 79.044 82.1765 78.9803 82.2069C76.5645 83.3613 73.3323 84.9062 74.2001 87.5692C74.6871 89.0638 75.9277 89.1062 77.3339 89.1542C78.0771 89.1795 78.8671 89.2063 79.6161 89.4501C79.7136 89.4818 79.8095 89.5124 79.9032 89.5419C80.7172 89.7975 81.3807 90.0054 81.7841 90.8651C82.1356 91.6144 82.006 92.2156 81.8378 92.9979C81.8214 93.0739 81.8046 93.1516 81.788 93.2313C81.5116 94.5528 80.2307 95.5419 78.9852 96.2098C78.8461 96.2844 78.6899 96.3212 78.5321 96.3212H46.2821C45.73 96.321 45.2822 95.8733 45.2821 95.3212V61.1024C45.2821 60.8488 45.3773 60.6031 45.5565 60.4237C46.2166 59.7632 47.0515 59.0932 47.8573 58.91C47.9545 58.8879 48.0486 58.8655 48.1395 58.8436L48.6112 58.7382C49.0643 58.6527 49.4739 58.6483 49.9598 58.91C50.8395 59.3839 50.9836 60.3508 51.1288 61.328C51.1578 61.5233 51.1865 61.7197 51.2216 61.912C51.3231 62.4695 51.3621 63.0408 51.3993 63.5926C51.5002 65.0894 51.5915 66.4436 52.9042 66.9921C55.0321 67.8809 56.146 65.4245 57.1718 63.162C57.2213 63.0526 57.2709 62.9438 57.3202 62.8358C59.2689 58.5626 59.4787 53.5939 57.7401 49.2128L57.66 49.0106C56.6387 46.432 55.2726 42.9818 52.9042 43.9022C51.5749 44.4188 51.5345 45.7414 51.4891 47.2411C51.4652 48.0338 51.4397 48.8762 51.2216 49.6747C51.1932 49.7785 51.1668 49.8806 51.1405 49.9803C50.9118 50.848 50.7248 51.5547 49.9598 51.9833C49.2934 52.3565 48.7601 52.2179 48.0653 52.037C47.9976 52.0194 47.9283 52.0013 47.8573 51.9833C46.785 51.7117 45.961 50.5468 45.3759 49.3339C45.3132 49.2041 45.2822 49.061 45.2821 48.9169V17.3212C45.2821 16.769 45.7299 16.3213 46.2821 16.3212H78.6014C79.5751 15.6315 80.4129 14.7421 80.6307 13.6503C80.8275 12.6641 81.0309 11.9595 80.6083 11.0643C80.1151 10.02 79.2791 9.8638 78.2557 9.536C75.9098 8.7846 73.2111 10.0195 72.3895 7.52819C71.407 4.54811 75.0998 2.8171 77.7186 1.52233Z" fill="#A8E6F1"/>
<ellipse cx="76.6487" cy="41.4336" rx="2.37362" ry="7.5828" fill="black"/>
<path d="M78.9561 30.6855C79.1579 31.4298 77.3704 31.1931 75.4143 31.8192C73.4582 32.4454 72.0743 33.6973 71.8725 32.953C71.6707 32.2086 73.0928 31.0976 75.0489 30.4715C77.005 29.8453 78.7543 29.9411 78.9561 30.6855Z" fill="black"/>
<path d="M98.9438 32.6479C98.7789 33.4029 97.3354 32.2331 95.3513 31.7213C93.3673 31.2096 91.5939 31.5497 91.7589 30.7948C91.9238 30.0398 93.6659 29.8426 95.65 30.3543C97.6341 30.866 99.1088 31.8929 98.9438 32.6479Z" fill="black"/>
<ellipse cx="94.6501" cy="41.4336" rx="2.37362" ry="7.5828" fill="black"/>
<path d="M70.78 58.8659C70.4482 58.5952 70.5694 58.4632 70.5694 58.4632C70.5694 58.4632 70.641 58.6071 70.78 58.8659C71.3185 59.3051 73.0503 60.1095 78.4302 61.3076C84.0743 62.5645 99.1611 60.4618 99.1611 60.4618C99.1611 60.4618 91.2425 73.7063 85.2188 72.3648C77.4773 70.6409 71.9083 60.9668 70.78 58.8659Z" fill="black"/>
<path d="M20 85L61.4783 75.4096" stroke="black"/>
<ellipse cx="28" cy="61.5" rx="5" ry="4.5" fill="#185D6D"/>
<rect x="24" y="68.4255" width="2.44952" height="12" rx="1" transform="rotate(-10.0048 24 68.4255)" fill="#185D6D"/>
<rect x="31.0406" y="66" width="7.40883" height="9.19942" rx="3.70441" transform="rotate(60.9311 31.0406 66)" fill="#185D6D"/>
<ellipse cx="12" cy="63.5" rx="5" ry="4.5" fill="#185D6D"/>
<ellipse cx="16" cy="60.5" rx="5" ry="4.5" fill="#185D6D"/>
<ellipse cx="22" cy="58.5" rx="5" ry="4.5" fill="#185D6D"/>
<ellipse cx="12" cy="68.5" rx="5" ry="4.5" fill="#185D6D"/>
<ellipse cx="30" cy="67.5" rx="5" ry="4.5" fill="#185D6D"/>
<ellipse cx="23" cy="68" rx="9" ry="7" fill="#185D6D"/>
<path d="M10.1456 65C9.57436 63.3393 10.7168 61.0766 13 62" stroke="#A8E6F1"/>
<path d="M23.9274 70.5884C23.4696 73.0375 20.0029 73.7726 17.1546 69.997" stroke="#A8E6F1"/>
<path d="M16.1989 62.0829C14.8544 63.2127 12.1575 62.5455 12.1989 60.083" stroke="#A8E6F1"/>
<path d="M26.0186 59.546C28.1553 58.2645 31.0045 60.3718 30.0674 65.0074" stroke="#A8E6F1"/>
<path d="M24.8358 62.0488C24.7568 63.8032 22.8629 65.4879 21.0787 63.7901" stroke="#A8E6F1"/>
<path d="M19.0855 58.0053C20.0942 56.5678 22.5965 56.1636 23.1899 58.5539" stroke="#A8E6F1"/>
<path d="M30.2756 71.3271C29.6376 69.691 30.6875 67.3838 33.0062 68.214" stroke="#A8E6F1"/>
<path d="M18.1306 65.9486C18.3507 64.2063 20.3742 62.6797 22.0158 64.5157" stroke="#A8E6F1"/>
<path d="M13.8358 67.0488C13.7568 68.8032 11.8629 70.4879 10.0787 68.7901" stroke="#A8E6F1"/>
<path d="M23.9834 70.9627C24.8595 70.2019 26.8936 70.562 26.8808 72.0529" stroke="#A8E6F1"/>
<path d="M150.271 86.0001L117 73.7927" stroke="black"/>
<rect width="26" height="31" rx="1" transform="matrix(-0.965926 -0.258819 -0.258819 0.965926 151.012 64.6951)" fill="#185D6D"/>
<g clip-path="url(#clip0_4096_6370)">
<rect width="24" height="28" rx="1" transform="matrix(-0.965926 -0.258819 -0.258819 0.965926 149.528 66.3682)" fill="#A8E6F1"/>
<rect width="19" height="2" rx="1" transform="matrix(-0.965926 -0.258819 -0.258819 0.965926 146.82 68.7483)" fill="#185D6D"/>
<rect width="19" height="2" rx="1" transform="matrix(-0.965926 -0.258819 -0.258819 0.965926 146.043 71.646)" fill="#185D6D"/>
<rect width="12" height="2" rx="1" transform="matrix(-0.965926 -0.258819 -0.258819 0.965926 145.267 74.5439)" fill="#185D6D"/>
</g>
<rect width="15" height="2" rx="1" transform="matrix(-0.965926 -0.258819 -0.258819 0.965926 145.923 64.3669)" fill="black"/>
<rect width="3" height="3" rx="1.5" transform="matrix(-0.965926 -0.258819 -0.258819 0.965926 140.645 60.8823)" fill="black"/>
<line y1="-0.5" x2="12.7279" y2="-0.5" transform="matrix(-0.707107 -0.707107 -0.707107 0.707107 149.271 86)" stroke="black"/>
<path d="M21.9701 37.4699C21.9691 37.6934 21.8982 37.911 21.7673 38.0922C21.6363 38.2733 21.452 38.4089 21.2401 38.4799L19.3601 39.0999C18.7698 39.2973 18.2338 39.6297 17.7946 40.0706C17.3553 40.5116 17.0251 41.0489 16.8301 41.6399L16.1801 43.5099C16.1054 43.7186 15.9695 43.8998 15.7901 44.0299C15.6541 44.1279 15.4968 44.1922 15.3312 44.2175C15.1656 44.2429 14.9963 44.2287 14.8372 44.176C14.6781 44.1233 14.5338 44.0337 14.4161 43.9144C14.2984 43.7951 14.2107 43.6497 14.1601 43.4899L13.5301 41.6099C13.3269 41.0171 12.9839 40.482 12.5301 40.0499C12.0912 39.5995 11.5538 39.2572 10.9601 39.0499L9.08005 38.4199C8.86716 38.3529 8.68117 38.2198 8.54905 38.0399C8.41945 37.8573 8.34983 37.6389 8.34983 37.4149C8.34983 37.191 8.41945 36.9726 8.54905 36.7899C8.68195 36.6048 8.87149 36.4679 9.08905 36.3999L10.9591 35.7699C11.5609 35.5675 12.1059 35.2247 12.5491 34.7699C12.9991 34.3269 13.3421 33.7859 13.5491 33.1899L14.1691 31.3399C14.2277 31.1286 14.3542 30.9423 14.5291 30.8099C14.705 30.6688 14.9235 30.5912 15.1491 30.5899C15.3725 30.5845 15.5922 30.6473 15.7791 30.7699C15.969 30.8891 16.1134 31.0687 16.1891 31.2799L16.8191 33.1899C17.0261 33.7859 17.3691 34.3269 17.8191 34.7699C18.2593 35.2234 18.8008 35.5661 19.3991 35.7699L21.2691 36.4299C21.4795 36.4958 21.6624 36.6294 21.7891 36.8099C21.9191 37.0039 21.9841 37.2349 21.9701 37.4699ZM12.1001 44.3999C12.0996 44.6038 12.0368 44.8027 11.9201 44.9699C11.7992 45.1325 11.6318 45.2546 11.4401 45.3199L10.0901 45.7699C9.71182 45.9033 9.36956 46.1223 9.09005 46.4099C8.80517 46.6916 8.58655 47.0332 8.45005 47.4099L7.98005 48.7499C7.9147 48.9417 7.79265 49.1091 7.63005 49.2299C7.46167 49.3483 7.26087 49.4118 7.05505 49.4118C6.84924 49.4118 6.64844 49.3483 6.48005 49.2299C6.31746 49.1091 6.1954 48.9417 6.13005 48.7499L5.69005 47.4099C5.55327 47.0331 5.3343 46.6915 5.04905 46.4099C4.76733 46.125 4.42574 45.9064 4.04905 45.7699L2.69905 45.3299C2.50598 45.2619 2.33843 45.1362 2.21905 44.9699C2.09879 44.8039 2.03246 44.6049 2.02905 44.3999C2.03266 44.1937 2.09993 43.9936 2.22167 43.8272C2.3434 43.6607 2.51364 43.5359 2.70905 43.4699L4.04905 43.0299C4.42437 42.8907 4.7652 42.6722 5.04825 42.3891C5.3313 42.1061 5.54988 41.7652 5.68905 41.3899L6.13905 40.0699C6.19898 39.8807 6.31386 39.7136 6.46905 39.5899C6.6313 39.4663 6.82746 39.3953 7.03122 39.3864C7.23499 39.3774 7.43661 39.431 7.60905 39.5399C7.78005 39.6579 7.91205 39.8249 7.98905 40.0199L8.43905 41.3899C8.57823 41.7652 8.79681 42.1061 9.07986 42.3891C9.3629 42.6722 9.70374 42.8907 10.0791 43.0299L11.4191 43.4999C11.6104 43.5609 11.7758 43.6841 11.8891 43.8499C12.0161 44.006 12.0898 44.1988 12.0991 44.3999" fill="#185D6D"/>
<path d="M39.6467 46.3134C39.646 46.4624 39.5988 46.6075 39.5115 46.7283C39.4242 46.849 39.3013 46.9394 39.16 46.9868L37.9067 47.4001C37.5132 47.5317 37.1558 47.7533 36.863 48.0472C36.5702 48.3412 36.35 48.6994 36.22 49.0934L35.7867 50.3401C35.7369 50.4792 35.6463 50.6 35.5267 50.6868C35.436 50.7521 35.3312 50.7949 35.2208 50.8119C35.1103 50.8288 34.9975 50.8193 34.8914 50.7842C34.7854 50.749 34.6892 50.6893 34.6107 50.6098C34.5322 50.5303 34.4737 50.4333 34.44 50.3268L34.02 49.0734C33.8846 48.6783 33.6559 48.3215 33.3533 48.0334C33.0608 47.7332 32.7025 47.5049 32.3067 47.3668L31.0533 46.9468C30.9114 46.9021 30.7874 46.8134 30.6993 46.6934C30.6129 46.5717 30.5665 46.4261 30.5665 46.2768C30.5665 46.1275 30.6129 45.9819 30.6993 45.8601C30.7879 45.7367 30.9143 45.6454 31.0593 45.6001L32.306 45.1801C32.7072 45.0452 33.0706 44.8166 33.366 44.5134C33.666 44.2181 33.8947 43.8574 34.0327 43.4601L34.446 42.2268C34.4851 42.0859 34.5694 41.9617 34.686 41.8734C34.8033 41.7793 34.949 41.7276 35.0993 41.7268C35.2483 41.7232 35.3948 41.765 35.5193 41.8468C35.646 41.9262 35.7423 42.046 35.7927 42.1868L36.2127 43.4601C36.3507 43.8574 36.5793 44.2181 36.8793 44.5134C37.1728 44.8158 37.5338 45.0442 37.9327 45.1801L39.1793 45.6201C39.3197 45.664 39.4415 45.7531 39.526 45.8734C39.6127 46.0028 39.656 46.1568 39.6467 46.3134ZM33.0667 50.9334C33.0663 51.0694 33.0245 51.202 32.9467 51.3134C32.8661 51.4218 32.7545 51.5032 32.6267 51.5468L31.7267 51.8468C31.4745 51.9357 31.2463 52.0817 31.06 52.2734C30.8701 52.4613 30.7243 52.689 30.6333 52.9401L30.32 53.8334C30.2764 53.9613 30.1951 54.0729 30.0867 54.1534C29.9744 54.2323 29.8405 54.2747 29.7033 54.2747C29.5661 54.2747 29.4323 54.2323 29.32 54.1534C29.2116 54.0729 29.1302 53.9613 29.0867 53.8334L28.7933 52.9401C28.7021 52.6889 28.5562 52.4612 28.366 52.2734C28.1782 52.0835 27.9505 51.9378 27.6993 51.8468L26.7993 51.5534C26.6706 51.5081 26.5589 51.4243 26.4793 51.3134C26.3992 51.2028 26.3549 51.0701 26.3527 50.9334C26.3551 50.796 26.3999 50.6626 26.4811 50.5516C26.5622 50.4406 26.6757 50.3574 26.806 50.3134L27.6993 50.0201C27.9495 49.9273 28.1768 49.7816 28.3655 49.5929C28.5542 49.4042 28.6999 49.177 28.7927 48.9268L29.0927 48.0468C29.1326 47.9206 29.2092 47.8092 29.3127 47.7268C29.4208 47.6444 29.5516 47.597 29.6874 47.5911C29.8233 47.5851 29.9577 47.6208 30.0727 47.6934C30.1867 47.7721 30.2747 47.8834 30.326 48.0134L30.626 48.9268C30.7188 49.177 30.8645 49.4042 31.0532 49.5929C31.2419 49.7816 31.4691 49.9273 31.7193 50.0201L32.6127 50.3334C32.7402 50.3741 32.8505 50.4562 32.926 50.5668C33.0107 50.6709 33.0598 50.7994 33.066 50.9334" fill="#185D6D"/>
<defs>
<clipPath id="clip0_4096_6370">
<rect width="24" height="28" rx="1" transform="matrix(-0.965926 -0.258819 -0.258819 0.965926 149.528 66.3682)" fill="white"/>
</clipPath>
</defs>
</svg>
