<svg width="114" height="119" viewBox="0 0 114 119" fill="none" xmlns="http://www.w3.org/2000/svg">
<path d="M66.88 76.4399L67.1726 118.045" stroke="black"/>
<path d="M70.4166 118.494C70.4166 119.237 68.9637 118.942 67.1713 118.942C65.379 118.942 63.926 119.237 63.926 118.494C63.926 117.75 65.379 117.148 67.1713 117.148C68.9637 117.148 70.4166 117.75 70.4166 118.494Z" fill="black"/>
<path d="M52.9712 77.6719V117.148" stroke="black"/>
<path d="M55.8118 118.045C55.8118 118.789 54.3588 118.494 52.5665 118.494C50.7741 118.494 49.3212 118.789 49.3212 118.045C49.3212 117.302 50.7741 116.7 52.5665 116.7C54.3588 116.7 55.8118 117.302 55.8118 118.045Z" fill="black"/>
<path d="M54.5067 6.15711C57.8661 4.4963 61.6931 4.65211 64.9989 6.43934C66.8121 7.41965 68.9341 8.44158 68.2343 10.535C67.6706 12.2203 65.9274 11.7791 64.3368 12.1483C63.4496 12.3543 62.4654 12.361 62.036 13.3524C61.7362 14.0449 61.9054 14.568 62.0526 15.3182C62.196 16.0487 62.6939 16.8009 63.1933 17.4042H89.6542C90.2065 17.4042 90.6542 17.8519 90.6542 18.4042V77.204C90.6542 77.7563 90.2065 78.204 89.6542 78.204H64.4003C64.1234 78.204 63.8566 78.0911 63.6767 77.8807C63.1866 77.3071 62.6724 76.563 62.5351 75.8456C62.5192 75.7624 62.503 75.6821 62.4872 75.6044C62.3728 75.0397 62.2844 74.6015 62.5321 74.0468C62.8685 73.2939 63.5576 73.1694 64.2538 73.0438C64.3928 73.0188 64.5321 72.9939 64.6689 72.9638C65.0661 72.876 65.4738 72.8421 65.8671 72.8095C66.9335 72.7208 67.8982 72.6406 68.287 71.5175C68.9174 69.6962 67.1647 68.7477 65.5507 67.8739C65.4727 67.8317 65.3954 67.7889 65.3183 67.747C62.2701 66.087 58.7288 65.9147 55.6093 67.4081C55.5619 67.4308 55.5141 67.4543 55.4657 67.4774C53.6297 68.3548 51.1724 69.5286 51.8319 71.5526C52.2021 72.6886 53.1451 72.7212 54.2138 72.7577C54.7786 72.777 55.3789 72.7971 55.9482 72.9823C56.0223 73.0065 56.0956 73.0293 56.1669 73.0516C56.7854 73.2459 57.2891 73.4043 57.5956 74.0575C57.8627 74.6268 57.7645 75.0833 57.6366 75.6776C57.6242 75.7355 57.6122 75.7956 57.5995 75.8563C57.3931 76.8426 56.4497 77.5846 55.5194 78.0917C55.3809 78.1672 55.2251 78.2039 55.0673 78.204H30.8544C30.3022 78.2039 29.8544 77.7562 29.8544 77.204V51.5321C29.8544 51.2786 29.9495 51.0326 30.1308 50.8554C30.6212 50.3758 31.2262 49.9044 31.8114 49.7714C31.8854 49.7546 31.9571 49.7382 32.0263 49.7216C32.5282 49.6007 32.9176 49.5061 33.4101 49.7714C34.0785 50.1315 34.1875 50.8666 34.2978 51.6093C34.3198 51.7576 34.3425 51.9066 34.369 52.0526C34.4462 52.4764 34.4755 52.9115 34.5038 53.3309C34.5805 54.4683 34.6499 55.4972 35.6474 55.9139C37.2645 56.5893 38.111 54.7223 38.8905 53.0028V53.0018C38.9281 52.919 38.9655 52.8366 39.0028 52.7548C40.4839 49.5071 40.6445 45.731 39.3232 42.4013L39.2616 42.2479C38.4854 40.2883 37.4471 37.666 35.6474 38.3651C34.6371 38.7578 34.6066 39.7635 34.5722 40.9032C34.554 41.5056 34.5348 42.146 34.369 42.7528C34.3475 42.8318 34.3266 42.9094 34.3065 42.9852L34.1747 43.455C34.0343 43.8996 33.8461 44.2634 33.4101 44.5077C32.9035 44.7915 32.4978 44.6852 31.9696 44.5477C31.9182 44.5343 31.8654 44.5214 31.8114 44.5077C31.0104 44.3048 30.3914 43.4457 29.9482 42.5409C29.8847 42.4114 29.8544 42.2682 29.8544 42.1239V18.4042C29.8544 17.852 30.3022 17.4043 30.8544 17.4042H55.1776C55.9174 16.8801 56.554 16.2044 56.7196 15.3749C56.8692 14.6251 57.0235 14.0887 56.7021 13.4081C56.3272 12.6148 55.6916 12.497 54.914 12.2479C53.1311 11.677 51.0803 12.6149 50.456 10.7216C49.7091 8.45657 52.5164 7.14116 54.5067 6.15711Z" fill="#A8E6F1"/>
<ellipse cx="53.6929" cy="36.4895" rx="1.80395" ry="5.76293" fill="black"/>
<path d="M55.4467 28.321C55.6001 28.8867 54.2415 28.7068 52.7549 29.1826C51.2683 29.6585 50.2165 30.61 50.0631 30.0443C49.9098 29.4786 50.9906 28.6342 52.4772 28.1584C53.9638 27.6825 55.2933 27.7553 55.4467 28.321Z" fill="black"/>
<path d="M70.6373 29.8126C70.5119 30.3864 69.4149 29.4973 67.907 29.1084C66.3991 28.7195 65.0514 28.978 65.1767 28.4042C65.302 27.8304 66.626 27.6805 68.1339 28.0694C69.6418 28.4583 70.7626 29.2388 70.6373 29.8126Z" fill="black"/>
<ellipse cx="67.3741" cy="36.4895" rx="1.80395" ry="5.76293" fill="black"/>
<path d="M49.2328 49.7382C48.9806 49.5325 49.0728 49.4322 49.0728 49.4322C49.0728 49.4322 49.1272 49.5415 49.2328 49.7382C49.6421 50.072 50.9582 50.6834 55.047 51.5939C59.3365 52.5491 70.8024 50.9511 70.8024 50.9511C70.8024 50.9511 64.7843 61.0169 60.2063 59.9974C54.3227 58.6872 50.0903 51.3349 49.2328 49.7382Z" fill="black"/>
<path d="M31.6913 53.64C31.6913 53.64 26.9213 62.7601 25.2625 69.0548C22.9753 77.7341 23.4827 91.8513 23.4827 91.8513" stroke="black"/>
<line y1="-0.3" x2="1.57749" y2="-0.3" transform="matrix(-0.563993 0.82578 -0.83816 -0.545425 23.2602 91.4172)" stroke="black" stroke-width="0.6"/>
<line y1="-0.3" x2="1.5783" y2="-0.3" transform="matrix(0.582528 0.812811 -0.825834 0.563913 23.2602 91.4172)" stroke="black" stroke-width="0.6"/>
<line y1="-0.35" x2="1.84224" y2="-0.35" transform="matrix(-0.00563127 0.999984 -0.999986 -0.00536266 23.3333 91.4148)" stroke="black" stroke-width="0.7"/>
<path d="M59.5 1.00002C63.9115 1.00002 69.5275 3.30552 73 5.50001L70 22H49L46 5.50001C49.591 3.23052 55.252 0.992519 59.5 1.00002ZM56.5 11.5H62.5H56.5ZM59.5 8.50001V14.5V8.50001Z" fill="#A8E6F1"/>
<path d="M56.5 11.5H62.5M59.5 8.50001V14.5M59.5 1.00002C63.9115 1.00002 69.5275 3.30552 73 5.50001L70 22H49L46 5.50001C49.591 3.23052 55.252 0.992519 59.5 1.00002Z" stroke="#185D6D" stroke-width="2" stroke-linecap="round" stroke-linejoin="round"/>
<path d="M89.7407 48L92.7407 90.5718" stroke="black"/>
</svg>
