<svg width="150" height="150" viewBox="0 0 150 150" fill="none" xmlns="http://www.w3.org/2000/svg">
<path d="M88 94L88.385 148.744" stroke="black"/>
<path d="M92.6534 149.334C92.6534 150.312 90.7416 149.924 88.3833 149.924C86.025 149.924 84.1132 150.312 84.1132 149.334C84.1132 148.356 86.025 147.563 88.3833 147.563C90.7416 147.563 92.6534 148.356 92.6534 149.334Z" fill="black"/>
<path d="M69.699 95.6211V147.563" stroke="black"/>
<path d="M73.4365 148.744C73.4365 149.722 71.5247 149.334 69.1664 149.334C66.808 149.334 64.8962 149.722 64.8962 148.744C64.8962 147.766 66.808 146.973 69.1664 146.973C71.5247 146.973 73.4365 147.766 73.4365 148.744Z" fill="black"/>
<path d="M71.7186 1.52233C76.1389 -0.663151 81.1753 -0.457383 85.5253 1.8944C87.911 3.18421 90.7027 4.52777 89.7821 7.2821C89.0406 9.50024 86.7471 8.92042 84.6542 9.40612C83.4868 9.6771 82.1908 9.68547 81.6259 10.9901C81.2314 11.9012 81.4546 12.5898 81.6483 13.577C81.8369 14.5382 82.4922 15.5274 83.1493 16.3212H118.282C118.834 16.3212 119.282 16.7689 119.282 17.3212V95.3212C119.282 95.8734 118.834 96.3212 118.282 96.3212H84.5995C84.3225 96.3211 84.0561 96.2075 83.8739 95.9989C83.2033 95.2313 82.4721 94.2055 82.2831 93.2176C82.2621 93.1082 82.2413 93.0026 82.2206 92.9003C82.0701 92.1573 81.9532 91.5813 82.2792 90.8514C82.7218 89.8606 83.6287 89.6974 84.5448 89.5321C84.7278 89.4991 84.9115 89.4654 85.0917 89.4257C85.6142 89.3103 86.1496 89.2655 86.6669 89.2225C88.0701 89.1059 89.3398 89.0005 89.8514 87.5223C90.6804 85.1263 88.3753 83.878 86.2518 82.7284C86.1492 82.6728 86.0466 82.6176 85.9452 82.5624C81.9343 80.3782 77.2744 80.1509 73.1698 82.1161C73.1074 82.146 73.044 82.1765 72.9803 82.2069C70.5645 83.3613 67.3323 84.9062 68.2001 87.5692C68.6871 89.0638 69.9277 89.1062 71.3339 89.1542C72.0771 89.1795 72.8671 89.2063 73.6161 89.4501C73.7136 89.4818 73.8095 89.5124 73.9032 89.5419C74.7172 89.7975 75.3807 90.0054 75.7841 90.8651C76.1356 91.6144 76.006 92.2156 75.8378 92.9979C75.8214 93.0739 75.8046 93.1516 75.788 93.2313C75.5116 94.5528 74.2307 95.5419 72.9852 96.2098C72.8461 96.2844 72.6899 96.3212 72.5321 96.3212H40.2821C39.73 96.321 39.2822 95.8733 39.2821 95.3212V61.1024C39.2821 60.8488 39.3773 60.6031 39.5565 60.4237C40.2166 59.7632 41.0515 59.0932 41.8573 58.91C41.9545 58.8879 42.0486 58.8655 42.1395 58.8436L42.6112 58.7382C43.0643 58.6527 43.4739 58.6483 43.9598 58.91C44.8395 59.3839 44.9836 60.3508 45.1288 61.328C45.1578 61.5233 45.1865 61.7197 45.2216 61.912C45.3231 62.4695 45.3621 63.0408 45.3993 63.5926C45.5002 65.0894 45.5915 66.4436 46.9042 66.9921C49.0321 67.8809 50.146 65.4245 51.1718 63.162C51.2213 63.0526 51.2709 62.9438 51.3202 62.8358C53.2689 58.5626 53.4787 53.5939 51.7401 49.2128L51.66 49.0106C50.6387 46.432 49.2726 42.9818 46.9042 43.9022C45.5749 44.4188 45.5345 45.7414 45.4891 47.2411C45.4652 48.0338 45.4397 48.8762 45.2216 49.6747C45.1932 49.7785 45.1668 49.8806 45.1405 49.9803C44.9118 50.848 44.7248 51.5547 43.9598 51.9833C43.2934 52.3565 42.7601 52.2179 42.0653 52.037C41.9976 52.0194 41.9283 52.0013 41.8573 51.9833C40.785 51.7117 39.961 50.5468 39.3759 49.3339C39.3132 49.2041 39.2822 49.061 39.2821 48.9169V17.3212C39.2821 16.769 39.7299 16.3213 40.2821 16.3212H72.6014C73.5751 15.6315 74.4129 14.7421 74.6307 13.6503C74.8275 12.6641 75.0309 11.9595 74.6083 11.0643C74.1151 10.02 73.2791 9.8638 72.2557 9.536C69.9098 8.7846 67.2111 10.0195 66.3895 7.52819C65.407 4.54811 69.0998 2.8171 71.7186 1.52233Z" fill="#A8E6F1"/>
<ellipse cx="70.6487" cy="41.4336" rx="2.37362" ry="7.5828" fill="black"/>
<path d="M72.9561 30.6855C73.1579 31.4298 71.3704 31.1931 69.4143 31.8192C67.4582 32.4454 66.0743 33.6973 65.8725 32.953C65.6707 32.2086 67.0928 31.0976 69.0489 30.4715C71.005 29.8453 72.7543 29.9411 72.9561 30.6855Z" fill="black"/>
<path d="M92.9438 32.6479C92.7789 33.4029 91.3354 32.2331 89.3513 31.7213C87.3673 31.2096 85.5939 31.5497 85.7589 30.7948C85.9238 30.0398 87.6659 29.8426 89.65 30.3543C91.6341 30.866 93.1088 31.8929 92.9438 32.6479Z" fill="black"/>
<ellipse cx="88.6501" cy="41.4336" rx="2.37362" ry="7.5828" fill="black"/>
<path d="M64.78 58.8659C64.4482 58.5952 64.5694 58.4632 64.5694 58.4632C64.5694 58.4632 64.641 58.6071 64.78 58.8659C65.3185 59.3051 67.0503 60.1095 72.4302 61.3076C78.0743 62.5645 93.1611 60.4618 93.1611 60.4618C93.1611 60.4618 85.2425 73.7063 79.2188 72.3648C71.4773 70.6409 65.9083 60.9668 64.78 58.8659Z" fill="black"/>
<path d="M7.7922 88.0977L52.2706 74.7927" stroke="black"/>
<path d="M111.483 60.6382C111.483 60.6382 117.759 72.6384 119.942 80.9209C122.951 92.3411 122.284 110.916 122.284 110.916" stroke="black"/>
<line y1="-0.3" x2="2.07565" y2="-0.3" transform="matrix(0.563993 0.82578 0.83816 -0.545425 122.576 110.345)" stroke="black" stroke-width="0.6"/>
<line y1="-0.3" x2="2.07671" y2="-0.3" transform="matrix(-0.582528 0.812811 0.825834 0.563913 122.576 110.345)" stroke="black" stroke-width="0.6"/>
<line y1="-0.35" x2="2.424" y2="-0.35" transform="matrix(0.00563127 0.999984 0.999986 -0.00536266 122.48 110.342)" stroke="black" stroke-width="0.7"/>
<rect x="2.25879" y="74.6951" width="26" height="31" rx="1" transform="rotate(-15 2.25879 74.6951)" fill="#185D6D"/>
<g clip-path="url(#clip0_4096_6345)">
<rect x="3.74243" y="76.3682" width="24" height="28" rx="1" transform="rotate(-15 3.74243 76.3682)" fill="#A8E6F1"/>
<rect x="6.45068" y="78.7483" width="19" height="2" rx="1" transform="rotate(-15 6.45068 78.7483)" fill="#185D6D"/>
<rect x="7.22717" y="81.646" width="19" height="2" rx="1" transform="rotate(-15 7.22717 81.646)" fill="#185D6D"/>
<rect x="8.00366" y="84.5439" width="12" height="2" rx="1" transform="rotate(-15 8.00366 84.5439)" fill="#185D6D"/>
<path d="M30.3399 94.544L28.9564 94.9437L27.6407 93.5959L27.2656 95.4321L25.8821 95.8318L26.6567 92.9642L24.5233 91.0199L25.9163 90.6175L27.155 91.9146L27.5015 90.1595L28.8849 89.7599L28.1362 92.5368L30.3399 94.544Z" fill="black"/>
</g>
<rect x="7.34729" y="74.3669" width="15" height="2" rx="1" transform="rotate(-15 7.34729 74.3669)" fill="black"/>
<rect x="12.6252" y="70.8823" width="3" height="3" rx="1.5" transform="rotate(-15 12.6252 70.8823)" fill="black"/>
<path d="M24.6281 93.4607L23.2543 93.8576L20.9594 91.6789L20.3734 91.8482L21.1311 94.471L19.9782 94.804L18.045 88.0763L20.5717 87.3463C20.9112 87.2483 21.24 87.2574 21.5581 87.3737C21.8762 87.4899 22.1542 87.6837 22.3922 87.955C22.6347 88.218 22.8078 88.5289 22.9114 88.8875C22.9891 89.1565 23.0114 89.4381 22.9784 89.7321C22.95 90.0179 22.8725 90.2901 22.7459 90.5487C22.6194 90.8073 22.4492 91.023 22.2355 91.1958L24.6281 93.4607ZM21.7393 89.2261C21.7023 89.098 21.6356 88.9751 21.5391 88.8572C21.4407 88.733 21.3296 88.6367 21.2058 88.5684C21.082 88.5 20.956 88.4844 20.8279 88.5214L19.5213 88.8989L20.0209 90.6281L21.3275 90.2507C21.4556 90.2137 21.5556 90.1397 21.6277 90.0287C21.6997 89.9176 21.746 89.7898 21.7666 89.645C21.7854 89.4939 21.7763 89.3542 21.7393 89.2261Z" fill="black"/>
<path d="M129.841 105.488C130.239 105.246 130.439 105.125 130.635 105.094C130.897 105.054 131.164 105.119 131.378 105.275C131.539 105.392 131.66 105.591 131.903 105.989L136.583 113.677C136.826 114.075 136.947 114.274 136.978 114.47C137.018 114.732 136.953 114.999 136.796 115.213C136.679 115.374 136.48 115.496 136.082 115.738C135.684 115.98 135.485 116.101 135.289 116.132C135.027 116.172 134.76 116.107 134.546 115.951C134.385 115.834 134.263 115.635 134.021 115.237L129.34 107.55C129.098 107.152 128.977 106.953 128.946 106.756C128.906 106.494 128.971 106.227 129.127 106.013C129.244 105.852 129.443 105.731 129.841 105.488ZM122.461 107.641L116.799 111.088C116.671 111.166 116.548 111.251 116.43 111.342L124.725 124.967C124.857 124.905 124.985 124.836 125.109 124.761L130.795 121.299C131.059 121.138 131.3 120.951 131.516 120.737L123.306 107.253C123.011 107.348 122.73 107.477 122.462 107.64" fill="#A8E6F1"/>
<path d="M125.91 107.298L130.121 108.832L133.25 113.971L133.083 115.41L132.679 118.415C132.561 119.297 132.152 120.114 131.517 120.738L123.306 107.253C124.155 106.977 125.071 106.993 125.91 107.298ZM116.43 111.342C115.811 111.822 115.347 112.471 115.094 113.212C114.91 113.752 114.817 114.023 114.765 114.29C114.61 115.086 114.7 115.91 115.024 116.653C115.132 116.903 115.281 117.148 115.578 117.635L119.055 123.345C119.362 123.849 119.776 124.279 120.269 124.604C120.762 124.929 121.321 125.141 121.905 125.225L122.463 125.304C123.234 125.415 124.02 125.298 124.726 124.967L116.43 111.342Z" fill="#185D6D"/>
<path fill-rule="evenodd" clip-rule="evenodd" d="M126.342 114.644C126.446 114.813 126.478 115.017 126.431 115.211C126.384 115.404 126.262 115.571 126.092 115.674L125.024 116.324L125.674 117.392C125.778 117.562 125.809 117.766 125.762 117.959C125.715 118.152 125.594 118.319 125.424 118.423C125.254 118.526 125.05 118.558 124.857 118.511C124.663 118.464 124.497 118.342 124.393 118.172L123.743 117.104L122.675 117.754C122.505 117.858 122.301 117.89 122.108 117.843C121.915 117.796 121.748 117.674 121.645 117.504C121.541 117.334 121.51 117.13 121.557 116.937C121.604 116.743 121.725 116.577 121.895 116.473L122.963 115.823L122.313 114.756C122.209 114.586 122.178 114.382 122.225 114.188C122.272 113.995 122.393 113.828 122.563 113.725C122.733 113.621 122.937 113.59 123.131 113.637C123.324 113.684 123.491 113.806 123.594 113.975L124.244 115.043L125.312 114.393C125.482 114.29 125.686 114.258 125.879 114.305C126.072 114.352 126.239 114.474 126.342 114.644Z" fill="black"/>
<path d="M24 130.534C24 130.068 24 129.835 24.076 129.651C24.1777 129.406 24.3723 129.212 24.617 129.111C24.801 129.034 25.034 129.034 25.5 129.034H34.5C34.966 129.034 35.199 129.034 35.383 129.11C35.6275 129.211 35.8217 129.406 35.923 129.651C36 129.835 36 130.068 36 130.534C36 131 36 131.233 35.924 131.417C35.8223 131.661 35.6277 131.855 35.383 131.957C35.199 132.034 34.966 132.034 34.5 132.034H25.5C25.034 132.034 24.801 132.034 24.617 131.958C24.3725 131.856 24.1783 131.661 24.077 131.417C24 131.233 24 131 24 130.534ZM22 137.957V144.586C21.9999 144.735 22.0083 144.885 22.025 145.034H37.976C37.992 144.889 38 144.744 38 144.599V137.942C38 137.632 37.965 137.33 37.895 137.034H22.108C22.036 137.334 22 137.642 22 137.956" fill="#A8E6F1"/>
<path d="M23.501 134.833L27.001 132.034H33.018L34.16 132.925L36.517 134.833C37.2087 135.393 37.694 136.167 37.896 137.034H22.108C22.3138 136.165 22.8041 135.39 23.501 134.833ZM22.025 145.034C22.1126 145.811 22.4262 146.546 22.927 147.147C23.293 147.585 23.476 147.805 23.677 147.989C24.276 148.535 25.0268 148.887 25.83 148.997C26.1 149.034 26.386 149.034 26.957 149.034H33.642C34.2324 149.034 34.8154 148.903 35.3493 148.651C35.8832 148.399 36.3547 148.032 36.73 147.577L37.088 147.142C37.5833 146.541 37.8922 145.808 37.977 145.034H22.025Z" fill="#185D6D"/>
<path fill-rule="evenodd" clip-rule="evenodd" d="M30 138.284C30.1989 138.284 30.3897 138.363 30.5303 138.503C30.671 138.644 30.75 138.835 30.75 139.034V140.284H32C32.1989 140.284 32.3897 140.363 32.5303 140.503C32.671 140.644 32.75 140.835 32.75 141.034C32.75 141.233 32.671 141.423 32.5303 141.564C32.3897 141.705 32.1989 141.784 32 141.784H30.75V143.034C30.75 143.233 30.671 143.423 30.5303 143.564C30.3897 143.705 30.1989 143.784 30 143.784C29.8011 143.784 29.6103 143.705 29.4697 143.564C29.329 143.423 29.25 143.233 29.25 143.034V141.784H28C27.8011 141.784 27.6103 141.705 27.4697 141.564C27.329 141.423 27.25 141.233 27.25 141.034C27.25 140.835 27.329 140.644 27.4697 140.503C27.6103 140.363 27.8011 140.284 28 140.284H29.25V139.034C29.25 138.835 29.329 138.644 29.4697 138.503C29.6103 138.363 29.8011 138.284 30 138.284Z" fill="black"/>
<path d="M42.2982 130.5C42.2982 130.034 42.2982 129.801 42.3742 129.617C42.4759 129.372 42.6705 129.178 42.9152 129.077C43.0992 129 43.3322 129 43.7982 129H52.7982C53.2642 129 53.4972 129 53.6812 129.076C53.9258 129.178 54.12 129.372 54.2212 129.617C54.2982 129.801 54.2982 130.034 54.2982 130.5C54.2982 130.966 54.2982 131.199 54.2222 131.383C54.1205 131.628 53.9259 131.822 53.6812 131.923C53.4972 132 53.2642 132 52.7982 132H43.7982C43.3322 132 43.0992 132 42.9152 131.924C42.6707 131.822 42.4765 131.628 42.3752 131.383C42.2982 131.199 42.2982 130.966 42.2982 130.5ZM40.2982 137.923V144.552C40.2982 144.702 40.3065 144.851 40.3232 145H56.2742C56.2902 144.855 56.2982 144.71 56.2982 144.565V137.908C56.2982 137.599 56.2632 137.296 56.1932 137H40.4062C40.3342 137.301 40.2982 137.608 40.2982 137.922" fill="#A8E6F1"/>
<path d="M41.7992 134.799L45.2992 132H51.3162L52.4582 132.891L54.8152 134.799C55.5069 135.359 55.9922 136.133 56.1942 137H40.4062C40.612 136.131 41.1023 135.357 41.7992 134.799ZM40.3232 145C40.4108 145.777 40.7244 146.512 41.2252 147.113C41.5912 147.551 41.7742 147.771 41.9752 147.955C42.5742 148.501 43.325 148.853 44.1282 148.963C44.3982 149 44.6842 149 45.2552 149H51.9402C52.5306 149 53.1136 148.869 53.6475 148.618C54.1814 148.366 54.6529 147.999 55.0282 147.543L55.3862 147.108C55.8815 146.507 56.1905 145.774 56.2752 145H40.3232Z" fill="#185D6D"/>
<path fill-rule="evenodd" clip-rule="evenodd" d="M48.2982 138.25C48.4971 138.25 48.6879 138.329 48.8285 138.47C48.9692 138.61 49.0482 138.801 49.0482 139V140.25H50.2982C50.4971 140.25 50.6879 140.329 50.8285 140.47C50.9692 140.61 51.0482 140.801 51.0482 141C51.0482 141.199 50.9692 141.39 50.8285 141.53C50.6879 141.671 50.4971 141.75 50.2982 141.75H49.0482V143C49.0482 143.199 48.9692 143.39 48.8285 143.53C48.6879 143.671 48.4971 143.75 48.2982 143.75C48.0993 143.75 47.9085 143.671 47.7679 143.53C47.6272 143.39 47.5482 143.199 47.5482 143V141.75H46.2982C46.0993 141.75 45.9085 141.671 45.7679 141.53C45.6272 141.39 45.5482 141.199 45.5482 141C45.5482 140.801 45.6272 140.61 45.7679 140.47C45.9085 140.329 46.0993 140.25 46.2982 140.25H47.5482V139C47.5482 138.801 47.6272 138.61 47.7679 138.47C47.9085 138.329 48.0993 138.25 48.2982 138.25Z" fill="black"/>
<path d="M31.2982 110.5C31.2982 110.034 31.2982 109.801 31.3742 109.617C31.4759 109.372 31.6705 109.178 31.9152 109.077C32.0992 109 32.3322 109 32.7982 109H41.7982C42.2642 109 42.4972 109 42.6812 109.076C42.9258 109.178 43.12 109.372 43.2212 109.617C43.2982 109.801 43.2982 110.034 43.2982 110.5C43.2982 110.966 43.2982 111.199 43.2222 111.383C43.1205 111.628 42.9259 111.822 42.6812 111.923C42.4972 112 42.2642 112 41.7982 112H32.7982C32.3322 112 32.0992 112 31.9152 111.924C31.6707 111.822 31.4765 111.628 31.3752 111.383C31.2982 111.199 31.2982 110.966 31.2982 110.5ZM29.2982 117.923V124.552C29.2982 124.702 29.3065 124.851 29.3232 125H45.2742C45.2902 124.855 45.2982 124.71 45.2982 124.565V117.908C45.2982 117.599 45.2632 117.296 45.1932 117H29.4062C29.3342 117.301 29.2982 117.608 29.2982 117.922" fill="#A8E6F1"/>
<path d="M30.7992 114.799L34.2992 112H40.3162L41.4582 112.891L43.8152 114.799C44.5069 115.359 44.9922 116.133 45.1942 117H29.4062C29.612 116.131 30.1023 115.357 30.7992 114.799ZM29.3232 125C29.4108 125.777 29.7244 126.512 30.2252 127.113C30.5912 127.551 30.7742 127.771 30.9752 127.955C31.5742 128.501 32.325 128.853 33.1282 128.963C33.3982 129 33.6842 129 34.2552 129H40.9402C41.5306 129 42.1136 128.869 42.6475 128.618C43.1814 128.366 43.6529 127.999 44.0282 127.543L44.3862 127.108C44.8815 126.507 45.1905 125.774 45.2752 125H29.3232Z" fill="#185D6D"/>
<path fill-rule="evenodd" clip-rule="evenodd" d="M37.2982 118.25C37.4971 118.25 37.6879 118.329 37.8285 118.47C37.9692 118.61 38.0482 118.801 38.0482 119V120.25H39.2982C39.4971 120.25 39.6879 120.329 39.8285 120.47C39.9692 120.61 40.0482 120.801 40.0482 121C40.0482 121.199 39.9692 121.39 39.8285 121.53C39.6879 121.671 39.4971 121.75 39.2982 121.75H38.0482V123C38.0482 123.199 37.9692 123.39 37.8285 123.53C37.6879 123.671 37.4971 123.75 37.2982 123.75C37.0993 123.75 36.9085 123.671 36.7679 123.53C36.6272 123.39 36.5482 123.199 36.5482 123V121.75H35.2982C35.0993 121.75 34.9085 121.671 34.7679 121.53C34.6272 121.39 34.5482 121.199 34.5482 121C34.5482 120.801 34.6272 120.61 34.7679 120.47C34.9085 120.329 35.0993 120.25 35.2982 120.25H36.5482V119C36.5482 118.801 36.6272 118.61 36.7679 118.47C36.9085 118.329 37.0993 118.25 37.2982 118.25Z" fill="black"/>
<defs>
<clipPath id="clip0_4096_6345">
<rect x="3.74243" y="76.3682" width="24" height="28" rx="1" transform="rotate(-15 3.74243 76.3682)" fill="white"/>
</clipPath>
</defs>
</svg>
