<svg width="114" height="114" viewBox="0 0 114 114" fill="none" xmlns="http://www.w3.org/2000/svg">
<path d="M20.0041 80L17.0083 83V86H12.5145C10.7919 86 9.69841 87.5 9.51865 89L8.02073 104C7.84098 105.5 8.82961 107 11.0166 107H34.9834C37.1704 107 38.159 105.5 37.9793 104L36.4813 89C36.3016 87.5 35.0733 86 33.4855 86H28.9917V83L25.9959 80H20.0041ZM20.0041 83H25.9959V86H20.0041V83Z" fill="#A8E6F1"/>
<path d="M66.88 71.4399L67.1726 113.045" stroke="black"/>
<path d="M70.4166 113.494C70.4166 114.237 68.9636 113.942 67.1713 113.942C65.379 113.942 63.926 114.237 63.926 113.494C63.926 112.75 65.379 112.148 67.1713 112.148C68.9636 112.148 70.4166 112.75 70.4166 113.494Z" fill="black"/>
<path d="M52.9712 72.6719V112.148" stroke="black"/>
<path d="M55.8118 113.045C55.8118 113.789 54.3588 113.494 52.5665 113.494C50.7741 113.494 49.3212 113.789 49.3212 113.045C49.3212 112.302 50.7741 111.7 52.5665 111.7C54.3588 111.7 55.8118 112.302 55.8118 113.045Z" fill="black"/>
<path d="M54.5067 1.15711C57.8661 -0.5037 61.6931 -0.347887 64.9989 1.43934C66.8121 2.41965 68.9341 3.44158 68.2343 5.53504C67.6706 7.22035 65.9274 6.77912 64.3368 7.14832C63.4496 7.35426 62.4654 7.36099 62.036 8.35242C61.7362 9.04487 61.9054 9.568 62.0526 10.3182C62.196 11.0487 62.6939 11.8009 63.1933 12.4042H89.6542C90.2065 12.4042 90.6542 12.8519 90.6542 13.4042V72.204C90.6542 72.7563 90.2065 73.204 89.6542 73.204H64.4003C64.1234 73.204 63.8566 73.0911 63.6767 72.8807C63.1866 72.3071 62.6724 71.563 62.5351 70.8456C62.5192 70.7624 62.503 70.6821 62.4872 70.6044C62.3728 70.0397 62.2844 69.6015 62.5321 69.0468C62.8685 68.2939 63.5576 68.1694 64.2538 68.0438C64.3928 68.0188 64.5321 67.9939 64.6689 67.9638C65.0661 67.876 65.4738 67.8421 65.8671 67.8095C66.9335 67.7208 67.8982 67.6406 68.287 66.5175C68.9174 64.6962 67.1647 63.7477 65.5507 62.8739C65.4727 62.8317 65.3954 62.7889 65.3183 62.747C62.2701 61.087 58.7288 60.9147 55.6093 62.4081C55.5619 62.4308 55.5141 62.4543 55.4657 62.4774C53.6297 63.3548 51.1724 64.5286 51.8319 66.5526C52.2021 67.6886 53.1451 67.7212 54.2138 67.7577C54.7786 67.777 55.3789 67.7971 55.9482 67.9823C56.0223 68.0065 56.0956 68.0293 56.1669 68.0516C56.7854 68.2459 57.2891 68.4043 57.5956 69.0575C57.8627 69.6268 57.7645 70.0833 57.6366 70.6776C57.6242 70.7355 57.6122 70.7956 57.5995 70.8563C57.3931 71.8426 56.4497 72.5846 55.5194 73.0917C55.3809 73.1672 55.2251 73.2039 55.0673 73.204H30.8544C30.3022 73.2039 29.8544 72.7562 29.8544 72.204V46.5321C29.8544 46.2786 29.9495 46.0326 30.1308 45.8554C30.6212 45.3758 31.2262 44.9044 31.8114 44.7714C31.8854 44.7546 31.9571 44.7382 32.0263 44.7216C32.5282 44.6007 32.9176 44.5061 33.4101 44.7714C34.0785 45.1315 34.1875 45.8666 34.2978 46.6093C34.3198 46.7576 34.3425 46.9066 34.369 47.0526C34.4462 47.4764 34.4755 47.9115 34.5038 48.3309C34.5805 49.4683 34.6499 50.4972 35.6474 50.9139C37.2645 51.5893 38.111 49.7223 38.8905 48.0028V48.0018C38.9281 47.919 38.9655 47.8366 39.0028 47.7548C40.4839 44.5071 40.6445 40.731 39.3232 37.4013L39.2616 37.2479C38.4854 35.2883 37.4471 32.666 35.6474 33.3651C34.6371 33.7578 34.6066 34.7635 34.5722 35.9032C34.554 36.5056 34.5348 37.146 34.369 37.7528C34.3475 37.8318 34.3266 37.9094 34.3065 37.9852L34.1747 38.455C34.0343 38.8996 33.8461 39.2634 33.4101 39.5077C32.9035 39.7915 32.4978 39.6852 31.9696 39.5477C31.9182 39.5343 31.8654 39.5214 31.8114 39.5077C31.0104 39.3048 30.3914 38.4457 29.9482 37.5409C29.8847 37.4114 29.8544 37.2682 29.8544 37.1239V13.4042C29.8544 12.852 30.3022 12.4043 30.8544 12.4042H55.1776C55.9174 11.8801 56.554 11.2044 56.7196 10.3749C56.8692 9.62512 57.0235 9.08867 56.7021 8.40809C56.3272 7.61481 55.6916 7.49701 54.914 7.24793C53.1311 6.67699 51.0803 7.61491 50.456 5.72156C49.7091 3.45657 52.5164 2.14116 54.5067 1.15711Z" fill="#A8E6F1"/>
<ellipse cx="53.6929" cy="31.4895" rx="1.80395" ry="5.76293" fill="black"/>
<path d="M55.4467 23.321C55.6001 23.8867 54.2415 23.7068 52.7549 24.1826C51.2683 24.6585 50.2165 25.61 50.0631 25.0443C49.9098 24.4786 50.9906 23.6342 52.4772 23.1584C53.9638 22.6825 55.2933 22.7553 55.4467 23.321Z" fill="black"/>
<path d="M70.6373 24.8126C70.5119 25.3864 69.4149 24.4973 67.907 24.1084C66.3991 23.7195 65.0514 23.978 65.1767 23.4042C65.302 22.8304 66.626 22.6805 68.1339 23.0694C69.6418 23.4583 70.7626 24.2388 70.6373 24.8126Z" fill="black"/>
<ellipse cx="67.3741" cy="31.4895" rx="1.80395" ry="5.76293" fill="black"/>
<path d="M49.2328 44.7382C48.9806 44.5325 49.0728 44.4322 49.0728 44.4322C49.0728 44.4322 49.1272 44.5415 49.2328 44.7382C49.6421 45.072 50.9582 45.6834 55.047 46.5939C59.3365 47.5491 70.8024 45.9511 70.8024 45.9511C70.8024 45.9511 64.7843 56.0169 60.2063 54.9974C54.3227 53.6872 50.0903 46.3349 49.2328 44.7382Z" fill="black"/>
<path d="M36.5283 51.0892C36.5283 51.0892 31.0315 57.7026 28.572 62.5537C25.1807 69.2427 23.1182 80.8642 23.1182 80.8642" stroke="black"/>
<line y1="-0.3" x2="1.31806" y2="-0.3" transform="matrix(-0.724825 0.688933 -0.704936 -0.709271 23.0126 80.4705)" stroke="black" stroke-width="0.6"/>
<line y1="-0.3" x2="1.31874" y2="-0.3" transform="matrix(0.398856 0.917014 -0.925838 0.377921 23.0126 80.4705)" stroke="black" stroke-width="0.6"/>
<line y1="-0.35" x2="1.53927" y2="-0.35" transform="matrix(-0.215495 0.976505 -0.976563 -0.215232 23.0727 80.4814)" stroke="black" stroke-width="0.7"/>
<path d="M20.0041 80L17.0083 83V86H12.5145C10.7919 86 9.69841 87.5 9.51865 89L8.02073 104C7.84098 105.5 8.82961 107 11.0166 107H34.9834C37.1704 107 38.159 105.5 37.9793 104L36.4813 89C36.3016 87.5 35.0733 86 33.4855 86H28.9917V83L25.9959 80H20.0041ZM20.0041 83H25.9959V86H20.0041V83ZM21.5021 90.5H24.4979V95H28.9917V98H24.4979V102.5H21.5021V98H17.0083V95H21.5021V90.5Z" fill="#185D6D"/>
<path d="M84.8984 47C84.8984 47 91.1747 59.0003 93.3573 67.2827C96.3667 78.7029 95.6991 97.2781 95.6991 97.2781" stroke="black"/>
<line y1="-0.3" x2="2.07565" y2="-0.3" transform="matrix(0.563993 0.82578 0.83816 -0.545425 95.9919 96.7068)" stroke="black" stroke-width="0.6"/>
<line y1="-0.3" x2="2.07671" y2="-0.3" transform="matrix(-0.582528 0.812811 0.825834 0.563913 95.9919 96.7068)" stroke="black" stroke-width="0.6"/>
<line y1="-0.35" x2="2.424" y2="-0.35" transform="matrix(0.00563127 0.999984 0.999986 -0.00536266 95.8957 96.7036)" stroke="black" stroke-width="0.7"/>
</svg>
