<svg width="166" height="150" viewBox="0 0 166 150" fill="none" xmlns="http://www.w3.org/2000/svg">
<path d="M104 94L104.385 148.744" stroke="black"/>
<path d="M108.653 149.334C108.653 150.312 106.742 149.924 104.383 149.924C102.025 149.924 100.113 150.312 100.113 149.334C100.113 148.356 102.025 147.563 104.383 147.563C106.742 147.563 108.653 148.356 108.653 149.334Z" fill="black"/>
<path d="M85.6989 95.6211V147.563" stroke="black"/>
<path d="M89.4365 148.744C89.4365 149.722 87.5247 149.334 85.1664 149.334C82.808 149.334 80.8962 149.722 80.8962 148.744C80.8962 147.766 82.808 146.973 85.1664 146.973C87.5247 146.973 89.4365 147.766 89.4365 148.744Z" fill="black"/>
<path d="M87.7186 1.52233C92.1389 -0.663151 97.1753 -0.457383 101.525 1.8944C103.911 3.18421 106.703 4.52777 105.782 7.2821C105.041 9.50024 102.747 8.92042 100.654 9.40612C99.4868 9.6771 98.1908 9.68547 97.6259 10.9901C97.2314 11.9012 97.4546 12.5898 97.6483 13.577C97.8369 14.5382 98.4922 15.5274 99.1493 16.3212H134.282C134.834 16.3212 135.282 16.7689 135.282 17.3212V95.3212C135.282 95.8734 134.834 96.3212 134.282 96.3212H100.599C100.323 96.3211 100.056 96.2075 99.8739 95.9989C99.2033 95.2313 98.4721 94.2055 98.2831 93.2176C98.2621 93.1082 98.2413 93.0026 98.2206 92.9003C98.0701 92.1573 97.9532 91.5813 98.2792 90.8514C98.7218 89.8606 99.6287 89.6974 100.545 89.5321C100.728 89.4991 100.912 89.4654 101.092 89.4257C101.614 89.3103 102.15 89.2655 102.667 89.2225C104.07 89.1059 105.34 89.0005 105.851 87.5223C106.68 85.1263 104.375 83.878 102.252 82.7284C102.149 82.6728 102.047 82.6176 101.945 82.5624C97.9343 80.3782 93.2744 80.1509 89.1698 82.1161C89.1074 82.146 89.044 82.1765 88.9803 82.2069C86.5645 83.3613 83.3323 84.9062 84.2001 87.5692C84.6871 89.0638 85.9277 89.1062 87.3339 89.1542C88.0771 89.1795 88.8671 89.2063 89.6161 89.4501C89.7136 89.4818 89.8095 89.5124 89.9032 89.5419C90.7172 89.7975 91.3807 90.0054 91.7841 90.8651C92.1356 91.6144 92.006 92.2156 91.8378 92.9979C91.8214 93.0739 91.8046 93.1516 91.788 93.2313C91.5116 94.5528 90.2307 95.5419 88.9852 96.2098C88.8461 96.2844 88.6899 96.3212 88.5321 96.3212H56.2821C55.73 96.321 55.2822 95.8733 55.2821 95.3212V61.1024C55.2821 60.8488 55.3773 60.6031 55.5565 60.4237C56.2166 59.7632 57.0515 59.0932 57.8573 58.91C57.9545 58.8879 58.0486 58.8655 58.1395 58.8436L58.6112 58.7382C59.0643 58.6527 59.4739 58.6483 59.9598 58.91C60.8395 59.3839 60.9836 60.3508 61.1288 61.328C61.1578 61.5233 61.1865 61.7197 61.2216 61.912C61.3231 62.4695 61.3621 63.0408 61.3993 63.5926C61.5002 65.0894 61.5915 66.4436 62.9042 66.9921C65.0321 67.8809 66.146 65.4245 67.1718 63.162C67.2213 63.0526 67.2709 62.9438 67.3202 62.8358C69.2689 58.5626 69.4787 53.5939 67.7401 49.2128L67.66 49.0106C66.6387 46.432 65.2726 42.9818 62.9042 43.9022C61.5749 44.4188 61.5345 45.7414 61.4891 47.2411C61.4652 48.0338 61.4397 48.8762 61.2216 49.6747C61.1932 49.7785 61.1668 49.8806 61.1405 49.9803C60.9118 50.848 60.7248 51.5547 59.9598 51.9833C59.2934 52.3565 58.7601 52.2179 58.0653 52.037C57.9976 52.0194 57.9283 52.0013 57.8573 51.9833C56.785 51.7117 55.961 50.5468 55.3759 49.3339C55.3132 49.2041 55.2822 49.061 55.2821 48.9169V17.3212C55.2821 16.769 55.7299 16.3213 56.2821 16.3212H88.6014C89.5751 15.6315 90.4129 14.7421 90.6307 13.6503C90.8275 12.6641 91.0309 11.9595 90.6083 11.0643C90.1151 10.02 89.2791 9.8638 88.2557 9.536C85.9098 8.7846 83.2111 10.0195 82.3895 7.52819C81.407 4.54811 85.0998 2.8171 87.7186 1.52233Z" fill="#A8E6F1"/>
<ellipse cx="86.6486" cy="41.4336" rx="2.37362" ry="7.5828" fill="black"/>
<path d="M88.9562 30.6855C89.158 31.4298 87.3704 31.1931 85.4143 31.8192C83.4583 32.4454 82.0743 33.6973 81.8725 32.953C81.6707 32.2086 83.0929 31.0976 85.0489 30.4715C87.005 29.8453 88.7543 29.9411 88.9562 30.6855Z" fill="black"/>
<path d="M108.944 32.6479C108.779 33.4029 107.335 32.2331 105.351 31.7213C103.367 31.2096 101.594 31.5497 101.759 30.7948C101.924 30.0398 103.666 29.8426 105.65 30.3543C107.634 30.866 109.109 31.8929 108.944 32.6479Z" fill="black"/>
<ellipse cx="104.65" cy="41.4336" rx="2.37362" ry="7.5828" fill="black"/>
<path d="M80.78 58.8659C80.4482 58.5952 80.5694 58.4632 80.5694 58.4632C80.5694 58.4632 80.641 58.6071 80.78 58.8659C81.3185 59.3051 83.0503 60.1095 88.4302 61.3076C94.0743 62.5645 109.161 60.4618 109.161 60.4618C109.161 60.4618 101.243 73.7063 95.2188 72.3648C87.4773 70.6409 81.9083 60.9668 80.78 58.8659Z" fill="black"/>
<path d="M23.7922 88.0977L68.2706 74.7927" stroke="black"/>
<path d="M127.483 60.6382C127.483 60.6382 133.759 72.6384 135.942 80.9209C138.951 92.3411 138.284 110.916 138.284 110.916" stroke="black"/>
<line y1="-0.3" x2="2.07565" y2="-0.3" transform="matrix(0.563993 0.82578 0.83816 -0.545425 138.576 110.345)" stroke="black" stroke-width="0.6"/>
<line y1="-0.3" x2="2.07671" y2="-0.3" transform="matrix(-0.582528 0.812811 0.825834 0.563913 138.576 110.345)" stroke="black" stroke-width="0.6"/>
<line y1="-0.35" x2="2.424" y2="-0.35" transform="matrix(0.00563127 0.999984 0.999986 -0.00536266 138.48 110.342)" stroke="black" stroke-width="0.7"/>
<path d="M146.5 114V117H145V138C145 139.591 144.368 141.117 143.243 142.243C142.117 143.368 140.591 144 139 144C137.409 144 135.883 143.368 134.757 142.243C133.632 141.117 133 139.591 133 138V117H131.5V114H146.5ZM140.5 133.5C140.102 133.5 139.721 133.658 139.439 133.939C139.158 134.221 139 134.602 139 135C139 135.398 139.158 135.779 139.439 136.061C139.721 136.342 140.102 136.5 140.5 136.5C140.898 136.5 141.279 136.342 141.561 136.061C141.842 135.779 142 135.398 142 135C142 134.602 141.842 134.221 141.561 133.939C141.279 133.658 140.898 133.5 140.5 133.5ZM137.5 129C137.102 129 136.721 129.158 136.439 129.439C136.158 129.721 136 130.102 136 130.5C136 130.898 136.158 131.279 136.439 131.561C136.721 131.842 137.102 132 137.5 132C137.898 132 138.279 131.842 138.561 131.561C138.842 131.279 139 130.898 139 130.5C139 130.102 138.842 129.721 138.561 129.439C138.279 129.158 137.898 129 137.5 129ZM142 117H136V123H142V117Z" fill="#185D6D"/>
<path d="M12.4083 84.1799L42.9233 89.6423L39.5093 108.714L8.99432 103.252L12.4083 84.1799Z" fill="#A8E6F1"/>
<path d="M38.8265 112.529C40.9244 112.904 42.9481 111.495 43.3237 109.397L46.7377 90.3252C47.1132 88.2273 45.704 86.2035 43.6061 85.828L13.0911 80.3656C10.9932 79.9901 8.96951 81.3993 8.59397 83.4972L5.17997 102.569C4.80443 104.667 6.21364 106.691 8.31154 107.066L0.682802 105.701L1.78814e-06 109.515L45.7724 117.709L46.4552 113.894L38.8265 112.529ZM12.4083 84.18L42.9233 89.6424L39.5093 108.714L8.99434 103.252L12.4083 84.18Z" fill="#185D6D"/>
</svg>
