<svg width="150" height="150" viewBox="0 0 150 150" fill="none" xmlns="http://www.w3.org/2000/svg">
<path d="M88 94L88.385 148.744" stroke="black"/>
<path d="M92.6535 149.334C92.6535 150.312 90.7417 149.924 88.3833 149.924C86.025 149.924 84.1132 150.312 84.1132 149.334C84.1132 148.356 86.025 147.563 88.3833 147.563C90.7417 147.563 92.6535 148.356 92.6535 149.334Z" fill="black"/>
<path d="M69.6989 95.6211V147.563" stroke="black"/>
<path d="M73.4365 148.744C73.4365 149.722 71.5247 149.334 69.1664 149.334C66.808 149.334 64.8962 149.722 64.8962 148.744C64.8962 147.766 66.808 146.973 69.1664 146.973C71.5247 146.973 73.4365 147.766 73.4365 148.744Z" fill="black"/>
<path d="M71.7186 1.52233C76.1389 -0.663151 81.1753 -0.457383 85.5253 1.8944C87.911 3.18421 90.7027 4.52777 89.7821 7.2821C89.0406 9.50024 86.7471 8.92042 84.6542 9.40612C83.4868 9.6771 82.1908 9.68547 81.6259 10.9901C81.2314 11.9012 81.4546 12.5898 81.6483 13.577C81.8369 14.5382 82.4922 15.5274 83.1493 16.3212H118.282C118.834 16.3212 119.282 16.7689 119.282 17.3212V95.3212C119.282 95.8734 118.834 96.3212 118.282 96.3212H84.5995C84.3225 96.3211 84.0561 96.2075 83.8739 95.9989C83.2033 95.2313 82.4721 94.2055 82.2831 93.2176C82.2621 93.1082 82.2413 93.0026 82.2206 92.9003C82.0701 92.1573 81.9532 91.5813 82.2792 90.8514C82.7218 89.8606 83.6287 89.6974 84.5448 89.5321C84.7278 89.4991 84.9115 89.4654 85.0917 89.4257C85.6142 89.3103 86.1496 89.2655 86.6669 89.2225C88.0701 89.1059 89.3398 89.0005 89.8514 87.5223C90.6804 85.1263 88.3753 83.878 86.2518 82.7284C86.1492 82.6728 86.0466 82.6176 85.9452 82.5624C81.9343 80.3782 77.2744 80.1509 73.1698 82.1161C73.1074 82.146 73.044 82.1765 72.9803 82.2069C70.5645 83.3613 67.3323 84.9062 68.2001 87.5692C68.6871 89.0638 69.9277 89.1062 71.3339 89.1542C72.0771 89.1795 72.8671 89.2063 73.6161 89.4501C73.7136 89.4818 73.8095 89.5124 73.9032 89.5419C74.7172 89.7975 75.3807 90.0054 75.7841 90.8651C76.1356 91.6144 76.006 92.2156 75.8378 92.9979C75.8214 93.0739 75.8046 93.1516 75.788 93.2313C75.5116 94.5528 74.2307 95.5419 72.9852 96.2098C72.8461 96.2844 72.6899 96.3212 72.5321 96.3212H40.2821C39.73 96.321 39.2822 95.8733 39.2821 95.3212V61.1024C39.2821 60.8488 39.3773 60.6031 39.5565 60.4237C40.2166 59.7632 41.0515 59.0932 41.8573 58.91C41.9545 58.8879 42.0486 58.8655 42.1395 58.8436L42.6112 58.7382C43.0643 58.6527 43.4739 58.6483 43.9598 58.91C44.8395 59.3839 44.9836 60.3508 45.1288 61.328C45.1578 61.5233 45.1865 61.7197 45.2216 61.912C45.3231 62.4695 45.3621 63.0408 45.3993 63.5926C45.5002 65.0894 45.5915 66.4436 46.9042 66.9921C49.0321 67.8809 50.146 65.4245 51.1718 63.162C51.2213 63.0526 51.2709 62.9438 51.3202 62.8358C53.2689 58.5626 53.4787 53.5939 51.7401 49.2128L51.66 49.0106C50.6387 46.432 49.2726 42.9818 46.9042 43.9022C45.5749 44.4188 45.5345 45.7414 45.4891 47.2411C45.4652 48.0338 45.4397 48.8762 45.2216 49.6747C45.1932 49.7785 45.1668 49.8806 45.1405 49.9803C44.9118 50.848 44.7248 51.5547 43.9598 51.9833C43.2934 52.3565 42.7601 52.2179 42.0653 52.037C41.9976 52.0194 41.9283 52.0013 41.8573 51.9833C40.785 51.7117 39.961 50.5468 39.3759 49.3339C39.3132 49.2041 39.2822 49.061 39.2821 48.9169V17.3212C39.2821 16.769 39.7299 16.3213 40.2821 16.3212H72.6014C73.5751 15.6315 74.4129 14.7421 74.6307 13.6503C74.8275 12.6641 75.0309 11.9595 74.6083 11.0643C74.1151 10.02 73.2791 9.8638 72.2557 9.536C69.9098 8.7846 67.2111 10.0195 66.3895 7.52819C65.407 4.54811 69.0998 2.8171 71.7186 1.52233Z" fill="#A8E6F1"/>
<ellipse cx="70.6486" cy="41.4336" rx="2.37362" ry="7.5828" fill="black"/>
<path d="M72.9562 30.6855C73.158 31.4298 71.3704 31.1931 69.4143 31.8192C67.4583 32.4454 66.0743 33.6973 65.8725 32.953C65.6707 32.2086 67.0929 31.0976 69.0489 30.4715C71.005 29.8453 72.7543 29.9411 72.9562 30.6855Z" fill="black"/>
<path d="M92.9438 32.6479C92.7788 33.4029 91.3354 32.2331 89.3513 31.7213C87.3672 31.2096 85.5939 31.5497 85.7588 30.7948C85.9237 30.0398 87.6658 29.8426 89.6499 30.3543C91.634 30.866 93.1087 31.8929 92.9438 32.6479Z" fill="black"/>
<ellipse cx="88.6501" cy="41.4336" rx="2.37362" ry="7.5828" fill="black"/>
<path d="M64.78 58.8659C64.4482 58.5952 64.5694 58.4632 64.5694 58.4632C64.5694 58.4632 64.641 58.6071 64.78 58.8659C65.3185 59.3051 67.0503 60.1095 72.4302 61.3076C78.0743 62.5645 93.1611 60.4618 93.1611 60.4618C93.1611 60.4618 85.2425 73.7063 79.2188 72.3648C71.4773 70.6409 65.9083 60.9668 64.78 58.8659Z" fill="black"/>
<path d="M7.7922 88.0977L52.2706 74.7927" stroke="black"/>
<path d="M111.483 60.6382C111.483 60.6382 117.759 72.6384 119.942 80.9209C122.951 92.3411 122.284 110.916 122.284 110.916" stroke="black"/>
<line y1="-0.3" x2="2.07565" y2="-0.3" transform="matrix(0.563993 0.82578 0.83816 -0.545425 122.576 110.345)" stroke="black" stroke-width="0.6"/>
<line y1="-0.3" x2="2.07671" y2="-0.3" transform="matrix(-0.582528 0.812811 0.825834 0.563913 122.576 110.345)" stroke="black" stroke-width="0.6"/>
<line y1="-0.35" x2="2.424" y2="-0.35" transform="matrix(0.00563127 0.999984 0.999986 -0.00536266 122.48 110.342)" stroke="black" stroke-width="0.7"/>
<rect x="0.125641" y="68.2588" width="26" height="31" rx="1" transform="rotate(-7.21743 0.125641 68.2588)" fill="#185D6D"/>
<rect x="1.36899" y="70.1172" width="24" height="28" rx="1" transform="rotate(-7.21743 1.36899 70.1172)" fill="#A8E6F1"/>
<rect x="3.73004" y="72.842" width="19" height="2" rx="1" transform="rotate(-7.21743 3.73004 72.842)" fill="#185D6D"/>
<rect x="4.10696" y="75.8184" width="19" height="2" rx="1" transform="rotate(-7.21743 4.10696 75.8184)" fill="#185D6D"/>
<rect x="4.48386" y="78.7947" width="12" height="2" rx="1" transform="rotate(-7.21743 4.48386 78.7947)" fill="#185D6D"/>
<rect x="5.21164" y="68.6226" width="15" height="2" rx="1" transform="rotate(-7.21743 5.21164 68.6226)" fill="black"/>
<rect x="10.9128" y="65.8845" width="3" height="3" rx="1.5" transform="rotate(-7.21743 10.9128 65.8845)" fill="black"/>
<g clip-path="url(#clip0_4096_6270)">
<path d="M104.656 30.9377L129.609 35.5444C130.588 35.7251 131.243 36.6767 131.062 37.6558L127.785 55.4083C127.604 56.3874 126.653 57.0424 125.674 56.8616L112.377 54.4069L104.585 59.7707C104.438 59.8745 104.264 59.932 104.085 59.9358C103.906 59.9397 103.729 59.8897 103.579 59.7923C103.428 59.6949 103.31 59.5546 103.24 59.3895C103.17 59.2244 103.151 59.0422 103.186 58.8662L104.285 52.9131L100.72 52.255C100.248 52.1677 99.8289 51.8962 99.5564 51.5003C99.2838 51.1043 99.1797 50.6163 99.267 50.1435L102.544 32.391C102.725 31.4119 103.677 30.7569 104.656 30.9377ZM107.59 44.9956C108.22 45.112 108.871 44.9732 109.399 44.6098C109.927 44.2464 110.289 43.6881 110.405 43.0579C110.521 42.4276 110.383 41.7769 110.019 41.2489C109.656 40.7209 109.098 40.359 108.467 40.2426C107.837 40.1263 107.186 40.265 106.658 40.6284C106.13 40.9919 105.768 41.5501 105.652 42.1804C105.536 42.8107 105.675 43.4614 106.038 43.9893C106.401 44.5173 106.96 44.8793 107.59 44.9956ZM114.719 46.3118C115.35 46.4282 116 46.2894 116.528 45.926C117.056 45.5626 117.418 45.0043 117.535 44.374C117.651 43.7438 117.512 43.0931 117.149 42.5651C116.785 42.0371 116.227 41.6752 115.597 41.5588C114.967 41.4424 114.316 41.5812 113.788 41.9446C113.26 42.308 112.898 42.8663 112.782 43.4966C112.665 44.1269 112.804 44.7776 113.167 45.3055C113.531 45.8335 114.089 46.1955 114.719 46.3118ZM124.664 45.6902C124.781 45.0599 124.642 44.4092 124.278 43.8813C123.915 43.3533 123.357 42.9913 122.726 42.875C122.096 42.7586 121.445 42.8974 120.917 43.2608C120.389 43.6242 120.027 44.1825 119.911 44.8128C119.795 45.4431 119.934 46.0938 120.297 46.6217C120.66 47.1497 121.219 47.5117 121.849 47.628C122.479 47.7444 123.13 47.6056 123.658 47.2422C124.186 46.8788 124.548 46.3205 124.664 45.6902Z" fill="#185D6D"/>
</g>
<path d="M110.037 146.658V140.742C110.037 138.623 109.482 137.522 108.392 135.68C107.063 133.43 106.353 130.869 106.333 128.256C106.314 125.643 106.986 123.072 108.282 120.803C109.577 118.534 111.45 116.647 113.709 115.336C115.969 114.024 118.535 113.333 121.148 113.333C125.077 113.334 128.844 114.894 131.622 117.672C134.401 120.449 135.962 124.216 135.963 128.145C135.963 129.112 135.963 129.595 136.003 129.865C136.1 130.512 136.403 131.068 136.698 131.645L139.667 137.402L137.333 138.568C136.658 138.905 136.32 139.073 136.085 139.385C135.85 139.697 135.783 140.05 135.652 140.752L135.638 140.822C135.333 142.435 134.998 144.215 134.055 145.338C133.722 145.733 133.308 146.055 132.843 146.283C132.075 146.658 131.13 146.658 129.24 146.658C128.365 146.658 127.488 146.678 126.613 146.658C124.542 146.607 123 144.863 123 142.842" stroke="#185D6D" stroke-width="1.5" stroke-linecap="round" stroke-linejoin="round"/>
<path d="M126.98 127.553C126.27 127.553 125.622 127.283 125.13 126.842M126.98 127.553C126.98 129.463 125.873 131.277 123.743 131.277C121.613 131.277 120.507 133.09 120.507 135M126.98 127.553C130.563 127.553 130.563 121.968 126.98 121.968C126.653 121.969 126.344 122.022 126.052 122.127C126.227 117.963 120.225 116.833 118.865 120.733M118.865 120.733C119.857 121.402 120.507 122.538 120.507 123.828M118.865 120.733C115.778 118.65 111.665 122.388 113.622 125.722C110.338 126.213 110.688 131.277 114.033 131.277C114.479 131.276 114.919 131.168 115.314 130.962C115.709 130.755 116.049 130.456 116.303 130.09" stroke="#185D6D" stroke-width="1.5" stroke-linecap="round" stroke-linejoin="round"/>
<defs>
<clipPath id="clip0_4096_6270">
<rect width="29" height="29" fill="white" transform="translate(102.873 30.6086) rotate(10.4597)"/>
</clipPath>
</defs>
</svg>
