<svg width="150" height="150" viewBox="0 0 150 150" fill="none" xmlns="http://www.w3.org/2000/svg">
<path d="M88 94L88.385 148.744" stroke="black"/>
<path d="M92.6535 149.334C92.6535 150.312 90.7417 149.924 88.3833 149.924C86.025 149.924 84.1132 150.312 84.1132 149.334C84.1132 148.356 86.025 147.563 88.3833 147.563C90.7417 147.563 92.6535 148.356 92.6535 149.334Z" fill="black"/>
<path d="M69.6989 95.621V147.563" stroke="black"/>
<path d="M73.4365 148.744C73.4365 149.722 71.5247 149.334 69.1664 149.334C66.808 149.334 64.8962 149.722 64.8962 148.744C64.8962 147.766 66.808 146.973 69.1664 146.973C71.5247 146.973 73.4365 147.766 73.4365 148.744Z" fill="black"/>
<path d="M70.7186 1.52233C75.1389 -0.663151 80.1753 -0.457383 84.5253 1.8944C86.911 3.18421 89.7027 4.52777 88.7821 7.2821C88.0406 9.50024 85.7471 8.92042 83.6542 9.40612C82.4868 9.6771 81.1908 9.68547 80.6259 10.9901C80.2314 11.9012 80.4546 12.5898 80.6483 13.577C80.8369 14.5382 81.4922 15.5274 82.1493 16.3212H117.282C117.834 16.3212 118.282 16.7689 118.282 17.3212V95.3212C118.282 95.8734 117.834 96.3212 117.282 96.3212H83.5995C83.3225 96.3211 83.0561 96.2075 82.8739 95.9989C82.2033 95.2313 81.4721 94.2055 81.2831 93.2176C81.2621 93.1082 81.2413 93.0026 81.2206 92.9003C81.0701 92.1573 80.9532 91.5813 81.2792 90.8514C81.7218 89.8606 82.6287 89.6974 83.5448 89.5321C83.7278 89.4991 83.9115 89.4654 84.0917 89.4257C84.6142 89.3103 85.1496 89.2655 85.6669 89.2225C87.0701 89.1059 88.3398 89.0005 88.8514 87.5223C89.6804 85.1263 87.3753 83.878 85.2518 82.7284C85.1492 82.6728 85.0466 82.6176 84.9452 82.5624C80.9343 80.3782 76.2744 80.1509 72.1698 82.1161C72.1074 82.146 72.044 82.1765 71.9803 82.2069C69.5645 83.3613 66.3323 84.9062 67.2001 87.5692C67.6871 89.0638 68.9277 89.1062 70.3339 89.1542C71.0771 89.1795 71.8671 89.2063 72.6161 89.4501C72.7136 89.4818 72.8095 89.5124 72.9032 89.5419C73.7172 89.7975 74.3807 90.0054 74.7841 90.8651C75.1356 91.6144 75.006 92.2156 74.8378 92.9979C74.8214 93.0739 74.8046 93.1516 74.788 93.2313C74.5116 94.5528 73.2307 95.5419 71.9852 96.2098C71.8461 96.2844 71.6899 96.3212 71.5321 96.3212H39.2821C38.73 96.321 38.2822 95.8733 38.2821 95.3212V61.1024C38.2821 60.8488 38.3773 60.6031 38.5565 60.4237C39.2166 59.7632 40.0515 59.0932 40.8573 58.91C40.9545 58.8879 41.0486 58.8655 41.1395 58.8436L41.6112 58.7382C42.0643 58.6527 42.4739 58.6483 42.9598 58.91C43.8395 59.3839 43.9836 60.3508 44.1288 61.328C44.1578 61.5233 44.1865 61.7197 44.2216 61.912C44.3231 62.4695 44.3621 63.0408 44.3993 63.5926C44.5002 65.0894 44.5915 66.4436 45.9042 66.9921C48.0321 67.8809 49.146 65.4245 50.1718 63.162C50.2213 63.0526 50.2709 62.9438 50.3202 62.8358C52.2689 58.5626 52.4787 53.5939 50.7401 49.2128L50.66 49.0106C49.6387 46.432 48.2726 42.9818 45.9042 43.9022C44.5749 44.4188 44.5345 45.7414 44.4891 47.2411C44.4652 48.0338 44.4397 48.8762 44.2216 49.6747C44.1932 49.7785 44.1668 49.8806 44.1405 49.9803C43.9118 50.848 43.7248 51.5547 42.9598 51.9833C42.2934 52.3565 41.7601 52.2179 41.0653 52.037C40.9976 52.0194 40.9283 52.0013 40.8573 51.9833C39.785 51.7117 38.961 50.5468 38.3759 49.3339C38.3132 49.2041 38.2822 49.061 38.2821 48.9169V17.3212C38.2821 16.769 38.7299 16.3213 39.2821 16.3212H71.6014C72.5751 15.6315 73.4129 14.7421 73.6307 13.6503C73.8275 12.6641 74.0309 11.9595 73.6083 11.0643C73.1151 10.02 72.2791 9.8638 71.2557 9.536C68.9098 8.7846 66.2111 10.0195 65.3895 7.52819C64.407 4.54811 68.0998 2.8171 70.7186 1.52233Z" fill="#A8E6F1"/>
<ellipse cx="70.6486" cy="41.4336" rx="2.37362" ry="7.5828" fill="black"/>
<path d="M72.9562 30.6855C73.158 31.4298 71.3704 31.1931 69.4143 31.8192C67.4583 32.4454 66.0743 33.6973 65.8725 32.953C65.6707 32.2086 67.0929 31.0976 69.0489 30.4715C71.005 29.8453 72.7543 29.9411 72.9562 30.6855Z" fill="black"/>
<path d="M92.9438 32.6479C92.7788 33.4029 91.3354 32.2331 89.3513 31.7213C87.3672 31.2096 85.5939 31.5497 85.7588 30.7948C85.9237 30.0398 87.6658 29.8426 89.6499 30.3543C91.634 30.866 93.1087 31.8929 92.9438 32.6479Z" fill="black"/>
<ellipse cx="88.6501" cy="41.4336" rx="2.37362" ry="7.5828" fill="black"/>
<path d="M64.78 58.866C64.4482 58.5954 64.5694 58.4634 64.5694 58.4634C64.5694 58.4634 64.641 58.6072 64.78 58.866C65.3185 59.3052 67.0503 60.1097 72.4302 61.3077C78.0743 62.5646 93.1611 60.4619 93.1611 60.4619C93.1611 60.4619 85.2425 73.7064 79.2188 72.365C71.4773 70.641 65.9083 60.967 64.78 58.866Z" fill="black"/>
<path d="M105.465 75.0331C105.465 75.0331 115.134 73.6076 120.32 71.2028C127.47 67.887 135.251 58.8162 135.251 58.8162" stroke="black"/>
<line y1="-0.3" x2="1.57101" y2="-0.3" transform="matrix(0.999899 -0.0142183 0.386204 0.922413 135.2 59.275)" stroke="black" stroke-width="0.6"/>
<line y1="-0.3" x2="1.58642" y2="-0.3" transform="matrix(-0.0556502 -0.99845 0.945156 0.32662 135.2 59.275)" stroke="black" stroke-width="0.6"/>
<line y1="-0.35" x2="1.55731" y2="-0.35" transform="matrix(0.696759 -0.717305 0.720635 0.693315 135.132 59.213)" stroke="black" stroke-width="0.7"/>
<path d="M53.9135 76.0307C53.9135 76.0307 45.9509 82.7393 42.5509 87.8462C37.8629 94.8878 35.6617 107.575 35.6617 107.575" stroke="black"/>
<line y1="-0.3" x2="1.66686" y2="-0.3" transform="matrix(-0.842708 0.538372 -0.797941 -0.602736 35.4639 107.124)" stroke="black" stroke-width="0.6"/>
<line y1="-0.3" x2="1.68196" y2="-0.3" transform="matrix(0.547234 0.836979 -0.976347 0.216207 35.4639 107.124)" stroke="black" stroke-width="0.6"/>
<line y1="-0.35" x2="1.67812" y2="-0.35" transform="matrix(-0.229722 0.973256 -0.974263 -0.225417 35.5582 107.144)" stroke="black" stroke-width="0.7"/>
<path d="M19.9998 105C21.485 105 22.9094 105.593 23.9596 106.648C25.0098 107.702 25.5998 109.133 25.5998 110.625C25.5998 112.117 25.0098 113.548 23.9596 114.602C22.9094 115.657 21.485 116.25 19.9998 116.25C18.5146 116.25 17.0902 115.657 16.04 114.602C14.9898 113.548 14.3998 112.117 14.3998 110.625C14.3998 109.133 14.9898 107.702 16.04 106.648C17.0902 105.593 18.5146 105 19.9998 105ZM13.6998 147.188V140.156H12.1423C11.1885 140.156 10.5148 139.216 10.8123 138.302L13.5335 130.093L11.031 133.415C10.0948 134.654 8.33604 134.892 7.11104 133.96C5.88604 133.028 5.64104 131.262 6.56854 130.022L11.7223 123.193C13.6823 120.592 16.7535 119.062 19.9998 119.062C23.246 119.062 26.3173 120.592 28.2773 123.193L33.431 130.022C34.3673 131.262 34.1223 133.028 32.8885 133.96C31.6548 134.892 29.896 134.654 28.9685 133.415L26.466 130.093L29.1873 138.302C29.4935 139.216 28.811 140.156 27.8573 140.156H26.2998V147.188C26.2998 148.743 25.0485 150 23.4998 150C21.951 150 20.6998 148.743 20.6998 147.188V140.156H19.2998V147.188C19.2998 148.743 18.0485 150 16.4998 150C14.951 150 13.6998 148.743 13.6998 147.188ZM47.9998 105C49.485 105 50.9094 105.593 51.9596 106.648C53.0098 107.702 53.5998 109.133 53.5998 110.625C53.5998 112.117 53.0098 113.548 51.9596 114.602C50.9094 115.657 49.485 116.25 47.9998 116.25C46.5146 116.25 45.0902 115.657 44.04 114.602C42.9898 113.548 42.3998 112.117 42.3998 110.625C42.3998 109.133 42.9898 107.702 44.04 106.648C45.0902 105.593 46.5146 105 47.9998 105ZM47.2998 138.75V147.188C47.2998 148.743 46.0485 150 44.4998 150C42.951 150 41.6998 148.743 41.6998 147.188V131.411L40.571 133.213C39.7485 134.531 38.016 134.918 36.7123 134.092C35.4085 133.266 35.0148 131.525 35.8373 130.216L40.361 123C41.901 120.548 44.5873 119.054 47.466 119.054H48.5423C51.4298 119.054 54.116 120.539 55.6473 123L60.171 130.225C60.9935 131.543 60.5998 133.274 59.296 134.101C57.9923 134.927 56.2598 134.531 55.4373 133.222L54.2998 131.411V147.188C54.2998 148.743 53.0485 150 51.4998 150C49.951 150 48.6998 148.743 48.6998 147.188V138.75H47.2998Z" fill="#185D6D"/>
<path d="M128.849 36.2667L132.466 31.5844C132.724 31.24 133.031 30.9872 133.387 30.8262C133.742 30.6652 134.113 30.5842 134.5 30.5834C134.887 30.5825 135.258 30.6635 135.615 30.8262C135.971 30.989 136.278 31.2417 136.534 31.5844L140.151 36.2667L145.641 38.1073C146.2 38.2796 146.642 38.5973 146.965 39.0606C147.287 39.5239 147.449 40.0349 147.449 40.5938C147.449 40.8521 147.411 41.1105 147.335 41.3688C147.26 41.6271 147.136 41.8747 146.965 42.1115L143.412 47.149L143.542 52.4448C143.563 53.1983 143.316 53.8334 142.799 54.35C142.282 54.8667 141.68 55.125 140.991 55.125C140.948 55.125 140.711 55.0928 140.28 55.0282L134.5 53.4136L128.72 55.0282C128.612 55.0712 128.494 55.0984 128.365 55.1096C128.235 55.1207 128.117 55.1259 128.009 55.125C127.32 55.125 126.718 54.8667 126.201 54.35C125.684 53.8334 125.437 53.1983 125.458 52.4448L125.587 47.1167L122.068 42.1115C121.895 41.8747 121.771 41.6271 121.696 41.3688C121.62 41.1105 121.582 40.8521 121.583 40.5938C121.583 40.0556 121.74 39.5553 122.052 39.0929C122.365 38.6305 122.801 38.302 123.359 38.1073L128.849 36.2667Z" fill="#A8E6F1"/>
<path d="M134.5 48.6667C135.533 48.6667 136.454 48.3602 137.262 47.747C138.069 47.1339 138.656 46.3426 139.021 45.373H129.979C130.345 46.3417 130.932 47.1331 131.74 47.747C132.547 48.361 133.468 48.6676 134.5 48.6667ZM131.271 43.5C131.809 43.5 132.267 43.3119 132.644 42.9356C133.021 42.5593 133.209 42.1016 133.208 41.5625C133.207 41.0235 133.019 40.5662 132.644 40.1908C132.268 39.8154 131.811 39.6268 131.271 39.625C130.731 39.6233 130.274 39.8119 129.899 40.1908C129.524 40.5697 129.336 41.0269 129.333 41.5625C129.331 42.0982 129.519 42.5558 129.899 42.9356C130.279 43.3153 130.736 43.5035 131.271 43.5ZM137.729 43.5C138.267 43.5 138.725 43.3119 139.102 42.9356C139.479 42.5593 139.668 42.1016 139.667 41.5625C139.666 41.0235 139.478 40.5662 139.102 40.1908C138.727 39.8154 138.269 39.6268 137.729 39.625C137.189 39.6233 136.732 39.8119 136.357 40.1908C135.983 40.5697 135.794 41.0269 135.792 41.5625C135.789 42.0982 135.978 42.5558 136.357 42.9356C136.737 43.3153 137.194 43.5035 137.729 43.5ZM128.849 36.2667L132.466 31.5844C132.724 31.24 133.031 30.9872 133.387 30.8262C133.742 30.6652 134.113 30.5842 134.5 30.5834C134.887 30.5825 135.258 30.6635 135.615 30.8262C135.971 30.989 136.278 31.2417 136.534 31.5844L140.151 36.2667L145.641 38.1073C146.2 38.2796 146.642 38.5973 146.965 39.0606C147.287 39.5239 147.449 40.0349 147.449 40.5938C147.449 40.8521 147.411 41.1105 147.335 41.3688C147.26 41.6271 147.136 41.8747 146.965 42.1115L143.412 47.149L143.542 52.4448C143.563 53.1983 143.316 53.8334 142.799 54.35C142.282 54.8667 141.68 55.125 140.991 55.125C140.948 55.125 140.711 55.0928 140.28 55.0282L134.5 53.4136L128.72 55.0282C128.612 55.0712 128.494 55.0984 128.365 55.1096C128.235 55.1207 128.117 55.1259 128.009 55.125C127.32 55.125 126.718 54.8667 126.201 54.35C125.684 53.8334 125.437 53.1983 125.458 52.4448L125.587 47.1167L122.068 42.1115C121.895 41.8747 121.771 41.6271 121.696 41.3688C121.62 41.1105 121.582 40.8521 121.583 40.5938C121.583 40.0556 121.74 39.5553 122.052 39.0929C122.365 38.6305 122.801 38.302 123.359 38.1073L128.849 36.2667Z" fill="#185D6D"/>
<g clip-path="url(#clip0_4096_6043)">
<path d="M111.315 111.023L114.63 109.921C114.87 109.837 115.104 109.815 115.331 109.853C115.558 109.891 115.767 109.974 115.957 110.101C116.146 110.228 116.302 110.39 116.423 110.587C116.544 110.784 116.611 111.009 116.623 111.261L116.852 114.747L118.935 117.457C119.153 117.726 119.264 118.027 119.27 118.361C119.275 118.694 119.186 118.998 119.002 119.271C118.917 119.398 118.813 119.512 118.691 119.614C118.568 119.715 118.426 119.796 118.264 119.855L114.864 121.153L113.183 123.79C112.945 124.166 112.614 124.395 112.191 124.478C111.768 124.561 111.387 124.489 111.05 124.262C111.029 124.248 110.923 124.154 110.734 123.981L108.434 121.285L105.07 120.171C105.003 120.157 104.937 120.131 104.87 120.094C104.803 120.057 104.743 120.021 104.69 119.985C104.353 119.758 104.143 119.433 104.06 119.009C103.977 118.586 104.065 118.193 104.324 117.831L106.143 115.264L106.068 111.652C106.061 111.479 106.082 111.317 106.13 111.165C106.178 111.014 106.245 110.875 106.33 110.749C106.508 110.485 106.749 110.292 107.055 110.168C107.36 110.044 107.682 110.027 108.02 110.116L111.315 111.023Z" fill="#A8E6F1"/>
</g>
<g clip-path="url(#clip1_4096_6043)">
<path d="M109.998 118.96C110.504 119.3 111.056 119.453 111.654 119.419C112.252 119.385 112.8 119.19 113.298 118.836L108.869 115.856C108.729 116.452 108.756 117.033 108.949 117.6C109.142 118.166 109.492 118.62 109.998 118.96ZM110.119 115.364C110.382 115.542 110.668 115.6 110.977 115.54C111.286 115.48 111.529 115.318 111.706 115.054C111.883 114.789 111.942 114.503 111.882 114.196C111.821 113.888 111.659 113.645 111.395 113.466C111.131 113.287 110.845 113.229 110.537 113.291C110.229 113.354 109.986 113.515 109.808 113.777C109.63 114.038 109.572 114.325 109.633 114.636C109.693 114.947 109.855 115.19 110.119 115.364ZM113.282 117.492C113.546 117.67 113.832 117.728 114.141 117.668C114.45 117.608 114.693 117.446 114.87 117.182C115.047 116.917 115.106 116.631 115.045 116.324C114.985 116.016 114.823 115.773 114.559 115.594C114.295 115.415 114.009 115.357 113.701 115.419C113.392 115.482 113.149 115.643 112.972 115.905C112.794 116.166 112.736 116.453 112.796 116.764C112.857 117.075 113.019 117.318 113.282 117.492ZM111.315 111.023L114.63 109.921C114.87 109.837 115.104 109.815 115.331 109.853C115.558 109.891 115.767 109.974 115.957 110.101C116.146 110.228 116.302 110.39 116.423 110.587C116.544 110.784 116.611 111.009 116.623 111.261L116.852 114.747L118.935 117.457C119.153 117.726 119.264 118.027 119.27 118.361C119.275 118.694 119.186 118.998 119.002 119.271C118.917 119.398 118.813 119.512 118.691 119.614C118.568 119.715 118.426 119.796 118.264 119.855L114.864 121.153L113.183 123.79C112.945 124.166 112.614 124.395 112.191 124.478C111.768 124.561 111.387 124.489 111.05 124.262C111.029 124.248 110.923 124.154 110.734 123.981L108.434 121.285L105.07 120.171C105.003 120.157 104.937 120.131 104.87 120.094C104.803 120.057 104.743 120.021 104.69 119.985C104.353 119.758 104.143 119.433 104.06 119.009C103.977 118.586 104.065 118.193 104.324 117.831L106.143 115.264L106.068 111.652C106.061 111.479 106.082 111.317 106.13 111.165C106.178 111.014 106.245 110.875 106.33 110.749C106.508 110.485 106.749 110.292 107.055 110.168C107.36 110.044 107.682 110.027 108.02 110.116L111.315 111.023Z" fill="#185D6D"/>
</g>
<g clip-path="url(#clip2_4096_6043)">
<path d="M9.7778 76.5724L10.4547 72.0423C10.4993 71.7119 10.6114 71.4252 10.791 71.1821C10.9706 70.939 11.1909 70.7442 11.4519 70.5976C11.7129 70.4511 11.9946 70.3655 12.297 70.3409C12.5994 70.3164 12.902 70.3715 13.2048 70.5062L17.417 72.3057L21.8224 71.4774C22.2657 71.3825 22.6839 71.4307 23.0771 71.6219C23.4703 71.8131 23.7723 72.0976 23.9833 72.4754C24.0808 72.65 24.1528 72.8389 24.1991 73.0421C24.2454 73.2453 24.2553 73.4593 24.2289 73.6841L23.7297 78.4299L25.8163 81.9607C26.1153 82.4618 26.1877 82.9846 26.0335 83.5288C25.8793 84.0731 25.5694 84.4753 25.1038 84.7353C25.0747 84.7516 24.9025 84.8192 24.5871 84.938L20.0706 86.0289L16.7732 89.3023C16.7167 89.372 16.647 89.4351 16.5639 89.4914C16.4808 89.5477 16.4027 89.5959 16.3296 89.636C15.864 89.896 15.3591 89.949 14.8148 89.7948C14.2705 89.6406 13.8634 89.3048 13.5935 88.7874L11.6694 85.1373L7.40077 83.083C7.19497 82.988 7.01769 82.8675 6.86895 82.7215C6.7202 82.5754 6.59736 82.415 6.50042 82.24C6.29724 81.8763 6.21401 81.4791 6.25071 81.0485C6.28742 80.618 6.45791 80.2314 6.76219 79.8889L9.7778 76.5724Z" fill="#A8E6F1"/>
</g>
<g clip-path="url(#clip3_4096_6043)">
<path d="M18.2786 82.8204C18.977 82.4303 19.4835 81.8756 19.798 81.1562C20.1125 80.4369 20.2101 79.6806 20.0908 78.8874L13.9795 82.3008C14.5926 82.8174 15.288 83.1308 16.0657 83.2408C16.8434 83.3509 17.5811 83.2107 18.2786 82.8204ZM14.1455 80.5472C14.5092 80.3441 14.7476 80.0441 14.8604 79.6474C14.9733 79.2506 14.9277 78.8702 14.7236 78.5062C14.5195 78.1422 14.2197 77.9042 13.8242 77.7921C13.4287 77.6801 13.0482 77.7254 12.6826 77.9281C12.317 78.1307 12.0791 78.4308 11.969 78.8283C11.8588 79.2258 11.904 79.6061 12.1045 79.9691C12.3049 80.3321 12.6052 80.5702 13.0052 80.6836C13.4052 80.7969 13.7853 80.7514 14.1455 80.5472ZM18.5107 78.1091C18.8745 77.9059 19.1128 77.606 19.2257 77.2092C19.3386 76.8125 19.293 76.4321 19.0889 76.0681C18.8848 75.7041 18.585 75.466 18.1895 75.354C17.794 75.242 17.4135 75.2873 17.0479 75.4899C16.6823 75.6926 16.4444 75.9927 16.3343 76.3902C16.2241 76.7877 16.2693 77.168 16.4697 77.531C16.6702 77.894 16.9704 78.1321 17.3705 78.2454C17.7705 78.3588 18.1506 78.3133 18.5107 78.1091ZM9.7778 76.5724L10.4547 72.0423C10.4993 71.7119 10.6114 71.4252 10.791 71.1821C10.9706 70.939 11.1909 70.7442 11.4519 70.5976C11.7129 70.4511 11.9946 70.3655 12.297 70.3409C12.5994 70.3164 12.902 70.3715 13.2048 70.5062L17.417 72.3057L21.8224 71.4774C22.2657 71.3825 22.6839 71.4307 23.0771 71.6219C23.4703 71.8131 23.7723 72.0976 23.9833 72.4754C24.0808 72.65 24.1528 72.8389 24.1991 73.0421C24.2454 73.2453 24.2553 73.4593 24.2289 73.6841L23.7297 78.4299L25.8163 81.9607C26.1153 82.4618 26.1877 82.9846 26.0335 83.5288C25.8793 84.0731 25.5694 84.4753 25.1038 84.7353C25.0747 84.7516 24.9025 84.8192 24.5871 84.938L20.0706 86.0289L16.7732 89.3023C16.7167 89.372 16.647 89.4351 16.5639 89.4914C16.4808 89.5477 16.4027 89.5959 16.3296 89.636C15.864 89.896 15.3591 89.949 14.8148 89.7948C14.2705 89.6406 13.8634 89.3048 13.5935 88.7874L11.6694 85.1373L7.40077 83.083C7.19497 82.988 7.01769 82.8675 6.86895 82.7215C6.7202 82.5754 6.59736 82.415 6.50042 82.24C6.29724 81.8763 6.21401 81.4791 6.25071 81.0485C6.28742 80.618 6.45791 80.2314 6.76219 79.8889L9.7778 76.5724Z" fill="#185D6D"/>
</g>
<defs>
<clipPath id="clip0_4096_6043">
<rect width="18.3021" height="18.3021" fill="white" transform="translate(109.214 103.728) rotate(33.9243)"/>
</clipPath>
<clipPath id="clip1_4096_6043">
<rect width="18.3021" height="18.3021" fill="white" transform="translate(109.214 103.728) rotate(33.9243)"/>
</clipPath>
<clipPath id="clip2_4096_6043">
<rect width="24" height="24" fill="white" transform="translate(0 74.703) rotate(-29.1846)"/>
</clipPath>
<clipPath id="clip3_4096_6043">
<rect width="24" height="24" fill="white" transform="translate(0 74.703) rotate(-29.1846)"/>
</clipPath>
</defs>
</svg>
