<svg width="150" height="150" viewBox="0 0 150 150" fill="none" xmlns="http://www.w3.org/2000/svg">
<path d="M88 94L88.385 148.744" stroke="black"/>
<path d="M92.6535 149.334C92.6535 150.312 90.7417 149.924 88.3833 149.924C86.025 149.924 84.1132 150.312 84.1132 149.334C84.1132 148.356 86.025 147.563 88.3833 147.563C90.7417 147.563 92.6535 148.356 92.6535 149.334Z" fill="black"/>
<path d="M69.6989 95.621V147.563" stroke="black"/>
<path d="M73.4365 148.744C73.4365 149.722 71.5247 149.334 69.1664 149.334C66.808 149.334 64.8962 149.722 64.8962 148.744C64.8962 147.766 66.808 146.973 69.1664 146.973C71.5247 146.973 73.4365 147.766 73.4365 148.744Z" fill="black"/>
<path d="M71.7186 1.52233C76.1389 -0.663151 81.1753 -0.457383 85.5253 1.8944C87.911 3.18421 90.7027 4.52777 89.7821 7.2821C89.0406 9.50024 86.7471 8.92042 84.6542 9.40612C83.4868 9.6771 82.1908 9.68547 81.6259 10.9901C81.2314 11.9012 81.4546 12.5898 81.6483 13.577C81.8369 14.5382 82.4922 15.5274 83.1493 16.3212H118.282C118.834 16.3212 119.282 16.7689 119.282 17.3212V95.3212C119.282 95.8734 118.834 96.3212 118.282 96.3212H84.5995C84.3225 96.3211 84.0561 96.2075 83.8739 95.9989C83.2033 95.2313 82.4721 94.2055 82.2831 93.2176C82.2621 93.1082 82.2413 93.0026 82.2206 92.9003C82.0701 92.1573 81.9532 91.5813 82.2792 90.8514C82.7218 89.8606 83.6287 89.6974 84.5448 89.5321C84.7278 89.4991 84.9115 89.4654 85.0917 89.4257C85.6142 89.3103 86.1496 89.2655 86.6669 89.2225C88.0701 89.1059 89.3398 89.0005 89.8514 87.5223C90.6804 85.1263 88.3753 83.878 86.2518 82.7284C86.1492 82.6728 86.0466 82.6176 85.9452 82.5624C81.9343 80.3782 77.2744 80.1509 73.1698 82.1161C73.1074 82.146 73.044 82.1765 72.9803 82.2069C70.5645 83.3613 67.3323 84.9062 68.2001 87.5692C68.6871 89.0638 69.9277 89.1062 71.3339 89.1542C72.0771 89.1795 72.8671 89.2063 73.6161 89.4501C73.7136 89.4818 73.8095 89.5124 73.9032 89.5419C74.7172 89.7975 75.3807 90.0054 75.7841 90.8651C76.1356 91.6144 76.006 92.2156 75.8378 92.9979C75.8214 93.0739 75.8046 93.1516 75.788 93.2313C75.5116 94.5528 74.2307 95.5419 72.9852 96.2098C72.8461 96.2844 72.6899 96.3212 72.5321 96.3212H40.2821C39.73 96.321 39.2822 95.8733 39.2821 95.3212V61.1024C39.2821 60.8488 39.3773 60.6031 39.5565 60.4237C40.2166 59.7632 41.0515 59.0932 41.8573 58.91C41.9545 58.8879 42.0486 58.8655 42.1395 58.8436L42.6112 58.7382C43.0643 58.6527 43.4739 58.6483 43.9598 58.91C44.8395 59.3839 44.9836 60.3508 45.1288 61.328C45.1578 61.5233 45.1865 61.7197 45.2216 61.912C45.3231 62.4695 45.3621 63.0408 45.3993 63.5926C45.5002 65.0894 45.5915 66.4436 46.9042 66.9921C49.0321 67.8809 50.146 65.4245 51.1718 63.162C51.2213 63.0526 51.2709 62.9438 51.3202 62.8358C53.2689 58.5626 53.4787 53.5939 51.7401 49.2128L51.66 49.0106C50.6387 46.432 49.2726 42.9818 46.9042 43.9022C45.5749 44.4188 45.5345 45.7414 45.4891 47.2411C45.4652 48.0338 45.4397 48.8762 45.2216 49.6747C45.1932 49.7785 45.1668 49.8806 45.1405 49.9803C44.9118 50.848 44.7248 51.5547 43.9598 51.9833C43.2934 52.3565 42.7601 52.2179 42.0653 52.037C41.9976 52.0194 41.9283 52.0013 41.8573 51.9833C40.785 51.7117 39.961 50.5468 39.3759 49.3339C39.3132 49.2041 39.2822 49.061 39.2821 48.9169V17.3212C39.2821 16.769 39.7299 16.3213 40.2821 16.3212H72.6014C73.5751 15.6315 74.4129 14.7421 74.6307 13.6503C74.8275 12.6641 75.0309 11.9595 74.6083 11.0643C74.1151 10.02 73.2791 9.8638 72.2557 9.536C69.9098 8.7846 67.2111 10.0195 66.3895 7.52819C65.407 4.54811 69.0998 2.8171 71.7186 1.52233Z" fill="#A8E6F1"/>
<ellipse cx="70.6486" cy="41.4336" rx="2.37362" ry="7.5828" fill="black"/>
<path d="M72.9562 30.6855C73.158 31.4298 71.3704 31.1931 69.4143 31.8192C67.4583 32.4454 66.0743 33.6973 65.8725 32.953C65.6707 32.2086 67.0929 31.0976 69.0489 30.4715C71.005 29.8453 72.7543 29.9411 72.9562 30.6855Z" fill="black"/>
<path d="M92.9438 32.6479C92.7788 33.4029 91.3354 32.2331 89.3513 31.7213C87.3672 31.2096 85.5939 31.5497 85.7588 30.7948C85.9237 30.0398 87.6658 29.8426 89.6499 30.3543C91.634 30.866 93.1087 31.8929 92.9438 32.6479Z" fill="black"/>
<ellipse cx="88.6501" cy="41.4336" rx="2.37362" ry="7.5828" fill="black"/>
<path d="M64.78 58.866C64.4482 58.5954 64.5694 58.4634 64.5694 58.4634C64.5694 58.4634 64.641 58.6072 64.78 58.866C65.3185 59.3052 67.0503 60.1097 72.4302 61.3077C78.0743 62.5646 93.1611 60.4619 93.1611 60.4619C93.1611 60.4619 85.2425 73.7064 79.2188 72.365C71.4773 70.641 65.9083 60.967 64.78 58.866Z" fill="black"/>
<path d="M18 54L39 70.4097" stroke="black"/>
<path d="M113.305 62.1768C113.305 62.1768 120.26 67.0588 124.514 68.2885C130.38 69.984 138.51 67.2034 138.51 67.2034" stroke="black"/>
<line y1="-0.3" x2="1.43924" y2="-0.3" transform="matrix(0.738556 0.674192 -0.0344507 0.999406 138.329 67.5601)" stroke="black" stroke-width="0.6"/>
<line y1="-0.3" x2="1.46656" y2="-0.3" transform="matrix(0.304821 -0.95241 0.520099 0.854106 138.329 67.5601)" stroke="black" stroke-width="0.6"/>
<line y1="-0.35" x2="1.11769" y2="-0.35" transform="matrix(0.972024 -0.23488 0.244727 0.969592 138.303 67.4646)" stroke="black" stroke-width="0.7"/>
<ellipse cx="108" cy="12" rx="22" ry="12" fill="#185D6D"/>
<path d="M111.326 32.0883C111.326 32.0883 111.326 23.5883 105.264 22.3383C99.2017 21.0883 116.888 20.0883 117.388 22.3383C117.888 24.5883 111.326 32.0883 111.326 32.0883Z" fill="#185D6D"/>
<path d="M136.518 60C136.518 60 151.779 48.8234 145.472 43.9804C141.597 41.0043 140.61 42.2488 139.499 43.6505C138.803 44.5297 138.057 45.4708 136.518 45.4707C135.512 45.4707 134.85 44.7898 134.156 44.0752C132.796 42.6755 131.311 41.1465 126.861 44.3527C120.14 49.1957 136.518 60 136.518 60Z" fill="#185D6D"/>
<path d="M136.539 46.2157C136.539 48.6847 132.139 52.5491 129.467 52.5491C126.794 52.5491 125 48.6847 125 46.2157C125 43.7467 127.911 41 130.583 41C133.256 41 136.539 43.7467 136.539 46.2157Z" fill="#185D6D"/>
<path d="M135.422 46.2157C135.422 48.6847 139.822 52.5491 142.495 52.5491C145.167 52.5491 146.961 48.6847 146.961 46.2157C146.961 43.7467 144.05 41 141.378 41C138.705 41 135.422 43.7467 135.422 46.2157Z" fill="#185D6D"/>
<path d="M36.2874 39.2883L15.5051 60.1994C15.5051 60.1994 8.69927 54.2653 9.65508 53.3333L30.0457 33.4503C31.0015 32.5182 36.2874 39.2883 36.2874 39.2883Z" fill="#185D6D"/>
<path d="M15.4535 38.559L36.8093 25.0373L22.2418 46.9194L-2.00047e-05 61.772L15.4535 38.559Z" fill="#185D6D"/>
<path d="M7.64734 55.291L11.8362 59.5868" stroke="#185D6D"/>
<path d="M10.8177 59.1715L11.8446 58.6837L13.5616 59.8785L11.7186 61.6756L10.8177 59.1715Z" fill="#185D6D"/>
<g clip-path="url(#clip0_4096_6018)">
<g clip-path="url(#clip1_4096_6018)">
<path d="M2 123.95V148.175C2 148.962 2.63769 149.6 3.425 149.6L17.675 149.6V121.1H4.85C3.27627 121.1 2 122.376 2 123.95ZM46.3309 113.979L32.0809 104.478C31.6126 104.166 31.0626 104 30.5 104C29.9374 104 29.3874 104.166 28.9191 104.478L14.6691 113.979C14.2788 114.239 13.9588 114.591 13.7374 115.005C13.516 115.418 13.4001 115.88 13.4 116.349V149.6H24.8V136.775C24.8 135.988 25.4377 135.35 26.225 135.35L25.3926 135.618C26.1799 135.618 23.375 135.988 23.375 136.775L24.8 149.6H47.6V116.35C47.6 115.397 47.1235 114.507 46.3309 113.979ZM56.15 121.1L44.75 121.1V135.35V149.6L57.575 149.6C58.3623 149.6 59 148.962 59 148.175V123.95C59 122.376 57.7237 121.1 56.15 121.1Z" fill="#A8E6F1"/>
</g>
<path d="M2 123.95V148.175C2 148.962 2.63769 149.6 3.425 149.6H10.55V121.1H4.85C3.27627 121.1 2 122.376 2 123.95ZM34.0625 119.675H31.925V116.113C31.925 115.719 31.6062 115.4 31.2125 115.4H29.7875C29.3938 115.4 29.075 115.719 29.075 116.113V121.813C29.075 122.206 29.3938 122.525 29.7875 122.525H34.0625C34.4562 122.525 34.775 122.206 34.775 121.813V120.388C34.775 119.994 34.4562 119.675 34.0625 119.675ZM46.3309 113.979L32.0809 104.478C31.6126 104.166 31.0626 104 30.5 104C29.9374 104 29.3874 104.166 28.9191 104.478L14.6691 113.979C14.2788 114.239 13.9588 114.591 13.7374 115.005C13.516 115.418 13.4001 115.88 13.4 116.349V149.6H24.8V136.775C24.8 135.988 25.4377 135.35 26.225 135.35H34.775C35.5623 135.35 36.2 135.988 36.2 136.775V149.6H47.6V116.35C47.6 115.397 47.1235 114.507 46.3309 113.979ZM30.5 126.8C26.5652 126.8 23.375 123.61 23.375 119.675C23.375 115.74 26.5652 112.55 30.5 112.55C34.4348 112.55 37.625 115.74 37.625 119.675C37.625 123.61 34.4348 126.8 30.5 126.8ZM56.15 121.1H50.45V149.6H57.575C58.3623 149.6 59 148.962 59 148.175V123.95C59 122.376 57.7237 121.1 56.15 121.1Z" fill="#185D6D"/>
</g>
<defs>
<clipPath id="clip0_4096_6018">
<rect width="57" height="45.6" fill="white" transform="translate(2 104)"/>
</clipPath>
<clipPath id="clip1_4096_6018">
<rect width="57" height="45.6" fill="white" transform="translate(2 104)"/>
</clipPath>
</defs>
</svg>
