<svg width="150" height="150" viewBox="0 0 150 150" fill="none" xmlns="http://www.w3.org/2000/svg">
<path d="M88 94L88.385 148.744" stroke="black"/>
<path d="M92.6535 149.334C92.6535 150.312 90.7417 149.924 88.3833 149.924C86.025 149.924 84.1132 150.312 84.1132 149.334C84.1132 148.356 86.025 147.563 88.3833 147.563C90.7417 147.563 92.6535 148.356 92.6535 149.334Z" fill="black"/>
<path d="M69.6989 95.621V147.563" stroke="black"/>
<path d="M73.4365 148.744C73.4365 149.722 71.5247 149.334 69.1664 149.334C66.8081 149.334 64.8963 149.722 64.8963 148.744C64.8963 147.766 66.8081 146.973 69.1664 146.973C71.5247 146.973 73.4365 147.766 73.4365 148.744Z" fill="black"/>
<path d="M71.7186 3.52233C76.1389 1.33685 81.1753 1.54262 85.5253 3.8944C87.911 5.18421 90.7027 6.52777 89.7821 9.2821C89.0406 11.5002 86.7471 10.9204 84.6542 11.4061C83.4868 11.6771 82.1908 11.6855 81.6259 12.9901C81.2314 13.9012 81.4546 14.5898 81.6483 15.577C81.8369 16.5382 82.4922 17.5274 83.1493 18.3212H118.282C118.834 18.3212 119.282 18.7689 119.282 19.3212V97.3212C119.282 97.8734 118.834 98.3212 118.282 98.3212H84.5995C84.3225 98.3211 84.0561 98.2075 83.8739 97.9989C83.2033 97.2313 82.4721 96.2055 82.2831 95.2176C82.2621 95.1082 82.2413 95.0026 82.2206 94.9003C82.0701 94.1573 81.9532 93.5813 82.2792 92.8514C82.7218 91.8606 83.6287 91.6974 84.5448 91.5321C84.7278 91.4991 84.9115 91.4654 85.0917 91.4257C85.6142 91.3103 86.1496 91.2655 86.6669 91.2225C88.0701 91.1059 89.3398 91.0005 89.8514 89.5223C90.6804 87.1263 88.3753 85.878 86.2518 84.7284C86.1492 84.6728 86.0466 84.6176 85.9452 84.5624C81.9343 82.3782 77.2744 82.1509 73.1698 84.1161C73.1074 84.146 73.044 84.1765 72.9803 84.2069C70.5645 85.3613 67.3323 86.9062 68.2001 89.5692C68.6871 91.0638 69.9277 91.1062 71.3339 91.1542C72.0771 91.1795 72.8671 91.2063 73.6161 91.4501C73.7136 91.4818 73.8095 91.5124 73.9032 91.5419C74.7172 91.7975 75.3807 92.0054 75.7841 92.8651C76.1356 93.6144 76.006 94.2156 75.8378 94.9979C75.8214 95.0739 75.8046 95.1516 75.788 95.2313C75.5116 96.5528 74.2307 97.5419 72.9852 98.2098C72.8461 98.2844 72.6899 98.3212 72.5321 98.3212H40.2821C39.73 98.321 39.2822 97.8733 39.2821 97.3212V63.1024C39.2821 62.8488 39.3773 62.6031 39.5565 62.4237C40.2166 61.7632 41.0515 61.0932 41.8573 60.91C41.9545 60.8879 42.0486 60.8655 42.1395 60.8436L42.6112 60.7382C43.0643 60.6527 43.4739 60.6483 43.9598 60.91C44.8395 61.3839 44.9836 62.3508 45.1288 63.328C45.1578 63.5233 45.1865 63.7197 45.2216 63.912C45.3231 64.4695 45.3621 65.0408 45.3993 65.5926C45.5002 67.0894 45.5915 68.4436 46.9042 68.9921C49.0321 69.8809 50.146 67.4245 51.1718 65.162C51.2213 65.0526 51.2709 64.9438 51.3202 64.8358C53.2689 60.5626 53.4787 55.5939 51.7401 51.2128L51.66 51.0106C50.6387 48.432 49.2726 44.9818 46.9042 45.9022C45.5749 46.4188 45.5345 47.7414 45.4891 49.2411C45.4652 50.0338 45.4397 50.8762 45.2216 51.6747C45.1932 51.7785 45.1668 51.8806 45.1405 51.9803C44.9118 52.848 44.7248 53.5547 43.9598 53.9833C43.2934 54.3565 42.7601 54.2179 42.0653 54.037C41.9976 54.0194 41.9283 54.0013 41.8573 53.9833C40.785 53.7117 39.961 52.5468 39.3759 51.3339C39.3132 51.2041 39.2822 51.061 39.2821 50.9169V19.3212C39.2821 18.769 39.7299 18.3213 40.2821 18.3212H72.6014C73.5751 17.6315 74.4129 16.7421 74.6307 15.6503C74.8275 14.6641 75.0309 13.9595 74.6083 13.0643C74.1151 12.02 73.2791 11.8638 72.2557 11.536C69.9098 10.7846 67.2111 12.0195 66.3895 9.52819C65.407 6.54811 69.0998 4.8171 71.7186 3.52233Z" fill="#A8E6F1"/>
<ellipse cx="70.6486" cy="41.4336" rx="2.37362" ry="7.5828" fill="black"/>
<path d="M72.9562 30.6855C73.158 31.4298 71.3704 31.1931 69.4143 31.8192C67.4583 32.4454 66.0743 33.6973 65.8725 32.953C65.6707 32.2086 67.0929 31.0976 69.0489 30.4715C71.005 29.8453 72.7543 29.9411 72.9562 30.6855Z" fill="black"/>
<path d="M92.9438 32.6479C92.7788 33.4029 91.3354 32.2331 89.3513 31.7213C87.3672 31.2096 85.5939 31.5497 85.7588 30.7948C85.9237 30.0398 87.6658 29.8426 89.6499 30.3543C91.634 30.866 93.1087 31.8929 92.9438 32.6479Z" fill="black"/>
<ellipse cx="88.6501" cy="41.4336" rx="2.37362" ry="7.5828" fill="black"/>
<path d="M64.78 58.866C64.4482 58.5954 64.5694 58.4634 64.5694 58.4634C64.5694 58.4634 64.641 58.6072 64.78 58.866C65.3185 59.3052 67.0503 60.1097 72.4302 61.3077C78.0743 62.5646 93.1611 60.4619 93.1611 60.4619C93.1611 60.4619 85.2425 73.7064 79.2188 72.365C71.4773 70.641 65.9083 60.967 64.78 58.866Z" fill="black"/>
<path d="M7.7922 88.0975L52.2706 74.7926" stroke="black"/>
<path d="M111.483 60.6383C111.483 60.6383 117.759 72.6386 119.942 80.921C122.951 92.3412 122.284 110.916 122.284 110.916" stroke="black"/>
<line y1="-0.3" x2="2.07565" y2="-0.3" transform="matrix(0.563993 0.82578 0.83816 -0.545425 122.576 110.345)" stroke="black" stroke-width="0.6"/>
<line y1="-0.3" x2="2.07671" y2="-0.3" transform="matrix(-0.582528 0.812811 0.825834 0.563913 122.576 110.345)" stroke="black" stroke-width="0.6"/>
<line y1="-0.35" x2="2.424" y2="-0.35" transform="matrix(0.00563127 0.999984 0.999986 -0.00536266 122.48 110.342)" stroke="black" stroke-width="0.7"/>
<path d="M16.7732 85.3325C17.2017 89.7288 14.4298 93.5967 10.582 93.9717C6.73424 94.3467 3.26767 91.0868 2.8392 86.6905C2.41073 82.2942 5.41433 81.3643 9.5612 83.4978C12.2905 81.117 16.3447 80.9362 16.7732 85.3325Z" fill="#185D6D"/>
<path d="M8 79.0355L9.82279 79.1386L9.66021 84.1341L8.62016 84.1544L8 79.0355Z" fill="#185D6D"/>
<path d="M9.53027 81.5556C8.91796 82.2222 8.91796 83.1111 9.12208 84C9.73438 84 10.7476 83.8929 11.3672 83.5556C12.1836 83.1111 13 80.4444 13 80C12.5918 80 10.959 80 9.53027 81.5556Z" fill="#185D6D"/>
<path d="M10 83.2222C10.6467 82.0973 11.074 81.5773 12.041 81" stroke="#A8E6F1" stroke-width="0.5"/>
<path d="M111.007 119.88L114.505 113.506L118.156 118.557L111.007 119.88Z" fill="#185D6D"/>
<path d="M111 119.871L112.025 118L113.098 119.484L111 119.871Z" fill="#A8E6F1"/>
<path d="M118.632 118.378C118.192 118.712 117.565 118.627 117.23 118.187L114.531 114.636C114.197 114.197 114.283 113.569 114.722 113.235L130.555 101.201C130.995 100.866 131.622 100.952 131.956 101.392L134.655 104.943C134.99 105.382 134.904 106.01 134.464 106.344L118.632 118.378Z" fill="#185D6D"/>
<path d="M129.546 102.859C129.204 102.425 129.278 101.796 129.711 101.454L131.281 100.215C131.715 99.8729 132.344 99.947 132.686 100.381L135.783 104.305C136.125 104.739 136.051 105.368 135.618 105.71L134.048 106.949C133.614 107.291 132.985 107.217 132.643 106.784L129.546 102.859Z" fill="#A8E6F1"/>
<g clip-path="url(#clip0_4096_5993)">
<g clip-path="url(#clip1_4096_5993)">
<path d="M2 123.95V148.175C2 148.962 2.63769 149.6 3.425 149.6L17.675 149.6V121.1H4.85C3.27627 121.1 2 122.376 2 123.95ZM46.3309 113.979L32.0809 104.478C31.6126 104.166 31.0626 104 30.5 104C29.9374 104 29.3874 104.166 28.9191 104.478L14.6691 113.979C14.2788 114.239 13.9588 114.591 13.7374 115.005C13.516 115.418 13.4001 115.88 13.4 116.349V149.6H24.8V136.775C24.8 135.988 25.4377 135.35 26.225 135.35L25.3926 135.618C26.1799 135.618 23.375 135.988 23.375 136.775L24.8 149.6H47.6V116.35C47.6 115.397 47.1235 114.507 46.3309 113.979ZM56.15 121.1L44.75 121.1V135.35V149.6L57.575 149.6C58.3623 149.6 59 148.962 59 148.175V123.95C59 122.376 57.7237 121.1 56.15 121.1Z" fill="#A8E6F1"/>
</g>
<path d="M2 123.95V148.175C2 148.962 2.63769 149.6 3.425 149.6H10.55V121.1H4.85C3.27627 121.1 2 122.376 2 123.95ZM34.0625 119.675H31.925V116.113C31.925 115.719 31.6062 115.4 31.2125 115.4H29.7875C29.3938 115.4 29.075 115.719 29.075 116.113V121.813C29.075 122.206 29.3938 122.525 29.7875 122.525H34.0625C34.4562 122.525 34.775 122.206 34.775 121.813V120.388C34.775 119.994 34.4562 119.675 34.0625 119.675ZM46.3309 113.979L32.0809 104.478C31.6126 104.166 31.0626 104 30.5 104C29.9374 104 29.3874 104.166 28.9191 104.478L14.6691 113.979C14.2788 114.239 13.9588 114.591 13.7374 115.005C13.516 115.418 13.4001 115.88 13.4 116.349V149.6H24.8V136.775C24.8 135.988 25.4377 135.35 26.225 135.35H34.775C35.5623 135.35 36.2 135.988 36.2 136.775V149.6H47.6V116.35C47.6 115.397 47.1235 114.507 46.3309 113.979ZM30.5 126.8C26.5652 126.8 23.375 123.61 23.375 119.675C23.375 115.74 26.5652 112.55 30.5 112.55C34.4348 112.55 37.625 115.74 37.625 119.675C37.625 123.61 34.4348 126.8 30.5 126.8ZM56.15 121.1H50.45V149.6H57.575C58.3623 149.6 59 148.962 59 148.175V123.95C59 122.376 57.7237 121.1 56.15 121.1Z" fill="#185D6D"/>
</g>
<path d="M78.9243 79.8661L83.0022 82.0022L79 90L74.6752 82.3248L78.9243 79.8661Z" fill="#185D6D"/>
<path d="M79 112L83.3594 107.384L79 84L74.6406 107.384L79 112Z" fill="#185D6D"/>
<defs>
<clipPath id="clip0_4096_5993">
<rect width="57" height="45.6" fill="white" transform="translate(2 104)"/>
</clipPath>
<clipPath id="clip1_4096_5993">
<rect width="57" height="45.6" fill="white" transform="translate(2 104)"/>
</clipPath>
</defs>
</svg>
