<svg width="150" height="150" viewBox="0 0 150 150" fill="none" xmlns="http://www.w3.org/2000/svg">
<g clip-path="url(#clip0_3803_6691)">
<path d="M9.44186 31.9966C8.5942 31.7964 7.88432 31.4395 7.31222 30.926C6.75888 30.3851 6.32159 29.763 6.00035 29.0599C5.70215 28.3524 5.51489 27.6005 5.43857 26.8042C5.35797 25.9848 5.37597 25.1829 5.49255 24.3984C5.593 23.7839 5.71221 23.1419 5.85019 22.4727C6.01121 21.7992 6.22687 21.1632 6.49718 20.5647C6.76749 19.9663 7.1219 19.4356 7.56041 18.9728C7.99465 18.487 8.54673 18.1223 9.21666 17.8787C9.90962 17.6309 10.6176 17.4637 11.3405 17.3772C12.0822 17.2633 12.8209 17.1977 13.5566 17.1803C13.8878 17.1665 14.2138 17.1894 14.5348 17.249C14.8515 17.2856 15.1703 17.3336 15.4913 17.3932C15.4501 17.0433 15.5464 16.7275 15.7802 16.4457C16.037 16.1596 16.3267 15.9867 16.6493 15.9268C17.041 15.854 17.3778 15.9346 17.6596 16.1683C17.9601 16.3747 18.1677 16.658 18.2822 17.0182C18.5942 18.0568 18.8371 19.1082 19.0108 20.1725C19.2076 21.2325 19.3698 22.299 19.4975 23.3718C19.6482 24.4404 19.7989 25.509 19.9496 26.5775C20.1233 27.6418 20.3316 28.6997 20.5745 29.7511C20.6788 30.1847 20.6026 30.5445 20.3458 30.8306C20.1078 31.0893 19.8159 31.2507 19.4703 31.3149C19.1246 31.3791 18.7827 31.3353 18.4447 31.1835C18.1254 31.0044 17.9136 30.6981 17.8092 30.2645C16.5984 31.0614 15.2641 31.6428 13.8065 32.0088C12.3445 32.3517 10.8896 32.3477 9.44186 31.9966ZM8.29135 24.451C8.23009 24.8914 8.19104 25.3874 8.17422 25.9388C8.15739 26.4902 8.21694 27.0035 8.35287 27.4789C8.48879 27.9543 8.72199 28.3758 9.05248 28.7435C9.37869 29.0882 9.84481 29.2877 10.4508 29.3421C11.6945 29.4926 12.889 29.3781 14.0343 28.9987C15.2026 28.6149 16.2432 27.9926 17.1562 27.1319C17.0387 25.9856 16.9046 24.8782 16.7539 23.8096C16.6263 22.7368 16.4504 21.661 16.2263 20.5822C15.7875 20.4014 15.3436 20.2574 14.8946 20.15C14.4643 20.0154 14.0008 19.9584 13.5041 19.9791C13.0073 19.9998 12.4803 20.05 11.923 20.1296C11.3844 20.1819 10.8659 20.2781 10.3675 20.4183C10.3214 20.4269 10.2011 20.485 10.0065 20.5926C9.83074 20.6729 9.73346 20.7268 9.71469 20.7541C9.50565 20.9121 9.33248 21.1349 9.19518 21.4226C8.97262 21.893 8.79103 22.3916 8.65043 22.9183C8.50555 23.4219 8.38586 23.9328 8.29135 24.451Z" fill="#185D6D"/>
<path d="M24.0958 36.9063C24.1447 36.4631 24.3268 36.1485 24.6422 35.9627C24.9576 35.7768 25.2888 35.7123 25.6358 35.7691C25.9827 35.8259 26.2876 35.9946 26.5504 36.2751C26.8132 36.5556 26.9202 36.9175 26.8714 37.3608C26.6571 39.2494 26.5026 41.1359 26.4078 43.0204C26.313 44.9048 26.0891 46.78 25.7361 48.6459C27.0226 48.4766 28.3132 48.4267 29.6081 48.4962C30.9298 48.5463 32.1771 48.8337 33.35 49.3582C34.0598 49.6644 34.716 50.0806 35.3186 50.6068C35.9443 51.1367 36.3701 51.8002 36.5958 52.5971C36.7867 53.3171 36.8716 54.0316 36.8505 54.7407C36.8525 55.4535 36.7698 56.1762 36.6024 56.9087C36.3929 57.7532 36.0887 58.5227 35.69 59.2174C35.3144 59.9159 34.8057 60.557 34.1639 61.1407C33.5759 61.6856 32.9223 62.1961 32.2031 62.6721C31.5109 63.1287 30.7663 63.4699 29.9693 63.6957C29.4996 63.8088 29.0431 63.8409 28.5998 63.7921C28.1835 63.7239 27.7766 63.5979 27.3792 63.4141C26.9856 63.2071 26.6074 62.979 26.2445 62.7296C25.8853 62.457 25.5397 62.1748 25.2075 61.8829C24.8753 61.591 24.5528 61.3126 24.2399 61.0476C23.9308 60.7595 23.639 60.4386 23.3644 60.0849L23.0426 60.7447C22.9669 61.2073 22.7597 61.5296 22.4212 61.7117C22.1096 61.8744 21.7803 61.9274 21.4333 61.8706C21.0864 61.8137 20.7796 61.6566 20.513 61.3992C20.2733 61.1225 20.1914 60.7528 20.2671 60.2903C20.4939 58.7599 20.7979 57.266 21.179 55.8084C21.5602 54.3508 21.9317 52.8798 22.2935 51.3953C22.0841 50.9336 22.0309 50.533 22.134 50.1936C22.2371 49.8542 22.4329 49.6013 22.7214 49.4348C22.7786 49.2304 22.8242 49.0241 22.8583 48.816C22.8924 48.6078 22.9265 48.3996 22.9606 48.1915C23.3136 46.3256 23.5375 44.4504 23.6323 42.5659C23.7271 40.6815 23.8816 38.795 24.0958 36.9063ZM25.0627 51.6706C24.8839 52.4726 24.6954 53.2611 24.4973 54.0361C24.2992 54.8112 24.0991 55.5978 23.8972 56.3959C24.3648 56.8763 24.792 57.3856 25.1788 57.9239C25.5695 58.4391 26.0274 58.906 26.5526 59.3244C26.6763 59.4397 26.8386 59.6088 27.0396 59.8317C27.2675 60.0352 27.4954 60.2388 27.7233 60.4424C27.9744 60.6497 28.2195 60.8205 28.4588 60.9546C28.725 61.0695 28.9601 61.0842 29.164 60.9989C29.6914 60.824 30.2032 60.599 30.6995 60.324C31.1996 60.0259 31.659 59.6855 32.0779 59.3029C32.5237 58.9009 32.8924 58.4625 33.1839 57.9877C33.4985 57.5168 33.7128 57.0056 33.8268 56.4543C33.9526 55.9762 34.0359 55.4673 34.0768 54.9277C34.1407 54.392 34.0931 53.8854 33.9337 53.4081C33.7512 52.927 33.4323 52.5541 32.9769 52.2896C32.5446 52.0288 32.0797 51.8221 31.5822 51.6694C30.5448 51.3332 29.4636 51.1918 28.3386 51.2451C27.2406 51.2791 26.1486 51.4209 25.0627 51.6706Z" fill="#185D6D"/>
<path d="M138.182 22.5998C138.61 22.4762 138.968 22.5316 139.255 22.7658C139.558 22.971 139.758 23.2424 139.856 23.5802C139.953 23.9179 139.932 24.2657 139.791 24.6235C139.667 24.9522 139.39 25.1783 138.963 25.3019C138.316 25.513 137.652 25.7048 136.97 25.8773C136.288 26.0499 135.617 26.2192 134.957 26.3853C135.162 27.0092 135.352 27.6252 135.528 28.2332C135.726 28.8347 135.916 29.4506 136.098 30.0811C136.228 30.5315 136.179 30.9115 135.951 31.2212C135.74 31.5019 135.465 31.691 135.127 31.7885C134.789 31.8861 134.456 31.8725 134.128 31.7479C133.792 31.6008 133.56 31.302 133.43 30.8517C133.248 30.2212 133.057 29.6052 132.859 29.0037C132.655 28.3797 132.45 27.7558 132.246 27.1318C131.525 27.3399 130.822 27.5672 130.137 27.8138C129.475 28.0539 128.799 28.3343 128.111 28.655C127.764 28.8041 127.413 28.8566 127.059 28.8125C126.698 28.7459 126.406 28.5375 126.183 28.1872C126.002 27.8979 125.95 27.5472 126.026 27.1349C126.102 26.7226 126.31 26.4306 126.651 26.259C127.445 25.8833 128.241 25.5559 129.039 25.2768C129.859 24.9912 130.693 24.7136 131.543 24.444C131.409 23.897 131.287 23.3469 131.176 22.7934C131.058 22.2175 130.941 21.6416 130.823 21.0656C130.764 20.6923 130.808 20.3381 130.955 20.0028C131.125 19.6611 131.401 19.435 131.784 19.3244C132.122 19.2269 132.476 19.271 132.847 19.4566C133.24 19.6358 133.466 19.912 133.525 20.2853C133.643 20.8613 133.76 21.4372 133.878 22.0131C133.989 22.5666 134.103 23.1313 134.221 23.7072C134.88 23.5411 135.54 23.3751 136.199 23.209C136.875 23.014 137.536 22.8109 138.182 22.5998Z" fill="#185D6D"/>
<path d="M138.469 54.2069C138.749 54.5564 138.839 54.9132 138.737 55.2773C138.659 55.6448 138.485 55.9389 138.216 56.1596C137.946 56.3803 137.632 56.4996 137.274 56.5176C136.916 56.5357 136.599 56.3583 136.322 55.9857C135.762 55.2867 135.216 54.5778 134.683 53.8591C134.173 53.1438 133.651 52.4268 133.118 51.7081C132.432 52.1752 131.755 52.6672 131.086 53.1841C130.444 53.6813 129.818 54.2282 129.209 54.825C128.932 55.092 128.611 55.2578 128.246 55.3222C127.885 55.3634 127.546 55.2539 127.229 54.9937C126.955 54.7636 126.789 54.4428 126.732 54.0315C126.697 53.6236 126.818 53.2862 127.095 53.0191C127.761 52.3597 128.456 51.7518 129.178 51.1953C129.903 50.6157 130.647 50.0744 131.409 49.5712C130.944 49.0285 130.474 48.5206 129.999 48.0474C129.528 47.5511 129.03 47.0745 128.505 46.6177C128.212 46.3609 128.019 46.06 127.928 45.7148C127.841 45.3464 127.917 44.9905 128.158 44.647C128.368 44.3465 128.669 44.1541 129.061 44.07C129.452 43.9858 129.795 44.0721 130.088 44.3289C130.762 44.9025 131.395 45.5058 131.988 46.1386C132.585 46.7483 133.167 47.3794 133.733 48.032C134.408 47.6345 135.072 47.2352 135.724 46.8342C136.375 46.4332 137.04 46.0224 137.719 45.6016C138.088 45.3483 138.441 45.2822 138.779 45.4033C139.139 45.5278 139.417 45.7348 139.611 46.0241C139.831 46.2938 139.926 46.6158 139.894 46.9902C139.866 47.3414 139.667 47.6436 139.298 47.8969C138.669 48.3013 138.031 48.6925 137.382 49.0703C136.757 49.4515 136.119 49.8426 135.467 50.2436C135.984 50.9125 136.478 51.578 136.948 52.2401C137.445 52.8824 137.953 53.538 138.469 54.2069Z" fill="#185D6D"/>
<path d="M141.823 73.0558C142.361 73.0166 142.778 73.1567 143.075 73.476C143.395 73.7926 143.58 74.1605 143.628 74.5795C143.677 74.9985 143.582 75.3989 143.344 75.7807C143.126 76.1365 142.748 76.334 142.21 76.3731C141.02 76.4883 139.815 76.5816 138.597 76.653C137.375 76.7011 136.158 76.784 134.945 76.902C133.729 76.9966 132.518 77.1378 131.313 77.3255C130.108 77.5133 128.924 77.7812 127.761 78.1292C127.306 78.2766 126.87 78.2803 126.453 78.1402C126.032 77.9768 125.737 77.6691 125.566 77.2171C125.495 77.013 125.459 76.8049 125.458 76.5926C125.454 76.3571 125.488 76.1408 125.559 75.9437C125.651 75.7206 125.771 75.5297 125.917 75.3711C126.087 75.2097 126.274 75.0935 126.478 75.0225C127.732 74.6403 128.996 74.3513 130.271 74.1554C131.543 73.9362 132.821 73.7636 134.104 73.6376C135.387 73.5115 136.674 73.4204 137.965 73.3641C139.254 73.2846 140.539 73.1818 141.823 73.0558ZM133.21 69.9192C132.914 69.8121 132.682 69.6387 132.512 69.3989C132.233 69.0303 132.117 68.6427 132.164 68.236C132.232 67.8034 132.413 67.4401 132.709 67.146C132.771 67.068 132.833 66.99 132.894 66.912C132.956 66.8341 133.042 66.765 133.153 66.7049C133.375 66.5846 133.51 66.5217 133.556 66.5163C133.6 66.4876 133.749 66.4467 134.002 66.3935C134.092 66.3594 134.186 66.3485 134.281 66.3609C134.4 66.3706 134.483 66.3728 134.53 66.3673C134.649 66.377 134.771 66.41 134.895 66.4663C135.017 66.4993 135.139 66.5323 135.261 66.5652C135.634 66.734 135.94 67.0287 136.178 67.4493C136.439 67.8672 136.523 68.2822 136.429 68.6942C136.341 69.1528 136.114 69.5332 135.748 69.8355C135.484 70.1967 135.107 70.4058 134.618 70.4628C134.15 70.4938 133.747 70.3757 133.409 70.1083L133.21 69.9192ZM136.788 79.6601C137.162 79.8289 137.468 80.1235 137.705 80.5441C137.966 80.962 138.05 81.377 137.957 81.789C137.869 82.2476 137.642 82.628 137.276 82.9303C137.011 83.2915 136.634 83.5006 136.146 83.5576C135.677 83.5887 135.274 83.4705 134.936 83.2032C134.508 82.97 134.208 82.7218 134.035 82.4588C133.759 82.1135 133.644 81.7375 133.691 81.3309C133.759 80.8983 133.941 80.5349 134.237 80.2408C134.298 80.1628 134.36 80.0848 134.422 80.0069C134.483 79.9289 134.57 79.8598 134.681 79.7997C134.903 79.6794 135.037 79.6166 135.084 79.6111C135.127 79.5824 135.275 79.5298 135.525 79.4534C135.618 79.4426 135.713 79.4433 135.809 79.4558C135.928 79.4655 136.011 79.4676 136.057 79.4622C136.176 79.4719 136.298 79.5049 136.423 79.5611C136.545 79.5941 136.666 79.6271 136.788 79.6601Z" fill="#185D6D"/>
<path d="M17.1057 83.1749C17.2534 83.4826 17.2664 83.837 17.1447 84.2382C17.023 84.6394 16.7833 84.9063 16.4255 85.0387C15.2134 85.4598 13.9755 85.6594 12.7116 85.6375C11.4437 85.5926 10.2209 85.2546 9.04312 84.6236C7.88845 83.9887 6.98508 83.0849 6.333 81.9124C5.70008 80.7128 5.4137 79.4539 5.47386 78.1359C5.53459 76.9605 5.89822 75.8878 6.56473 74.918C7.23124 73.9482 8.04485 73.1434 9.00554 72.5037C9.85466 71.9069 10.7658 71.3946 11.7389 70.9668C12.712 70.539 13.7147 70.2845 14.747 70.2033C15.1477 70.1824 15.4967 70.2773 15.7943 70.488C16.111 70.6717 16.3029 70.9599 16.37 71.3526C16.4292 71.6992 16.3458 72.0463 16.1199 72.394C15.9171 72.7377 15.6173 72.9316 15.2206 72.9756C14.4695 73.0326 13.7477 73.1916 13.0552 73.4525C12.3627 73.7135 11.7071 74.0514 11.0884 74.4662C10.7272 74.7181 10.368 74.9816 10.0108 75.2566C9.67668 75.5277 9.39271 75.8139 9.15889 76.1154C8.90592 76.444 8.69915 76.7646 8.53858 77.0774C8.40112 77.3862 8.31776 77.7333 8.2885 78.1187C8.25924 78.5042 8.29168 78.9028 8.38582 79.3147C8.47997 79.7266 8.62032 80.1307 8.80688 80.5268C9.01259 80.8958 9.26056 81.2339 9.55079 81.541C9.83707 81.825 10.1617 82.0548 10.5246 82.2306C11.2774 82.6013 12.0624 82.812 12.8795 82.8626C13.7157 82.8862 14.5032 82.7635 15.2419 82.4947C15.5997 82.3622 15.9541 82.3492 16.3052 82.4557C16.6563 82.5622 16.9231 82.8019 17.1057 83.1749Z" fill="#185D6D"/>
</g>
<rect x="0.5" y="10.5" width="149" height="84" rx="2.5" stroke="black"/>
<rect x="0.5" y="91.5" width="149" height="3" rx="1.5" fill="black" stroke="black"/>
<path d="M11.9778 32.7905L23 78.0001" stroke="black" stroke-width="2" stroke-linecap="round"/>
<path d="M88 94L88.385 148.744" stroke="black"/>
<path d="M92.6535 149.334C92.6535 150.312 90.7417 149.924 88.3833 149.924C86.025 149.924 84.1132 150.312 84.1132 149.334C84.1132 148.356 86.025 147.563 88.3833 147.563C90.7417 147.563 92.6535 148.356 92.6535 149.334Z" fill="black"/>
<path d="M69.6989 95.621V147.563" stroke="black"/>
<path d="M73.4365 148.744C73.4365 149.722 71.5247 149.334 69.1664 149.334C66.8081 149.334 64.8963 149.722 64.8963 148.744C64.8963 147.766 66.8081 146.973 69.1664 146.973C71.5247 146.973 73.4365 147.766 73.4365 148.744Z" fill="black"/>
<path d="M71.7186 1.52233C76.1389 -0.663151 81.1753 -0.457383 85.5253 1.8944C87.911 3.18421 90.7027 4.52777 89.7821 7.2821C89.0406 9.50024 86.7471 8.92042 84.6542 9.40612C83.4868 9.6771 82.1908 9.68547 81.6259 10.9901C81.2314 11.9012 81.4546 12.5898 81.6483 13.577C81.8369 14.5382 82.4922 15.5274 83.1493 16.3212H118.282C118.834 16.3212 119.282 16.7689 119.282 17.3212V95.3212C119.282 95.8734 118.834 96.3212 118.282 96.3212H84.5995C84.3225 96.3211 84.0561 96.2075 83.8739 95.9989C83.2033 95.2313 82.4721 94.2055 82.2831 93.2176C82.2621 93.1082 82.2413 93.0026 82.2206 92.9003C82.0701 92.1573 81.9532 91.5813 82.2792 90.8514C82.7218 89.8606 83.6287 89.6974 84.5448 89.5321C84.7278 89.4991 84.9115 89.4654 85.0917 89.4257C85.6142 89.3103 86.1496 89.2655 86.6669 89.2225C88.0701 89.1059 89.3398 89.0005 89.8514 87.5223C90.6804 85.1263 88.3753 83.878 86.2518 82.7284C86.1492 82.6728 86.0466 82.6176 85.9452 82.5624C81.9343 80.3782 77.2744 80.1509 73.1698 82.1161C73.1074 82.146 73.044 82.1765 72.9803 82.2069C70.5645 83.3613 67.3323 84.9062 68.2001 87.5692C68.6871 89.0638 69.9277 89.1062 71.3339 89.1542C72.0771 89.1795 72.8671 89.2063 73.6161 89.4501C73.7136 89.4818 73.8095 89.5124 73.9032 89.5419C74.7172 89.7975 75.3807 90.0054 75.7841 90.8651C76.1356 91.6144 76.006 92.2156 75.8378 92.9979C75.8214 93.0739 75.8046 93.1516 75.788 93.2313C75.5116 94.5528 74.2307 95.5419 72.9852 96.2098C72.8461 96.2844 72.6899 96.3212 72.5321 96.3212H40.2821C39.73 96.321 39.2822 95.8733 39.2821 95.3212V61.1024C39.2821 60.8488 39.3773 60.6031 39.5565 60.4237C40.2166 59.7632 41.0515 59.0932 41.8573 58.91C41.9545 58.8879 42.0486 58.8655 42.1395 58.8436L42.6112 58.7382C43.0643 58.6527 43.4739 58.6483 43.9598 58.91C44.8395 59.3839 44.9836 60.3508 45.1288 61.328C45.1578 61.5233 45.1865 61.7197 45.2216 61.912C45.3231 62.4695 45.3621 63.0408 45.3993 63.5926C45.5002 65.0894 45.5915 66.4436 46.9042 66.9921C49.0321 67.8809 50.146 65.4245 51.1718 63.162C51.2213 63.0526 51.2709 62.9438 51.3202 62.8358C53.2689 58.5626 53.4787 53.5939 51.7401 49.2128L51.66 49.0106C50.6387 46.432 49.2726 42.9818 46.9042 43.9022C45.5749 44.4188 45.5345 45.7414 45.4891 47.2411C45.4652 48.0338 45.4397 48.8762 45.2216 49.6747C45.1932 49.7785 45.1668 49.8806 45.1405 49.9803C44.9118 50.848 44.7248 51.5547 43.9598 51.9833C43.2934 52.3565 42.7601 52.2179 42.0653 52.037C41.9976 52.0194 41.9283 52.0013 41.8573 51.9833C40.785 51.7117 39.961 50.5468 39.3759 49.3339C39.3132 49.2041 39.2822 49.061 39.2821 48.9169V17.3212C39.2821 16.769 39.7299 16.3213 40.2821 16.3212H72.6014C73.5751 15.6315 74.4129 14.7421 74.6307 13.6503C74.8275 12.6641 75.0309 11.9595 74.6083 11.0643C74.1151 10.02 73.2791 9.8638 72.2557 9.536C69.9098 8.7846 67.2111 10.0195 66.3895 7.52819C65.407 4.54811 69.0998 2.8171 71.7186 1.52233Z" fill="#A8E6F1"/>
<path d="M92.9438 32.6479C92.7788 33.4029 91.3354 32.2331 89.3513 31.7213C87.3672 31.2096 85.5939 31.5497 85.7588 30.7948C85.9237 30.0398 87.6658 29.8426 89.6499 30.3543C91.634 30.866 93.1087 31.8929 92.9438 32.6479Z" fill="black"/>
<ellipse cx="88.6501" cy="41.4336" rx="2.37362" ry="7.5828" fill="black"/>
<path d="M64.78 58.866C64.4482 58.5954 64.5694 58.4634 64.5694 58.4634C64.5694 58.4634 64.641 58.6072 64.78 58.866C65.3185 59.3052 67.0503 60.1097 72.4302 61.3077C78.0743 62.5646 93.1611 60.4619 93.1611 60.4619C93.1611 60.4619 85.2425 73.7064 79.2188 72.365C71.4773 70.641 65.9083 60.967 64.78 58.866Z" fill="black"/>
<path d="M20 70.9999L39.121 64.0358" stroke="black"/>
<path d="M111.483 60.6383C111.483 60.6383 117.759 72.6386 119.942 80.921C122.951 92.3412 122.284 110.916 122.284 110.916" stroke="black"/>
<line y1="-0.3" x2="2.07565" y2="-0.3" transform="matrix(0.563993 0.82578 0.83816 -0.545425 122.576 110.345)" stroke="black" stroke-width="0.6"/>
<line y1="-0.3" x2="2.07671" y2="-0.3" transform="matrix(-0.582528 0.812811 0.825834 0.563913 122.576 110.345)" stroke="black" stroke-width="0.6"/>
<line y1="-0.35" x2="2.424" y2="-0.35" transform="matrix(0.00563127 0.999984 0.999986 -0.00536266 122.48 110.342)" stroke="black" stroke-width="0.7"/>
<ellipse cx="70.6486" cy="41.4336" rx="2.37362" ry="7.5828" fill="black"/>
<path d="M72.9562 30.6855C73.158 31.4298 71.3704 31.1931 69.4143 31.8192C67.4583 32.4454 66.0743 33.6973 65.8725 32.953C65.6707 32.2086 67.0929 31.0976 69.0489 30.4715C71.005 29.8453 72.7543 29.9411 72.9562 30.6855Z" fill="black"/>
<defs>
<clipPath id="clip0_3803_6691">
<rect y="10" width="150" height="85" rx="3" fill="white"/>
</clipPath>
</defs>
</svg>
