<svg width="98" height="98" viewBox="0 0 98 98" fill="none" xmlns="http://www.w3.org/2000/svg">
<path d="M26 39.6537C26 37.6537 31 37.6537 31 39.6537C31 41.6537 31 71.6537 31 73.6537C31 75.6537 26 76.1537 26 73.6537C26 71.1537 26 41.6537 26 39.6537Z" fill="#3FA1D9"/>
<path d="M16.1467 32C15.6467 30.5 25.1467 19 27.1467 19C29.1467 19 41.6467 30.5 41.1467 32C40.6467 33.5 32.1467 33.5 32.1467 33.5C32.1467 33.5 44.1467 41.5 44.1467 44C44.1467 46.5 32.1467 46.5 32.1467 46.5C32.1467 46.5 45.1467 59.5 44.1467 61C43.1467 62.5 14.6467 62.5 13.1467 61C11.6467 59.5 22.1467 46.5 22.1467 46.5C22.1467 46.5 14.1467 46.5 13.1467 44C12.1467 41.5 25.1467 33.5 25.1467 33.5C25.1467 33.5 16.6467 33.5 16.1467 32Z" fill="#8CBCD8" stroke="#8CBCD8" stroke-width="5"/>
<path d="M63 39.6537C63 37.6537 68 37.6537 68 39.6537C68 41.6537 68 71.6537 68 73.6537C68 75.6537 63 76.1537 63 73.6537C63 71.1537 63 41.6537 63 39.6537Z" fill="#3FA1D9"/>
<path d="M53.1467 32C52.6467 30.5 62.1467 19 64.1467 19C66.1467 19 78.6467 30.5 78.1467 32C77.6467 33.5 69.1467 33.5 69.1467 33.5C69.1467 33.5 81.1467 41.5 81.1467 44C81.1467 46.5 69.1467 46.5 69.1467 46.5C69.1467 46.5 82.1467 59.5 81.1467 61C80.1467 62.5 51.6467 62.5 50.1467 61C48.6467 59.5 59.1467 46.5 59.1467 46.5C59.1467 46.5 51.1467 46.5 50.1467 44C49.1467 41.5 62.1467 33.5 62.1467 33.5C62.1467 33.5 53.6467 33.5 53.1467 32Z" fill="#8CBCD8" stroke="#8CBCD8" stroke-width="5"/>
</svg>
