<svg width="98" height="98" viewBox="0 0 98 98" fill="none" xmlns="http://www.w3.org/2000/svg">
<circle cx="31" cy="74" r="8" fill="#3FA1D9"/>
<circle cx="59" cy="73" r="8" fill="#3FA1D9"/>
<path fill-rule="evenodd" clip-rule="evenodd" d="M18.5 40.5C18.5 44 18.5 60 18.5 63.5C18.5 67 17.5 71 19 71C20.5 71 21 67.5 23.5 65.5C26 63.5 29.5 63.5 31.5 63.5C33.5 63.5 35.75 63.5 38 65.5C40.25 67.5 41.5 70.5 41.5 70.5H47.5C47.5 70.5 49 67.5 50.5 65.5C52 63.5 58 62.5 59.5 62.5C61 62.5 66 64 68 65.5C70 67 70 52 68 49.3104C66 46.6207 59 30.5 57 29C55 27.5 41.5 27.5 40.25 29C39 30.5 40.25 43.1552 40.25 43.1552C40.25 43.1552 39 37 36 37C33 37 27.5 37 24.5 37C21.5 37 18.5 37 18.5 40.5ZM63 58C59 58 53.5 58 50.5 58C47.5 58 46 53 44.5 49.3104V43.5V33C44.5 33 53 32 54.5 33C56 34 63 50.5 63 50.5C63 50.5 67 58 63 58Z" fill="#3FA1D9"/>
<path d="M44.5 49.3104C46 53 47.5 58 50.5 58C53.5 58 59 58 63 58C67 58 63 50.5 63 50.5C63 50.5 56 34 54.5 33C53 32 44.5 33 44.5 33V43.5V49.3104ZM44.5 49.3104L40.25 43.1552M40.25 43.1552C40.25 43.1552 39 37 36 37C33 37 27.5 37 24.5 37C21.5 37 18.5 37 18.5 40.5C18.5 44 18.5 60 18.5 63.5C18.5 67 17.5 71 19 71C20.5 71 21 67.5 23.5 65.5C26 63.5 29.5 63.5 31.5 63.5C33.5 63.5 35.75 63.5 38 65.5C40.25 67.5 41.5 70.5 41.5 70.5H47.5C47.5 70.5 49 67.5 50.5 65.5C52 63.5 58 62.5 59.5 62.5C61 62.5 66 64 68 65.5C70 67 70 52 68 49.3104C66 46.6207 59 30.5 57 29C55 27.5 41.5 27.5 40.25 29C39 30.5 40.25 43.1552 40.25 43.1552Z" stroke="#3FA1D9"/>
<path d="M76 77C75.0001 76.5 76 31 76 28.5C76 26 78.5 25.9999 78.5 28.5C78.5 31 77.5 75 78.5 75H87C88.5 75 88.0001 77 87 77C86 77 77 77.5 76 77Z" fill="#3FA1D9" stroke="#3FA1D9"/>
</svg>
