<svg width="98" height="98" viewBox="0 0 98 98" fill="none" xmlns="http://www.w3.org/2000/svg">
<path d="M49.5 31L49 28" stroke="#3FA1D9"/>
<path d="M78 48.5C78 63.6878 65.6878 76 50.5 76C35.3122 76 23 63.6878 23 48.5C23 33.3122 35.3122 21 50.5 21C65.6878 21 78 33.3122 78 48.5Z" fill="#3FA1D9"/>
<path d="M53.5 43.5V20V18H57.5L62.5 19L64.5 20L66.5 21L69 22.5L71 24L72.5 25.5L74.5 27.5L76.5 30.5L78 33.5L79 36.5L79.5 38.5V45.5H77.5H53.5V43.5Z" fill="#8CBCD8" stroke="#8CBCD8" stroke-width="3"/>
</svg>
