<svg width="98" height="98" viewBox="0 0 98 98" fill="none" xmlns="http://www.w3.org/2000/svg">
<circle cx="21" cy="50" r="7" fill="#3FA1D9"/>
<circle cx="49" cy="50" r="7" fill="#3FA1D9"/>
<circle cx="77" cy="50" r="7" fill="#3FA1D9"/>
<path d="M30 66C30 69.866 25.9706 73 21 73C16.0294 73 12 69.866 12 66C12 62.134 16.0294 59 21 59C25.9706 59 30 62.134 30 66Z" fill="#3FA1D9"/>
<path d="M58.4529 66C58.4529 69.866 54.4235 73 49.4529 73C44.4824 73 40.4529 69.866 40.4529 66C40.4529 62.134 44.4824 59 49.4529 59C54.4235 59 58.4529 62.134 58.4529 66Z" fill="#3FA1D9"/>
<path d="M86.4529 66C86.4529 69.866 82.4235 73 77.4529 73C72.4824 73 68.4529 69.866 68.4529 66C68.4529 62.134 72.4824 59 77.4529 59C82.4235 59 86.4529 62.134 86.4529 66Z" fill="#3FA1D9"/>
<path d="M20 35V18" stroke="#8CBCD8" stroke-width="2"/>
<line x1="20" y1="19" x2="78" y2="19" stroke="#8CBCD8" stroke-width="2"/>
<line x1="77" y1="35" x2="77" y2="18" stroke="#8CBCD8" stroke-width="2"/>
</svg>
