<svg width="98" height="98" viewBox="0 0 98 98" fill="none" xmlns="http://www.w3.org/2000/svg">
<path d="M29.1 38H31.9C31.9 38 34 80.2532 34 82.3043C34 84.3555 27 84.7657 27 82.3043C27 79.843 29.1 38 29.1 38Z" fill="#3FA1D9"/>
<circle cx="30.5" cy="35.5" r="3.5" fill="#3FA1D9"/>
<path d="M29 23.7598C29 24.826 30.1111 33 30.1111 33C30.1111 33 31 25.5368 31 23.7598C31 21.9829 30.1111 12.7427 30.1111 12.032C30.1111 11.3212 29 22.6937 29 23.7598Z" fill="#3FA1D9" stroke="#3FA1D9" stroke-width="3"/>
<path d="M41.1631 40.118C40.2087 39.6429 32.3962 36.9947 32.3962 36.9947C32.3962 36.9947 38.6811 41.1165 40.2718 41.9084C41.8625 42.7003 50.5305 46.0226 51.1668 46.3394C51.8031 46.6561 42.1176 40.5932 41.1631 40.118Z" fill="#3FA1D9" stroke="#3FA1D9" stroke-width="3"/>
<path d="M18.5274 40.118C19.4819 39.6429 27.2944 36.9947 27.2944 36.9947C27.2944 36.9947 21.0095 41.1165 19.4187 41.9084C17.828 42.7003 9.16008 46.0226 8.52378 46.3394C7.88749 46.6561 17.573 40.5932 18.5274 40.118Z" fill="#3FA1D9" stroke="#3FA1D9" stroke-width="3"/>
<path d="M65.8 36H68.2C68.2 36 70 68.1492 70 69.7098C70 71.2705 64 71.5826 64 69.7098C64 67.8371 65.8 36 65.8 36Z" fill="#3FA1D9"/>
<ellipse cx="66.5" cy="35" rx="2.5" ry="3" fill="#3FA1D9"/>
<path d="M62.5984 26.1548C62.834 26.9323 65.7035 32.5702 65.7035 32.5702C65.7035 32.5702 64.9051 26.8705 64.5125 25.5748C64.1198 24.2791 61.2275 17.7994 61.0704 17.2811C60.9134 16.7628 62.3629 25.3774 62.5984 26.1548Z" fill="#3FA1D9" stroke="#3FA1D9" stroke-width="3"/>
<path d="M75.4906 32.8417C74.6263 32.918 68.0309 34.3715 68.0309 34.3715C68.0309 34.3715 74.1056 34.5322 75.5461 34.405C76.9866 34.2778 84.4525 32.9217 85.0287 32.8708C85.6049 32.8199 76.3549 32.7654 75.4906 32.8417Z" fill="#3FA1D9" stroke="#3FA1D9" stroke-width="3"/>
<path d="M60.3717 42.2234C60.8587 41.5053 65.3363 36.4493 65.3363 36.4493C65.3363 36.4493 62.5224 41.8354 61.7107 43.0322C60.899 44.229 56.0832 50.0931 55.7585 50.5718C55.4338 51.0505 59.8847 42.9415 60.3717 42.2234Z" fill="#3FA1D9" stroke="#3FA1D9" stroke-width="3"/>
</svg>
