<svg width="98" height="98" viewBox="0 0 98 98" fill="none" xmlns="http://www.w3.org/2000/svg">
<circle cx="49.5" cy="34.5" r="7.5" fill="#3FA1D9"/>
<rect width="7.30459" height="37.9017" transform="matrix(-0.795301 0.606215 0.586793 0.809737 55.4577 37.5353)" fill="#3FA1D9"/>
<path d="M20.6767 74.0888C19.8802 73.1474 20.3583 69.6587 22.2516 66.9247C24.1449 64.1907 30.2303 70.034 27.5383 72.1709C24.8464 74.3078 21.4733 75.0303 20.6767 74.0888Z" fill="#3FA1D9"/>
<path d="M78.62 74.3774C79.4166 73.4359 78.9385 69.9473 77.0452 67.2133C75.1519 64.4792 69.0664 70.3226 71.7584 72.4595C74.4504 74.5964 77.8234 75.3189 78.62 74.3774Z" fill="#3FA1D9"/>
<path d="M26.3131 50.1543C46.2218 67.1961 61.177 57.1934 71.2865 50.1542" stroke="#8CBCD8" stroke-width="6"/>
<rect width="7.30459" height="37.9017" transform="matrix(0.795301 0.606215 -0.586793 0.809737 43.6884 37.5353)" fill="#3FA1D9"/>
<path d="M76 48.7367C76 50.5001 71.7353 54.4122 70.5 53.5C68.9081 53.5 68 51.7634 68 50C68 48.2366 71.9375 46 73.5294 46C75.1213 46 76 46.9734 76 48.7367Z" fill="#8CBCD8"/>
<path d="M21.5 48C21.2744 49.6663 27.1226 55.6824 28.5 55C30.1247 55.2314 30.2744 52.6663 30.5 51C30.7256 49.3338 26.6247 46.2314 25 46C23.3753 45.7686 21.7256 46.3338 21.5 48Z" fill="#8CBCD8"/>
</svg>
