<svg width="98" height="98" viewBox="0 0 98 98" fill="none" xmlns="http://www.w3.org/2000/svg">
<path d="M12.3822 79.4783C10.3481 79.0373 9.64981 77.8811 9.206 76.4709C8.76218 75.0608 41.6577 45.3268 42.5474 45.6745C43.437 46.0221 43.1194 45.7213 43.5002 46.5767C43.8811 47.432 14.4164 79.9194 12.3822 79.4783Z" fill="#3FA1D9"/>
<path d="M19.7512 75.9629C17.4083 80.4408 16.4545 82.9998 12.3879 82.9998C8.32124 82.9998 5.02458 75.9629 5.02458 75.9629C5.02458 75.9629 3.35111 72.1247 12.3879 68.9261C21.4247 65.7276 22.0941 71.485 19.7512 75.9629Z" fill="#3FA1D9"/>
<path d="M40.4875 79.4783C42.5217 79.0373 43.2199 77.8811 43.6638 76.4709C44.1076 75.0608 11.2121 45.3268 10.3224 45.6745C9.43271 46.0221 9.75034 45.7213 9.36952 46.5767C8.98869 47.432 38.4534 79.9194 40.4875 79.4783Z" fill="#3FA1D9"/>
<path d="M33.0535 75.4938C35.3964 80.2702 36.3502 82.9998 40.4168 82.9998C44.4834 82.9998 47.7801 75.4938 47.7801 75.4938C47.7801 75.4938 49.4536 71.3997 40.4168 67.9879C31.38 64.5761 30.7106 70.7174 33.0535 75.4938Z" fill="#3FA1D9"/>
<path d="M27 21.5C27 21.5 24 51.5 27 50C30 48.5 41.5 41.2162 43 41C44.5 40.7838 45.3473 42.4771 46 44C46.6923 45.6152 46 48.5 46 48.5L44.5 52C44.5 52 38.5161 58.5 37.5 60C36.4839 61.5 35.4679 63 39.5 64.5C43.5322 66 47.5 68.5 47.5 68.5C47.5 68.5 51 71 51 73.5C51 76 51 76 51 77.5C51 79 46 81 48.5 81C51 81 79 83 82.5 81C86 78.9999 84.5 21.5 82.5 20.5C80.5 19.5 27 21.5 27 21.5Z" fill="#3FA1D9" stroke="#3FA1D9"/>
</svg>
