<svg width="98" height="98" viewBox="0 0 98 98" fill="none" xmlns="http://www.w3.org/2000/svg">
<path d="M47.0168 17.0523C48.6241 15.4431 49.8295 15.9796 51.035 17.0523C52.2404 18.1251 50.2313 84.0985 49.4277 84.6346C48.6241 85.1708 49.0259 85.1708 48.2223 84.6346C47.4186 84.0985 45.4095 18.6615 47.0168 17.0523Z" fill="#3FA1D9"/>
<ellipse cx="32.5" cy="29" rx="6.5" ry="5" fill="#8CBCD8"/>
<circle cx="30.5" cy="28.5" r="1.5" fill="#F5F5F5"/>
<path d="M37.1038 26C25.5 27 56.1038 26 56.1038 26C56.1038 26 61.1038 26.9999 62.6038 27.4999C64.1038 27.9999 67.6038 32.4998 64.1038 35.9999C60.6038 39.4999 59.6038 38.9999 59.6038 38.9999H43.1038H38.1038L34.1038 41.5C34.1038 41.5 33.3134 42.9696 33.1038 44C32.8703 45.1481 33.1038 45.8284 33.1038 47C33.1038 48 33.6039 49 34.1038 49.5C34.6038 50 35.1039 50.5 35.6038 51C36.1038 51.5 38.1038 52 38.1038 52H57.1038C57.1038 52 58.6038 52 59.6038 52.5C60.6038 53 61.1038 53.5 61.6038 54.5C62.1038 55.5 62.6038 57 62.6038 57V59.5C62.6038 59.5 61.1038 62 60.1038 62.5C59.1038 63 55.6038 64 55.6038 64L51.1038 64.5L34.1038 64" stroke="#8CBCD8" stroke-width="5"/>
<path d="M36 63.5C36 64.8807 35.8807 66.5 34.5 66.5C33.1193 66.5 31 64.8807 31 63.5C31 62.1193 32.1193 61.5 33.5 61.5C34.8807 61.5 36 62.1193 36 63.5Z" fill="#8CBCD8"/>
</svg>
