<svg width="98" height="98" viewBox="0 0 98 98" fill="none" xmlns="http://www.w3.org/2000/svg">
<path d="M13.7542 50.6248C10.0877 50.5447 10.0847 45.0988 13.7627 45.022C17.4407 44.9452 76.9975 45.05 79.7587 45.1296C82.52 45.2093 82.9582 50.8123 79.7503 50.7325C76.5423 50.6526 17.4207 50.7048 13.7542 50.6248Z" fill="#3FA1D9"/>
<path d="M36.7047 20.3296C38.9776 18.3137 56.2518 18.8177 57.6156 20.3296C58.9793 21.8416 59.8885 35.9532 57.6156 37.4651C55.3427 38.977 38.9776 39.985 36.7047 37.4651C34.4318 34.9452 34.4318 22.3455 36.7047 20.3296Z" fill="#3FA1D9"/>
<path d="M18.7757 58.3296C21.1433 56.3137 39.1373 56.8176 40.5579 58.3296C41.9785 59.8416 42.9255 73.9532 40.5579 75.4651C38.1903 76.977 21.1434 77.985 18.7757 75.4651C16.4081 72.9452 16.4081 60.3455 18.7757 58.3296Z" fill="#3FA1D9"/>
<path d="M51.7047 58.3297C53.9776 56.3138 71.2518 56.8177 72.6156 58.3297C73.9794 59.8416 74.8885 73.9533 72.6156 75.4652C70.3427 76.9771 53.9776 77.9851 51.7047 75.4652C49.4318 72.9453 49.4318 60.3456 51.7047 58.3297Z" fill="#3FA1D9"/>
<path d="M44.0188 38.3492C44.0839 37.8843 48.875 37.8829 48.9479 38.3492C49.0207 38.8154 49.014 46.3657 48.9479 46.7158C48.8817 47.0659 43.9531 47.1225 44.0188 46.7158C44.0844 46.3091 43.9536 38.814 44.0188 38.3492Z" fill="#3FA1D9"/>
<path d="M27.0188 48.3492C27.0839 47.8843 31.875 47.8829 31.9479 48.3492C32.0207 48.8154 32.014 56.3657 31.9479 56.7158C31.8817 57.0659 26.9531 57.1225 27.0188 56.7158C27.0844 56.3091 26.9536 48.814 27.0188 48.3492Z" fill="#3FA1D9"/>
<path d="M60.0188 48.3492C60.0839 47.8843 64.875 47.8829 64.9479 48.3492C65.0207 48.8154 65.014 56.3657 64.9479 56.7158C64.8817 57.0659 59.9531 57.1225 60.0188 56.7158C60.0844 56.3091 59.9536 48.814 60.0188 48.3492Z" fill="#3FA1D9"/>
</svg>
