<svg width="98" height="98" viewBox="0 0 98 98" fill="none" xmlns="http://www.w3.org/2000/svg">
<circle cx="49" cy="49" r="4" fill="#8CBCD8"/>
<path d="M47.5858 40.4142C48.3668 41.1953 49.6332 41.1953 50.4142 40.4142L63.1421 27.6863C63.9232 26.9052 63.9232 25.6389 63.1421 24.8579C62.3611 24.0768 61.0948 24.0768 60.3137 24.8579L49 36.1716L37.6863 24.8579C36.9052 24.0768 35.6389 24.0768 34.8579 24.8579C34.0768 25.6389 34.0768 26.9052 34.8579 27.6863L47.5858 40.4142ZM49 17H47V39H49H51V17H49Z" fill="#3FA1D9"/>
<path d="M58.5858 47.5858C57.8047 48.3668 57.8047 49.6332 58.5858 50.4142L71.3137 63.1421C72.0948 63.9232 73.3611 63.9232 74.1421 63.1421C74.9232 62.3611 74.9232 61.0948 74.1421 60.3137L62.8284 49L74.1421 37.6863C74.9232 36.9052 74.9232 35.6389 74.1421 34.8579C73.3611 34.0768 72.0948 34.0768 71.3137 34.8579L58.5858 47.5858ZM82 49V47H60V49V51H82V49Z" fill="#3FA1D9"/>
<path d="M50.4142 57.5858C49.6332 56.8047 48.3668 56.8047 47.5858 57.5858L34.8579 70.3137C34.0768 71.0948 34.0768 72.3611 34.8579 73.1421C35.6389 73.9232 36.9052 73.9232 37.6863 73.1421L49 61.8284L60.3137 73.1421C61.0948 73.9232 62.3611 73.9232 63.1421 73.1421C63.9232 72.3611 63.9232 71.0948 63.1421 70.3137L50.4142 57.5858ZM49 81H51V59H49H47V81H49Z" fill="#3FA1D9"/>
<path d="M40.9142 50.4142C41.6953 49.6332 41.6953 48.3668 40.9142 47.5858L28.1863 34.8579C27.4052 34.0768 26.1389 34.0768 25.3579 34.8579C24.5768 35.6389 24.5768 36.9052 25.3579 37.6863L36.6716 49L25.3579 60.3137C24.5768 61.0948 24.5768 62.3611 25.3579 63.1421C26.1389 63.9232 27.4052 63.9232 28.1863 63.1421L40.9142 50.4142ZM17.5 49V51H39.5V49V47H17.5V49Z" fill="#3FA1D9"/>
</svg>
