<svg width="98" height="98" viewBox="0 0 98 98" fill="none" xmlns="http://www.w3.org/2000/svg">
<path d="M34.9756 40.5607C36.6489 40.5607 39.4377 39.4318 40.5532 40.5607C41.6687 41.6896 39.2908 48.4022 38.8799 50.7208C38.469 53.0394 43.2152 57.5275 45.0152 56.3653C45.0152 56.3653 47.8039 56.3653 49.4772 54.672C51.1505 52.9786 49.4772 46.7697 51.1505 46.7697H56.1702C56.1702 46.7697 66.2097 47.3341 64.5365 50.7208C62.8633 54.1075 56.1702 52.9786 56.1702 52.9786C56.1702 52.9786 69.5563 56.3653 61.7477 59.1876C58.4799 60.3687 56.9703 60.8578 56.3198 61.0272C56.7062 61.399 57.8653 62.4791 60.0745 64.2677C62.8633 66.5255 58.4012 67.6544 56.1702 68.7833C53.9392 69.9122 39.9954 65.961 39.4376 66.5255C38.8798 67.0899 32.7446 73.8633 31.0713 74.9922C29.3981 76.1211 18.8008 62.5743 21.0318 60.8809C23.2628 59.1876 31.0713 50.7208 31.0713 50.7208C31.0713 50.7208 33.3023 40.5607 34.9756 40.5607Z" fill="#3FA1D9" stroke="#3FA1D9" stroke-width="3"/>
<path d="M43.3409 54.059C42.2441 54.059 41.7246 51.2018 41.7246 51.2018L42.2442 45.4875C42.2442 45.4875 42.2442 37.4875 43.8894 35.7732C44.4634 35.1752 44.7036 35.8291 44.7731 36.8371C44.887 36.1864 44.9862 35.7732 44.9862 35.7732H59.2446C59.2446 35.7732 65.277 30.059 66.9222 30.059C68.5674 30.059 76.245 42.6304 75.6966 43.7732C75.1482 44.9161 66.9222 47.7732 66.9222 47.7732L63.6318 45.4875C63.6318 45.4875 54.309 43.2018 53.7606 43.7732C53.2122 44.3447 47.7282 44.3447 48.2766 44.9161C48.825 45.4875 46.6313 51.7732 47.1798 52.3447C47.7282 52.9161 46.0829 54.059 46.0829 54.059H43.3409Z" fill="#8CBCD8"/>
<path d="M43.3409 40.9161L42.2442 45.4875M42.2442 45.4875L41.7246 51.2018C41.7246 51.2018 42.2441 54.059 43.3409 54.059C44.4378 54.059 46.0829 54.059 46.0829 54.059C46.0829 54.059 47.7282 52.9161 47.1798 52.3447C46.6313 51.7732 48.825 45.4875 48.2766 44.9161C47.7282 44.3447 53.2122 44.3447 53.7606 43.7732C54.309 43.2018 63.6318 45.4875 63.6318 45.4875L66.9222 47.7732C66.9222 47.7732 75.1482 44.9161 75.6966 43.7732C76.245 42.6304 68.5674 30.059 66.9222 30.059C65.277 30.059 59.2446 35.7732 59.2446 35.7732H44.9862C44.9862 35.7732 44.4378 38.059 44.4378 40.3447C44.4378 42.6304 45.5346 34.059 43.8894 35.7732C42.2442 37.4875 42.2442 45.4875 42.2442 45.4875Z" stroke="#8CBCD8" stroke-width="3"/>
</svg>
