<svg width="98" height="98" viewBox="0 0 98 98" fill="none" xmlns="http://www.w3.org/2000/svg">
<circle cx="49" cy="39" r="12" fill="#3FA1D9"/>
<path d="M80.5731 67.5605C79.0731 71.0601 71.0731 81.6198 69.0731 81.6198H60.0731C53.5731 81.6198 51.5731 61.5018 52.0731 59.561C52.5731 57.6202 61.0731 50.1202 63.5731 50.1202C66.0731 50.1202 67.0731 54.5605 65.5731 55.5605C64.0731 56.5605 63.0732 58.1204 61.0731 59.561C59.0731 61.0016 58.0731 60.1198 60.0731 65.6198C62.0731 71.1198 63.5731 68.6198 69.0731 65.6198C74.5731 62.6198 73.5731 57.0614 73.5731 53.561C73.5731 50.0605 71.0731 38.5603 71.0731 36.0606C71.0731 33.5609 75.0731 31.1202 78.5731 35.1202C82.073 39.1202 82.0731 64.0609 80.5731 67.5605Z" fill="#8CBCD8" stroke="#8CBCD8" stroke-width="3"/>
<path d="M17.9521 67.5605C19.4521 71.0601 27.4521 81.6198 29.4521 81.6198H38.4521C44.9521 81.6198 46.9521 61.5018 46.4521 59.561C45.9521 57.6202 37.4521 50.1202 34.9521 50.1202C32.4521 50.1202 31.4521 54.5605 32.9521 55.5605C34.4521 56.5605 35.452 58.1204 37.4521 59.561C39.4521 61.0016 40.4521 60.1198 38.4521 65.6198C36.4521 71.1198 34.9521 68.6198 29.4521 65.6198C23.9521 62.6198 24.9521 57.0614 24.9521 53.561C24.9521 50.0605 27.4521 38.5603 27.4521 36.0606C27.4521 33.5609 23.4521 31.1202 19.9521 35.1202C16.4522 39.1202 16.4521 64.0609 17.9521 67.5605Z" fill="#8CBCD8" stroke="#8CBCD8" stroke-width="3"/>
</svg>
