<svg width="98" height="98" viewBox="0 0 98 98" fill="none" xmlns="http://www.w3.org/2000/svg">
<path d="M13.0506 63C15.7846 63 79.2154 63 81.9494 63C84.6835 63 84.6835 67 81.9494 67C79.2154 67 15.7846 67 13.0506 67C10.3165 67 10.3165 63 13.0506 63Z" fill="#3FA1D9"/>
<path d="M29.6992 44.3793C29.6992 44.3793 56.4869 28.8351 64.7452 24.2978C73.0035 19.7605 85.068 32.0082 73.2832 39.1259C61.4984 46.2436 38.2372 59.2074 38.2372 59.2074L29.6992 44.3793Z" fill="#3FA1D9"/>
<path d="M29.0878 45.4353C29.0878 45.4353 41.4807 59.152 37.7029 59.0898C33.9252 59.0276 15.8139 58.7295 15.8139 58.7295L29.0878 45.4353Z" fill="#3FA1D9"/>
<path d="M83.5642 22.5297C84.7979 24.9371 81.9531 32.021 76.4402 36.7595C70.9272 41.4981 60.8024 25.9453 67.7323 22.8908C74.6622 19.8363 82.3306 20.1223 83.5642 22.5297Z" fill="#3FA1D9"/>
<path d="M12.8946 46.6156C12.632 48.3566 16.294 58.198 16.294 58.198C16.294 58.198 22.6177 52.8431 26.8547 48.7112L17.6509 44.6597C17.6509 44.6597 13.1572 44.8747 12.8946 46.6156Z" fill="#3FA1D9" stroke="#3FA1D9"/>
<path d="M16.2867 32.8724C19.5247 35.3279 35.4821 43.6509 35.4821 43.6509L47.7108 33.6766C47.7108 33.6766 30.5615 27.6276 26.9865 26.9554C23.4115 26.2831 13.0486 30.417 16.2867 32.8724Z" fill="#3FA1D9" stroke="#3FA1D9"/>
<path d="M32.9976 42.3315C32.9976 42.3315 37.7495 56.8644 35.9925 55.6254C34.2354 54.3864 22.4803 49.024 22.4803 49.024L32.9976 42.3315Z" fill="#3FA1D9"/>
</svg>
