<svg width="356" height="251" viewBox="0 0 356 251" fill="none" xmlns="http://www.w3.org/2000/svg">
<path d="M5.39604 149.548C-1.29541 135.855 -0.664891 120.254 6.53568 106.779C10.485 99.3887 14.5991 90.7388 23.0328 93.5908C29.8244 95.8878 28.0474 102.994 29.5347 109.478C30.3644 113.094 30.3908 117.107 34.3853 118.857C37.175 120.079 39.2826 119.388 42.3052 118.788C45.2473 118.204 48.2774 116.178 50.7076 114.143L50.7076 1.02832C50.7076 0.476044 51.1553 0.0283203 51.7076 0.0283203L299.736 0.0283203C300.288 0.0283203 300.736 0.476028 300.736 1.02832V104.995C302.306 106.759 308.157 112.966 313.695 114.065C316.718 114.665 318.825 115.357 321.615 114.135C325.609 112.385 325.636 108.372 326.465 104.756C327.953 98.2721 326.175 91.1652 332.967 88.8682C341.401 86.0162 345.515 94.6661 349.464 102.057C356.665 115.532 357.295 131.132 350.604 144.825C346.64 152.938 341.339 164.378 332.213 161.334C324.586 158.789 328.367 150.429 326.066 143.162C325.062 139.992 324.587 137.402 321.389 135.874C318.647 134.564 316.489 135.196 313.468 135.806C306.712 137.17 302.481 146.368 300.736 151.062V249.028C300.736 249.581 300.288 250.028 299.736 250.028L51.7076 250.028C51.1553 250.028 50.7076 249.581 50.7076 249.028L50.7076 146.809C48.5964 143.794 45.8733 141.202 42.5318 140.527C39.5112 139.918 37.3527 139.287 34.6109 140.597C31.4136 142.125 30.9377 144.715 29.9341 147.885C27.6336 155.152 31.4141 163.511 23.7867 166.056C14.6616 169.1 9.36049 157.661 5.39604 149.548Z" fill="#D8EF88"/>
<path d="M145.57 147.907C142.425 147.907 139.691 147.204 137.366 145.798C135.062 144.392 133.275 142.409 132.005 139.851C130.736 137.272 130.101 134.245 130.101 130.769C130.101 127.956 130.531 125.231 131.39 122.595C132.249 119.958 133.499 117.458 135.14 115.095C136.781 112.712 138.782 110.515 141.146 108.503C143.529 106.472 146.234 104.665 149.261 103.083L153.421 108.854C151.136 110.104 149.046 111.53 147.152 113.132C145.257 114.733 143.597 116.442 142.171 118.259C140.745 120.075 139.603 121.94 138.743 123.854C139.857 122.683 141.185 121.774 142.728 121.13C144.29 120.485 146.019 120.163 147.913 120.163C150.472 120.163 152.738 120.729 154.71 121.862C156.702 122.995 158.255 124.548 159.368 126.521C160.501 128.493 161.068 130.769 161.068 133.347C161.068 136.159 160.394 138.669 159.046 140.876C157.718 143.063 155.892 144.782 153.568 146.032C151.243 147.282 148.577 147.907 145.57 147.907ZM145.599 140.026C146.79 140.026 147.845 139.714 148.763 139.089C149.7 138.444 150.443 137.575 150.99 136.481C151.556 135.388 151.839 134.167 151.839 132.819C151.839 131.491 151.566 130.319 151.019 129.304C150.491 128.288 149.769 127.487 148.851 126.901C147.933 126.296 146.878 125.993 145.687 125.993C144.495 125.993 143.421 126.296 142.464 126.901C141.507 127.507 140.755 128.337 140.208 129.392C139.661 130.427 139.388 131.608 139.388 132.937C139.388 134.284 139.661 135.495 140.208 136.569C140.775 137.624 141.527 138.464 142.464 139.089C143.402 139.714 144.447 140.026 145.599 140.026ZM190.159 135.544H166.722V129.128H190.159V135.544ZM211.048 147.907C208.001 147.907 205.335 147.39 203.05 146.354C200.765 145.319 198.988 143.864 197.718 141.989C196.468 140.095 195.843 137.888 195.843 135.368C195.843 132.575 196.624 130.173 198.187 128.161C199.769 126.13 201.917 124.665 204.632 123.767C202.366 122.907 200.589 121.599 199.3 119.841C198.031 118.063 197.396 115.964 197.396 113.542C197.396 111.237 197.952 109.235 199.066 107.536C200.198 105.837 201.79 104.528 203.841 103.61C205.892 102.673 208.304 102.204 211.077 102.204C213.831 102.204 216.234 102.673 218.284 103.61C220.335 104.528 221.917 105.837 223.031 107.536C224.163 109.235 224.73 111.237 224.73 113.542C224.73 115.964 224.085 118.063 222.796 119.841C221.527 121.599 219.759 122.907 217.493 123.767C220.228 124.665 222.376 126.13 223.939 128.161C225.521 130.173 226.312 132.575 226.312 135.368C226.312 137.868 225.677 140.065 224.407 141.96C223.138 143.835 221.361 145.3 219.075 146.354C216.79 147.39 214.115 147.907 211.048 147.907ZM211.077 119.958C212.523 119.958 213.695 119.46 214.593 118.464C215.491 117.448 215.941 116.13 215.941 114.509C215.941 112.888 215.491 111.569 214.593 110.554C213.695 109.538 212.523 109.03 211.077 109.03C209.632 109.03 208.45 109.538 207.532 110.554C206.634 111.569 206.185 112.888 206.185 114.509C206.185 116.13 206.634 117.448 207.532 118.464C208.431 119.46 209.613 119.958 211.077 119.958ZM211.077 140.729C212.308 140.729 213.392 140.456 214.329 139.909C215.267 139.343 215.999 138.552 216.527 137.536C217.054 136.521 217.318 135.358 217.318 134.05C217.318 132.702 217.054 131.53 216.527 130.534C215.999 129.519 215.267 128.737 214.329 128.19C213.392 127.624 212.298 127.341 211.048 127.341C209.818 127.341 208.734 127.624 207.796 128.19C206.878 128.737 206.156 129.519 205.628 130.534C205.101 131.53 204.837 132.702 204.837 134.05C204.837 135.358 205.101 136.521 205.628 137.536C206.156 138.532 206.888 139.313 207.825 139.88C208.763 140.446 209.847 140.729 211.077 140.729Z" fill="#677831"/>
</svg>
