<svg width="356" height="251" viewBox="0 0 356 251" fill="none" xmlns="http://www.w3.org/2000/svg">
<path fill-rule="evenodd" clip-rule="evenodd" d="M50.7075 146.806C48.5965 143.792 45.8726 141.201 42.5315 140.527C42.2634 140.473 42.0021 140.418 41.7466 140.365C39.1232 139.82 37.1096 139.402 34.6112 140.596C31.7439 141.966 31.0652 144.19 30.232 146.92C30.136 147.235 30.038 147.556 29.9343 147.883C29.1387 150.396 29.0703 153.04 29.0059 155.529C28.8841 160.237 28.7766 164.39 23.7864 166.055C14.8957 169.021 9.63572 158.237 5.70463 150.178C5.60098 149.966 5.49826 149.755 5.39642 149.547C-1.29505 135.854 -0.664548 120.253 6.5361 106.778C6.71835 106.437 6.90095 106.094 7.0843 105.748C10.8743 98.6138 14.9885 90.8689 23.0332 93.5897C27.9953 95.2679 28.3833 99.5134 28.8124 104.207C28.9706 105.938 29.1344 107.73 29.5351 109.477C29.6733 110.079 29.7892 110.693 29.9049 111.305C30.4835 114.367 31.0561 117.398 34.3852 118.856C36.8374 119.93 38.7625 119.526 41.2453 119.005C41.5872 118.934 41.9397 118.86 42.3055 118.787C45.2473 118.203 48.2775 116.178 50.7075 114.143L50.7075 1.02734C50.7075 0.475067 51.1552 0.0273438 51.7075 0.0273438L299.736 0.0273438C300.288 0.0273438 300.736 0.475052 300.736 1.02734V104.996C302.306 106.761 308.157 112.966 313.695 114.065C314.06 114.137 314.412 114.211 314.753 114.283L314.755 114.283C317.238 114.804 319.163 115.208 321.615 114.134C324.944 112.675 325.517 109.645 326.095 106.583C326.211 105.97 326.327 105.357 326.465 104.755C326.866 103.008 327.03 101.216 327.188 99.4852C327.617 94.791 328.005 90.5456 332.967 88.8674C341.012 86.1466 345.126 93.8914 348.916 101.026C349.099 101.371 349.282 101.715 349.464 102.056C356.665 115.531 357.295 131.131 350.604 144.824C350.502 145.033 350.399 145.243 350.296 145.456C346.364 153.515 341.104 164.299 332.214 161.333C327.224 159.668 327.116 155.514 326.994 150.806C326.93 148.318 326.861 145.674 326.066 143.161C325.962 142.834 325.864 142.514 325.769 142.199L325.768 142.198C324.935 139.467 324.256 137.243 321.389 135.873C318.891 134.679 316.877 135.098 314.254 135.643L314.25 135.644C313.996 135.696 313.736 135.751 313.469 135.804C306.713 137.168 302.48 146.366 300.736 151.059V249.027C300.736 249.58 300.288 250.027 299.736 250.027L51.7075 250.027C51.1552 250.027 50.7075 249.58 50.7075 249.027L50.7075 146.806Z" fill="#BAE98E"/>
<path d="M152.25 120.937C153.89 120.937 155.48 121.207 157.02 121.747C158.58 122.287 159.95 123.107 161.13 124.207C162.31 125.287 163.26 126.637 163.98 128.257C164.7 129.877 165.06 131.767 165.06 133.927C165.06 135.947 164.69 137.847 163.95 139.627C163.21 141.387 162.17 142.927 160.83 144.247C159.49 145.567 157.87 146.607 155.97 147.367C154.09 148.127 152.01 148.507 149.73 148.507C147.41 148.507 145.33 148.137 143.49 147.397C141.65 146.657 140.08 145.627 138.78 144.307C137.48 142.967 136.48 141.367 135.78 139.507C135.1 137.627 134.76 135.547 134.76 133.267C134.76 131.227 135.17 129.137 135.99 126.997C136.83 124.837 138.12 122.597 139.86 120.277L150.21 106.387C150.57 105.907 151.09 105.497 151.77 105.157C152.47 104.817 153.27 104.647 154.17 104.647H160.77L147.9 120.397C147.62 120.737 147.35 121.057 147.09 121.357C146.85 121.657 146.61 121.967 146.37 122.287C147.21 121.867 148.11 121.537 149.07 121.297C150.05 121.057 151.11 120.937 152.25 120.937ZM141.87 134.407C141.87 135.607 142.03 136.707 142.35 137.707C142.69 138.687 143.18 139.527 143.82 140.227C144.48 140.927 145.29 141.477 146.25 141.877C147.21 142.257 148.32 142.447 149.58 142.447C150.76 142.447 151.84 142.247 152.82 141.847C153.82 141.447 154.67 140.887 155.37 140.167C156.09 139.447 156.65 138.607 157.05 137.647C157.45 136.667 157.65 135.607 157.65 134.467C157.65 133.227 157.46 132.117 157.08 131.137C156.7 130.137 156.16 129.297 155.46 128.617C154.76 127.917 153.92 127.387 152.94 127.027C151.96 126.667 150.88 126.487 149.7 126.487C148.52 126.487 147.45 126.687 146.49 127.087C145.53 127.487 144.7 128.047 144 128.767C143.32 129.467 142.79 130.307 142.41 131.287C142.05 132.247 141.87 133.287 141.87 134.407ZM169.954 126.817H185.494V132.997H169.954V126.817ZM205.917 148.507C203.677 148.507 201.627 148.207 199.767 147.607C197.927 147.007 196.347 146.157 195.027 145.057C193.707 143.957 192.677 142.627 191.937 141.067C191.217 139.507 190.857 137.767 190.857 135.847C190.857 133.287 191.487 131.127 192.747 129.367C194.007 127.587 195.967 126.267 198.627 125.407C196.507 124.527 194.917 123.277 193.857 121.657C192.817 120.037 192.297 118.087 192.297 115.807C192.297 114.167 192.627 112.637 193.287 111.217C193.967 109.797 194.907 108.567 196.107 107.527C197.307 106.467 198.737 105.647 200.397 105.067C202.077 104.467 203.917 104.167 205.917 104.167C207.917 104.167 209.747 104.467 211.407 105.067C213.087 105.647 214.527 106.467 215.727 107.527C216.927 108.567 217.857 109.797 218.517 111.217C219.197 112.637 219.537 114.167 219.537 115.807C219.537 118.087 219.007 120.037 217.947 121.657C216.887 123.277 215.307 124.527 213.207 125.407C215.867 126.267 217.827 127.587 219.087 129.367C220.347 131.127 220.977 133.287 220.977 135.847C220.977 137.767 220.607 139.507 219.867 141.067C219.147 142.627 218.127 143.957 216.807 145.057C215.487 146.157 213.897 147.007 212.037 147.607C210.197 148.207 208.157 148.507 205.917 148.507ZM205.917 142.717C207.137 142.717 208.207 142.547 209.127 142.207C210.047 141.847 210.817 141.357 211.437 140.737C212.077 140.117 212.557 139.377 212.877 138.517C213.197 137.657 213.357 136.727 213.357 135.727C213.357 133.347 212.697 131.547 211.377 130.327C210.057 129.107 208.237 128.497 205.917 128.497C203.597 128.497 201.777 129.107 200.457 130.327C199.137 131.547 198.477 133.347 198.477 135.727C198.477 136.727 198.637 137.657 198.957 138.517C199.277 139.377 199.747 140.117 200.367 140.737C201.007 141.357 201.787 141.847 202.707 142.207C203.627 142.547 204.697 142.717 205.917 142.717ZM205.917 122.677C207.117 122.677 208.127 122.487 208.947 122.107C209.767 121.727 210.427 121.227 210.927 120.607C211.427 119.967 211.777 119.247 211.977 118.447C212.197 117.627 212.307 116.787 212.307 115.927C212.307 115.107 212.177 114.327 211.917 113.587C211.657 112.847 211.267 112.197 210.747 111.637C210.227 111.057 209.567 110.597 208.767 110.257C207.967 109.917 207.017 109.747 205.917 109.747C204.817 109.747 203.867 109.917 203.067 110.257C202.267 110.597 201.597 111.057 201.057 111.637C200.537 112.197 200.147 112.847 199.887 113.587C199.647 114.327 199.527 115.107 199.527 115.927C199.527 116.787 199.627 117.627 199.827 118.447C200.047 119.247 200.407 119.967 200.907 120.607C201.407 121.227 202.067 121.727 202.887 122.107C203.707 122.487 204.717 122.677 205.917 122.677Z" fill="black"/>
</svg>
