<svg width="251" height="251" viewBox="0 0 251 251" fill="none" xmlns="http://www.w3.org/2000/svg">
<path d="M1.26477 0C0.712494 1.09523e-06 0.264771 0.447716 0.264771 1V100.718C0.264771 100.831 0.283661 100.941 0.321411 101.048C2.05377 105.93 5.22235 112.574 9.90735 113.761C10.1292 113.817 10.3454 113.874 10.5568 113.929C12.7283 114.494 14.3956 114.928 16.4786 113.761C18.8687 112.421 19.4514 110.213 20.1661 107.501C20.2484 107.189 20.3323 106.87 20.421 106.545C21.1027 104.05 21.1821 101.418 21.257 98.9404C21.3986 94.2535 21.5238 90.1186 25.6779 88.5039C33.0791 85.6272 37.3504 96.4105 40.5421 104.47C40.6262 104.682 40.7095 104.893 40.7921 105.102C46.2251 118.794 45.5674 134.322 39.4777 147.678C39.3236 148.016 39.1689 148.356 39.0138 148.698C35.8081 155.77 32.3282 163.447 25.6779 160.668C21.5758 158.954 21.2902 154.723 20.9747 150.045C20.8584 148.32 20.7384 146.534 20.421 144.791C20.3116 144.19 20.2207 143.578 20.13 142.968C19.6764 139.913 19.2275 136.891 16.4786 135.41C14.4535 134.319 12.8525 134.705 10.7882 135.202C10.5042 135.271 10.2113 135.341 9.90735 135.41C6.35585 136.218 2.62286 140.05 0.497192 142.56C0.346085 142.738 0.264786 142.964 0.264771 143.198V249.028C0.264938 249.58 0.712585 250.028 1.26477 250.028H249.265C249.817 250.028 250.265 249.58 250.265 249.028V1C250.265 0.447715 249.817 2.56692e-08 249.265 0H1.26477Z" fill="#FFD969"/>
<path d="M82.1936 147L78.092 141.229C80.3772 139.979 82.467 138.553 84.3616 136.951C86.2561 135.35 87.9065 133.641 89.3127 131.824C90.7385 130.008 91.8811 128.143 92.7405 126.229C91.6467 127.4 90.3186 128.309 88.7561 128.953C87.1936 129.598 85.4651 129.92 83.5706 129.92C80.9924 129.92 78.717 129.354 76.7444 128.221C74.7717 127.088 73.219 125.535 72.0862 123.562C70.9729 121.59 70.4163 119.314 70.4163 116.736C70.4163 113.924 71.0803 111.424 72.4084 109.236C73.7561 107.029 75.6018 105.301 77.9456 104.051C80.2893 102.801 82.9456 102.176 85.9143 102.176C89.0784 102.176 91.8127 102.879 94.1174 104.285C96.4221 105.691 98.2092 107.684 99.4788 110.262C100.748 112.82 101.383 115.838 101.383 119.314C101.383 122.127 100.953 124.852 100.094 127.488C99.2346 130.125 97.9846 132.635 96.344 135.018C94.7034 137.381 92.6917 139.578 90.3088 141.609C87.9456 143.621 85.2405 145.418 82.1936 147ZM85.7678 124.09C86.9983 124.09 88.0823 123.787 89.0198 123.182C89.9573 122.576 90.6995 121.746 91.2463 120.691C91.7932 119.637 92.0667 118.445 92.0667 117.117C92.0667 115.789 91.7932 114.598 91.2463 113.543C90.719 112.469 89.9866 111.619 89.0491 110.994C88.1116 110.369 87.0569 110.057 85.885 110.057C84.7131 110.057 83.6584 110.379 82.7209 111.023C81.7834 111.648 81.0413 112.508 80.4944 113.602C79.9475 114.676 79.6741 115.896 79.6741 117.264C79.6741 118.572 79.9377 119.744 80.4651 120.779C80.9924 121.795 81.7151 122.605 82.6331 123.211C83.551 123.797 84.5959 124.09 85.7678 124.09ZM130.475 135.516H107.037V129.1H130.475V135.516ZM154.469 147H145.446V111.902L138.092 114.598L135.28 107.42L147.291 103.055H154.469V147ZM191.324 147H163.317V141.697C166.774 138.611 169.674 135.887 172.018 133.523C174.381 131.16 176.266 129.051 177.672 127.195C179.078 125.34 180.094 123.641 180.719 122.098C181.344 120.535 181.656 119.021 181.656 117.557C181.656 116.053 181.373 114.734 180.807 113.602C180.26 112.469 179.479 111.59 178.463 110.965C177.467 110.34 176.305 110.027 174.977 110.027C173.453 110.027 171.979 110.467 170.553 111.346C169.127 112.205 167.916 113.396 166.92 114.92L162.35 109.178C164.069 106.951 166.198 105.232 168.737 104.021C171.295 102.791 173.951 102.176 176.705 102.176C179.323 102.176 181.705 102.732 183.854 103.846C186.002 104.959 187.711 106.541 188.981 108.592C190.25 110.643 190.885 113.064 190.885 115.857C190.885 117.811 190.543 119.783 189.86 121.775C189.196 123.748 188.219 125.711 186.93 127.664C185.66 129.617 184.098 131.561 182.242 133.494C180.406 135.408 178.307 137.283 175.944 139.119H191.324V147Z" fill="#BF5F1F"/>
</svg>
