<svg width="251" height="251" viewBox="0 0 251 251" fill="none" xmlns="http://www.w3.org/2000/svg">
<path fill-rule="evenodd" clip-rule="evenodd" d="M0.264526 1C0.264526 0.447715 0.71225 0 1.26453 0H249.265C249.817 0 250.265 0.44771 250.265 0.999995V249.028C250.265 249.58 249.817 250.028 249.265 250.028H1.26453C0.712234 250.028 0.264526 249.58 0.264526 249.028V143.198C0.264526 142.964 0.345596 142.738 0.496719 142.56C2.62234 140.05 6.35509 136.218 9.90674 135.41C10.2109 135.341 10.5039 135.27 10.7881 135.202C12.8524 134.705 14.4529 134.319 16.478 135.41C19.2272 136.891 19.6761 139.913 20.1297 142.968C20.2204 143.579 20.3113 144.19 20.4207 144.791C20.7381 146.534 20.8586 148.32 20.9749 150.045C21.2904 154.723 21.5757 158.953 25.6778 160.667C32.3281 163.446 35.808 155.77 39.0137 148.699C39.1688 148.356 39.3233 148.016 39.4774 147.678C45.5672 134.322 46.2248 118.794 40.7917 105.101C40.709 104.893 40.6256 104.682 40.5414 104.47C37.3497 96.4105 33.079 85.627 25.6778 88.5036C21.5235 90.1183 21.3985 94.253 21.2569 98.9401C21.182 101.417 21.1024 104.049 20.4207 106.545C20.3319 106.87 20.2478 107.189 20.1655 107.501C19.4507 110.213 18.8684 112.422 16.478 113.761C14.395 114.928 12.7281 114.494 10.5565 113.929C10.345 113.873 10.1287 113.817 9.90674 113.761C5.22168 112.574 2.05315 105.93 0.320816 101.048C0.283066 100.941 0.264526 100.831 0.264526 100.718V1Z" fill="#FFC273"/>
<path d="M83.9117 130.69C82.4117 130.69 80.9417 130.43 79.5017 129.91C78.0617 129.39 76.7717 128.61 75.6317 127.57C74.5117 126.51 73.6117 125.21 72.9317 123.67C72.2517 122.11 71.9117 120.29 71.9117 118.21C71.9117 116.27 72.2717 114.45 72.9917 112.75C73.7117 111.05 74.7217 109.56 76.0217 108.28C77.3217 107 78.8817 105.99 80.7017 105.25C82.5217 104.51 84.5317 104.14 86.7317 104.14C88.9517 104.14 90.9417 104.49 92.7017 105.19C94.4817 105.89 95.9917 106.87 97.2317 108.13C98.4917 109.39 99.4517 110.9 100.112 112.66C100.792 114.42 101.132 116.35 101.132 118.45C101.132 119.79 101.012 121.06 100.772 122.26C100.552 123.46 100.222 124.62 99.7817 125.74C99.3617 126.84 98.8517 127.92 98.2517 128.98C97.6517 130.02 96.9817 131.07 96.2417 132.13L86.3117 146.29C85.9717 146.77 85.4617 147.18 84.7817 147.52C84.1217 147.84 83.3617 148 82.5017 148H75.6917L89.1617 131.17C89.5017 130.75 89.8217 130.34 90.1217 129.94C90.4217 129.54 90.7117 129.14 90.9917 128.74C89.9917 129.38 88.8917 129.87 87.6917 130.21C86.4917 130.53 85.2317 130.69 83.9117 130.69ZM94.0217 117.7C94.0217 116.52 93.8417 115.47 93.4817 114.55C93.1217 113.61 92.6117 112.82 91.9517 112.18C91.2917 111.54 90.5017 111.05 89.5817 110.71C88.6817 110.37 87.6917 110.2 86.6117 110.2C85.4917 110.2 84.4817 110.39 83.5817 110.77C82.6817 111.13 81.9117 111.64 81.2717 112.3C80.6517 112.96 80.1717 113.75 79.8317 114.67C79.4917 115.57 79.3217 116.56 79.3217 117.64C79.3217 120.06 79.9417 121.91 81.1817 123.19C82.4417 124.45 84.2217 125.08 86.5217 125.08C87.7217 125.08 88.7817 124.89 89.7017 124.51C90.6417 124.13 91.4317 123.61 92.0717 122.95C92.7117 122.29 93.1917 121.51 93.5117 120.61C93.8517 119.71 94.0217 118.74 94.0217 117.7ZM105.816 126.79H121.356V132.97H105.816V126.79ZM132.449 142.45H141.239V117.16C141.239 116.18 141.269 115.15 141.329 114.07L135.089 119.29C134.829 119.51 134.559 119.66 134.279 119.74C134.019 119.82 133.759 119.86 133.499 119.86C133.099 119.86 132.729 119.78 132.389 119.62C132.069 119.44 131.829 119.24 131.669 119.02L129.329 115.81L142.559 104.56H148.649V142.45H156.449V148H132.449V142.45ZM177.244 104.14C179.244 104.14 181.074 104.44 182.734 105.04C184.394 105.62 185.814 106.45 186.994 107.53C188.174 108.61 189.094 109.91 189.754 111.43C190.414 112.95 190.744 114.64 190.744 116.5C190.744 118.1 190.504 119.58 190.024 120.94C189.564 122.3 188.934 123.6 188.134 124.84C187.354 126.08 186.434 127.28 185.374 128.44C184.314 129.6 183.204 130.78 182.044 131.98L172.264 141.97C173.224 141.69 174.164 141.48 175.084 141.34C176.004 141.18 176.884 141.1 177.724 141.1H188.854C189.654 141.1 190.284 141.33 190.744 141.79C191.224 142.23 191.464 142.82 191.464 143.56V148H161.704V145.54C161.704 145.04 161.804 144.52 162.004 143.98C162.224 143.44 162.564 142.94 163.024 142.48L176.194 129.28C177.294 128.16 178.274 127.09 179.134 126.07C180.014 125.05 180.744 124.04 181.324 123.04C181.924 122.04 182.374 121.03 182.674 120.01C182.994 118.97 183.154 117.88 183.154 116.74C183.154 115.7 183.004 114.79 182.704 114.01C182.404 113.21 181.974 112.54 181.414 112C180.854 111.46 180.184 111.06 179.404 110.8C178.644 110.52 177.784 110.38 176.824 110.38C175.044 110.38 173.574 110.83 172.414 111.73C171.274 112.63 170.474 113.84 170.014 115.36C169.794 116.12 169.464 116.67 169.024 117.01C168.584 117.33 168.024 117.49 167.344 117.49C167.044 117.49 166.714 117.46 166.354 117.4L162.454 116.71C162.754 114.63 163.334 112.81 164.194 111.25C165.054 109.67 166.124 108.36 167.404 107.32C168.704 106.26 170.184 105.47 171.844 104.95C173.524 104.41 175.324 104.14 177.244 104.14Z" fill="black"/>
</svg>
