<svg width="155" height="141" viewBox="0 0 155 141" fill="none" xmlns="http://www.w3.org/2000/svg">
<path d="M91.2422 90.9941V139.82" stroke="black"/>
<path d="M95.6244 140.374C95.6244 141.293 93.6617 140.928 91.2404 140.928C88.8192 140.928 86.8564 141.293 86.8564 140.374C86.8564 139.454 88.8192 138.709 91.2404 138.709C93.6617 138.709 95.6244 139.454 95.6244 140.374Z" fill="black"/>
<path d="M72.0576 89.8828V138.708" stroke="black"/>
<path d="M75.8949 139.819C75.8949 140.738 73.9322 140.374 71.5109 140.374C69.0897 140.374 67.127 140.738 67.127 139.819C67.127 138.9 69.0897 138.154 71.5109 138.154C73.9322 138.154 75.8949 138.9 75.8949 139.819Z" fill="black"/>
<path d="M74.1313 1.43054C78.6694 -0.623714 83.8393 -0.429457 88.3052 1.78112C90.7546 2.99361 93.6216 4.25629 92.6763 6.84558C91.9149 8.93038 89.5603 8.38515 87.4116 8.84167C86.2131 9.09639 84.8832 9.10457 84.3032 10.3309C83.8982 11.1874 84.1268 11.8345 84.3257 12.7626C84.5194 13.666 85.1921 14.5956 85.8667 15.3417H122.685C123.237 15.3417 123.685 15.7894 123.685 16.3417V91.1034C123.685 91.6555 123.237 92.1034 122.685 92.1034H41.8296C41.2775 92.1033 40.8298 91.6554 40.8296 91.1034V56.1385C40.8296 57.0943 42.1504 57.5856 42.9175 57.0155C43.4294 56.635 43.9877 56.3217 44.5327 56.2069C44.6334 56.1857 44.7306 56.1635 44.8247 56.1425C45.5087 55.9898 46.0394 55.872 46.7104 56.2069C47.6214 56.6616 47.7701 57.5895 47.9204 58.5272C47.9505 58.7146 47.9808 58.9023 48.0171 59.0868C48.1223 59.6218 48.1621 60.1705 48.2007 60.7001C48.3052 62.1361 48.3999 63.4346 49.7593 63.9608C51.9632 64.8139 53.1168 62.4579 54.1792 60.287C54.2305 60.1821 54.2815 60.0771 54.3325 59.9735C56.3508 55.8732 56.5687 51.1051 54.7681 46.9012L54.6851 46.7079C53.6273 44.2337 52.2121 40.9226 49.7593 41.8055C48.3826 42.3012 48.3414 43.5709 48.2944 45.0096C48.2696 45.7702 48.243 46.5785 48.0171 47.3446L47.9321 47.6385C47.6953 48.471 47.5026 49.1493 46.7104 49.5604C46.0201 49.9187 45.4673 49.7858 44.7476 49.6122L44.7466 49.6112C44.677 49.5944 44.6057 49.5775 44.5327 49.5604C43.5807 49.3371 40.8296 49.9761 40.8296 50.954V16.3417C40.8296 15.7895 41.2774 15.3418 41.8296 15.3417H75.0376C76.037 14.6935 76.8969 13.858 77.1206 12.8319C77.3227 11.9047 77.5321 11.2419 77.0981 10.4003C76.5918 9.4186 75.7328 9.27186 74.6821 8.96374C72.2738 8.25766 69.5031 9.41854 68.6597 7.07702C67.6507 4.27552 71.4426 2.64767 74.1313 1.43054ZM89.1577 77.9413C85.0038 75.8457 80.1782 75.6281 75.9272 77.5135C75.8626 77.5422 75.7969 77.5713 75.731 77.6005C73.2289 78.7082 69.881 80.1907 70.7798 82.746C71.2843 84.1802 72.5694 84.2204 74.0259 84.2665C74.7956 84.2908 75.6134 84.3167 76.3892 84.5507C76.4903 84.5811 76.5899 84.6103 76.687 84.6385C77.53 84.8838 78.2165 85.0841 78.6343 85.909C78.9982 86.6279 78.8642 87.2044 78.6899 87.9549C78.673 88.0279 78.6555 88.103 78.6382 88.1796C78.4128 89.18 79.1015 92.038 80.1265 92.036L85.4077 92.0253C86.3561 92.0234 86.847 90.7254 86.2769 89.9676C85.8515 89.4027 85.4919 88.7767 85.3657 88.1659C85.344 88.0608 85.3218 87.9594 85.3003 87.8612C85.1444 87.1484 85.0233 86.5956 85.3608 85.8954C85.8192 84.9446 86.7587 84.7874 87.7075 84.6288C87.8971 84.5971 88.0873 84.5654 88.2739 84.5272C88.8151 84.4165 89.37 84.3741 89.9058 84.3329C91.3591 84.221 92.6738 84.1193 93.2036 82.701C94.0622 80.4019 91.6744 79.2046 89.4751 78.1014C89.3687 78.0481 89.2628 77.9943 89.1577 77.9413Z" fill="#FFC273"/>
<ellipse cx="73.0326" cy="38.9481" rx="2.43692" ry="7.12783" fill="black"/>
<path d="M75.4016 28.8444C75.6087 29.5441 73.7736 29.3215 71.7653 29.9101C69.7571 30.4987 68.3362 31.6755 68.1291 30.9759C67.9219 30.2762 69.3819 29.2318 71.3902 28.6433C73.3984 28.0547 75.1944 28.1447 75.4016 28.8444Z" fill="black"/>
<path d="M95.9225 30.6891C95.7532 31.3988 94.2712 30.2991 92.2342 29.8181C90.1972 29.3371 88.3766 29.6568 88.5459 28.9471C88.7153 28.2374 90.5038 28.0521 92.5408 28.5331C94.5778 29.0141 96.0918 29.9794 95.9225 30.6891Z" fill="black"/>
<ellipse cx="91.5141" cy="38.9481" rx="2.43692" ry="7.12783" fill="black"/>
<path d="M67.0076 55.3337C66.667 55.0793 66.7915 54.9552 66.7915 54.9552C66.7915 54.9552 66.865 55.0905 67.0076 55.3337C67.5605 55.7466 69.3385 56.5028 74.8619 57.6289C80.6565 58.8104 96.1455 56.8339 96.1455 56.8339C96.1455 56.8339 88.0158 69.2837 81.8315 68.0227C73.8835 66.4022 68.166 57.3086 67.0076 55.3337Z" fill="black"/>
<path d="M116.727 61.2314C116.727 61.2314 124.206 75.4741 126.807 85.3044C130.393 98.8588 129.597 120.905 129.597 120.905" stroke="black"/>
<line y1="-0.3" x2="2.46668" y2="-0.3" transform="matrix(0.565528 0.824729 0.839153 -0.543896 129.946 120.227)" stroke="black" stroke-width="0.6"/>
<line y1="-0.3" x2="2.46815" y2="-0.3" transform="matrix(-0.584064 0.811708 0.82688 0.562379 129.946 120.227)" stroke="black" stroke-width="0.6"/>
<line y1="-0.35" x2="2.87698" y2="-0.35" transform="matrix(0.00565379 0.999984 0.999986 -0.0053413 129.832 120.223)" stroke="black" stroke-width="0.7"/>
</svg>
