<svg width="251" height="251" viewBox="0 0 251 251" fill="none" xmlns="http://www.w3.org/2000/svg">
<path d="M249.735 0C250.287 1.09523e-06 250.735 0.447716 250.735 1V101.333C250.735 101.45 250.715 101.565 250.675 101.675C248.899 106.481 245.803 112.624 241.315 113.761C241.093 113.817 240.877 113.874 240.666 113.929C238.494 114.494 236.827 114.928 234.744 113.761C232.354 112.421 231.771 110.213 231.056 107.501C230.974 107.189 230.89 106.87 230.802 106.545C230.12 104.05 230.041 101.418 229.966 98.9404C229.824 94.2535 229.699 90.1186 225.545 88.5039C218.144 85.6273 213.873 96.4106 210.681 104.47C210.597 104.682 210.513 104.893 210.431 105.102C204.998 118.794 205.655 134.322 211.745 147.678C211.899 148.016 212.054 148.356 212.209 148.698C215.415 155.77 218.894 163.447 225.545 160.668C229.647 158.954 229.932 154.723 230.248 150.045C230.364 148.32 230.484 146.534 230.802 144.791C230.911 144.19 231.002 143.578 231.093 142.968C231.546 139.913 231.995 136.891 234.744 135.41C236.769 134.319 238.37 134.705 240.434 135.202C240.718 135.271 241.011 135.341 241.315 135.41C244.743 136.189 248.34 139.787 250.498 142.293C250.652 142.472 250.735 142.701 250.735 142.938V249.028C250.735 249.58 250.287 250.028 249.735 250.028H1.7352C1.18302 250.028 0.735364 249.58 0.735199 249.028V1C0.735199 0.447715 1.18291 2.56692e-08 1.7352 0H249.735Z" fill="#A8E6F1"/>
<path d="M77.0153 147H67.9918V103.055H77.0153V124.676C77.8942 123.387 78.734 122.195 79.5348 121.102C80.3356 120.008 81.0192 119.109 81.5856 118.406L93.7731 103.055H104.408L88.2946 123.328L107.513 147H95.8239L82.5231 130.564L77.0153 137.508V147ZM134.73 135.516H111.293V129.1H134.73V135.516ZM140.355 142.459L145.013 135.135C145.775 136.6 146.918 137.781 148.441 138.68C149.964 139.559 151.615 139.998 153.392 139.998C154.935 139.998 156.302 139.666 157.494 139.002C158.685 138.338 159.613 137.42 160.277 136.248C160.961 135.057 161.302 133.699 161.302 132.176C161.302 130.633 160.961 129.275 160.277 128.104C159.613 126.932 158.675 126.014 157.464 125.35C156.254 124.686 154.877 124.354 153.334 124.354C152.162 124.354 151.058 124.559 150.023 124.969C148.988 125.379 148.06 125.975 147.24 126.756L142.875 124.207L144.808 103.055H167.923V110.936H153.07L152.103 120.223C153.412 119.852 154.798 119.666 156.263 119.666C158.998 119.666 161.439 120.252 163.588 121.424C165.736 122.596 167.425 124.197 168.656 126.229C169.906 128.26 170.531 130.594 170.531 133.23C170.531 136.043 169.818 138.553 168.392 140.76C166.986 142.967 165.052 144.705 162.591 145.975C160.15 147.244 157.347 147.879 154.183 147.879C151.547 147.879 149.017 147.41 146.595 146.473C144.193 145.516 142.113 144.178 140.355 142.459Z" fill="#1D7387"/>
</svg>
