<svg width="251" height="251" viewBox="0 0 251 251" fill="none" xmlns="http://www.w3.org/2000/svg">
<path fill-rule="evenodd" clip-rule="evenodd" d="M250.736 1C250.736 0.447715 250.288 0 249.736 0H1.7356C1.18331 0 0.735596 0.44771 0.735596 0.999995V249.028C0.735596 249.58 1.18331 250.028 1.7356 250.028H249.736C250.288 250.028 250.736 249.58 250.736 249.028V142.937C250.736 142.701 250.653 142.472 250.498 142.293C248.341 139.787 244.744 136.189 241.316 135.41C241.012 135.341 240.719 135.27 240.435 135.202C238.37 134.705 236.77 134.319 234.745 135.41C231.996 136.891 231.547 139.913 231.093 142.968C231.002 143.579 230.912 144.19 230.802 144.791C230.485 146.534 230.364 148.32 230.248 150.045C229.932 154.723 229.647 158.953 225.545 160.667C218.895 163.446 215.415 155.77 212.209 148.699C212.054 148.356 211.9 148.016 211.745 147.678C205.656 134.322 204.998 118.794 210.431 105.101C210.514 104.893 210.597 104.682 210.681 104.47C213.873 96.4105 218.144 85.627 225.545 88.5036C229.699 90.1183 229.824 94.253 229.966 98.9401C230.041 101.417 230.12 104.049 230.802 106.545C230.891 106.87 230.975 107.189 231.057 107.501C231.772 110.213 232.354 112.422 234.745 113.761C236.828 114.928 238.495 114.494 240.666 113.929C240.878 113.873 241.094 113.817 241.316 113.761C245.803 112.624 248.899 106.481 250.675 101.675C250.716 101.565 250.736 101.45 250.736 101.333V1Z" fill="#96D2F7"/>
<path d="M83.0852 122.8H84.9752C85.7352 122.8 86.3652 122.7 86.8652 122.5C87.3652 122.28 87.7952 121.94 88.1552 121.48L100.125 106.33C100.625 105.69 101.145 105.25 101.685 105.01C102.245 104.75 102.945 104.62 103.785 104.62H110.745L96.1352 122.65C95.6752 123.21 95.2352 123.68 94.8152 124.06C94.3952 124.44 93.9452 124.75 93.4652 124.99C94.1252 125.23 94.7152 125.57 95.2352 126.01C95.7752 126.45 96.2952 127.01 96.7952 127.69L111.855 148H104.715C103.755 148 103.035 147.87 102.555 147.61C102.095 147.33 101.705 146.93 101.385 146.41L89.1152 130.39C88.7152 129.87 88.2652 129.5 87.7652 129.28C87.2652 129.04 86.5552 128.92 85.6352 128.92H83.0852V148H75.0152V104.59H83.0852V122.8ZM113.268 126.79H128.808V132.97H113.268V126.79ZM161.5 107.77C161.5 108.83 161.16 109.69 160.48 110.35C159.82 111.01 158.71 111.34 157.15 111.34H145.21L143.65 120.4C145.61 120 147.4 119.8 149.02 119.8C151.3 119.8 153.3 120.14 155.02 120.82C156.76 121.5 158.22 122.44 159.4 123.64C160.58 124.84 161.47 126.25 162.07 127.87C162.67 129.47 162.97 131.2 162.97 133.06C162.97 135.36 162.56 137.46 161.74 139.36C160.94 141.26 159.82 142.89 158.38 144.25C156.94 145.59 155.23 146.63 153.25 147.37C151.29 148.11 149.15 148.48 146.83 148.48C145.47 148.48 144.18 148.34 142.96 148.06C141.74 147.78 140.59 147.41 139.51 146.95C138.45 146.47 137.46 145.93 136.54 145.33C135.64 144.71 134.83 144.06 134.11 143.38L136.39 140.23C136.87 139.55 137.51 139.21 138.31 139.21C138.81 139.21 139.31 139.37 139.81 139.69C140.33 140.01 140.93 140.36 141.61 140.74C142.29 141.12 143.08 141.47 143.98 141.79C144.88 142.11 145.97 142.27 147.25 142.27C148.61 142.27 149.81 142.05 150.85 141.61C151.89 141.17 152.75 140.56 153.43 139.78C154.13 138.98 154.65 138.04 154.99 136.96C155.35 135.86 155.53 134.67 155.53 133.39C155.53 131.03 154.84 129.19 153.46 127.87C152.1 126.53 150.09 125.86 147.43 125.86C145.33 125.86 143.22 126.24 141.1 127L136.48 125.68L140.08 104.62H161.5V107.77Z" fill="black"/>
</svg>
