<svg width="150" height="150" viewBox="0 0 150 150" fill="none" xmlns="http://www.w3.org/2000/svg">
<path d="M88 96L88.385 148.744" stroke="black"/>
<path d="M92.6535 149.334C92.6535 150.312 90.7417 149.924 88.3833 149.924C86.025 149.924 84.1132 150.312 84.1132 149.334C84.1132 148.356 86.025 147.563 88.3833 147.563C90.7417 147.563 92.6535 148.356 92.6535 149.334Z" fill="black"/>
<path d="M69.6989 95.6211V147.563" stroke="black"/>
<path d="M73.4365 148.744C73.4365 149.722 71.5247 149.334 69.1664 149.334C66.8081 149.334 64.8963 149.722 64.8963 148.744C64.8963 147.766 66.8081 146.973 69.1664 146.973C71.5247 146.973 73.4365 147.766 73.4365 148.744Z" fill="black"/>
<path d="M71.7186 7.52233C76.1389 5.33685 81.1753 5.54262 85.5253 7.8944C87.911 9.18421 90.7027 10.5278 89.7821 13.2821C89.0406 15.5002 86.7471 14.9204 84.6542 15.4061C83.4868 15.6771 82.1908 15.6855 81.6259 16.9901C81.2314 17.9012 81.4546 18.5898 81.6483 19.577C81.8369 20.5382 82.4922 21.5274 83.1493 22.3212H118.282C118.834 22.3212 119.282 22.7689 119.282 23.3212V101.321C119.282 101.873 118.834 102.321 118.282 102.321H84.5995C84.3225 102.321 84.0561 102.207 83.8739 101.999C83.2033 101.231 82.4721 100.206 82.2831 99.2176C82.2621 99.1082 82.2413 99.0026 82.2206 98.9003C82.0701 98.1573 81.9532 97.5813 82.2792 96.8514C82.7218 95.8606 83.6287 95.6974 84.5448 95.5321C84.7278 95.4991 84.9115 95.4654 85.0917 95.4257C85.6142 95.3103 86.1496 95.2655 86.6669 95.2225C88.0701 95.1059 89.3398 95.0005 89.8514 93.5223C90.6804 91.1263 88.3753 89.878 86.2518 88.7284C86.1492 88.6728 86.0466 88.6176 85.9452 88.5624C81.9343 86.3782 77.2744 86.1509 73.1698 88.1161C73.1074 88.146 73.044 88.1765 72.9803 88.2069C70.5645 89.3613 67.3323 90.9062 68.2001 93.5692C68.6871 95.0638 69.9277 95.1062 71.3339 95.1542C72.0771 95.1795 72.8671 95.2063 73.6161 95.4501C73.7136 95.4818 73.8095 95.5124 73.9032 95.5419C74.7172 95.7975 75.3807 96.0054 75.7841 96.8651C76.1356 97.6144 76.006 98.2156 75.8378 98.9979C75.8214 99.0739 75.8046 99.1516 75.788 99.2313C75.5116 100.553 74.2307 101.542 72.9852 102.21C72.8461 102.284 72.6899 102.321 72.5321 102.321H40.2821C39.73 102.321 39.2822 101.873 39.2821 101.321V67.1024C39.2821 66.8488 39.3773 66.6031 39.5565 66.4237C40.2166 65.7632 41.0515 65.0932 41.8573 64.91C41.9545 64.8879 42.0486 64.8655 42.1395 64.8436L42.6112 64.7382C43.0643 64.6527 43.4739 64.6483 43.9598 64.91C44.8395 65.3839 44.9836 66.3508 45.1288 67.328C45.1578 67.5233 45.1865 67.7197 45.2216 67.912C45.3231 68.4695 45.3621 69.0408 45.3993 69.5926C45.5002 71.0894 45.5915 72.4436 46.9042 72.9921C49.0321 73.8809 50.146 71.4245 51.1718 69.162C51.2213 69.0526 51.2709 68.9438 51.3202 68.8358C53.2689 64.5626 53.4787 59.5939 51.7401 55.2128L51.66 55.0106C50.6387 52.432 49.2726 48.9818 46.9042 49.9022C45.5749 50.4188 45.5345 51.7414 45.4891 53.2411C45.4652 54.0338 45.4397 54.8762 45.2216 55.6747C45.1932 55.7785 45.1668 55.8806 45.1405 55.9803C44.9118 56.848 44.7248 57.5547 43.9598 57.9833C43.2934 58.3565 42.7601 58.2179 42.0653 58.037C41.9976 58.0194 41.9283 58.0013 41.8573 57.9833C40.785 57.7117 39.961 56.5468 39.3759 55.3339C39.3132 55.2041 39.2822 55.061 39.2821 54.9169V23.3212C39.2821 22.769 39.7299 22.3213 40.2821 22.3212H72.6014C73.5751 21.6315 74.4129 20.7421 74.6307 19.6503C74.8275 18.6641 75.0309 17.9595 74.6083 17.0643C74.1151 16.02 73.2791 15.8638 72.2557 15.536C69.9098 14.7846 67.2111 16.0195 66.3895 13.5282C65.407 10.5481 69.0998 8.8171 71.7186 7.52233Z" fill="#A8E6F1"/>
<ellipse cx="70.6486" cy="45.4336" rx="2.37362" ry="7.5828" fill="black"/>
<path d="M72.9562 34.6855C73.158 35.4298 71.3704 35.1931 69.4143 35.8192C67.4583 36.4454 66.0743 37.6973 65.8725 36.953C65.6707 36.2086 67.0929 35.0976 69.0489 34.4715C71.005 33.8453 72.7543 33.9411 72.9562 34.6855Z" fill="black"/>
<path d="M92.9438 36.6479C92.7788 37.4029 91.3354 36.2331 89.3513 35.7213C87.3672 35.2096 85.5939 35.5497 85.7588 34.7948C85.9237 34.0398 87.6658 33.8426 89.6499 34.3543C91.634 34.866 93.1087 35.8929 92.9438 36.6479Z" fill="black"/>
<ellipse cx="88.6501" cy="45.4336" rx="2.37362" ry="7.5828" fill="black"/>
<path d="M64.78 58.8659C64.4482 58.5952 64.5694 58.4632 64.5694 58.4632C64.5694 58.4632 64.641 58.6071 64.78 58.8659C65.3185 59.3051 67.0503 60.1095 72.4302 61.3076C78.0743 62.5645 93.1611 60.4618 93.1611 60.4618C93.1611 60.4618 85.2425 73.7063 79.2188 72.3648C71.4773 70.6409 65.9083 60.9668 64.78 58.8659Z" fill="black"/>
<path d="M7.7922 88.0977L52.2706 74.7927" stroke="black"/>
<path d="M116.898 62.9999C116.898 62.9999 123.175 68.9853 125.357 73.1164C128.367 78.8125 127.699 88.0774 127.699 88.0774" stroke="black"/>
<line y1="-0.3" x2="1.44959" y2="-0.3" transform="matrix(0.807575 0.589765 0.951153 -0.308719 127.992 87.7925)" stroke="black" stroke-width="0.6"/>
<line y1="-0.3" x2="1.47388" y2="-0.3" transform="matrix(-0.820791 0.571229 0.946604 0.322399 127.992 87.7925)" stroke="black" stroke-width="0.6"/>
<line y1="-0.35" x2="1.20909" y2="-0.35" transform="matrix(0.0112897 0.999936 0.999996 -0.00267479 127.896 87.791)" stroke="black" stroke-width="0.7"/>
<ellipse cx="18" cy="88" rx="18" ry="6" fill="#185D6D"/>
<path d="M18 84.5C21.5541 84.5 24.752 84.944 27.0449 85.6494C28.1945 86.0031 29.0891 86.4144 29.6846 86.8477C30.2908 87.2887 30.5 87.6844 30.5 88C30.5 88.3156 30.2908 88.7113 29.6846 89.1523C29.0891 89.5856 28.1945 89.9969 27.0449 90.3506C24.752 91.056 21.5541 91.5 18 91.5C14.4459 91.5 11.248 91.056 8.95508 90.3506C7.80554 89.9969 6.91094 89.5856 6.31543 89.1523C5.70924 88.7113 5.5 88.3156 5.5 88C5.5 87.6844 5.70924 87.2887 6.31543 86.8477C6.91094 86.4144 7.80554 86.0031 8.95508 85.6494C11.248 84.944 14.4459 84.5 18 84.5Z" fill="#185D6D" stroke="#A8E6F1"/>
<path d="M19.3375 79.9872C18.9753 80.2417 18.4873 80.1232 18.271 79.7283C18.0908 79.3993 18.1579 78.9797 18.431 78.7281L30.6388 67.4832C31.3958 66.7859 32.54 66.8646 33.1945 67.6589C33.9105 68.5279 33.7342 69.8697 32.8196 70.5125L19.3375 79.9872Z" fill="#185D6D"/>
<ellipse cx="3.7365" cy="3.01074" rx="3.7365" ry="3.01074" transform="matrix(-0.827574 0.561357 -0.55938 -0.828911 21.0479 81.8057)" fill="#185D6D"/>
<path d="M56.3498 29.07V19.6924C53.8739 18.9648 51.8645 17.9233 50.3216 16.568C48.7739 15.2127 48 13.7187 48 12.0861C48 9.90745 49.2989 8.05248 51.8968 6.52122C54.4899 4.98856 57.6392 4.22222 61.3446 4.22222C62.0623 4.22222 62.7835 4.25741 63.5084 4.32778C64.2332 4.39815 64.9544 4.48611 65.6721 4.59167L66.2928 4.674L66.6373 4.34678C67.9482 3.06744 69.6275 2.02315 71.6752 1.21389C73.7229 0.40463 75.9978 0 78.5 0C81.0022 0 83.2771 0.40463 85.3248 1.21389C87.3725 2.02315 89.0745 3.06744 90.4309 4.34678L90.7754 4.67189L91.3279 4.59167C91.9977 4.48611 92.6807 4.39815 93.3768 4.32778C94.0729 4.25741 94.7858 4.22222 95.5154 4.22222C99.2663 4.22222 102.451 4.98856 105.071 6.52122C107.69 8.05389 109 9.92222 109 12.1262C109 13.7588 108.238 15.2457 106.714 16.587C105.193 17.9283 103.172 18.9627 100.65 19.6903V29.0679L56.3498 29.07Z" fill="#A8E6F1"/>
<path d="M69.9456 22.0442H71.7398V13.9671H69.9456V22.0442ZM56.3498 29.07V19.6924C53.8739 18.9648 51.8645 17.9233 50.3216 16.568C48.7739 15.2127 48 13.7187 48 12.0861C48 9.90745 49.2989 8.05248 51.8968 6.52122C54.4899 4.98856 57.6392 4.22222 61.3446 4.22222C62.0623 4.22222 62.7835 4.25741 63.5084 4.32778C64.2332 4.39815 64.9544 4.48611 65.6721 4.59167L66.2928 4.674L66.6373 4.34678C67.9482 3.06744 69.6275 2.02315 71.6752 1.21389C73.7229 0.40463 75.9978 0 78.5 0C81.0022 0 83.2771 0.40463 85.3248 1.21389C87.3725 2.02315 89.0745 3.06744 90.4309 4.34678L90.7753 4.67189L91.3279 4.59167C91.9977 4.48611 92.6807 4.39815 93.3768 4.32778C94.0729 4.25741 94.7858 4.22222 95.5154 4.22222C99.2663 4.22222 102.451 4.98856 105.071 6.52122C107.69 8.05389 109 9.92222 109 12.1262C109 13.7588 108.238 15.2457 106.714 16.587C105.193 17.9283 103.172 18.9627 100.65 19.6903V29.0679L56.3498 29.07ZM85.332 22.0463H87.1261V13.9671H85.332V22.0463Z" fill="#185D6D"/>
<path d="M104.457 92.004C103.72 92.8372 103.496 93.5317 103.376 94.2268C103.152 95.5323 104.307 98.9607 104.015 100.656C103.737 102.267 102.899 103.082 102.899 103.082L100.356 102.644C100.356 102.644 101.194 101.829 101.472 100.218C101.764 98.5227 100.608 95.0943 100.833 93.7889C100.953 93.0938 101.177 92.3992 101.914 91.566L104.457 92.004ZM112.934 93.4638C112.197 94.297 111.973 94.9915 111.853 95.6866C111.628 96.9921 112.784 100.421 112.492 102.116C112.214 103.727 111.376 104.542 111.376 104.542L113.919 104.98C113.919 104.98 114.757 104.164 115.035 102.554C115.327 100.858 114.172 97.43 114.396 96.1246C114.516 95.4295 114.74 94.7349 115.477 93.9018L112.934 93.4638ZM107.424 92.5149C106.687 93.3481 106.463 94.0427 106.343 94.7378C106.118 96.0432 107.271 99.4886 106.982 101.167C106.704 102.778 105.866 103.593 105.866 103.593L108.409 104.031C108.409 104.031 109.247 103.216 109.525 101.605C109.817 99.9096 108.662 96.4812 108.886 95.1757C109.006 94.4806 109.23 93.7861 109.967 92.9529L107.424 92.5149ZM130.153 95.5562C130.153 95.5562 130.683 93.7971 130.811 93.0511C131.293 90.2537 129.398 87.5708 126.601 87.0891C123.99 86.6394 121.498 88.2353 120.775 90.7118L115.905 107.941L98.0697 104.869C97.0525 104.694 96.067 105.45 96.0444 106.493C95.9538 112.29 100.061 117.432 105.757 118.413C111.657 119.429 117.303 115.635 118.952 109.81L124.076 91.7166C124.309 90.8666 125.135 90.328 126.017 90.4798C126.949 90.6404 127.581 91.5347 127.42 92.4672C127.333 92.9758 126.886 94.5572 126.886 94.5572L130.153 95.5562Z" fill="black"/>
<path d="M130.154 95.5565C130.154 95.5565 130.684 93.7973 130.812 93.0513C131.294 90.254 129.399 87.571 126.602 87.0893C123.991 86.6397 121.499 88.2355 120.776 90.712L115.906 107.941L98.0709 104.869C97.0537 104.694 96.0682 105.45 96.0456 106.493C95.955 112.291 100.062 117.432 105.759 118.413C111.659 119.429 117.304 115.636 118.954 109.81L124.077 91.7169C124.311 90.8668 125.137 90.3282 126.018 90.4801C126.951 90.6406 127.582 91.5349 127.422 92.4674C127.334 92.976 126.887 94.5574 126.887 94.5574L130.154 95.5565Z" fill="#185D6D"/>
<path d="M14.5 85.8408L14.2002 85.71C12.5056 84.9704 11.0633 83.7522 10.0508 82.2051C9.03833 80.658 8.49947 78.8489 8.5 77V76C8.5 75.8674 8.55272 75.7403 8.64648 75.6465C8.74025 75.5527 8.86739 75.5 9 75.5H27C27.1326 75.5 27.2597 75.5527 27.3535 75.6465C27.4473 75.7403 27.5 75.8674 27.5 76V77C27.5 80.8942 25.1562 84.2437 21.7998 85.71L21.5 85.8408V87C21.5 87.1326 21.4473 87.2597 21.3535 87.3535C21.2597 87.4473 21.1326 87.5 21 87.5H15C14.8674 87.5 14.7403 87.4473 14.6465 87.3535C14.5527 87.2597 14.5 87.1326 14.5 87V85.8408Z" fill="#185D6D" stroke="#A8E6F1"/>
</svg>
