<svg width="150" height="150" viewBox="0 0 150 150" fill="none" xmlns="http://www.w3.org/2000/svg">
<path d="M88 94L88.385 148.744" stroke="black"/>
<path d="M92.6535 149.334C92.6535 150.312 90.7417 149.924 88.3833 149.924C86.025 149.924 84.1132 150.312 84.1132 149.334C84.1132 148.356 86.025 147.563 88.3833 147.563C90.7417 147.563 92.6535 148.356 92.6535 149.334Z" fill="black"/>
<path d="M69.6989 95.6211V147.563" stroke="black"/>
<path d="M73.4365 148.744C73.4365 149.722 71.5247 149.334 69.1664 149.334C66.808 149.334 64.8962 149.722 64.8962 148.744C64.8962 147.766 66.808 146.973 69.1664 146.973C71.5247 146.973 73.4365 147.766 73.4365 148.744Z" fill="black"/>
<path d="M71.7186 1.52233C76.1389 -0.663151 81.1753 -0.457383 85.5253 1.8944C87.911 3.18421 90.7027 4.52777 89.7821 7.2821C89.0406 9.50024 86.7471 8.92042 84.6542 9.40612C83.4868 9.6771 82.1908 9.68547 81.6259 10.9901C81.2314 11.9012 81.4546 12.5898 81.6483 13.577C81.8369 14.5382 82.4922 15.5274 83.1493 16.3212H118.282C118.834 16.3212 119.282 16.7689 119.282 17.3212V95.3212C119.282 95.8734 118.834 96.3212 118.282 96.3212H84.5995C84.3225 96.3211 84.0561 96.2075 83.8739 95.9989C83.2033 95.2313 82.4721 94.2055 82.2831 93.2176C82.2621 93.1082 82.2413 93.0026 82.2206 92.9003C82.0701 92.1573 81.9532 91.5813 82.2792 90.8514C82.7218 89.8606 83.6287 89.6974 84.5448 89.5321C84.7278 89.4991 84.9115 89.4654 85.0917 89.4257C85.6142 89.3103 86.1496 89.2655 86.6669 89.2225C88.0701 89.1059 89.3398 89.0005 89.8514 87.5223C90.6804 85.1263 88.3753 83.878 86.2518 82.7284C86.1492 82.6728 86.0466 82.6176 85.9452 82.5624C81.9343 80.3782 77.2744 80.1509 73.1698 82.1161C73.1074 82.146 73.044 82.1765 72.9803 82.2069C70.5645 83.3613 67.3323 84.9062 68.2001 87.5692C68.6871 89.0638 69.9277 89.1062 71.3339 89.1542C72.0771 89.1795 72.8671 89.2063 73.6161 89.4501C73.7136 89.4818 73.8095 89.5124 73.9032 89.5419C74.7172 89.7975 75.3807 90.0054 75.7841 90.8651C76.1356 91.6144 76.006 92.2156 75.8378 92.9979C75.8214 93.0739 75.8046 93.1516 75.788 93.2313C75.5116 94.5528 74.2307 95.5419 72.9852 96.2098C72.8461 96.2844 72.6899 96.3212 72.5321 96.3212H40.2821C39.73 96.321 39.2822 95.8733 39.2821 95.3212V61.1024C39.2821 60.8488 39.3773 60.6031 39.5565 60.4237C40.2166 59.7632 41.0515 59.0932 41.8573 58.91C41.9545 58.8879 42.0486 58.8655 42.1395 58.8436L42.6112 58.7382C43.0643 58.6527 43.4739 58.6483 43.9598 58.91C44.8395 59.3839 44.9836 60.3508 45.1288 61.328C45.1578 61.5233 45.1865 61.7197 45.2216 61.912C45.3231 62.4695 45.3621 63.0408 45.3993 63.5926C45.5002 65.0894 45.5915 66.4436 46.9042 66.9921C49.0321 67.8809 50.146 65.4245 51.1718 63.162C51.2213 63.0526 51.2709 62.9438 51.3202 62.8358C53.2689 58.5626 53.4787 53.5939 51.7401 49.2128L51.66 49.0106C50.6387 46.432 49.2726 42.9818 46.9042 43.9022C45.5749 44.4188 45.5345 45.7414 45.4891 47.2411C45.4652 48.0338 45.4397 48.8762 45.2216 49.6747C45.1932 49.7785 45.1668 49.8806 45.1405 49.9803C44.9118 50.848 44.7248 51.5547 43.9598 51.9833C43.2934 52.3565 42.7601 52.2179 42.0653 52.037C41.9976 52.0194 41.9283 52.0013 41.8573 51.9833C40.785 51.7117 39.961 50.5468 39.3759 49.3339C39.3132 49.2041 39.2822 49.061 39.2821 48.9169V17.3212C39.2821 16.769 39.7299 16.3213 40.2821 16.3212H72.6014C73.5751 15.6315 74.4129 14.7421 74.6307 13.6503C74.8275 12.6641 75.0309 11.9595 74.6083 11.0643C74.1151 10.02 73.2791 9.8638 72.2557 9.536C69.9098 8.7846 67.2111 10.0195 66.3895 7.52819C65.407 4.54811 69.0998 2.8171 71.7186 1.52233Z" fill="#A8E6F1"/>
<ellipse cx="70.6486" cy="41.4336" rx="2.37362" ry="7.5828" fill="black"/>
<path d="M72.9562 30.6855C73.158 31.4298 71.3704 31.1931 69.4143 31.8192C67.4583 32.4454 66.0743 33.6973 65.8725 32.953C65.6707 32.2086 67.0929 31.0976 69.0489 30.4715C71.005 29.8453 72.7543 29.9411 72.9562 30.6855Z" fill="black"/>
<path d="M92.9438 32.6479C92.7788 33.4029 91.3354 32.2331 89.3513 31.7213C87.3672 31.2096 85.5939 31.5497 85.7588 30.7948C85.9237 30.0398 87.6658 29.8426 89.6499 30.3543C91.634 30.866 93.1087 31.8929 92.9438 32.6479Z" fill="black"/>
<ellipse cx="88.6501" cy="41.4336" rx="2.37362" ry="7.5828" fill="black"/>
<path d="M64.78 58.8659C64.4482 58.5952 64.5694 58.4632 64.5694 58.4632C64.5694 58.4632 64.641 58.6071 64.78 58.8659C65.3185 59.3051 67.0503 60.1095 72.4302 61.3076C78.0743 62.5645 93.1611 60.4618 93.1611 60.4618C93.1611 60.4618 85.2425 73.7063 79.2188 72.3648C71.4773 70.6409 65.9083 60.9668 64.78 58.8659Z" fill="black"/>
<path d="M28 64.9999L53.2705 73.454" stroke="black"/>
<path d="M28 65.0001L24 43" stroke="black"/>
<path d="M129.271 62.9999L104 71.454" stroke="black"/>
<path d="M129.271 63.0001L133.271 41" stroke="black"/>
<path d="M36.2176 45.8365C36.1482 47.4077 34.7393 48.6216 33.0708 48.5479L31.5603 48.4811C29.8918 48.4074 28.5955 47.0739 28.6649 45.5028L29.0421 36.9682C29.1115 35.397 30.5204 34.1831 32.1889 34.2568L33.6994 34.3236C35.3679 34.3973 36.6642 35.7308 36.5948 37.302L36.2176 45.8365Z" fill="#185D6D"/>
<path d="M19.6016 45.1022C19.5322 46.6734 18.1233 47.8873 16.4548 47.8136L14.9442 47.7468C13.2757 47.6731 11.9794 46.3396 12.0489 44.7685L12.426 36.2339C12.4955 34.6627 13.9043 33.4488 15.5729 33.5225L17.0834 33.5893C18.7519 33.663 20.0482 34.9965 19.9788 36.5676L19.6016 45.1022Z" fill="#185D6D"/>
<path d="M28.9792 38.3908C29.8135 38.4276 30.4616 39.0944 30.4269 39.88L30.3012 42.7248C30.2665 43.5104 29.562 44.1174 28.7278 44.0805L19.6645 43.68C18.8302 43.6431 18.1821 42.9764 18.2168 42.1908L18.3425 39.3459C18.3772 38.5603 19.0817 37.9534 19.9159 37.9902L28.9792 38.3908Z" fill="#185D6D"/>
<path d="M147.294 44.4476C147.225 46.0188 145.816 47.2327 144.148 47.159L142.637 47.0922C140.969 47.0185 139.672 45.685 139.742 44.1138L140.119 35.5793C140.188 34.0081 141.597 32.7942 143.266 32.8679L144.776 32.9347C146.445 33.0084 147.741 34.3419 147.672 35.913L147.294 44.4476Z" fill="#185D6D"/>
<path d="M130.678 43.7133C130.609 45.2845 129.2 46.4984 127.532 46.4247L126.021 46.3579C124.353 46.2842 123.056 44.9507 123.126 43.3795L123.503 34.845C123.572 33.2738 124.981 32.0599 126.65 32.1336L128.16 32.2004C129.829 32.2741 131.125 33.6076 131.056 35.1787L130.678 43.7133Z" fill="#185D6D"/>
<path d="M140.056 37.0019C140.89 37.0387 141.538 37.7055 141.504 38.491L141.378 41.3359C141.343 42.1215 140.639 42.7285 139.805 42.6916L130.741 42.2911C129.907 42.2542 129.259 41.5875 129.294 40.8019L129.419 37.957C129.454 37.1714 130.159 36.5645 130.993 36.6013L140.056 37.0019Z" fill="#185D6D"/>
<path d="M58.1467 141.966C59.3761 145.654 53.8934 148.466 48.6467 148.466C43.4 148.466 39.1467 145.466 40.1467 141.966C43.1467 135.466 43.9 135.466 49.1467 135.466C54.3934 135.466 56.1467 135.966 58.1467 141.966Z" fill="#185D6D"/>
<path d="M42.3236 136.635C34.4542 125.97 64.6467 126.966 55.17 136.593M58.1467 141.966C59.3761 145.654 53.8934 148.466 48.6467 148.466C43.4 148.466 39.1467 145.466 40.1467 141.966C43.1467 135.466 43.9 135.466 49.1467 135.466C54.3934 135.466 56.1467 135.966 58.1467 141.966Z" stroke="#185D6D" stroke-width="2"/>
<path d="M47.095 141.649C47.095 141.649 49.5 139.297 49.6667 138.577M49.6667 138C49.6667 139.297 49.6667 145.297 49.6667 145.297M47 144.737H52" stroke="#A8E6F1" stroke-width="2"/>
<path d="M58.1467 141.966C59.3761 145.654 53.8934 148.466 48.6467 148.466C43.4 148.466 39.1467 145.466 40.1467 141.966C43.1467 135.466 43.9 135.466 49.1467 135.466C54.3934 135.466 56.1467 135.966 58.1467 141.966Z" fill="#185D6D"/>
<path d="M42.3236 136.635C34.4542 125.97 64.6467 126.966 55.17 136.593M58.1467 141.966C59.3761 145.654 53.8934 148.466 48.6467 148.466C43.4 148.466 39.1467 145.466 40.1467 141.966C43.1467 135.466 43.9 135.466 49.1467 135.466C54.3934 135.466 56.1467 135.966 58.1467 141.966Z" stroke="#185D6D" stroke-width="2"/>
<path d="M38.6949 137.646C40.8423 144.088 31.2661 148.999 22.1023 148.999C12.9384 148.999 5.50958 143.759 7.25617 137.646C12.496 126.293 13.8117 126.293 22.9756 126.293C32.1394 126.293 35.2017 127.166 38.6949 137.646Z" fill="#185D6D"/>
<path d="M11.5 129C-2.24458 110.373 50.0478 111.447 33.4958 128.261M38.6949 137.646C40.8423 144.088 31.2661 148.999 22.1023 148.999C12.9384 148.999 5.50958 143.759 7.25617 137.646C12.496 126.293 13.8117 126.293 22.9756 126.293C32.1394 126.293 35.2017 127.166 38.6949 137.646Z" stroke="#185D6D" stroke-width="2"/>
<path d="M15.6982 143H13.5928V134.811L11.877 135.439L11.2207 133.765L14.0234 132.746H15.6982V143ZM21.3447 143.205C20.5791 143.205 19.916 142.998 19.3555 142.583C18.7949 142.164 18.3597 141.558 18.0498 140.765C17.7445 139.967 17.5918 139.001 17.5918 137.866C17.5918 136.736 17.7445 135.774 18.0498 134.981C18.3597 134.188 18.7949 133.585 19.3555 133.17C19.916 132.751 20.5791 132.541 21.3447 132.541C22.1149 132.541 22.7803 132.751 23.3408 133.17C23.9014 133.585 24.3343 134.188 24.6396 134.981C24.9495 135.774 25.1045 136.736 25.1045 137.866C25.1045 139.001 24.9518 139.967 24.6465 140.765C24.3411 141.558 23.9059 142.164 23.3408 142.583C22.7803 142.998 22.1149 143.205 21.3447 143.205ZM21.3447 141.366C21.8551 141.366 22.2493 141.061 22.5273 140.45C22.8099 139.84 22.9512 138.98 22.9512 137.873C22.9512 136.761 22.8099 135.902 22.5273 135.296C22.2493 134.685 21.8551 134.38 21.3447 134.38C20.8434 134.38 20.4515 134.685 20.1689 135.296C19.8864 135.902 19.7451 136.761 19.7451 137.873C19.7451 138.98 19.8864 139.84 20.1689 140.45C20.4515 141.061 20.8434 141.366 21.3447 141.366ZM29.8213 143.205C29.0557 143.205 28.3926 142.998 27.832 142.583C27.2715 142.164 26.8363 141.558 26.5264 140.765C26.221 139.967 26.0684 139.001 26.0684 137.866C26.0684 136.736 26.221 135.774 26.5264 134.981C26.8363 134.188 27.2715 133.585 27.832 133.17C28.3926 132.751 29.0557 132.541 29.8213 132.541C30.5915 132.541 31.2568 132.751 31.8174 133.17C32.3779 133.585 32.8109 134.188 33.1162 134.981C33.4261 135.774 33.5811 136.736 33.5811 137.866C33.5811 139.001 33.4284 139.967 33.123 140.765C32.8177 141.558 32.3825 142.164 31.8174 142.583C31.2568 142.998 30.5915 143.205 29.8213 143.205ZM29.8213 141.366C30.3317 141.366 30.7259 141.061 31.0039 140.45C31.2865 139.84 31.4277 138.98 31.4277 137.873C31.4277 136.761 31.2865 135.902 31.0039 135.296C30.7259 134.685 30.3317 134.38 29.8213 134.38C29.32 134.38 28.9281 134.685 28.6455 135.296C28.363 135.902 28.2217 136.761 28.2217 137.873C28.2217 138.98 28.363 139.84 28.6455 140.45C28.9281 141.061 29.32 141.366 29.8213 141.366Z" fill="#A8E6F1"/>
<path d="M49.0273 145H45.293V144.293C45.7539 143.882 46.1406 143.518 46.4531 143.203C46.7682 142.888 47.0195 142.607 47.207 142.359C47.3945 142.112 47.5299 141.885 47.6133 141.68C47.6966 141.471 47.7383 141.27 47.7383 141.074C47.7383 140.874 47.7005 140.698 47.625 140.547C47.5521 140.396 47.4479 140.279 47.3125 140.195C47.1797 140.112 47.0247 140.07 46.8477 140.07C46.6445 140.07 46.4479 140.129 46.2578 140.246C46.0677 140.361 45.9062 140.52 45.7734 140.723L45.1641 139.957C45.3932 139.66 45.6771 139.431 46.0156 139.27C46.3568 139.105 46.7109 139.023 47.0781 139.023C47.4271 139.023 47.7448 139.098 48.0312 139.246C48.3177 139.395 48.5456 139.605 48.7148 139.879C48.8841 140.152 48.9688 140.475 48.9688 140.848C48.9688 141.108 48.9232 141.371 48.832 141.637C48.7435 141.9 48.6133 142.161 48.4414 142.422C48.2721 142.682 48.0638 142.941 47.8164 143.199C47.5716 143.454 47.2917 143.704 46.9766 143.949H49.0273V145ZM51.8867 145.117C51.4492 145.117 51.0703 144.999 50.75 144.762C50.4297 144.522 50.181 144.176 50.0039 143.723C49.8294 143.267 49.7422 142.715 49.7422 142.066C49.7422 141.421 49.8294 140.871 50.0039 140.418C50.181 139.965 50.4297 139.62 50.75 139.383C51.0703 139.143 51.4492 139.023 51.8867 139.023C52.3268 139.023 52.707 139.143 53.0273 139.383C53.3477 139.62 53.5951 139.965 53.7695 140.418C53.9466 140.871 54.0352 141.421 54.0352 142.066C54.0352 142.715 53.9479 143.267 53.7734 143.723C53.599 144.176 53.3503 144.522 53.0273 144.762C52.707 144.999 52.3268 145.117 51.8867 145.117ZM51.8867 144.066C52.1784 144.066 52.4036 143.892 52.5625 143.543C52.724 143.194 52.8047 142.703 52.8047 142.07C52.8047 141.435 52.724 140.944 52.5625 140.598C52.4036 140.249 52.1784 140.074 51.8867 140.074C51.6003 140.074 51.3763 140.249 51.2148 140.598C51.0534 140.944 50.9727 141.435 50.9727 142.07C50.9727 142.703 51.0534 143.194 51.2148 143.543C51.3763 143.892 51.6003 144.066 51.8867 144.066Z" fill="#A8E6F1"/>
</svg>
