<svg width="155" height="150" viewBox="0 0 155 150" fill="none" xmlns="http://www.w3.org/2000/svg">
<path d="M10.867 75L10.5746 77.6923H45.4254L45.133 75H10.867ZM10.5746 77.6923L5 130H17.2212L26.2847 88.2885H29.7153L38.7788 130H51L45.4254 77.6923H10.5746Z" fill="#A8E6F1"/>
<path d="M88 94L88.385 148.744" stroke="black"/>
<path d="M92.6535 149.334C92.6535 150.312 90.7417 149.924 88.3833 149.924C86.025 149.924 84.1132 150.312 84.1132 149.334C84.1132 148.356 86.025 147.563 88.3833 147.563C90.7417 147.563 92.6535 148.356 92.6535 149.334Z" fill="black"/>
<path d="M69.6989 95.621V147.563" stroke="black"/>
<path d="M73.4365 148.744C73.4365 149.722 71.5247 149.334 69.1664 149.334C66.8081 149.334 64.8963 149.722 64.8963 148.744C64.8963 147.766 66.8081 146.973 69.1664 146.973C71.5247 146.973 73.4365 147.766 73.4365 148.744Z" fill="black"/>
<path d="M71.7186 1.52233C76.1389 -0.663151 81.1753 -0.457383 85.5253 1.8944C87.911 3.18421 90.7027 4.52777 89.7821 7.2821C89.0406 9.50024 86.7471 8.92042 84.6542 9.40612C83.4868 9.6771 82.1908 9.68547 81.6259 10.9901C81.2314 11.9012 81.4546 12.5898 81.6483 13.577C81.8369 14.5382 82.4922 15.5274 83.1493 16.3212H118.282C118.834 16.3212 119.282 16.7689 119.282 17.3212V95.3212C119.282 95.8734 118.834 96.3212 118.282 96.3212H84.5995C84.3225 96.3211 84.0561 96.2075 83.8739 95.9989C83.2033 95.2313 82.4721 94.2055 82.2831 93.2176C82.2621 93.1082 82.2413 93.0026 82.2206 92.9003C82.0701 92.1573 81.9532 91.5813 82.2792 90.8514C82.7218 89.8606 83.6287 89.6974 84.5448 89.5321C84.7278 89.4991 84.9115 89.4654 85.0917 89.4257C85.6142 89.3103 86.1496 89.2655 86.6669 89.2225C88.0701 89.1059 89.3398 89.0005 89.8514 87.5223C90.6804 85.1263 88.3753 83.878 86.2518 82.7284C86.1492 82.6728 86.0466 82.6176 85.9452 82.5624C81.9343 80.3782 77.2744 80.1509 73.1698 82.1161C73.1074 82.146 73.044 82.1765 72.9803 82.2069C70.5645 83.3613 67.3323 84.9062 68.2001 87.5692C68.6871 89.0638 69.9277 89.1062 71.3339 89.1542C72.0771 89.1795 72.8671 89.2063 73.6161 89.4501C73.7136 89.4818 73.8095 89.5124 73.9032 89.5419C74.7172 89.7975 75.3807 90.0054 75.7841 90.8651C76.1356 91.6144 76.006 92.2156 75.8378 92.9979C75.8214 93.0739 75.8046 93.1516 75.788 93.2313C75.5116 94.5528 74.2307 95.5419 72.9852 96.2098C72.8461 96.2844 72.6899 96.3212 72.5321 96.3212H40.2821C39.73 96.321 39.2822 95.8733 39.2821 95.3212V61.1024C39.2821 60.8488 39.3773 60.6031 39.5565 60.4237C40.2166 59.7632 41.0515 59.0932 41.8573 58.91C41.9545 58.8879 42.0486 58.8655 42.1395 58.8436L42.6112 58.7382C43.0643 58.6527 43.4739 58.6483 43.9598 58.91C44.8395 59.3839 44.9836 60.3508 45.1288 61.328C45.1578 61.5233 45.1865 61.7197 45.2216 61.912C45.3231 62.4695 45.3621 63.0408 45.3993 63.5926C45.5002 65.0894 45.5915 66.4436 46.9042 66.9921C49.0321 67.8809 50.146 65.4245 51.1718 63.162C51.2213 63.0526 51.2709 62.9438 51.3202 62.8358C53.2689 58.5626 53.4787 53.5939 51.7401 49.2128L51.66 49.0106C50.6387 46.432 49.2726 42.9818 46.9042 43.9022C45.5749 44.4188 45.5345 45.7414 45.4891 47.2411C45.4652 48.0338 45.4397 48.8762 45.2216 49.6747C45.1932 49.7785 45.1668 49.8806 45.1405 49.9803C44.9118 50.848 44.7248 51.5547 43.9598 51.9833C43.2934 52.3565 42.7601 52.2179 42.0653 52.037C41.9976 52.0194 41.9283 52.0013 41.8573 51.9833C40.785 51.7117 39.961 50.5468 39.3759 49.3339C39.3132 49.2041 39.2822 49.061 39.2821 48.9169V17.3212C39.2821 16.769 39.7299 16.3213 40.2821 16.3212H72.6014C73.5751 15.6315 74.4129 14.7421 74.6307 13.6503C74.8275 12.6641 75.0309 11.9595 74.6083 11.0643C74.1151 10.02 73.2791 9.8638 72.2557 9.536C69.9098 8.7846 67.2111 10.0195 66.3895 7.52819C65.407 4.54811 69.0998 2.8171 71.7186 1.52233Z" fill="#A8E6F1"/>
<ellipse cx="70.6486" cy="41.4336" rx="2.37362" ry="7.5828" fill="black"/>
<path d="M72.9562 30.6855C73.158 31.4298 71.3704 31.1931 69.4143 31.8192C67.4583 32.4454 66.0743 33.6973 65.8725 32.953C65.6707 32.2086 67.0929 31.0976 69.0489 30.4715C71.005 29.8453 72.7543 29.9411 72.9562 30.6855Z" fill="black"/>
<path d="M92.9438 32.6479C92.7788 33.4029 91.3354 32.2331 89.3513 31.7213C87.3672 31.2096 85.5939 31.5497 85.7588 30.7948C85.9237 30.0398 87.6658 29.8426 89.6499 30.3543C91.634 30.866 93.1087 31.8929 92.9438 32.6479Z" fill="black"/>
<ellipse cx="88.6501" cy="41.4336" rx="2.37362" ry="7.5828" fill="black"/>
<path d="M64.78 58.866C64.4482 58.5954 64.5694 58.4634 64.5694 58.4634C64.5694 58.4634 64.641 58.6072 64.78 58.866C65.3185 59.3052 67.0503 60.1097 72.4302 61.3077C78.0743 62.5646 93.1611 60.4619 93.1611 60.4619C93.1611 60.4619 85.2425 73.7064 79.2188 72.365C71.4773 70.641 65.9083 60.967 64.78 58.866Z" fill="black"/>
<path d="M29 20L52.2706 74.7927" stroke="black"/>
<path d="M118.608 74.6383C118.608 74.6383 127.199 65.7435 130.187 59.6044C134.306 51.1394 133.393 37.3711 133.393 37.3711" stroke="black"/>
<line y1="-0.3" x2="2.04501" y2="-0.3" transform="matrix(0.783608 -0.621256 0.943162 0.332334 133.793 37.7944)" stroke="black" stroke-width="0.6"/>
<line y1="-0.3" x2="2.07552" y2="-0.3" transform="matrix(-0.797876 -0.602821 0.93794 -0.346797 133.793 37.7944)" stroke="black" stroke-width="0.6"/>
<line y1="-0.35" x2="1.79677" y2="-0.35" transform="matrix(0.0103994 -0.999946 0.999996 0.00290379 133.662 37.7968)" stroke="black" stroke-width="0.7"/>
<g clip-path="url(#clip0_4187_6192)">
<path d="M127.444 149C127.328 149 127.214 148.963 127.12 148.895C127.025 148.827 126.955 148.731 126.918 148.62C126.549 147.514 125.553 146.778 121.889 146.778C121.742 146.778 121.6 146.719 121.496 146.615C121.392 146.511 121.333 146.37 121.333 146.222C121.333 146.075 121.392 145.934 121.496 145.829C121.6 145.725 121.742 145.667 121.889 145.667C125.019 145.667 127.252 146.109 127.971 148.269C127.999 148.352 128.006 148.441 127.993 148.528C127.98 148.615 127.946 148.698 127.895 148.769C127.843 148.841 127.776 148.899 127.697 148.939C127.619 148.979 127.532 149 127.444 149Z" fill="#A8E6F1"/>
<path d="M109.667 130.667H121.889V147.333H109.667V130.667Z" fill="#A8E6F1"/>
<path d="M122.444 131.222H109.111C108.806 131.222 108 129.556 108 129.556C108 129.25 108.25 129 108.556 129H123C123.306 129 123.556 129.25 123.556 129.556C123.556 129.556 122.75 131.222 122.444 131.222ZM122.444 146.778H109.111C108.806 146.778 108 148.444 108 148.444C108 148.75 108.25 149 108.556 149H123C123.306 149 123.556 148.75 123.556 148.444C123.556 148.444 122.75 146.778 122.444 146.778Z" fill="#185D6D"/>
<path d="M120.778 132.889H110.778C110.472 132.889 110.222 132.639 110.222 132.333C110.222 132.028 110.472 131.778 110.778 131.778H120.778C121.083 131.778 121.333 132.028 121.333 132.333C121.333 132.639 121.083 132.889 120.778 132.889ZM120.778 135.111H110.778C110.472 135.111 110.222 134.861 110.222 134.556C110.222 134.25 110.472 134 110.778 134H120.778C121.083 134 121.333 134.25 121.333 134.556C121.333 134.861 121.083 135.111 120.778 135.111ZM120.778 137.333H110.778C110.472 137.333 110.222 137.083 110.222 136.778C110.222 136.472 110.472 136.222 110.778 136.222H120.778C121.083 136.222 121.333 136.472 121.333 136.778C121.333 137.083 121.083 137.333 120.778 137.333ZM120.778 139.556H110.778C110.472 139.556 110.222 139.306 110.222 139C110.222 138.694 110.472 138.444 110.778 138.444H120.778C121.083 138.444 121.333 138.694 121.333 139C121.333 139.306 121.083 139.556 120.778 139.556ZM120.778 141.778H110.778C110.472 141.778 110.222 141.528 110.222 141.222C110.222 140.917 110.472 140.667 110.778 140.667H120.778C121.083 140.667 121.333 140.917 121.333 141.222C121.333 141.528 121.083 141.778 120.778 141.778ZM120.778 144H110.778C110.472 144 110.222 143.75 110.222 143.444C110.222 143.139 110.472 142.889 110.778 142.889H120.778C121.083 142.889 121.333 143.139 121.333 143.444C121.333 143.75 121.083 144 120.778 144ZM120.778 146.222H110.778C110.472 146.222 110.222 145.972 110.222 145.667C110.222 145.361 110.472 145.111 110.778 145.111H120.778C121.083 145.111 121.333 145.361 121.333 145.667C121.333 145.972 121.083 146.222 120.778 146.222Z" fill="#A8E6F1"/>
<path d="M117.589 132.889H112.299C112.191 132.889 112.086 132.845 112.009 132.769C111.932 132.692 111.889 132.587 111.889 132.478V132.188C111.889 132.08 111.932 131.975 112.009 131.898C112.086 131.821 112.191 131.778 112.299 131.778H117.59C117.699 131.778 117.803 131.821 117.88 131.898C117.957 131.975 118 132.08 118 132.188V132.479C118 132.588 117.956 132.692 117.879 132.769C117.802 132.846 117.698 132.889 117.589 132.889ZM117.589 135.111H112.299C112.191 135.111 112.086 135.068 112.009 134.991C111.932 134.914 111.889 134.809 111.889 134.701V134.411C111.889 134.302 111.932 134.197 112.009 134.12C112.086 134.044 112.191 134 112.299 134H117.59C117.699 134 117.803 134.044 117.88 134.121C117.957 134.198 118 134.302 118 134.411V134.701C118 134.81 117.956 134.914 117.879 134.991C117.802 135.068 117.698 135.111 117.589 135.111ZM117.589 137.333H112.299C112.191 137.333 112.086 137.29 112.009 137.213C111.932 137.136 111.889 137.032 111.889 136.923V136.632C111.889 136.524 111.933 136.419 112.009 136.342C112.086 136.266 112.191 136.222 112.299 136.222H117.59C117.699 136.223 117.803 136.266 117.88 136.343C117.957 136.42 118 136.524 118 136.633V136.923C118 137.032 117.956 137.136 117.879 137.213C117.802 137.29 117.698 137.333 117.589 137.333ZM117.589 139.556H112.299C112.191 139.555 112.086 139.512 112.009 139.435C111.932 139.358 111.889 139.254 111.889 139.145V138.854C111.889 138.746 111.933 138.642 112.009 138.565C112.086 138.488 112.191 138.445 112.299 138.444H117.59C117.699 138.445 117.803 138.488 117.88 138.565C117.957 138.642 118 138.746 118 138.855V139.146C118 139.254 117.956 139.359 117.879 139.435C117.802 139.512 117.698 139.555 117.589 139.556ZM117.589 141.778H112.299C112.191 141.778 112.086 141.734 112.009 141.657C111.932 141.58 111.889 141.476 111.889 141.367V141.077C111.889 140.968 111.933 140.864 112.009 140.787C112.086 140.71 112.191 140.667 112.299 140.667H117.59C117.699 140.667 117.803 140.71 117.88 140.787C117.957 140.864 118 140.969 118 141.077V141.368C118 141.477 117.956 141.581 117.879 141.658C117.802 141.734 117.698 141.778 117.589 141.778ZM117.589 144H112.299C112.191 144 112.086 143.957 112.009 143.88C111.932 143.803 111.889 143.698 111.889 143.589V143.299C111.889 143.19 111.933 143.086 112.009 143.009C112.086 142.932 112.191 142.889 112.299 142.889H117.59C117.699 142.889 117.803 142.933 117.88 143.01C117.957 143.086 118 143.191 118 143.299V143.59C118 143.699 117.956 143.803 117.879 143.88C117.802 143.957 117.698 144 117.589 144ZM117.589 146.222H112.299C112.191 146.222 112.086 146.179 112.009 146.102C111.932 146.025 111.889 145.921 111.889 145.812V145.521C111.889 145.412 111.933 145.308 112.009 145.231C112.086 145.155 112.191 145.111 112.299 145.111H117.59C117.699 145.111 117.803 145.155 117.88 145.232C117.957 145.309 118 145.413 118 145.522V145.812C118 145.921 117.956 146.025 117.879 146.102C117.802 146.179 117.698 146.222 117.589 146.222Z" fill="#A8E6F1"/>
</g>
<g clip-path="url(#clip1_4187_6192)">
<path d="M144.444 149C144.328 149 144.214 148.963 144.12 148.895C144.025 148.827 143.955 148.731 143.918 148.62C143.549 147.514 142.553 146.778 138.889 146.778C138.742 146.778 138.6 146.719 138.496 146.615C138.392 146.511 138.333 146.37 138.333 146.222C138.333 146.075 138.392 145.934 138.496 145.829C138.6 145.725 138.742 145.667 138.889 145.667C142.019 145.667 144.252 146.109 144.971 148.269C144.999 148.352 145.007 148.441 144.993 148.528C144.98 148.615 144.946 148.698 144.895 148.769C144.843 148.841 144.776 148.899 144.697 148.939C144.619 148.979 144.532 149 144.444 149Z" fill="#A8E6F1"/>
<path d="M126.667 130.667H138.889V147.333H126.667V130.667Z" fill="#A8E6F1"/>
<path d="M139.444 131.222H126.111C125.806 131.222 125 129.556 125 129.556C125 129.25 125.25 129 125.556 129H140C140.306 129 140.556 129.25 140.556 129.556C140.556 129.556 139.75 131.222 139.444 131.222ZM139.444 146.778H126.111C125.806 146.778 125 148.444 125 148.444C125 148.75 125.25 149 125.556 149H140C140.306 149 140.556 148.75 140.556 148.444C140.556 148.444 139.75 146.778 139.444 146.778Z" fill="#185D6D"/>
<path d="M137.778 132.889H127.778C127.472 132.889 127.222 132.639 127.222 132.333C127.222 132.028 127.472 131.778 127.778 131.778H137.778C138.083 131.778 138.333 132.028 138.333 132.333C138.333 132.639 138.083 132.889 137.778 132.889ZM137.778 135.111H127.778C127.472 135.111 127.222 134.861 127.222 134.556C127.222 134.25 127.472 134 127.778 134H137.778C138.083 134 138.333 134.25 138.333 134.556C138.333 134.861 138.083 135.111 137.778 135.111ZM137.778 137.333H127.778C127.472 137.333 127.222 137.083 127.222 136.778C127.222 136.472 127.472 136.222 127.778 136.222H137.778C138.083 136.222 138.333 136.472 138.333 136.778C138.333 137.083 138.083 137.333 137.778 137.333ZM137.778 139.556H127.778C127.472 139.556 127.222 139.306 127.222 139C127.222 138.694 127.472 138.444 127.778 138.444H137.778C138.083 138.444 138.333 138.694 138.333 139C138.333 139.306 138.083 139.556 137.778 139.556ZM137.778 141.778H127.778C127.472 141.778 127.222 141.528 127.222 141.222C127.222 140.917 127.472 140.667 127.778 140.667H137.778C138.083 140.667 138.333 140.917 138.333 141.222C138.333 141.528 138.083 141.778 137.778 141.778ZM137.778 144H127.778C127.472 144 127.222 143.75 127.222 143.444C127.222 143.139 127.472 142.889 127.778 142.889H137.778C138.083 142.889 138.333 143.139 138.333 143.444C138.333 143.75 138.083 144 137.778 144ZM137.778 146.222H127.778C127.472 146.222 127.222 145.972 127.222 145.667C127.222 145.361 127.472 145.111 127.778 145.111H137.778C138.083 145.111 138.333 145.361 138.333 145.667C138.333 145.972 138.083 146.222 137.778 146.222Z" fill="#A8E6F1"/>
<path d="M134.589 132.889H129.299C129.191 132.889 129.086 132.845 129.009 132.769C128.932 132.692 128.889 132.587 128.889 132.478V132.188C128.889 132.08 128.932 131.975 129.009 131.898C129.086 131.821 129.191 131.778 129.299 131.778H134.59C134.699 131.778 134.803 131.821 134.88 131.898C134.957 131.975 135 132.08 135 132.188V132.479C135 132.588 134.956 132.692 134.879 132.769C134.802 132.846 134.698 132.889 134.589 132.889ZM134.589 135.111H129.299C129.191 135.111 129.086 135.068 129.009 134.991C128.932 134.914 128.889 134.809 128.889 134.701V134.411C128.889 134.302 128.932 134.197 129.009 134.12C129.086 134.044 129.191 134 129.299 134H134.59C134.699 134 134.803 134.044 134.88 134.121C134.957 134.198 135 134.302 135 134.411V134.701C135 134.81 134.956 134.914 134.879 134.991C134.802 135.068 134.698 135.111 134.589 135.111ZM134.589 137.333H129.299C129.191 137.333 129.086 137.29 129.009 137.213C128.932 137.136 128.889 137.032 128.889 136.923V136.632C128.889 136.524 128.933 136.419 129.009 136.342C129.086 136.266 129.191 136.222 129.299 136.222H134.59C134.699 136.223 134.803 136.266 134.88 136.343C134.957 136.42 135 136.524 135 136.633V136.923C135 137.032 134.956 137.136 134.879 137.213C134.802 137.29 134.698 137.333 134.589 137.333ZM134.589 139.556H129.299C129.191 139.555 129.086 139.512 129.009 139.435C128.932 139.358 128.889 139.254 128.889 139.145V138.854C128.889 138.746 128.933 138.642 129.009 138.565C129.086 138.488 129.191 138.445 129.299 138.444H134.59C134.699 138.445 134.803 138.488 134.88 138.565C134.957 138.642 135 138.746 135 138.855V139.146C135 139.254 134.956 139.359 134.879 139.435C134.802 139.512 134.698 139.555 134.589 139.556ZM134.589 141.778H129.299C129.191 141.778 129.086 141.734 129.009 141.657C128.932 141.58 128.889 141.476 128.889 141.367V141.077C128.889 140.968 128.933 140.864 129.009 140.787C129.086 140.71 129.191 140.667 129.299 140.667H134.59C134.699 140.667 134.803 140.71 134.88 140.787C134.957 140.864 135 140.969 135 141.077V141.368C135 141.477 134.956 141.581 134.879 141.658C134.802 141.734 134.698 141.778 134.589 141.778ZM134.589 144H129.299C129.191 144 129.086 143.957 129.009 143.88C128.932 143.803 128.889 143.698 128.889 143.589V143.299C128.889 143.19 128.933 143.086 129.009 143.009C129.086 142.932 129.191 142.889 129.299 142.889H134.59C134.699 142.889 134.803 142.933 134.88 143.01C134.957 143.086 135 143.191 135 143.299V143.59C135 143.699 134.956 143.803 134.879 143.88C134.802 143.957 134.698 144 134.589 144ZM134.589 146.222H129.299C129.191 146.222 129.086 146.179 129.009 146.102C128.932 146.025 128.889 145.921 128.889 145.812V145.521C128.889 145.412 128.933 145.308 129.009 145.231C129.086 145.155 129.191 145.111 129.299 145.111H134.59C134.699 145.111 134.803 145.155 134.88 145.232C134.957 145.309 135 145.413 135 145.522V145.812C135 145.921 134.956 146.025 134.879 146.102C134.802 146.179 134.698 146.222 134.589 146.222Z" fill="#A8E6F1"/>
</g>
<g clip-path="url(#clip2_4187_6192)">
<path d="M138.444 129C138.328 129 138.214 128.963 138.12 128.895C138.025 128.827 137.955 128.731 137.918 128.62C137.549 127.514 136.553 126.778 132.889 126.778C132.742 126.778 132.6 126.719 132.496 126.615C132.392 126.511 132.333 126.37 132.333 126.222C132.333 126.075 132.392 125.934 132.496 125.829C132.6 125.725 132.742 125.667 132.889 125.667C136.019 125.667 138.252 126.109 138.971 128.269C138.999 128.352 139.006 128.441 138.993 128.528C138.98 128.615 138.946 128.698 138.895 128.769C138.843 128.841 138.776 128.899 138.697 128.939C138.619 128.979 138.532 129 138.444 129Z" fill="#A8E6F1"/>
<path d="M120.667 110.667H132.889V127.333H120.667V110.667Z" fill="#A8E6F1"/>
<path d="M133.444 111.222H120.111C119.806 111.222 119 109.556 119 109.556C119 109.25 119.25 109 119.556 109H134C134.306 109 134.556 109.25 134.556 109.556C134.556 109.556 133.75 111.222 133.444 111.222ZM133.444 126.778H120.111C119.806 126.778 119 128.444 119 128.444C119 128.75 119.25 129 119.556 129H134C134.306 129 134.556 128.75 134.556 128.444C134.556 128.444 133.75 126.778 133.444 126.778Z" fill="#185D6D"/>
<path d="M131.778 112.889H121.778C121.472 112.889 121.222 112.639 121.222 112.333C121.222 112.028 121.472 111.778 121.778 111.778H131.778C132.083 111.778 132.333 112.028 132.333 112.333C132.333 112.639 132.083 112.889 131.778 112.889ZM131.778 115.111H121.778C121.472 115.111 121.222 114.861 121.222 114.556C121.222 114.25 121.472 114 121.778 114H131.778C132.083 114 132.333 114.25 132.333 114.556C132.333 114.861 132.083 115.111 131.778 115.111ZM131.778 117.333H121.778C121.472 117.333 121.222 117.083 121.222 116.778C121.222 116.472 121.472 116.222 121.778 116.222H131.778C132.083 116.222 132.333 116.472 132.333 116.778C132.333 117.083 132.083 117.333 131.778 117.333ZM131.778 119.556H121.778C121.472 119.556 121.222 119.306 121.222 119C121.222 118.694 121.472 118.444 121.778 118.444H131.778C132.083 118.444 132.333 118.694 132.333 119C132.333 119.306 132.083 119.556 131.778 119.556ZM131.778 121.778H121.778C121.472 121.778 121.222 121.528 121.222 121.222C121.222 120.917 121.472 120.667 121.778 120.667H131.778C132.083 120.667 132.333 120.917 132.333 121.222C132.333 121.528 132.083 121.778 131.778 121.778ZM131.778 124H121.778C121.472 124 121.222 123.75 121.222 123.444C121.222 123.139 121.472 122.889 121.778 122.889H131.778C132.083 122.889 132.333 123.139 132.333 123.444C132.333 123.75 132.083 124 131.778 124ZM131.778 126.222H121.778C121.472 126.222 121.222 125.972 121.222 125.667C121.222 125.361 121.472 125.111 121.778 125.111H131.778C132.083 125.111 132.333 125.361 132.333 125.667C132.333 125.972 132.083 126.222 131.778 126.222Z" fill="#A8E6F1"/>
<path d="M128.589 112.889H123.299C123.191 112.889 123.086 112.845 123.009 112.769C122.932 112.692 122.889 112.587 122.889 112.478V112.188C122.889 112.08 122.932 111.975 123.009 111.898C123.086 111.821 123.191 111.778 123.299 111.778H128.59C128.699 111.778 128.803 111.821 128.88 111.898C128.957 111.975 129 112.08 129 112.188V112.479C129 112.588 128.956 112.692 128.879 112.769C128.802 112.846 128.698 112.889 128.589 112.889ZM128.589 115.111H123.299C123.191 115.111 123.086 115.068 123.009 114.991C122.932 114.914 122.889 114.809 122.889 114.701V114.411C122.889 114.302 122.932 114.197 123.009 114.12C123.086 114.044 123.191 114 123.299 114H128.59C128.699 114 128.803 114.044 128.88 114.121C128.957 114.198 129 114.302 129 114.411V114.701C129 114.81 128.956 114.914 128.879 114.991C128.802 115.068 128.698 115.111 128.589 115.111ZM128.589 117.333H123.299C123.191 117.333 123.086 117.29 123.009 117.213C122.932 117.136 122.889 117.032 122.889 116.923V116.632C122.889 116.524 122.933 116.419 123.009 116.342C123.086 116.266 123.191 116.222 123.299 116.222H128.59C128.699 116.223 128.803 116.266 128.88 116.343C128.957 116.42 129 116.524 129 116.633V116.923C129 117.032 128.956 117.136 128.879 117.213C128.802 117.29 128.698 117.333 128.589 117.333ZM128.589 119.556H123.299C123.191 119.555 123.086 119.512 123.009 119.435C122.932 119.358 122.889 119.254 122.889 119.145V118.854C122.889 118.746 122.933 118.642 123.009 118.565C123.086 118.488 123.191 118.445 123.299 118.444H128.59C128.699 118.445 128.803 118.488 128.88 118.565C128.957 118.642 129 118.746 129 118.855V119.146C129 119.254 128.956 119.359 128.879 119.435C128.802 119.512 128.698 119.555 128.589 119.556ZM128.589 121.778H123.299C123.191 121.778 123.086 121.734 123.009 121.657C122.932 121.58 122.889 121.476 122.889 121.367V121.077C122.889 120.968 122.933 120.864 123.009 120.787C123.086 120.71 123.191 120.667 123.299 120.667H128.59C128.699 120.667 128.803 120.71 128.88 120.787C128.957 120.864 129 120.969 129 121.077V121.368C129 121.477 128.956 121.581 128.879 121.658C128.802 121.734 128.698 121.778 128.589 121.778ZM128.589 124H123.299C123.191 124 123.086 123.957 123.009 123.88C122.932 123.803 122.889 123.698 122.889 123.589V123.299C122.889 123.19 122.933 123.086 123.009 123.009C123.086 122.932 123.191 122.889 123.299 122.889H128.59C128.699 122.889 128.803 122.933 128.88 123.01C128.957 123.086 129 123.191 129 123.299V123.59C129 123.699 128.956 123.803 128.879 123.88C128.802 123.957 128.698 124 128.589 124ZM128.589 126.222H123.299C123.191 126.222 123.086 126.179 123.009 126.102C122.932 126.025 122.889 125.921 122.889 125.812V125.521C122.889 125.412 122.933 125.308 123.009 125.231C123.086 125.155 123.191 125.111 123.299 125.111H128.59C128.699 125.111 128.803 125.155 128.88 125.232C128.957 125.309 129 125.413 129 125.522V125.812C129 125.921 128.956 126.025 128.879 126.102C128.802 126.179 128.698 126.222 128.589 126.222Z" fill="#A8E6F1"/>
</g>
<path d="M135.118 38.4428L131.861 29.8224C131.678 29.4432 131.353 29.1513 130.956 29.0095C130.559 28.8677 130.123 28.8874 129.74 29.0644C129.358 29.2414 129.06 29.5614 128.912 29.9556C128.763 30.3498 128.775 30.7866 128.946 31.1719L139.542 50.2436L136.026 40.8566" stroke="#185D6D" stroke-width="0.5" stroke-linecap="round" stroke-linejoin="round"/>
<path d="M131.496 31.5876C131.538 31.9496 131.455 32.2385 131.253 32.3323C130.932 32.4811 130.429 32.0796 130.131 31.4355C129.833 30.7913 129.852 30.1489 130.174 30.0003C130.242 29.9696 130.319 29.9611 130.393 29.9758" stroke="#185D6D" stroke-width="0.5" stroke-linecap="round" stroke-linejoin="round"/>
<path d="M130.043 31.2187C130.246 31.0799 130.459 30.9596 130.683 30.8578C131.594 30.4158 132.614 30.2441 133.62 30.3631C134.626 30.482 135.577 30.8865 136.36 31.5289C136.36 31.5289 139.222 33.8057 137.548 37.1513C136.014 40.2163 130.401 43.0983 132.08 49.6959M128.185 36.812C128.185 36.812 127.631 33.757 129.324 31.8527" stroke="#185D6D" stroke-width="0.5" stroke-linecap="round" stroke-linejoin="round"/>
<path d="M135.583 36.5054L134.279 32.8555C134.279 32.8555 138.383 33.1772 135.583 36.5054Z" fill="white"/>
<path d="M129.56 28.6735C129.075 28.9004 128.701 29.3105 128.518 29.8135C128.336 30.3165 128.361 30.8712 128.588 31.3558L128.593 31.3679L139.189 50.439C139.238 50.5281 139.32 50.5952 139.416 50.6269C139.513 50.6585 139.618 50.6524 139.711 50.6096C139.803 50.5669 139.876 50.4908 139.914 50.3966C139.953 50.3024 139.954 50.197 139.918 50.1018L132.238 29.6808L132.227 29.6531C132.002 29.17 131.596 28.7956 131.096 28.6119C130.596 28.4283 130.043 28.4504 129.56 28.6735ZM130.93 31.0661C131.082 31.3358 131.134 31.6505 131.078 31.955C130.81 31.8007 130.604 31.557 130.497 31.2665C130.345 30.9969 130.293 30.6825 130.349 30.378C130.617 30.5327 130.822 30.7761 130.93 31.0661Z" fill="#185D6D"/>
<path d="M135.118 38.4428L131.861 29.8224C131.678 29.4432 131.353 29.1513 130.956 29.0095C130.559 28.8677 130.123 28.8874 129.74 29.0644C129.358 29.2414 129.06 29.5614 128.912 29.9556C128.763 30.3498 128.775 30.7866 128.946 31.1719L139.542 50.2436L136.026 40.8566" stroke="#185D6D" stroke-width="0.5" stroke-linecap="round" stroke-linejoin="round"/>
<path d="M131.496 31.5876C131.538 31.9496 131.455 32.2385 131.253 32.3323C130.932 32.4811 130.429 32.0796 130.131 31.4355C129.833 30.7913 129.852 30.1489 130.174 30.0003C130.242 29.9696 130.319 29.9611 130.393 29.9758" stroke="#185D6D" stroke-width="0.5" stroke-linecap="round" stroke-linejoin="round"/>
<path d="M128.838 31.8078C127.257 33.8324 127.764 36.7581 127.787 36.8862C127.806 36.9913 127.866 37.0846 127.954 37.1455C128.041 37.2064 128.15 37.23 128.255 37.2109C128.36 37.1919 128.453 37.1319 128.514 37.0441C128.575 36.9564 128.599 36.848 128.58 36.7428C128.575 36.7171 128.166 34.3229 129.272 32.5892L128.838 31.8078ZM130.551 31.3762C130.648 31.322 130.747 31.2715 130.85 31.2245C131.693 30.8095 132.638 30.6471 133.571 30.7569C134.504 30.8668 135.385 31.2442 136.109 31.8437C136.215 31.9286 138.691 33.9665 137.187 36.9713C136.636 37.912 135.969 38.7797 135.201 39.554C133.078 41.9244 130.437 44.8734 131.689 49.7957C131.716 49.8993 131.782 49.9881 131.874 50.0426C131.966 50.0972 132.076 50.1129 132.179 50.0865C132.283 50.0601 132.372 49.9936 132.426 49.9017C132.481 49.8098 132.497 49.7 132.47 49.5965C131.324 45.0911 133.702 42.435 135.801 40.0916C136.613 39.2617 137.321 38.3344 137.908 37.3319C139.707 33.7352 136.642 31.2384 136.633 31.2324C135.794 30.5317 134.769 30.0888 133.684 29.9574C132.599 29.8259 131.499 30.0115 130.516 30.4916C130.451 30.5214 130.386 30.5527 130.322 30.5854C130.326 30.8506 130.398 31.1103 130.531 31.3399L130.551 31.3762Z" fill="#A8E6F1"/>
<path d="M10.867 75L10.5746 77.6923H45.4254L45.133 75H10.867ZM10.2042 81.1538L5 130H17.2212L26.2847 88.2885H29.7153L38.7788 130H51L45.7958 81.1538H10.2042Z" fill="#185D6D"/>
<path d="M27.9997 13.9954C27.7364 13.9954 27.4778 14.0647 27.2497 14.1964C27.0217 14.328 26.8324 14.5174 26.7007 14.7454C26.5004 15.0871 26.173 15.3357 25.7901 15.437C25.4072 15.5382 24.9997 15.4839 24.6567 15.2858C24.3136 15.0878 24.0629 14.7621 23.9591 14.3798C23.8553 13.9975 23.9069 13.5897 24.1027 13.2454C24.4233 12.6916 24.8584 12.2125 25.3789 11.8402C25.8993 11.4678 26.4932 11.2108 27.1209 11.0861C27.7486 10.9615 28.3956 10.9722 29.0189 11.1175C29.6421 11.2628 30.2272 11.5394 30.735 11.9287C31.2429 12.318 31.6619 12.8112 31.964 13.3754C32.2662 13.9395 32.4445 14.5615 32.4872 15.2001C32.5298 15.8386 32.4358 16.4788 32.2114 17.0781C31.987 17.6774 31.6373 18.222 31.1857 18.6754L30.8077 19.0474C30.4813 19.3476 30.1774 19.6715 29.8987 20.0164C29.5747 20.4304 29.4997 20.6854 29.4997 20.8564C29.4997 21.1684 29.6707 21.4564 29.9437 21.6064L41.0167 27.7594C41.7644 28.1748 42.353 28.8268 42.69 29.6129C43.0271 30.3991 43.0935 31.2749 42.879 32.1029C42.6644 32.9309 42.181 33.6642 41.5046 34.1877C40.8282 34.7113 39.9971 34.9953 39.1417 34.9954H16.8637C16.0081 34.996 15.1765 34.7124 14.4996 34.1891C13.8227 33.6658 13.3388 32.9325 13.1238 32.1043C12.9089 31.2762 12.9751 30.4001 13.3121 29.6136C13.6491 28.8272 14.2378 28.175 14.9857 27.7594L22.7737 23.4244C22.9459 23.3287 23.1352 23.2678 23.3309 23.2452C23.5266 23.2227 23.7248 23.2389 23.9143 23.2929C24.1037 23.347 24.2806 23.4378 24.4349 23.5602C24.5893 23.6826 24.718 23.8342 24.8137 24.0064C24.9095 24.1786 24.9703 24.3679 24.9929 24.5636C25.0155 24.7593 24.9993 24.9575 24.9452 25.1469C24.8912 25.3364 24.8003 25.5133 24.6779 25.6676C24.5555 25.822 24.4039 25.9507 24.2317 26.0464L16.4467 30.3814C16.2797 30.474 16.1481 30.6196 16.0729 30.7952C15.9976 30.9707 15.9829 31.1664 16.031 31.3512C16.0791 31.5361 16.1873 31.6997 16.3386 31.8164C16.4899 31.933 16.6757 31.996 16.8667 31.9954H39.1417C39.3328 31.996 39.5185 31.933 39.6698 31.8164C39.8211 31.6997 39.9294 31.5361 39.9775 31.3512C40.0256 31.1664 40.0108 30.9707 39.9356 30.7952C39.8603 30.6196 39.7288 30.474 39.5617 30.3814L28.4827 24.2314C27.8826 23.8955 27.3828 23.4058 27.0347 22.8126C26.6867 22.2194 26.5031 21.5442 26.5027 20.8564C26.5027 19.7224 27.0277 18.8194 27.5377 18.1684C27.9277 17.6674 28.4197 17.1874 28.8007 16.8154L29.0647 16.5544C29.274 16.3445 29.4164 16.0772 29.4739 15.7864C29.5314 15.4956 29.5015 15.1942 29.3878 14.9204C29.2742 14.6466 29.082 14.4126 28.8355 14.248C28.5889 14.0834 28.2962 13.9955 27.9997 13.9954Z" fill="#185D6D"/>
<defs>
<clipPath id="clip0_4187_6192">
<rect width="20" height="20" fill="white" transform="translate(108 129)"/>
</clipPath>
<clipPath id="clip1_4187_6192">
<rect width="20" height="20" fill="white" transform="translate(125 129)"/>
</clipPath>
<clipPath id="clip2_4187_6192">
<rect width="20" height="20" fill="white" transform="translate(119 109)"/>
</clipPath>
</defs>
</svg>
