<svg width="150" height="150" viewBox="0 0 150 150" fill="none" xmlns="http://www.w3.org/2000/svg">
<path d="M58.2 92.2H19.8C17.2539 92.2 14.8121 93.2114 13.0118 95.0117C11.2114 96.8121 10.2 99.2539 10.2 101.8V111.396C13.1783 111.395 13.0681 117.281 15.5 119C17.9319 120.719 20.5072 123.192 21.5 126L55.8 125C56.7928 122.192 61.5681 118.719 64 117C66.4319 115.281 64.8217 111.399 67.8 111.4V101.8C67.8 99.2539 66.7886 96.8121 64.9882 95.0117C63.1879 93.2114 60.7461 92.2 58.2 92.2ZM67.8 111.4C65.6673 111.4 63.5952 112.11 61.9108 113.418C60.2264 114.726 59.0255 116.558 58.4976 118.624C58.1712 119.91 57.1248 121 55.8 121H22.2C20.8752 121 19.8288 119.91 19.5024 118.624C18.9244 116.357 17.5385 114.379 15.6051 113.062C13.6718 111.745 11.3239 111.179 9.00272 111.471C6.68154 111.762 4.54678 112.892 2.99952 114.646C1.45225 116.401 0.598978 118.661 0.600007 121V130.6C0.600007 133.146 1.61143 135.588 3.41178 137.388C5.21213 139.189 7.65393 140.2 10.2 140.2V147.4C10.2 148.036 10.4529 148.647 10.903 149.097C11.353 149.547 11.9635 149.8 12.6 149.8C13.2365 149.8 13.847 149.547 14.2971 149.097C14.7472 148.647 15 148.036 15 147.4V140.2H63V147.4C63 148.036 63.2529 148.647 63.7029 149.097C64.153 149.547 64.7635 149.8 65.4 149.8C66.0365 149.8 66.647 149.547 67.0971 149.097C67.5472 148.647 67.8 148.036 67.8 147.4V140.2C70.3461 140.2 72.7879 139.189 74.5882 137.388C76.3886 135.588 77.4 133.146 77.4 130.6V121C77.4 118.454 76.3886 116.012 74.5882 114.212C72.7879 112.411 70.3461 111.4 67.8 111.4Z" fill="#A8E6F1"/>
<path d="M58.2 92.2H19.8C17.2539 92.2 14.8121 93.2114 13.0118 95.0117C11.2114 96.8121 10.2 99.2539 10.2 101.8V106.6C13.1783 106.599 16.0835 107.522 18.5155 109.242C20.9474 110.961 22.7864 113.392 23.7792 116.2H54.2208C55.2136 113.392 57.0526 110.961 59.4845 109.242C61.9165 107.522 64.8217 106.599 67.8 106.6V101.8C67.8 99.2539 66.7886 96.8121 64.9882 95.0117C63.1879 93.2114 60.7461 92.2 58.2 92.2ZM67.8 111.4C65.6673 111.4 63.5952 112.11 61.9108 113.418C60.2264 114.726 59.0255 116.558 58.4976 118.624C58.1712 119.91 57.1248 121 55.8 121H22.2C20.8752 121 19.8288 119.91 19.5024 118.624C18.9244 116.357 17.5385 114.379 15.6051 113.062C13.6718 111.745 11.3239 111.179 9.00272 111.471C6.68154 111.762 4.54678 112.892 2.99952 114.646C1.45225 116.401 0.598978 118.661 0.600007 121V130.6C0.600007 133.146 1.61143 135.588 3.41178 137.388C5.21213 139.189 7.65393 140.2 10.2 140.2V147.4C10.2 148.036 10.4529 148.647 10.903 149.097C11.353 149.547 11.9635 149.8 12.6 149.8C13.2365 149.8 13.847 149.547 14.2971 149.097C14.7472 148.647 15 148.036 15 147.4V140.2H63V147.4C63 148.036 63.2529 148.647 63.7029 149.097C64.153 149.547 64.7635 149.8 65.4 149.8C66.0365 149.8 66.647 149.547 67.0971 149.097C67.5472 148.647 67.8 148.036 67.8 147.4V140.2C70.3461 140.2 72.7879 139.189 74.5882 137.388C76.3886 135.588 77.4 133.146 77.4 130.6V121C77.4 118.454 76.3886 116.012 74.5882 114.212C72.7879 112.411 70.3461 111.4 67.8 111.4Z" fill="#185D6D"/>
<path d="M88 94L88.385 148.744" stroke="black"/>
<path d="M92.6535 149.334C92.6535 150.312 90.7417 149.924 88.3833 149.924C86.025 149.924 84.1132 150.312 84.1132 149.334C84.1132 148.356 86.025 147.563 88.3833 147.563C90.7417 147.563 92.6535 148.356 92.6535 149.334Z" fill="black"/>
<path d="M69.6989 95.621V147.563" stroke="black"/>
<path d="M73.4365 148.744C73.4365 149.722 71.5247 149.334 69.1664 149.334C66.8081 149.334 64.8963 149.722 64.8963 148.744C64.8963 147.766 66.8081 146.973 69.1664 146.973C71.5247 146.973 73.4365 147.766 73.4365 148.744Z" fill="black"/>
<path d="M71.7186 1.52233C76.1389 -0.663151 81.1753 -0.457383 85.5253 1.8944C87.911 3.18421 90.7027 4.52777 89.7821 7.2821C89.0406 9.50024 86.7471 8.92042 84.6542 9.40612C83.4868 9.6771 82.1908 9.68547 81.6259 10.9901C81.2314 11.9012 81.4546 12.5898 81.6483 13.577C81.8369 14.5382 82.4922 15.5274 83.1493 16.3212H118.282C118.834 16.3212 119.282 16.7689 119.282 17.3212V95.3212C119.282 95.8734 118.834 96.3212 118.282 96.3212H84.5995C84.3225 96.3211 84.0561 96.2075 83.8739 95.9989C83.2033 95.2313 82.4721 94.2055 82.2831 93.2176C82.2621 93.1082 82.2413 93.0026 82.2206 92.9003C82.0701 92.1573 81.9532 91.5813 82.2792 90.8514C82.7218 89.8606 83.6287 89.6974 84.5448 89.5321C84.7278 89.4991 84.9115 89.4654 85.0917 89.4257C85.6142 89.3103 86.1496 89.2655 86.6669 89.2225C88.0701 89.1059 89.3398 89.0005 89.8514 87.5223C90.6804 85.1263 88.3753 83.878 86.2518 82.7284C86.1492 82.6728 86.0466 82.6176 85.9452 82.5624C81.9343 80.3782 77.2744 80.1509 73.1698 82.1161C73.1074 82.146 73.044 82.1765 72.9803 82.2069C70.5645 83.3613 67.3323 84.9062 68.2001 87.5692C68.6871 89.0638 69.9277 89.1062 71.3339 89.1542C72.0771 89.1795 72.8671 89.2063 73.6161 89.4501C73.7136 89.4818 73.8095 89.5124 73.9032 89.5419C74.7172 89.7975 75.3807 90.0054 75.7841 90.8651C76.1356 91.6144 76.006 92.2156 75.8378 92.9979C75.8214 93.0739 75.8046 93.1516 75.788 93.2313C75.5116 94.5528 74.2307 95.5419 72.9852 96.2098C72.8461 96.2844 72.6899 96.3212 72.5321 96.3212H40.2821C39.73 96.321 39.2822 95.8733 39.2821 95.3212V61.1024C39.2821 60.8488 39.3773 60.6031 39.5565 60.4237C40.2166 59.7632 41.0515 59.0932 41.8573 58.91C41.9545 58.8879 42.0486 58.8655 42.1395 58.8436L42.6112 58.7382C43.0643 58.6527 43.4739 58.6483 43.9598 58.91C44.8395 59.3839 44.9836 60.3508 45.1288 61.328C45.1578 61.5233 45.1865 61.7197 45.2216 61.912C45.3231 62.4695 45.3621 63.0408 45.3993 63.5926C45.5002 65.0894 45.5915 66.4436 46.9042 66.9921C49.0321 67.8809 50.146 65.4245 51.1718 63.162C51.2213 63.0526 51.2709 62.9438 51.3202 62.8358C53.2689 58.5626 53.4787 53.5939 51.7401 49.2128L51.66 49.0106C50.6387 46.432 49.2726 42.9818 46.9042 43.9022C45.5749 44.4188 45.5345 45.7414 45.4891 47.2411C45.4652 48.0338 45.4397 48.8762 45.2216 49.6747C45.1932 49.7785 45.1668 49.8806 45.1405 49.9803C44.9118 50.848 44.7248 51.5547 43.9598 51.9833C43.2934 52.3565 42.7601 52.2179 42.0653 52.037C41.9976 52.0194 41.9283 52.0013 41.8573 51.9833C40.785 51.7117 39.961 50.5468 39.3759 49.3339C39.3132 49.2041 39.2822 49.061 39.2821 48.9169V17.3212C39.2821 16.769 39.7299 16.3213 40.2821 16.3212H72.6014C73.5751 15.6315 74.4129 14.7421 74.6307 13.6503C74.8275 12.6641 75.0309 11.9595 74.6083 11.0643C74.1151 10.02 73.2791 9.8638 72.2557 9.536C69.9098 8.7846 67.2111 10.0195 66.3895 7.52819C65.407 4.54811 69.0998 2.8171 71.7186 1.52233Z" fill="#A8E6F1"/>
<ellipse cx="70.6486" cy="41.4336" rx="2.37362" ry="7.5828" fill="black"/>
<path d="M72.9562 30.6855C73.158 31.4298 71.3704 31.1931 69.4143 31.8192C67.4583 32.4454 66.0743 33.6973 65.8725 32.953C65.6707 32.2086 67.0929 31.0976 69.0489 30.4715C71.005 29.8453 72.7543 29.9411 72.9562 30.6855Z" fill="black"/>
<path d="M92.9438 32.6479C92.7788 33.4029 91.3354 32.2331 89.3513 31.7213C87.3672 31.2096 85.5939 31.5497 85.7588 30.7948C85.9237 30.0398 87.6658 29.8426 89.6499 30.3543C91.634 30.866 93.1087 31.8929 92.9438 32.6479Z" fill="black"/>
<ellipse cx="88.6501" cy="41.4336" rx="2.37362" ry="7.5828" fill="black"/>
<path d="M64.78 58.866C64.4482 58.5954 64.5694 58.4634 64.5694 58.4634C64.5694 58.4634 64.641 58.6072 64.78 58.866C65.3185 59.3052 67.0503 60.1097 72.4302 61.3077C78.0743 62.5646 93.1611 60.4619 93.1611 60.4619C93.1611 60.4619 85.2425 73.7064 79.2188 72.365C71.4773 70.641 65.9083 60.967 64.78 58.866Z" fill="black"/>
<path d="M15 48.0001L52.2706 74.7926" stroke="black"/>
<path d="M111.483 60.6383C111.483 60.6383 117.759 72.6386 119.942 80.921C122.951 92.3412 122.284 110.916 122.284 110.916" stroke="black"/>
<line y1="-0.3" x2="2.07565" y2="-0.3" transform="matrix(0.563993 0.82578 0.83816 -0.545425 122.576 110.345)" stroke="black" stroke-width="0.6"/>
<line y1="-0.3" x2="2.07671" y2="-0.3" transform="matrix(-0.582528 0.812811 0.825834 0.563913 122.576 110.345)" stroke="black" stroke-width="0.6"/>
<line y1="-0.35" x2="2.424" y2="-0.35" transform="matrix(0.00563127 0.999984 0.999986 -0.00536266 122.48 110.342)" stroke="black" stroke-width="0.7"/>
<path d="M4.1163 51.7365L28.2693 44.1992" stroke="#185D6D" stroke-width="4"/>
<path d="M26.6152 46.0385L23.0285 31.2369" stroke="#185D6D" stroke-width="4.5"/>
<path d="M3.39828 52.2112L23.9277 29.4317" stroke="#185D6D" stroke-width="4"/>
<path d="M2.67487 50.0764L4.07933 51.0199" stroke="#A8E6F1" stroke-width="0.5"/>
<path d="M14.1369 37.3787L15.4579 38.436" stroke="#A8E6F1" stroke-width="0.5"/>
<path d="M21.4181 29.6545L22.7572 30.6887" stroke="#A8E6F1" stroke-width="0.5"/>
<path d="M11.0278 40.3692L12.4323 41.3128" stroke="#A8E6F1" stroke-width="0.5"/>
<path d="M7.88651 44.2593L9.29097 45.2028" stroke="#A8E6F1" stroke-width="0.5"/>
<path d="M4.78101 47.1499L6.18547 48.0934" stroke="#A8E6F1" stroke-width="0.5"/>
<path d="M18.2775 33.5245L19.5985 34.5817" stroke="#A8E6F1" stroke-width="0.5"/>
<g clip-path="url(#clip0_4096_6195)">
<path d="M112.398 113.606C112.416 113.555 112.275 113.281 112.196 113.197C111.601 112.566 109.773 111.01 107.656 111.997C107.028 112.29 106.324 113.386 104.829 113.553C104.412 113.599 103.68 112.927 103.271 113.034C103.145 113.067 103.399 113.459 103.531 113.568C105.426 115.132 107.564 116.932 109.612 116.401C110.938 116.059 113.106 115.197 112.4 113.604" fill="#A8E6F1"/>
<path d="M108.369 115.857C108.036 115.785 107.855 115.53 107.829 115.205C107.789 114.736 107.958 114.796 107.296 114.495C107.007 114.364 106.955 114.074 106.897 113.81C106.85 113.599 107.024 113.276 107.18 113.137C107.219 113.102 107.244 113.082 107.268 113.064C107.277 113.006 107.293 112.95 107.316 112.897C107.381 112.724 107.529 112.584 107.689 112.496C107.741 112.468 107.573 112.327 107.369 112.178C106.801 112.596 106.102 113.41 104.828 113.553C104.412 113.599 103.68 112.927 103.271 113.034C103.144 113.067 103.399 113.459 103.531 113.567C105.425 115.132 107.564 116.931 109.612 116.4L109.636 116.395C109.306 116.141 108.881 115.968 108.37 115.855" fill="#185D6D"/>
<path d="M125.468 109.759C117.721 110.892 111.556 112.606 111.701 113.587C111.845 114.57 118.242 114.449 125.99 113.315C133.737 112.184 139.901 110.469 139.758 109.486C139.614 108.505 133.216 108.627 125.468 109.759Z" fill="#185D6D"/>
</g>
<defs>
<clipPath id="clip0_4096_6195">
<rect width="26.2481" height="26.2481" fill="white" transform="translate(119.578 93) rotate(39.1682)"/>
</clipPath>
</defs>
</svg>
