<svg width="159" height="150" viewBox="0 0 159 150" fill="none" xmlns="http://www.w3.org/2000/svg">
<path d="M97 94L97.385 148.744" stroke="black"/>
<path d="M101.653 149.334C101.653 150.312 99.7417 149.924 97.3833 149.924C95.025 149.924 93.1132 150.312 93.1132 149.334C93.1132 148.356 95.025 147.563 97.3833 147.563C99.7417 147.563 101.653 148.356 101.653 149.334Z" fill="black"/>
<path d="M78.6989 95.621V147.563" stroke="black"/>
<path d="M82.4365 148.744C82.4365 149.722 80.5247 149.334 78.1664 149.334C75.808 149.334 73.8962 149.722 73.8962 148.744C73.8962 147.766 75.808 146.973 78.1664 146.973C80.5247 146.973 82.4365 147.766 82.4365 148.744Z" fill="black"/>
<path d="M80.7186 1.52233C85.1389 -0.663151 90.1753 -0.457383 94.5253 1.8944C96.911 3.18421 99.7027 4.52777 98.7821 7.2821C98.0406 9.50024 95.7471 8.92042 93.6542 9.40612C92.4868 9.6771 91.1908 9.68547 90.6259 10.9901C90.2314 11.9012 90.4546 12.5898 90.6483 13.577C90.8369 14.5382 91.4922 15.5274 92.1493 16.3212H127.282C127.834 16.3212 128.282 16.7689 128.282 17.3212V95.3212C128.282 95.8734 127.834 96.3212 127.282 96.3212H93.5995C93.3225 96.3211 93.0561 96.2075 92.8739 95.9989C92.2033 95.2313 91.4721 94.2055 91.2831 93.2176C91.2621 93.1082 91.2413 93.0026 91.2206 92.9003C91.0701 92.1573 90.9532 91.5813 91.2792 90.8514C91.7218 89.8606 92.6287 89.6974 93.5448 89.5321C93.7278 89.4991 93.9115 89.4654 94.0917 89.4257C94.6142 89.3103 95.1496 89.2655 95.6669 89.2225C97.0701 89.1059 98.3398 89.0005 98.8514 87.5223C99.6804 85.1263 97.3753 83.878 95.2518 82.7284C95.1492 82.6728 95.0466 82.6176 94.9452 82.5624C90.9343 80.3782 86.2744 80.1509 82.1698 82.1161C82.1074 82.146 82.044 82.1765 81.9803 82.2069C79.5645 83.3613 76.3323 84.9062 77.2001 87.5692C77.6871 89.0638 78.9277 89.1062 80.3339 89.1542C81.0771 89.1795 81.8671 89.2063 82.6161 89.4501C82.7136 89.4818 82.8095 89.5124 82.9032 89.5419C83.7172 89.7975 84.3807 90.0054 84.7841 90.8651C85.1356 91.6144 85.006 92.2156 84.8378 92.9979C84.8214 93.0739 84.8046 93.1516 84.788 93.2313C84.5116 94.5528 83.2307 95.5419 81.9852 96.2098C81.8461 96.2844 81.6899 96.3212 81.5321 96.3212H49.2821C48.73 96.321 48.2822 95.8733 48.2821 95.3212V61.1024C48.2821 60.8488 48.3773 60.6031 48.5565 60.4237C49.2166 59.7632 50.0515 59.0932 50.8573 58.91C50.9545 58.8879 51.0486 58.8655 51.1395 58.8436L51.6112 58.7382C52.0643 58.6527 52.4739 58.6483 52.9598 58.91C53.8395 59.3839 53.9836 60.3508 54.1288 61.328C54.1578 61.5233 54.1865 61.7197 54.2216 61.912C54.3231 62.4695 54.3621 63.0408 54.3993 63.5926C54.5002 65.0894 54.5915 66.4436 55.9042 66.9921C58.0321 67.8809 59.146 65.4245 60.1718 63.162C60.2213 63.0526 60.2709 62.9438 60.3202 62.8358C62.2689 58.5626 62.4787 53.5939 60.7401 49.2128L60.66 49.0106C59.6387 46.432 58.2726 42.9818 55.9042 43.9022C54.5749 44.4188 54.5345 45.7414 54.4891 47.2411C54.4652 48.0338 54.4397 48.8762 54.2216 49.6747C54.1932 49.7785 54.1668 49.8806 54.1405 49.9803C53.9118 50.848 53.7248 51.5547 52.9598 51.9833C52.2934 52.3565 51.7601 52.2179 51.0653 52.037C50.9976 52.0194 50.9283 52.0013 50.8573 51.9833C49.785 51.7117 48.961 50.5468 48.3759 49.3339C48.3132 49.2041 48.2822 49.061 48.2821 48.9169V17.3212C48.2821 16.769 48.7299 16.3213 49.2821 16.3212H81.6014C82.5751 15.6315 83.4129 14.7421 83.6307 13.6503C83.8275 12.6641 84.0309 11.9595 83.6083 11.0643C83.1151 10.02 82.2791 9.8638 81.2557 9.536C78.9098 8.7846 76.2111 10.0195 75.3895 7.52819C74.407 4.54811 78.0998 2.8171 80.7186 1.52233Z" fill="#A8E6F1"/>
<ellipse cx="79.6486" cy="41.4336" rx="2.37362" ry="7.5828" fill="black"/>
<path d="M81.9562 30.6855C82.158 31.4298 80.3704 31.1931 78.4143 31.8192C76.4583 32.4454 75.0743 33.6973 74.8725 32.953C74.6707 32.2086 76.0929 31.0976 78.0489 30.4715C80.005 29.8453 81.7543 29.9411 81.9562 30.6855Z" fill="black"/>
<path d="M101.944 32.6479C101.779 33.4029 100.335 32.2331 98.3513 31.7213C96.3672 31.2096 94.5939 31.5497 94.7588 30.7948C94.9237 30.0398 96.6658 29.8426 98.6499 30.3543C100.634 30.866 102.109 31.8929 101.944 32.6479Z" fill="black"/>
<ellipse cx="97.6501" cy="41.4336" rx="2.37362" ry="7.5828" fill="black"/>
<path d="M73.78 58.866C73.4482 58.5954 73.5694 58.4634 73.5694 58.4634C73.5694 58.4634 73.641 58.6072 73.78 58.866C74.3185 59.3052 76.0503 60.1097 81.4302 61.3077C87.0743 62.5646 102.161 60.4619 102.161 60.4619C102.161 60.4619 94.2425 73.7064 88.2188 72.365C80.4773 70.641 74.9083 60.967 73.78 58.866Z" fill="black"/>
<path d="M16.7922 88.0975L61.2706 74.7926" stroke="black"/>
<path d="M125.197 76.6383C125.197 76.6383 132.764 70.506 135.395 66.2735C139.024 60.4375 138.219 50.9452 138.219 50.9452" stroke="black"/>
<line y1="-0.3" x2="1.66113" y2="-0.3" transform="matrix(0.849682 -0.527295 0.964005 0.265885 138.572 51.2372)" stroke="black" stroke-width="0.6"/>
<line y1="-0.3" x2="1.69454" y2="-0.3" transform="matrix(-0.860743 -0.509041 0.960578 -0.278009 138.572 51.2372)" stroke="black" stroke-width="0.6"/>
<line y1="-0.35" x2="1.23879" y2="-0.35" transform="matrix(0.0132852 -0.999912 0.999997 0.00227296 138.456 51.2388)" stroke="black" stroke-width="0.7"/>
<path d="M145.672 65.152L148.498 62.2203L132.173 40.1041L130.306 41.423L145.672 65.152Z" fill="#185D6D"/>
<ellipse cx="2.5" cy="8.5" rx="2.5" ry="8.5" transform="matrix(-0.549422 0.835545 0.835545 0.549422 130.492 24)" fill="black"/>
<path d="M130.552 29.369C133.698 30.7653 138.287 33.6835 140.161 35.6874C137.693 40.1797 134.843 41.6462 134.419 47.1487C128.722 44.7106 126.504 43.0204 122.405 39.0284C125.152 34.8507 127.823 33.4266 130.552 29.369Z" fill="#185D6D"/>
<path d="M125.684 53.1528C127.166 53.868 124.004 52.4454 126.342 47.6015C128.68 42.7576 134.749 46.8862 133.267 46.1709C131.785 45.4556 124.743 34.1845 122.405 39.0284C120.067 43.8723 124.202 52.4375 125.684 53.1528Z" fill="#185D6D"/>
<g clip-path="url(#clip0_4096_6220)">
<path d="M41.4444 149C41.3279 149 41.2143 148.963 41.1198 148.895C41.0253 148.827 40.9546 148.731 40.9178 148.62C40.5489 147.514 39.5528 146.778 35.8889 146.778C35.7415 146.778 35.6002 146.719 35.496 146.615C35.3918 146.511 35.3333 146.37 35.3333 146.222C35.3333 146.075 35.3918 145.934 35.496 145.829C35.6002 145.725 35.7415 145.667 35.8889 145.667C39.0194 145.667 41.2516 146.109 41.9711 148.269C41.9989 148.352 42.0065 148.441 41.9932 148.528C41.9799 148.615 41.9462 148.698 41.8948 148.769C41.8434 148.841 41.7757 148.899 41.6974 148.939C41.6191 148.979 41.5324 149 41.4444 149Z" fill="#A8E6F1"/>
<path d="M23.6667 130.667H35.8889V147.333H23.6667V130.667Z" fill="#A8E6F1"/>
<path d="M36.4444 131.222H23.1111C22.8056 131.222 22 129.556 22 129.556C22 129.25 22.25 129 22.5556 129H37C37.3056 129 37.5556 129.25 37.5556 129.556C37.5556 129.556 36.75 131.222 36.4444 131.222ZM36.4444 146.778H23.1111C22.8056 146.778 22 148.444 22 148.444C22 148.75 22.25 149 22.5556 149H37C37.3056 149 37.5556 148.75 37.5556 148.444C37.5556 148.444 36.75 146.778 36.4444 146.778Z" fill="#185D6D"/>
<path d="M34.7778 132.889H24.7778C24.4722 132.889 24.2222 132.639 24.2222 132.333C24.2222 132.028 24.4722 131.778 24.7778 131.778H34.7778C35.0833 131.778 35.3333 132.028 35.3333 132.333C35.3333 132.639 35.0833 132.889 34.7778 132.889ZM34.7778 135.111H24.7778C24.4722 135.111 24.2222 134.861 24.2222 134.556C24.2222 134.25 24.4722 134 24.7778 134H34.7778C35.0833 134 35.3333 134.25 35.3333 134.556C35.3333 134.861 35.0833 135.111 34.7778 135.111ZM34.7778 137.333H24.7778C24.4722 137.333 24.2222 137.083 24.2222 136.778C24.2222 136.472 24.4722 136.222 24.7778 136.222H34.7778C35.0833 136.222 35.3333 136.472 35.3333 136.778C35.3333 137.083 35.0833 137.333 34.7778 137.333ZM34.7778 139.556H24.7778C24.4722 139.556 24.2222 139.306 24.2222 139C24.2222 138.694 24.4722 138.444 24.7778 138.444H34.7778C35.0833 138.444 35.3333 138.694 35.3333 139C35.3333 139.306 35.0833 139.556 34.7778 139.556ZM34.7778 141.778H24.7778C24.4722 141.778 24.2222 141.528 24.2222 141.222C24.2222 140.917 24.4722 140.667 24.7778 140.667H34.7778C35.0833 140.667 35.3333 140.917 35.3333 141.222C35.3333 141.528 35.0833 141.778 34.7778 141.778ZM34.7778 144H24.7778C24.4722 144 24.2222 143.75 24.2222 143.444C24.2222 143.139 24.4722 142.889 24.7778 142.889H34.7778C35.0833 142.889 35.3333 143.139 35.3333 143.444C35.3333 143.75 35.0833 144 34.7778 144ZM34.7778 146.222H24.7778C24.4722 146.222 24.2222 145.972 24.2222 145.667C24.2222 145.361 24.4722 145.111 24.7778 145.111H34.7778C35.0833 145.111 35.3333 145.361 35.3333 145.667C35.3333 145.972 35.0833 146.222 34.7778 146.222Z" fill="#A8E6F1"/>
<path d="M31.5895 132.889H26.2995C26.1906 132.889 26.0863 132.845 26.0093 132.769C25.9324 132.692 25.8891 132.587 25.8889 132.478V132.188C25.8891 132.08 25.9324 131.975 26.0093 131.898C26.0863 131.821 26.1906 131.778 26.2995 131.778H31.59C31.6988 131.778 31.803 131.821 31.8798 131.898C31.9567 131.975 31.9999 132.08 32 132.188V132.479C31.9997 132.588 31.9564 132.692 31.8794 132.769C31.8025 132.846 31.6982 132.889 31.5895 132.889ZM31.5895 135.111H26.2995C26.1906 135.111 26.0863 135.068 26.0093 134.991C25.9324 134.914 25.8891 134.809 25.8889 134.701V134.411C25.8891 134.302 25.9324 134.197 26.0093 134.12C26.0863 134.044 26.1906 134 26.2995 134H31.59C31.6988 134 31.803 134.044 31.8798 134.121C31.9567 134.198 31.9999 134.302 32 134.411V134.701C31.9997 134.81 31.9564 134.914 31.8794 134.991C31.8025 135.068 31.6982 135.111 31.5895 135.111ZM31.5895 137.333H26.2995C26.1906 137.333 26.0863 137.29 26.0093 137.213C25.9324 137.136 25.8891 137.032 25.8889 136.923V136.632C25.8892 136.524 25.9326 136.419 26.0095 136.342C26.0865 136.266 26.1907 136.222 26.2995 136.222H31.59C31.6988 136.223 31.803 136.266 31.8798 136.343C31.9567 136.42 31.9999 136.524 32 136.633V136.923C31.9997 137.032 31.9564 137.136 31.8794 137.213C31.8025 137.29 31.6982 137.333 31.5895 137.333ZM31.5895 139.556H26.2995C26.1906 139.555 26.0863 139.512 26.0093 139.435C25.9324 139.358 25.8891 139.254 25.8889 139.145V138.854C25.8892 138.746 25.9326 138.642 26.0095 138.565C26.0865 138.488 26.1907 138.445 26.2995 138.444H31.59C31.6988 138.445 31.803 138.488 31.8798 138.565C31.9567 138.642 31.9999 138.746 32 138.855V139.146C31.9997 139.254 31.9564 139.359 31.8794 139.435C31.8025 139.512 31.6982 139.555 31.5895 139.556ZM31.5895 141.778H26.2995C26.1906 141.778 26.0863 141.734 26.0093 141.657C25.9324 141.58 25.8891 141.476 25.8889 141.367V141.077C25.8892 140.968 25.9326 140.864 26.0095 140.787C26.0865 140.71 26.1907 140.667 26.2995 140.667H31.59C31.6988 140.667 31.803 140.71 31.8798 140.787C31.9567 140.864 31.9999 140.969 32 141.077V141.368C31.9997 141.477 31.9564 141.581 31.8794 141.658C31.8025 141.734 31.6982 141.778 31.5895 141.778ZM31.5895 144H26.2995C26.1906 144 26.0863 143.957 26.0093 143.88C25.9324 143.803 25.8891 143.698 25.8889 143.589V143.299C25.8892 143.19 25.9326 143.086 26.0095 143.009C26.0865 142.932 26.1907 142.889 26.2995 142.889H31.59C31.6988 142.889 31.803 142.933 31.8798 143.01C31.9567 143.086 31.9999 143.191 32 143.299V143.59C31.9997 143.699 31.9564 143.803 31.8794 143.88C31.8025 143.957 31.6982 144 31.5895 144ZM31.5895 146.222H26.2995C26.1906 146.222 26.0863 146.179 26.0093 146.102C25.9324 146.025 25.8891 145.921 25.8889 145.812V145.521C25.8892 145.412 25.9326 145.308 26.0095 145.231C26.0865 145.155 26.1907 145.111 26.2995 145.111H31.59C31.6988 145.111 31.803 145.155 31.8798 145.232C31.9567 145.309 31.9999 145.413 32 145.522V145.812C31.9997 145.921 31.9564 146.025 31.8794 146.102C31.8025 146.179 31.6982 146.222 31.5895 146.222Z" fill="#A8E6F1"/>
</g>
<g clip-path="url(#clip1_4096_6220)">
<path d="M58.4444 149C58.3279 149 58.2143 148.963 58.1198 148.895C58.0253 148.827 57.9546 148.731 57.9178 148.62C57.5489 147.514 56.5528 146.778 52.8889 146.778C52.7415 146.778 52.6002 146.719 52.496 146.615C52.3918 146.511 52.3333 146.37 52.3333 146.222C52.3333 146.075 52.3918 145.934 52.496 145.829C52.6002 145.725 52.7415 145.667 52.8889 145.667C56.0194 145.667 58.2516 146.109 58.9711 148.269C58.9989 148.352 59.0065 148.441 58.9932 148.528C58.9799 148.615 58.9462 148.698 58.8948 148.769C58.8434 148.841 58.7757 148.899 58.6974 148.939C58.6191 148.979 58.5324 149 58.4444 149Z" fill="#A8E6F1"/>
<path d="M40.6667 130.667H52.8889V147.333H40.6667V130.667Z" fill="#A8E6F1"/>
<path d="M53.4444 131.222H40.1111C39.8056 131.222 39 129.556 39 129.556C39 129.25 39.25 129 39.5556 129H54C54.3056 129 54.5556 129.25 54.5556 129.556C54.5556 129.556 53.75 131.222 53.4444 131.222ZM53.4444 146.778H40.1111C39.8056 146.778 39 148.444 39 148.444C39 148.75 39.25 149 39.5556 149H54C54.3056 149 54.5556 148.75 54.5556 148.444C54.5556 148.444 53.75 146.778 53.4444 146.778Z" fill="#185D6D"/>
<path d="M51.7778 132.889H41.7778C41.4722 132.889 41.2222 132.639 41.2222 132.333C41.2222 132.028 41.4722 131.778 41.7778 131.778H51.7778C52.0833 131.778 52.3333 132.028 52.3333 132.333C52.3333 132.639 52.0833 132.889 51.7778 132.889ZM51.7778 135.111H41.7778C41.4722 135.111 41.2222 134.861 41.2222 134.556C41.2222 134.25 41.4722 134 41.7778 134H51.7778C52.0833 134 52.3333 134.25 52.3333 134.556C52.3333 134.861 52.0833 135.111 51.7778 135.111ZM51.7778 137.333H41.7778C41.4722 137.333 41.2222 137.083 41.2222 136.778C41.2222 136.472 41.4722 136.222 41.7778 136.222H51.7778C52.0833 136.222 52.3333 136.472 52.3333 136.778C52.3333 137.083 52.0833 137.333 51.7778 137.333ZM51.7778 139.556H41.7778C41.4722 139.556 41.2222 139.306 41.2222 139C41.2222 138.694 41.4722 138.444 41.7778 138.444H51.7778C52.0833 138.444 52.3333 138.694 52.3333 139C52.3333 139.306 52.0833 139.556 51.7778 139.556ZM51.7778 141.778H41.7778C41.4722 141.778 41.2222 141.528 41.2222 141.222C41.2222 140.917 41.4722 140.667 41.7778 140.667H51.7778C52.0833 140.667 52.3333 140.917 52.3333 141.222C52.3333 141.528 52.0833 141.778 51.7778 141.778ZM51.7778 144H41.7778C41.4722 144 41.2222 143.75 41.2222 143.444C41.2222 143.139 41.4722 142.889 41.7778 142.889H51.7778C52.0833 142.889 52.3333 143.139 52.3333 143.444C52.3333 143.75 52.0833 144 51.7778 144ZM51.7778 146.222H41.7778C41.4722 146.222 41.2222 145.972 41.2222 145.667C41.2222 145.361 41.4722 145.111 41.7778 145.111H51.7778C52.0833 145.111 52.3333 145.361 52.3333 145.667C52.3333 145.972 52.0833 146.222 51.7778 146.222Z" fill="#A8E6F1"/>
<path d="M48.5895 132.889H43.2995C43.1906 132.889 43.0863 132.845 43.0093 132.769C42.9324 132.692 42.8891 132.587 42.8889 132.478V132.188C42.8891 132.08 42.9324 131.975 43.0093 131.898C43.0863 131.821 43.1906 131.778 43.2995 131.778H48.59C48.6988 131.778 48.803 131.821 48.8798 131.898C48.9567 131.975 48.9999 132.08 49 132.188V132.479C48.9997 132.588 48.9564 132.692 48.8794 132.769C48.8025 132.846 48.6982 132.889 48.5895 132.889ZM48.5895 135.111H43.2995C43.1906 135.111 43.0863 135.068 43.0093 134.991C42.9324 134.914 42.8891 134.809 42.8889 134.701V134.411C42.8891 134.302 42.9324 134.197 43.0093 134.12C43.0863 134.044 43.1906 134 43.2995 134H48.59C48.6988 134 48.803 134.044 48.8798 134.121C48.9567 134.198 48.9999 134.302 49 134.411V134.701C48.9997 134.81 48.9564 134.914 48.8794 134.991C48.8025 135.068 48.6982 135.111 48.5895 135.111ZM48.5895 137.333H43.2995C43.1906 137.333 43.0863 137.29 43.0093 137.213C42.9324 137.136 42.8891 137.032 42.8889 136.923V136.632C42.8892 136.524 42.9326 136.419 43.0095 136.342C43.0865 136.266 43.1907 136.222 43.2995 136.222H48.59C48.6988 136.223 48.803 136.266 48.8798 136.343C48.9567 136.42 48.9999 136.524 49 136.633V136.923C48.9997 137.032 48.9564 137.136 48.8794 137.213C48.8025 137.29 48.6982 137.333 48.5895 137.333ZM48.5895 139.556H43.2995C43.1906 139.555 43.0863 139.512 43.0093 139.435C42.9324 139.358 42.8891 139.254 42.8889 139.145V138.854C42.8892 138.746 42.9326 138.642 43.0095 138.565C43.0865 138.488 43.1907 138.445 43.2995 138.444H48.59C48.6988 138.445 48.803 138.488 48.8798 138.565C48.9567 138.642 48.9999 138.746 49 138.855V139.146C48.9997 139.254 48.9564 139.359 48.8794 139.435C48.8025 139.512 48.6982 139.555 48.5895 139.556ZM48.5895 141.778H43.2995C43.1906 141.778 43.0863 141.734 43.0093 141.657C42.9324 141.58 42.8891 141.476 42.8889 141.367V141.077C42.8892 140.968 42.9326 140.864 43.0095 140.787C43.0865 140.71 43.1907 140.667 43.2995 140.667H48.59C48.6988 140.667 48.803 140.71 48.8798 140.787C48.9567 140.864 48.9999 140.969 49 141.077V141.368C48.9997 141.477 48.9564 141.581 48.8794 141.658C48.8025 141.734 48.6982 141.778 48.5895 141.778ZM48.5895 144H43.2995C43.1906 144 43.0863 143.957 43.0093 143.88C42.9324 143.803 42.8891 143.698 42.8889 143.589V143.299C42.8892 143.19 42.9326 143.086 43.0095 143.009C43.0865 142.932 43.1907 142.889 43.2995 142.889H48.59C48.6988 142.889 48.803 142.933 48.8798 143.01C48.9567 143.086 48.9999 143.191 49 143.299V143.59C48.9997 143.699 48.9564 143.803 48.8794 143.88C48.8025 143.957 48.6982 144 48.5895 144ZM48.5895 146.222H43.2995C43.1906 146.222 43.0863 146.179 43.0093 146.102C42.9324 146.025 42.8891 145.921 42.8889 145.812V145.521C42.8892 145.412 42.9326 145.308 43.0095 145.231C43.0865 145.155 43.1907 145.111 43.2995 145.111H48.59C48.6988 145.111 48.803 145.155 48.8798 145.232C48.9567 145.309 48.9999 145.413 49 145.522V145.812C48.9997 145.921 48.9564 146.025 48.8794 146.102C48.8025 146.179 48.6982 146.222 48.5895 146.222Z" fill="#A8E6F1"/>
</g>
<g clip-path="url(#clip2_4096_6220)">
<path d="M52.4444 129C52.3279 129 52.2143 128.963 52.1198 128.895C52.0253 128.827 51.9546 128.731 51.9178 128.62C51.5489 127.514 50.5528 126.778 46.8889 126.778C46.7415 126.778 46.6002 126.719 46.496 126.615C46.3918 126.511 46.3333 126.37 46.3333 126.222C46.3333 126.075 46.3918 125.934 46.496 125.829C46.6002 125.725 46.7415 125.667 46.8889 125.667C50.0194 125.667 52.2516 126.109 52.9711 128.269C52.9989 128.352 53.0065 128.441 52.9932 128.528C52.9799 128.615 52.9462 128.698 52.8948 128.769C52.8434 128.841 52.7757 128.899 52.6974 128.939C52.6191 128.979 52.5324 129 52.4444 129Z" fill="#A8E6F1"/>
<path d="M34.6667 110.667H46.8889V127.333H34.6667V110.667Z" fill="#A8E6F1"/>
<path d="M47.4444 111.222H34.1111C33.8056 111.222 33 109.556 33 109.556C33 109.25 33.25 109 33.5556 109H48C48.3056 109 48.5556 109.25 48.5556 109.556C48.5556 109.556 47.75 111.222 47.4444 111.222ZM47.4444 126.778H34.1111C33.8056 126.778 33 128.444 33 128.444C33 128.75 33.25 129 33.5556 129H48C48.3056 129 48.5556 128.75 48.5556 128.444C48.5556 128.444 47.75 126.778 47.4444 126.778Z" fill="#185D6D"/>
<path d="M45.7778 112.889H35.7778C35.4722 112.889 35.2222 112.639 35.2222 112.333C35.2222 112.028 35.4722 111.778 35.7778 111.778H45.7778C46.0833 111.778 46.3333 112.028 46.3333 112.333C46.3333 112.639 46.0833 112.889 45.7778 112.889ZM45.7778 115.111H35.7778C35.4722 115.111 35.2222 114.861 35.2222 114.556C35.2222 114.25 35.4722 114 35.7778 114H45.7778C46.0833 114 46.3333 114.25 46.3333 114.556C46.3333 114.861 46.0833 115.111 45.7778 115.111ZM45.7778 117.333H35.7778C35.4722 117.333 35.2222 117.083 35.2222 116.778C35.2222 116.472 35.4722 116.222 35.7778 116.222H45.7778C46.0833 116.222 46.3333 116.472 46.3333 116.778C46.3333 117.083 46.0833 117.333 45.7778 117.333ZM45.7778 119.556H35.7778C35.4722 119.556 35.2222 119.306 35.2222 119C35.2222 118.694 35.4722 118.444 35.7778 118.444H45.7778C46.0833 118.444 46.3333 118.694 46.3333 119C46.3333 119.306 46.0833 119.556 45.7778 119.556ZM45.7778 121.778H35.7778C35.4722 121.778 35.2222 121.528 35.2222 121.222C35.2222 120.917 35.4722 120.667 35.7778 120.667H45.7778C46.0833 120.667 46.3333 120.917 46.3333 121.222C46.3333 121.528 46.0833 121.778 45.7778 121.778ZM45.7778 124H35.7778C35.4722 124 35.2222 123.75 35.2222 123.444C35.2222 123.139 35.4722 122.889 35.7778 122.889H45.7778C46.0833 122.889 46.3333 123.139 46.3333 123.444C46.3333 123.75 46.0833 124 45.7778 124ZM45.7778 126.222H35.7778C35.4722 126.222 35.2222 125.972 35.2222 125.667C35.2222 125.361 35.4722 125.111 35.7778 125.111H45.7778C46.0833 125.111 46.3333 125.361 46.3333 125.667C46.3333 125.972 46.0833 126.222 45.7778 126.222Z" fill="#A8E6F1"/>
<path d="M42.5895 112.889H37.2995C37.1906 112.889 37.0863 112.845 37.0093 112.769C36.9324 112.692 36.8891 112.587 36.8889 112.478V112.188C36.8891 112.08 36.9324 111.975 37.0093 111.898C37.0863 111.821 37.1906 111.778 37.2995 111.778H42.59C42.6988 111.778 42.803 111.821 42.8798 111.898C42.9567 111.975 42.9999 112.08 43 112.188V112.479C42.9997 112.588 42.9564 112.692 42.8794 112.769C42.8025 112.846 42.6982 112.889 42.5895 112.889ZM42.5895 115.111H37.2995C37.1906 115.111 37.0863 115.068 37.0093 114.991C36.9324 114.914 36.8891 114.809 36.8889 114.701V114.411C36.8891 114.302 36.9324 114.197 37.0093 114.12C37.0863 114.044 37.1906 114 37.2995 114H42.59C42.6988 114 42.803 114.044 42.8798 114.121C42.9567 114.198 42.9999 114.302 43 114.411V114.701C42.9997 114.81 42.9564 114.914 42.8794 114.991C42.8025 115.068 42.6982 115.111 42.5895 115.111ZM42.5895 117.333H37.2995C37.1906 117.333 37.0863 117.29 37.0093 117.213C36.9324 117.136 36.8891 117.032 36.8889 116.923V116.632C36.8892 116.524 36.9326 116.419 37.0095 116.342C37.0865 116.266 37.1907 116.222 37.2995 116.222H42.59C42.6988 116.223 42.803 116.266 42.8798 116.343C42.9567 116.42 42.9999 116.524 43 116.633V116.923C42.9997 117.032 42.9564 117.136 42.8794 117.213C42.8025 117.29 42.6982 117.333 42.5895 117.333ZM42.5895 119.556H37.2995C37.1906 119.555 37.0863 119.512 37.0093 119.435C36.9324 119.358 36.8891 119.254 36.8889 119.145V118.854C36.8892 118.746 36.9326 118.642 37.0095 118.565C37.0865 118.488 37.1907 118.445 37.2995 118.444H42.59C42.6988 118.445 42.803 118.488 42.8798 118.565C42.9567 118.642 42.9999 118.746 43 118.855V119.146C42.9997 119.254 42.9564 119.359 42.8794 119.435C42.8025 119.512 42.6982 119.555 42.5895 119.556ZM42.5895 121.778H37.2995C37.1906 121.778 37.0863 121.734 37.0093 121.657C36.9324 121.58 36.8891 121.476 36.8889 121.367V121.077C36.8892 120.968 36.9326 120.864 37.0095 120.787C37.0865 120.71 37.1907 120.667 37.2995 120.667H42.59C42.6988 120.667 42.803 120.71 42.8798 120.787C42.9567 120.864 42.9999 120.969 43 121.077V121.368C42.9997 121.477 42.9564 121.581 42.8794 121.658C42.8025 121.734 42.6982 121.778 42.5895 121.778ZM42.5895 124H37.2995C37.1906 124 37.0863 123.957 37.0093 123.88C36.9324 123.803 36.8891 123.698 36.8889 123.589V123.299C36.8892 123.19 36.9326 123.086 37.0095 123.009C37.0865 122.932 37.1907 122.889 37.2995 122.889H42.59C42.6988 122.889 42.803 122.933 42.8798 123.01C42.9567 123.086 42.9999 123.191 43 123.299V123.59C42.9997 123.699 42.9564 123.803 42.8794 123.88C42.8025 123.957 42.6982 124 42.5895 124ZM42.5895 126.222H37.2995C37.1906 126.222 37.0863 126.179 37.0093 126.102C36.9324 126.025 36.8891 125.921 36.8889 125.812V125.521C36.8892 125.412 36.9326 125.308 37.0095 125.231C37.0865 125.155 37.1907 125.111 37.2995 125.111H42.59C42.6988 125.111 42.803 125.155 42.8798 125.232C42.9567 125.309 42.9999 125.413 43 125.522V125.812C42.9997 125.921 42.9564 126.025 42.8794 126.102C42.8025 126.179 42.6982 126.222 42.5895 126.222Z" fill="#A8E6F1"/>
</g>
<path d="M20.1183 90.4428L16.8614 81.8224C16.6778 81.4432 16.3526 81.1513 15.9559 81.0095C15.5592 80.8677 15.1227 80.8874 14.7403 81.0644C14.358 81.2414 14.0605 81.5614 13.9118 81.9556C13.7632 82.3498 13.7753 82.7866 13.9456 83.1719L24.5417 102.244L21.0262 92.8566" stroke="#185D6D" stroke-width="0.5" stroke-linecap="round" stroke-linejoin="round"/>
<path d="M16.4963 83.5876C16.5376 83.9496 16.4549 84.2385 16.2526 84.3323C15.9315 84.4811 15.429 84.0796 15.1311 83.4355C14.8332 82.7913 14.8522 82.1489 15.1736 82.0003C15.2423 81.9696 15.3188 81.9611 15.3926 81.9758" stroke="#185D6D" stroke-width="0.5" stroke-linecap="round" stroke-linejoin="round"/>
<path d="M15.0428 83.2187C15.2455 83.0799 15.4589 82.9596 15.6828 82.8578C16.5944 82.4158 17.6136 82.2441 18.6197 82.3631C19.6258 82.482 20.5768 82.8865 21.3602 83.5289C21.3602 83.5289 24.2215 85.8057 22.5477 89.1513C21.0143 92.2163 15.4005 95.0983 17.0796 101.696M13.1848 88.812C13.1848 88.812 12.6314 85.757 14.3235 83.8527" stroke="#185D6D" stroke-width="0.5" stroke-linecap="round" stroke-linejoin="round"/>
<path d="M20.5832 88.5054L19.2792 84.8555C19.2792 84.8555 23.3829 85.1772 20.5832 88.5054Z" fill="white"/>
<path d="M14.5596 80.6735C14.0751 80.9004 13.7006 81.3105 13.5184 81.8135C13.3362 82.3165 13.3611 82.8712 13.5878 83.3558L13.5932 83.3679L24.1891 102.439C24.2384 102.528 24.3196 102.595 24.4163 102.627C24.5131 102.659 24.6182 102.652 24.7106 102.61C24.803 102.567 24.8758 102.491 24.9144 102.397C24.9529 102.302 24.9544 102.197 24.9184 102.102L17.2384 81.6808L17.2268 81.6531C17.0025 81.17 16.5957 80.7956 16.0957 80.6119C15.5957 80.4283 15.0433 80.4504 14.5596 80.6735ZM15.9298 83.0661C16.0819 83.3358 16.1345 83.6505 16.0782 83.955C15.8099 83.8007 15.6043 83.557 15.4973 83.2665C15.3452 82.9969 15.2926 82.6825 15.3486 82.378C15.6165 82.5327 15.8221 82.7761 15.9298 83.0661Z" fill="#185D6D"/>
<path d="M20.1183 90.4428L16.8614 81.8224C16.6778 81.4432 16.3526 81.1513 15.9559 81.0095C15.5592 80.8677 15.1227 80.8874 14.7403 81.0644C14.358 81.2414 14.0605 81.5614 13.9118 81.9556C13.7632 82.3498 13.7753 82.7866 13.9456 83.1719L24.5417 102.244L21.0262 92.8566" stroke="#185D6D" stroke-width="0.5" stroke-linecap="round" stroke-linejoin="round"/>
<path d="M16.4963 83.5876C16.5376 83.9496 16.4549 84.2385 16.2526 84.3323C15.9315 84.4811 15.429 84.0796 15.1311 83.4355C14.8332 82.7913 14.8522 82.1489 15.1736 82.0003C15.2423 81.9696 15.3188 81.9611 15.3926 81.9758" stroke="#185D6D" stroke-width="0.5" stroke-linecap="round" stroke-linejoin="round"/>
<path d="M13.8378 83.8078C12.2571 85.8324 12.7639 88.7581 12.7869 88.8862C12.8059 88.9913 12.8659 89.0846 12.9537 89.1455C13.0415 89.2064 13.1499 89.23 13.255 89.2109C13.3602 89.1919 13.4535 89.1319 13.5144 89.0441C13.5753 88.9564 13.5988 88.848 13.5798 88.7428C13.5753 88.7171 13.1664 86.3229 14.2719 84.5892L13.8378 83.8078ZM15.5514 83.3762C15.6479 83.322 15.7475 83.2715 15.8502 83.2245C16.693 82.8095 17.6379 82.6471 18.5709 82.7569C19.504 82.8668 20.3853 83.2442 21.1087 83.8437C21.2148 83.9286 23.6906 85.9665 22.1873 88.9713C21.6361 89.912 20.9688 90.7797 20.2012 91.554C18.0782 93.9244 15.4373 96.8734 16.6894 101.796C16.7158 101.899 16.7823 101.988 16.8742 102.043C16.9661 102.097 17.0759 102.113 17.1794 102.087C17.283 102.06 17.3718 101.994 17.4263 101.902C17.4809 101.81 17.4966 101.7 17.4702 101.596C16.3241 97.0911 18.7018 94.435 20.8011 92.0916C21.6134 91.2617 22.3212 90.3344 22.908 89.3319C24.7068 85.7352 21.6424 83.2384 21.6328 83.2324C20.7936 82.5317 19.7695 82.0888 18.6841 81.9574C17.5988 81.8259 16.4986 82.0115 15.5163 82.4916C15.4508 82.5214 15.3859 82.5527 15.3218 82.5854C15.3259 82.8506 15.3978 83.1103 15.5306 83.3399L15.5514 83.3762Z" fill="#A8E6F1"/>
<defs>
<clipPath id="clip0_4096_6220">
<rect width="20" height="20" fill="white" transform="translate(22 129)"/>
</clipPath>
<clipPath id="clip1_4096_6220">
<rect width="20" height="20" fill="white" transform="translate(39 129)"/>
</clipPath>
<clipPath id="clip2_4096_6220">
<rect width="20" height="20" fill="white" transform="translate(33 109)"/>
</clipPath>
</defs>
</svg>
