<svg width="107" height="108" viewBox="0 0 107 108" fill="none" xmlns="http://www.w3.org/2000/svg">
<g id="Jigna Small">
<path id="Vector 9" d="M74.8906 69.6401V106.692" stroke="black"/>
<path id="Ellipse 199" d="M78.2016 107.113C78.2016 107.811 76.7197 107.534 74.8918 107.534C73.0639 107.534 71.582 107.811 71.582 107.113C71.582 106.416 73.0639 105.85 74.8918 105.85C76.7197 105.85 78.2016 106.416 78.2016 107.113Z" fill="black"/>
<path id="Vector 8" d="M60.4102 68.7983V105.85" stroke="black"/>
<path id="Ellipse 198" d="M63.307 106.692C63.307 107.39 61.8252 107.113 59.9973 107.113C58.1693 107.113 56.6875 107.39 56.6875 106.692C56.6875 105.995 58.1693 105.429 59.9973 105.429C61.8252 105.429 63.307 105.995 63.307 106.692Z" fill="black"/>
<path id="Subtract" fill-rule="evenodd" clip-rule="evenodd" d="M36.8301 13.2305C36.8301 12.6782 37.2778 12.2305 37.8301 12.2305H98.3831C98.9354 12.2305 99.3831 12.6782 99.3831 13.2305V69.482C99.3831 70.0343 98.9354 70.482 98.3831 70.482H72.0992C71.821 70.482 71.5528 70.3683 71.3743 70.1549C70.9573 69.6562 70.5713 69.0664 70.4537 68.494C70.4373 68.4143 70.4206 68.3375 70.4044 68.263C70.2867 67.722 70.1955 67.3025 70.4504 66.7711C70.7964 66.0496 71.5052 65.9305 72.2215 65.8101C72.3647 65.7861 72.5082 65.7619 72.6491 65.733C73.0578 65.6489 73.4766 65.6165 73.8812 65.5852C74.9785 65.5003 75.9708 65.4235 76.3708 64.3472C77.0194 62.6023 75.2168 61.6935 73.5563 60.8564C73.476 60.8159 73.396 60.7755 73.3166 60.7353C70.1804 59.1449 66.5373 58.9798 63.3278 60.4107C63.279 60.4325 63.2296 60.4544 63.1798 60.4766C61.2908 61.3172 58.7633 62.4419 59.4419 64.3811C59.8228 65.4695 60.7928 65.5003 61.8924 65.5353C62.4736 65.5537 63.091 65.5734 63.6768 65.7509C63.7531 65.774 63.828 65.7959 63.9013 65.8174C64.5378 66.0035 65.0563 66.1551 65.3717 66.7812C65.6465 67.3268 65.5455 67.7641 65.414 68.3337C65.4012 68.3892 65.3881 68.4459 65.375 68.5041C65.2025 69.2722 64.5294 69.886 63.7695 70.3498C63.623 70.4392 63.4535 70.482 63.2819 70.482H37.8301C37.2778 70.482 36.8301 70.0343 36.8301 69.482V45.7649C36.8301 45.5458 36.901 45.3332 37.0429 45.1663C37.4941 44.6353 38.5904 43.4606 39.6252 43.2415C39.7013 43.2254 39.7746 43.209 39.8457 43.193L39.8458 43.193C40.3623 43.0772 40.7627 42.9873 41.2694 43.2415C41.9573 43.5866 42.0696 44.2907 42.1832 45.0023L42.1832 45.0024C42.2058 45.1446 42.2286 45.2871 42.256 45.4271C42.3354 45.8332 42.3655 46.2492 42.3946 46.6511C42.4736 47.7409 42.5449 48.7266 43.5713 49.126C45.2353 49.7734 46.106 47.985 46.9081 46.3375C46.947 46.2578 46.9856 46.1784 47.0242 46.0996C48.5479 42.9881 48.7125 39.3703 47.353 36.1801L47.2904 36.033C46.4918 34.1554 45.4232 31.643 43.5713 32.3132C42.5319 32.6894 42.5006 33.6527 42.4652 34.7447C42.4464 35.3219 42.4265 35.935 42.256 36.5164C42.2337 36.5922 42.2127 36.6665 42.1921 36.7393C42.0132 37.3711 41.8676 37.8856 41.2694 38.1977C40.7482 38.4696 40.3312 38.3685 39.7878 38.2367C39.7349 38.2239 39.6808 38.2108 39.6252 38.1977C37.9294 37.7978 37.0277 34.7367 36.8592 34.1074C36.8388 34.0313 36.8301 33.9547 36.8301 33.8759V13.2305Z" fill="#47B748"/>
<path id="Vector 2" d="M72.0532 13.3874L59.7237 13.5067C59.7237 13.5067 63.766 12.4534 64.2273 10.3259C64.3798 9.62212 64.5378 9.11937 64.21 8.48058C63.8278 7.73563 63.1797 7.62479 62.3865 7.39097C60.5682 6.85493 58.4766 7.73578 57.8398 5.95862C57.078 3.83266 59.9405 2.59777 61.9704 1.67413C65.3965 0.115155 69.2999 0.262049 72.6715 1.93965C74.5208 2.85977 76.6852 3.81822 75.9715 5.78314C75.3967 7.3655 73.6186 6.9514 71.9963 7.29796C71.0914 7.49126 70.0874 7.4973 69.6495 8.42794C69.3437 9.07792 69.5166 9.56894 69.6668 10.2732C69.9881 11.7804 72.0532 13.3874 72.0532 13.3874Z" fill="#47B748"/>
<ellipse id="Ellipse 193" cx="58.5722" cy="29.9974" rx="1.83979" ry="5.40907" fill="black"/>
<path id="Ellipse 195" d="M61.4562 22.5906C61.4562 23.1441 60.1749 22.5906 58.5943 22.5906C57.0137 22.5906 55.7324 23.1441 55.7324 22.5906C55.7324 22.0371 57.0137 21.5884 58.5943 21.5884C60.1749 21.5884 61.4562 22.0371 61.4562 22.5906Z" fill="black"/>
<path id="Ellipse 196" d="M75.4355 23.0361C75.3804 23.5869 74.1605 22.9086 72.5878 22.7513C71.0151 22.594 69.685 23.0173 69.7401 22.4665C69.7952 21.9157 71.1148 21.5968 72.6875 21.754C74.2603 21.9113 75.4906 22.4853 75.4355 23.0361Z" fill="black"/>
<ellipse id="Ellipse 194" cx="71.5722" cy="29.9974" rx="1.83979" ry="5.40907" fill="black"/>
<path id="Vector 5" d="M90.6059 41.0088C90.6059 41.0088 103.128 43.1523 105.329 49.0884C106.023 50.9599 106.329 52.5881 106.329 54.5884C106.329 67.5884 83.9863 80.5872 83.9863 80.5872" stroke="black"/>
<line id="Line 70" y1="-0.35" x2="2.62127" y2="-0.35" transform="matrix(0.946993 0.321254 -0.311263 0.950324 82.332 79.7451)" stroke="black" stroke-width="0.7"/>
<line id="Line 71" y1="-0.35" x2="2.62058" y2="-0.35" transform="matrix(0.955059 -0.296417 0.287049 0.957916 82.332 81.3638)" stroke="black" stroke-width="0.7"/>
<line id="Line 72" y1="-0.35" x2="2.64375" y2="-0.35" transform="matrix(0.638527 -0.7696 0.758437 0.651747 83.1602 82.6221)" stroke="black" stroke-width="0.7"/>
<path id="Vector 11" d="M69.2003 47.0208C62.9037 49.7924 57.5078 48.4082 57.5078 48.4082C57.5078 48.4082 62.9037 54.8795 69.2003 52.108C73.5625 50.1879 78.1939 41.0088 78.1939 41.0088C78.1939 41.0088 73.5625 45.1007 69.2003 47.0208Z" fill="black"/>
<path id="Vector 12" d="M40.7725 47.6787L2.67468 37.1906" stroke="black"/>
<line id="Line 76" y1="-0.3" x2="1.59854" y2="-0.3" transform="matrix(-0.729076 -0.684433 0.674538 -0.73824 3.83789 37.4727)" stroke="black" stroke-width="0.6"/>
<line id="Line 77" y1="-0.3" x2="1.54206" y2="-0.3" transform="matrix(-0.903133 0.42936 -0.442523 -0.896757 2.82617 37.0112)" stroke="black" stroke-width="0.6"/>
<line id="Line 78" y1="-0.35" x2="1.84962" y2="-0.35" transform="matrix(-0.983126 -0.182932 0.144877 -0.98945 2.81836 37.082)" stroke="black" stroke-width="0.7"/>
</g>
</svg>
