<svg width="118" height="120" viewBox="0 0 118 120" fill="none" xmlns="http://www.w3.org/2000/svg">
<path d="M79.8906 81.6404V118.693" stroke="black"/>
<path d="M83.2013 119.113C83.2013 119.811 81.7195 119.535 79.8916 119.535C78.0636 119.535 76.5818 119.811 76.5818 119.113C76.5818 118.416 78.0636 117.85 79.8916 117.85C81.7195 117.85 83.2013 118.416 83.2013 119.113Z" fill="black"/>
<path d="M65.4102 80.7986V117.851" stroke="black"/>
<path d="M68.3068 118.693C68.3068 119.39 66.825 119.114 64.997 119.114C63.1691 119.114 61.6873 119.39 61.6873 118.693C61.6873 117.995 63.1691 117.429 64.997 117.429C66.825 117.429 68.3068 117.995 68.3068 118.693Z" fill="black"/>
<path fill-rule="evenodd" clip-rule="evenodd" d="M41.8298 25.2307C41.8298 24.6784 42.2775 24.2307 42.8298 24.2307H103.383C103.935 24.2307 104.383 24.6784 104.383 25.2307V81.4822C104.383 82.0345 103.935 82.4822 103.383 82.4822H77.0989C76.8208 82.4822 76.5525 82.3686 76.3741 82.1552C75.9571 81.6565 75.571 81.0666 75.4534 80.4942C75.4371 80.4145 75.4204 80.3377 75.4042 80.2632C75.2865 79.7222 75.1952 79.3028 75.4501 78.7713C75.7962 78.0498 76.5049 77.9307 77.2213 77.8104C77.3644 77.7863 77.5079 77.7622 77.6489 77.7332C78.0575 77.6492 78.4764 77.6168 78.881 77.5855C79.9782 77.5006 80.9706 77.4238 81.3706 76.3475C82.0191 74.6026 80.2166 73.6938 78.5561 72.8566C78.4757 72.8161 78.3957 72.7758 78.3163 72.7355C75.1802 71.1451 71.5371 70.98 68.3276 72.4109C68.2788 72.4327 68.2294 72.4547 68.1796 72.4768C66.2906 73.3174 63.7631 74.4422 64.4416 76.3813C64.8225 77.4697 65.7926 77.5006 66.8922 77.5355C67.4734 77.554 68.0908 77.5736 68.6765 77.7512C68.7529 77.7743 68.8278 77.7962 68.9011 77.8176C69.5376 78.0038 70.056 78.1554 70.3714 78.7815C70.6463 79.3271 70.5453 79.7643 70.4138 80.3339C70.4009 80.3894 70.3878 80.4461 70.3748 80.5044C70.2023 81.2725 69.5292 81.8863 68.7693 82.35C68.6228 82.4394 68.4533 82.4822 68.2817 82.4822H42.8298C42.2775 82.4822 41.8298 82.0345 41.8298 81.4822V57.7652C41.8298 57.5461 41.9008 57.3335 42.0427 57.1665C42.4939 56.6355 43.5902 55.4608 44.625 55.2418C44.701 55.2257 44.7743 55.2092 44.8454 55.1933L44.8455 55.1932C45.362 55.0774 45.7625 54.9876 46.2692 55.2418C46.9571 55.5868 47.0694 56.2909 47.1829 57.0026L47.1829 57.0026C47.2056 57.1448 47.2283 57.2874 47.2557 57.4274C47.3351 57.8334 47.3653 58.2495 47.3944 58.6513C47.4733 59.7412 47.5447 60.7269 48.5711 61.1262C50.2351 61.7736 51.1058 59.9852 51.9079 58.3377C51.9467 58.258 51.9854 58.1786 52.0239 58.0999C53.5477 54.9883 53.7122 51.3705 52.3528 48.1804L52.2902 48.0332C51.4915 46.1556 50.423 43.6433 48.5711 44.3135C47.5316 44.6897 47.5004 45.653 47.4649 46.745C47.4462 47.3222 47.4263 47.9353 47.2557 48.5167C47.2335 48.5924 47.2125 48.6667 47.1918 48.7395C47.013 49.3713 46.8673 49.8859 46.2692 50.1979C45.748 50.4698 45.3309 50.3687 44.7876 50.237C44.7346 50.2242 44.6805 50.211 44.625 50.1979C42.9292 49.798 42.0274 46.737 41.859 46.1076C41.8386 46.0316 41.8298 45.955 41.8298 45.8762V25.2307Z" fill="#3FA1D9"/>
<path d="M77.0532 25.3876L64.7237 25.5069C64.7237 25.5069 68.766 24.4536 69.2273 22.3261C69.3798 21.6224 69.5378 21.1196 69.21 20.4808C68.8278 19.7359 68.1797 19.625 67.3865 19.3912C65.5682 18.8552 63.4766 19.736 62.8398 17.9589C62.078 15.8329 64.9405 14.598 66.9704 13.6744C70.3965 12.1154 74.2999 12.2623 77.6715 13.9399C79.5208 14.86 81.6852 15.8185 80.9715 17.7834C80.3967 19.3657 78.6186 18.9516 76.9963 19.2982C76.0914 19.4915 75.0874 19.4975 74.6495 20.4282C74.3437 21.0782 74.5166 21.5692 74.6668 22.2735C74.9881 23.7807 77.0532 25.3876 77.0532 25.3876Z" fill="#3FA1D9"/>
<ellipse cx="63.5722" cy="41.9977" rx="1.83979" ry="5.40907" fill="black"/>
<path d="M66.4562 34.5909C66.4562 35.1444 65.1749 34.5909 63.5943 34.5909C62.0137 34.5909 60.7324 35.1444 60.7324 34.5909C60.7324 34.0373 62.0137 33.5886 63.5943 33.5886C65.1749 33.5886 66.4562 34.0373 66.4562 34.5909Z" fill="black"/>
<path d="M80.4355 35.0364C80.3804 35.5871 79.1605 34.9088 77.5878 34.7516C76.0151 34.5943 74.685 35.0175 74.7401 34.4667C74.7952 33.916 76.1148 33.597 77.6875 33.7543C79.2603 33.9116 80.4906 34.4856 80.4355 35.0364Z" fill="black"/>
<ellipse cx="76.5722" cy="41.9977" rx="1.83979" ry="5.40907" fill="black"/>
<path d="M95.6059 53.009C95.6059 53.009 108.128 55.1525 110.329 61.0886C111.023 62.9601 111.329 64.5884 111.329 66.5886C111.329 79.5886 88.9863 92.5874 88.9863 92.5874" stroke="black"/>
<line y1="-0.35" x2="2.62127" y2="-0.35" transform="matrix(0.946993 0.321254 -0.311263 0.950324 87.332 91.7454)" stroke="black" stroke-width="0.7"/>
<line y1="-0.35" x2="2.62058" y2="-0.35" transform="matrix(0.955059 -0.296417 0.287049 0.957916 87.332 93.364)" stroke="black" stroke-width="0.7"/>
<line y1="-0.35" x2="2.64375" y2="-0.35" transform="matrix(0.638527 -0.7696 0.758437 0.651747 88.1602 94.6223)" stroke="black" stroke-width="0.7"/>
<path d="M74.2003 59.0211C67.9037 61.7927 62.5078 60.4085 62.5078 60.4085C62.5078 60.4085 67.9037 66.8798 74.2003 64.1082C78.5625 62.1881 83.1939 53.009 83.1939 53.009C83.1939 53.009 78.5625 57.101 74.2003 59.0211Z" fill="black"/>
<path d="M45.7723 59.679L7.67444 49.1908" stroke="black"/>
<line y1="-0.3" x2="1.59854" y2="-0.3" transform="matrix(-0.729076 -0.684433 0.674538 -0.73824 8.83789 49.4729)" stroke="black" stroke-width="0.6"/>
<line y1="-0.3" x2="1.54206" y2="-0.3" transform="matrix(-0.903133 0.42936 -0.442523 -0.896757 7.82617 49.0115)" stroke="black" stroke-width="0.6"/>
<line y1="-0.35" x2="1.84962" y2="-0.35" transform="matrix(-0.983126 -0.182932 0.144877 -0.98945 7.81836 49.0823)" stroke="black" stroke-width="0.7"/>
</svg>
