<svg width="118" height="120" viewBox="0 0 118 120" fill="none" xmlns="http://www.w3.org/2000/svg">
<path d="M79.8906 81.6403V118.692" stroke="black"/>
<path d="M83.2013 119.113C83.2013 119.811 81.7195 119.534 79.8916 119.534C78.0636 119.534 76.5818 119.811 76.5818 119.113C76.5818 118.416 78.0636 117.85 79.8916 117.85C81.7195 117.85 83.2013 118.416 83.2013 119.113Z" fill="black"/>
<path d="M65.4102 80.7985V117.851" stroke="black"/>
<path d="M68.3068 118.693C68.3068 119.39 66.825 119.114 64.997 119.114C63.1691 119.114 61.6873 119.39 61.6873 118.693C61.6873 117.995 63.1691 117.429 64.997 117.429C66.825 117.429 68.3068 117.995 68.3068 118.693Z" fill="black"/>
<path fill-rule="evenodd" clip-rule="evenodd" d="M41.8298 25.2307C41.8298 24.6784 42.2775 24.2307 42.8298 24.2307H103.383C103.935 24.2307 104.383 24.6784 104.383 25.2307V81.4822C104.383 82.0345 103.935 82.4822 103.383 82.4822H77.0989C76.8208 82.4822 76.5525 82.3685 76.3741 82.1551C75.9571 81.6564 75.571 81.0666 75.4534 80.4941C75.4371 80.4144 75.4204 80.3376 75.4042 80.2632C75.2865 79.7222 75.1952 79.3027 75.4501 78.7713C75.7962 78.0498 76.5049 77.9307 77.2213 77.8103C77.3644 77.7862 77.5079 77.7621 77.6489 77.7332C78.0575 77.6491 78.4764 77.6167 78.881 77.5854C79.9782 77.5005 80.9706 77.4237 81.3706 76.3474C82.0191 74.6025 80.2166 73.6937 78.5561 72.8566C78.4757 72.8161 78.3957 72.7757 78.3163 72.7355C75.1802 71.1451 71.5371 70.98 68.3276 72.4109C68.2788 72.4326 68.2294 72.4546 68.1796 72.4768C66.2906 73.3174 63.7631 74.4421 64.4416 76.3813C64.8225 77.4697 65.7926 77.5005 66.8922 77.5354C67.4734 77.5539 68.0908 77.5735 68.6765 77.7511C68.7529 77.7742 68.8278 77.7961 68.9011 77.8176C69.5376 78.0037 70.056 78.1553 70.3714 78.7814C70.6463 79.327 70.5453 79.7642 70.4138 80.3339C70.4009 80.3893 70.3878 80.4461 70.3748 80.5043C70.2023 81.2724 69.5292 81.8862 68.7693 82.35C68.6228 82.4394 68.4533 82.4822 68.2817 82.4822H42.8298C42.2775 82.4822 41.8298 82.0345 41.8298 81.4822V57.7651C41.8298 57.546 41.9008 57.3334 42.0427 57.1665C42.4939 56.6355 43.5902 55.4607 44.625 55.2417C44.701 55.2256 44.7743 55.2092 44.8454 55.1932L44.8455 55.1932C45.362 55.0773 45.7625 54.9875 46.2692 55.2417C46.9571 55.5868 47.0694 56.2909 47.1829 57.0025L47.1829 57.0026C47.2056 57.1448 47.2283 57.2873 47.2557 57.4273C47.3351 57.8334 47.3653 58.2494 47.3944 58.6513C47.4733 59.7411 47.5447 60.7268 48.5711 61.1261C50.2351 61.7736 51.1058 59.9851 51.9079 58.3376C51.9467 58.2579 51.9854 58.1786 52.0239 58.0998C53.5477 54.9883 53.7122 51.3705 52.3528 48.1803L52.2902 48.0332C51.4915 46.1555 50.423 43.6432 48.5711 44.3134C47.5316 44.6896 47.5004 45.6529 47.4649 46.7449C47.4462 47.3221 47.4263 47.9352 47.2557 48.5166C47.2335 48.5924 47.2125 48.6667 47.1918 48.7395C47.013 49.3712 46.8673 49.8858 46.2692 50.1979C45.748 50.4698 45.3309 50.3687 44.7876 50.2369C44.7346 50.2241 44.6805 50.211 44.625 50.1979C42.9292 49.798 42.0274 46.7369 41.859 46.1076C41.8386 46.0315 41.8298 45.9549 41.8298 45.8761V25.2307Z" fill="#FF7022"/>
<path d="M77.0532 25.3875L64.7237 25.5069C64.7237 25.5069 68.766 24.4536 69.2273 22.326C69.3798 21.6223 69.5378 21.1196 69.21 20.4808C68.8278 19.7358 68.1797 19.625 67.3865 19.3912C65.5682 18.8551 63.4766 19.736 62.8398 17.9588C62.078 15.8328 64.9405 14.598 66.9704 13.6743C70.3965 12.1153 74.2999 12.2622 77.6715 13.9398C79.5208 14.86 81.6852 15.8184 80.9715 17.7833C80.3967 19.3657 78.6186 18.9516 76.9963 19.2981C76.0914 19.4914 75.0874 19.4975 74.6495 20.4281C74.3437 21.0781 74.5166 21.5691 74.6668 22.2734C74.9881 23.7806 77.0532 25.3875 77.0532 25.3875Z" fill="#FF7022"/>
<ellipse cx="63.5722" cy="41.9976" rx="1.83979" ry="5.40907" fill="black"/>
<path d="M66.4562 34.5908C66.4562 35.1443 65.1749 34.5908 63.5943 34.5908C62.0137 34.5908 60.7324 35.1443 60.7324 34.5908C60.7324 34.0373 62.0137 33.5886 63.5943 33.5886C65.1749 33.5886 66.4562 34.0373 66.4562 34.5908Z" fill="black"/>
<path d="M80.4355 35.0363C80.3804 35.5871 79.1605 34.9088 77.5878 34.7515C76.0151 34.5942 74.685 35.0175 74.7401 34.4667C74.7952 33.9159 76.1148 33.5969 77.6875 33.7542C79.2603 33.9115 80.4906 34.4855 80.4355 35.0363Z" fill="black"/>
<ellipse cx="76.5722" cy="41.9976" rx="1.83979" ry="5.40907" fill="black"/>
<path d="M95.6059 53.009C95.6059 53.009 108.128 55.1525 110.329 61.0886C111.023 62.96 111.329 64.5883 111.329 66.5886C111.329 79.5886 88.9863 92.5874 88.9863 92.5874" stroke="black"/>
<line y1="-0.35" x2="2.62127" y2="-0.35" transform="matrix(0.946993 0.321254 -0.311263 0.950324 87.332 91.7453)" stroke="black" stroke-width="0.7"/>
<line y1="-0.35" x2="2.62058" y2="-0.35" transform="matrix(0.955059 -0.296417 0.287049 0.957916 87.332 93.364)" stroke="black" stroke-width="0.7"/>
<line y1="-0.35" x2="2.64375" y2="-0.35" transform="matrix(0.638527 -0.7696 0.758437 0.651747 88.1602 94.6223)" stroke="black" stroke-width="0.7"/>
<path d="M74.2003 59.021C67.9037 61.7926 62.5078 60.4084 62.5078 60.4084C62.5078 60.4084 67.9037 66.8797 74.2003 64.1081C78.5625 62.1881 83.1939 53.009 83.1939 53.009C83.1939 53.009 78.5625 57.1009 74.2003 59.021Z" fill="black"/>
<path d="M45.7723 59.6789L7.67444 49.1907" stroke="black"/>
<line y1="-0.3" x2="1.59854" y2="-0.3" transform="matrix(-0.729076 -0.684433 0.674538 -0.73824 8.83789 49.4728)" stroke="black" stroke-width="0.6"/>
<line y1="-0.3" x2="1.54206" y2="-0.3" transform="matrix(-0.903133 0.42936 -0.442523 -0.896757 7.82617 49.0114)" stroke="black" stroke-width="0.6"/>
<line y1="-0.35" x2="1.84962" y2="-0.35" transform="matrix(-0.983126 -0.182932 0.144877 -0.98945 7.81836 49.0822)" stroke="black" stroke-width="0.7"/>
</svg>
