<svg width="150" height="151" viewBox="0 0 150 151" fill="none" xmlns="http://www.w3.org/2000/svg">
<path d="M88 94L88.385 148.744" stroke="black"/>
<path d="M92.6535 149.334C92.6535 150.312 90.7417 149.924 88.3833 149.924C86.025 149.924 84.1132 150.312 84.1132 149.334C84.1132 148.356 86.025 147.563 88.3833 147.563C90.7417 147.563 92.6535 148.356 92.6535 149.334Z" fill="black"/>
<path d="M69.6989 95.621V147.563" stroke="black"/>
<path d="M73.4365 148.744C73.4365 149.722 71.5247 149.334 69.1664 149.334C66.808 149.334 64.8962 149.722 64.8962 148.744C64.8962 147.766 66.808 146.973 69.1664 146.973C71.5247 146.973 73.4365 147.766 73.4365 148.744Z" fill="black"/>
<path d="M71.7186 1.52233C76.1389 -0.663151 81.1753 -0.457383 85.5253 1.8944C87.911 3.18421 90.7027 4.52777 89.7821 7.2821C89.0406 9.50024 86.7471 8.92042 84.6542 9.40612C83.4868 9.6771 82.1908 9.68547 81.6259 10.9901C81.2314 11.9012 81.4546 12.5898 81.6483 13.577C81.8369 14.5382 82.4922 15.5274 83.1493 16.3212H118.282C118.834 16.3212 119.282 16.7689 119.282 17.3212V95.3212C119.282 95.8734 118.834 96.3212 118.282 96.3212H84.5995C84.3225 96.3211 84.0561 96.2075 83.8739 95.9989C83.2033 95.2313 82.4721 94.2055 82.2831 93.2176C82.2621 93.1082 82.2413 93.0026 82.2206 92.9003C82.0701 92.1573 81.9532 91.5813 82.2792 90.8514C82.7218 89.8606 83.6287 89.6974 84.5448 89.5321C84.7278 89.4991 84.9115 89.4654 85.0917 89.4257C85.6142 89.3103 86.1496 89.2655 86.6669 89.2225C88.0701 89.1059 89.3398 89.0005 89.8514 87.5223C90.6804 85.1263 88.3753 83.878 86.2518 82.7284C86.1492 82.6728 86.0466 82.6176 85.9452 82.5624C81.9343 80.3782 77.2744 80.1509 73.1698 82.1161C73.1074 82.146 73.044 82.1765 72.9803 82.2069C70.5645 83.3613 67.3323 84.9062 68.2001 87.5692C68.6871 89.0638 69.9277 89.1062 71.3339 89.1542C72.0771 89.1795 72.8671 89.2063 73.6161 89.4501C73.7136 89.4818 73.8095 89.5124 73.9032 89.5419C74.7172 89.7975 75.3807 90.0054 75.7841 90.8651C76.1356 91.6144 76.006 92.2156 75.8378 92.9979C75.8214 93.0739 75.8046 93.1516 75.788 93.2313C75.5116 94.5528 74.2307 95.5419 72.9852 96.2098C72.8461 96.2844 72.6899 96.3212 72.5321 96.3212H40.2821C39.73 96.321 39.2822 95.8733 39.2821 95.3212V61.1024C39.2821 60.8488 39.3773 60.6031 39.5565 60.4237C40.2166 59.7632 41.0515 59.0932 41.8573 58.91C41.9545 58.8879 42.0486 58.8655 42.1395 58.8436L42.6112 58.7382C43.0643 58.6527 43.4739 58.6483 43.9598 58.91C44.8395 59.3839 44.9836 60.3508 45.1288 61.328C45.1578 61.5233 45.1865 61.7197 45.2216 61.912C45.3231 62.4695 45.3621 63.0408 45.3993 63.5926C45.5002 65.0894 45.5915 66.4436 46.9042 66.9921C49.0321 67.8809 50.146 65.4245 51.1718 63.162C51.2213 63.0526 51.2709 62.9438 51.3202 62.8358C53.2689 58.5626 53.4787 53.5939 51.7401 49.2128L51.66 49.0106C50.6387 46.432 49.2726 42.9818 46.9042 43.9022C45.5749 44.4188 45.5345 45.7414 45.4891 47.2411C45.4652 48.0338 45.4397 48.8762 45.2216 49.6747C45.1932 49.7785 45.1668 49.8806 45.1405 49.9803C44.9118 50.848 44.7248 51.5547 43.9598 51.9833C43.2934 52.3565 42.7601 52.2179 42.0653 52.037C41.9976 52.0194 41.9283 52.0013 41.8573 51.9833C40.785 51.7117 39.961 50.5468 39.3759 49.3339C39.3132 49.2041 39.2822 49.061 39.2821 48.9169V17.3212C39.2821 16.769 39.7299 16.3213 40.2821 16.3212H72.6014C73.5751 15.6315 74.4129 14.7421 74.6307 13.6503C74.8275 12.6641 75.0309 11.9595 74.6083 11.0643C74.1151 10.02 73.2791 9.8638 72.2557 9.536C69.9098 8.7846 67.2111 10.0195 66.3895 7.52819C65.407 4.54811 69.0998 2.8171 71.7186 1.52233Z" fill="#A8E6F1"/>
<ellipse cx="70.6486" cy="41.4337" rx="2.37362" ry="7.5828" fill="black"/>
<path d="M72.9562 30.6854C73.158 31.4297 71.3704 31.193 69.4143 31.8192C67.4583 32.4453 66.0743 33.6972 65.8725 32.9529C65.6707 32.2086 67.0929 31.0976 69.0489 30.4714C71.005 29.8453 72.7543 29.9411 72.9562 30.6854Z" fill="black"/>
<path d="M92.9438 32.648C92.7788 33.4029 91.3354 32.2331 89.3513 31.7214C87.3672 31.2097 85.5939 31.5498 85.7588 30.7948C85.9237 30.0398 87.6658 29.8426 89.6499 30.3544C91.634 30.8661 93.1087 31.893 92.9438 32.648Z" fill="black"/>
<ellipse cx="88.6501" cy="41.4337" rx="2.37362" ry="7.5828" fill="black"/>
<path d="M72.692 58.1736C65.2461 55.6564 64.8312 55.3292 64.8312 55.3292C64.8312 55.3292 71.5 61 80.5 60.5C86.6033 60.1609 93.4229 57.3278 93.4229 57.3278C93.4229 57.3278 78.2035 60.0367 72.692 58.1736Z" fill="black"/>
<path d="M19 46L52.2706 74.7926" stroke="black"/>
<path d="M111.483 60.6383C111.483 60.6383 117.759 72.6385 119.942 80.9209C122.951 92.3412 122.284 110.916 122.284 110.916" stroke="black"/>
<line y1="-0.3" x2="2.07565" y2="-0.3" transform="matrix(0.563993 0.82578 0.83816 -0.545425 122.576 110.345)" stroke="black" stroke-width="0.6"/>
<line y1="-0.3" x2="2.07671" y2="-0.3" transform="matrix(-0.582528 0.812811 0.825834 0.563913 122.576 110.345)" stroke="black" stroke-width="0.6"/>
<line y1="-0.35" x2="2.424" y2="-0.35" transform="matrix(0.00563127 0.999984 0.999986 -0.00536266 122.48 110.342)" stroke="black" stroke-width="0.7"/>
<ellipse cx="14.2321" cy="26.4464" rx="13.2321" ry="7.66071" fill="#185D6D"/>
<path d="M20.7408 26.6303C20.04 26.2527 20.04 25.2473 20.7408 24.8697L33.3024 18.1007C33.9686 17.7417 34.7768 18.2242 34.7768 18.9811L34.7768 32.5189C34.7768 33.2758 33.9686 33.7583 33.3024 33.3993L20.7408 26.6303Z" fill="#185D6D"/>
<path d="M63.1924 32.7383C75.3251 31.756 84.0228 31.7459 96.165 32.7568C98.576 32.9578 100.231 35.283 99.6465 37.6523L97.3525 46.9541C96.9094 48.7506 95.3044 50.0035 93.4932 49.9531C89.016 49.8287 86.059 49.4038 83.6943 48.2324C81.4036 47.0977 78.5574 46.703 76.0791 47.8701C73.263 49.1964 70.4639 49.7668 66.4043 49.9395C64.7036 50.0117 63.1613 48.8766 62.6416 47.1914L59.7627 37.8545C59.0148 35.4287 60.6847 32.9413 63.1924 32.7383Z" stroke="#185D6D" stroke-width="2"/>
<path d="M73 48.5C78.7065 41.9028 77.7635 37.9617 75 32.5H84C81.8384 37.6933 81.4767 42.2227 86.5 49L79 47.5L73 48.5Z" fill="#185D6D"/>
<path d="M77.5 60.5V58.5C77.5 58.5 61.5 56 60 54.5C58.5 53 58 23 58 23H54.5C54.5 23 54.5 53.5 57.5 56.5C60.5 59.5 77.5 60.5 77.5 60.5Z" fill="#185D6D"/>
<rect x="74" y="57" width="10" height="5" rx="2.5" fill="#185D6D"/>
<path d="M120.027 117.369C120.027 117.369 149 123.145 149 127.984C149 132.823 130.855 138.538 114.583 138.538C98.3117 138.538 84.3413 130.675 84.3413 130.675C84.3413 130.675 74.664 142.167 74.0591 140.957C73.4543 139.748 77.6881 132.49 77.6881 126.441C77.6881 120.393 73.4542 111.32 74.6639 110.716C75.8736 110.111 84.3413 122.812 84.3413 122.812C84.3413 122.812 105.511 117.974 107.325 117.369C108.535 115.554 111.052 111.925 106.72 105.272C109.745 102.853 120.027 117.369 120.027 117.369Z" fill="#185D6D"/>
<circle cx="139.323" cy="126.774" r="1.20968" fill="black"/>
<path d="M127.938 124.355C126.897 127.131 127.084 128.731 127.938 131.613" stroke="black"/>
<path d="M124.806 123.145C123.038 126.847 123.357 128.98 124.806 132.823" stroke="black"/>
<path d="M121.177 121.935C119.409 126.563 119.728 129.229 121.177 134.032" stroke="black"/>
<path d="M110.29 145.524C111.5 145.524 112.71 132.823 112.71 132.823H100.613C100.613 132.823 109.081 145.524 110.29 145.524Z" fill="#185D6D"/>
<path d="M39 144.5C39 150.851 33.8513 150 27.5 150C21.1487 150 16 150.851 16 144.5C16 138.149 21.1487 133 27.5 133C33.8513 133 39 138.149 39 144.5Z" fill="#185D6D"/>
<path d="M44.0407 117.936C44.1234 117.111 43.5222 116.376 42.698 116.293C41.8737 116.211 41.1384 116.812 41.0557 117.636L44.0407 117.936ZM33.5482 136.786L34.5571 137.896C37.7233 135.018 39.8946 132.412 41.3724 129.269C42.8424 126.143 43.5726 122.599 44.0407 117.936L42.5482 117.786L41.0557 117.636C40.6009 122.167 39.9149 125.319 38.6576 127.993C37.4081 130.65 35.5407 132.947 32.5392 135.676L33.5482 136.786Z" fill="#185D6D"/>
<path d="M50.9925 126.15C51.0752 125.326 50.4741 124.59 49.6498 124.507C48.8255 124.425 48.0902 125.026 48.0075 125.85L50.9925 126.15ZM37 143L37.8719 144.221C41.2972 141.774 44.3825 139.699 46.665 137.052C49.0243 134.316 50.5041 131.016 50.9925 126.15L49.5 126L48.0075 125.85C47.5731 130.178 46.3029 132.878 44.3929 135.093C42.406 137.398 39.7028 139.226 36.1281 141.779L37 143Z" fill="#185D6D"/>
<path d="M9.63221 118.874C9.70191 118.048 10.4276 117.436 11.2531 117.505C12.0786 117.575 12.6913 118.301 12.6216 119.126L9.63221 118.874ZM20.1269 138L19.3597 139.289C15.2635 136.851 12.5029 134.416 10.9587 131.117C9.42866 127.848 9.20284 123.959 9.63221 118.874L11.1269 119L12.6216 119.126C12.2039 124.073 12.4887 127.309 13.6758 129.845C14.8486 132.351 17.0115 134.4 20.8941 136.711L20.1269 138Z" fill="#185D6D"/>
<path d="M2.52102 125.25C2.38283 124.433 2.93297 123.659 3.74979 123.521C4.56661 123.383 5.3408 123.933 5.47898 124.75L2.52102 125.25ZM18 144L17.7058 145.471C12.3273 144.395 8.87225 141.854 6.59521 138.199C4.38075 134.643 3.34647 130.129 2.52102 125.25L4 125L5.47898 124.75C6.30269 129.619 7.26841 133.605 9.14166 136.613C10.9523 139.52 13.6727 141.605 18.2942 142.529L18 144Z" fill="#185D6D"/>
<path d="M31.4452 116.496C31.7233 115.716 32.5813 115.309 33.3617 115.587C34.142 115.865 34.5492 116.723 34.2711 117.504L31.4452 116.496ZM30.0047 136.5H28.5047C28.5047 132.429 28.4397 129.609 28.7786 126.742C29.1225 123.832 29.8744 120.904 31.4452 116.496L32.8582 117L34.2711 117.504C32.7401 121.8 32.0653 124.493 31.7579 127.094C31.4455 129.736 31.5047 132.315 31.5047 136.5H30.0047Z" fill="#185D6D"/>
<path d="M19.2525 116.902C19.3065 116.075 20.0205 115.449 20.8472 115.503C21.6739 115.557 22.3001 116.271 22.2461 117.098L19.2525 116.902ZM23.3372 136.537L21.8944 136.947C20.781 133.031 19.9475 130.337 19.4893 127.486C19.0245 124.594 18.9469 121.571 19.2525 116.902L20.7493 117L22.2461 117.098C21.9483 121.649 22.0358 124.425 22.4513 127.01C22.8735 129.637 23.6356 132.101 24.78 136.127L23.3372 136.537Z" fill="#185D6D"/>
</svg>
