<svg width="150" height="150" viewBox="0 0 150 150" fill="none" xmlns="http://www.w3.org/2000/svg">
<path d="M88 94L88.385 148.744" stroke="black"/>
<path d="M92.6535 149.334C92.6535 150.312 90.7417 149.924 88.3833 149.924C86.025 149.924 84.1132 150.312 84.1132 149.334C84.1132 148.356 86.025 147.563 88.3833 147.563C90.7417 147.563 92.6535 148.356 92.6535 149.334Z" fill="black"/>
<path d="M69.6989 95.621V147.563" stroke="black"/>
<path d="M73.4365 148.744C73.4365 149.722 71.5247 149.334 69.1664 149.334C66.808 149.334 64.8962 149.722 64.8962 148.744C64.8962 147.766 66.808 146.973 69.1664 146.973C71.5247 146.973 73.4365 147.766 73.4365 148.744Z" fill="black"/>
<path d="M71.7186 1.52233C76.1389 -0.663151 81.1753 -0.457383 85.5253 1.8944C87.911 3.18421 90.7027 4.52777 89.7821 7.2821C89.0406 9.50024 86.7471 8.92042 84.6542 9.40612C83.4868 9.6771 82.1908 9.68547 81.6259 10.9901C81.2314 11.9012 81.4546 12.5898 81.6483 13.577C81.8369 14.5382 82.4922 15.5274 83.1493 16.3212H118.282C118.834 16.3212 119.282 16.7689 119.282 17.3212V95.3212C119.282 95.8734 118.834 96.3212 118.282 96.3212H84.5995C84.3225 96.3211 84.0561 96.2075 83.8739 95.9989C83.2033 95.2313 82.4721 94.2055 82.2831 93.2176C82.2621 93.1082 82.2413 93.0026 82.2206 92.9003C82.0701 92.1573 81.9532 91.5813 82.2792 90.8514C82.7218 89.8606 83.6287 89.6974 84.5448 89.5321C84.7278 89.4991 84.9115 89.4654 85.0917 89.4257C85.6142 89.3103 86.1496 89.2655 86.6669 89.2225C88.0701 89.1059 89.3398 89.0005 89.8514 87.5223C90.6804 85.1263 88.3753 83.878 86.2518 82.7284C86.1492 82.6728 86.0466 82.6176 85.9452 82.5624C81.9343 80.3782 77.2744 80.1509 73.1698 82.1161C73.1074 82.146 73.044 82.1765 72.9803 82.2069C70.5645 83.3613 67.3323 84.9062 68.2001 87.5692C68.6871 89.0638 69.9277 89.1062 71.3339 89.1542C72.0771 89.1795 72.8671 89.2063 73.6161 89.4501C73.7136 89.4818 73.8095 89.5124 73.9032 89.5419C74.7172 89.7975 75.3807 90.0054 75.7841 90.8651C76.1356 91.6144 76.006 92.2156 75.8378 92.9979C75.8214 93.0739 75.8046 93.1516 75.788 93.2313C75.5116 94.5528 74.2307 95.5419 72.9852 96.2098C72.8461 96.2844 72.6899 96.3212 72.5321 96.3212H40.2821C39.73 96.321 39.2822 95.8733 39.2821 95.3212V61.1024C39.2821 60.8488 39.3773 60.6031 39.5565 60.4237C40.2166 59.7632 41.0515 59.0932 41.8573 58.91C41.9545 58.8879 42.0486 58.8655 42.1395 58.8436L42.6112 58.7382C43.0643 58.6527 43.4739 58.6483 43.9598 58.91C44.8395 59.3839 44.9836 60.3508 45.1288 61.328C45.1578 61.5233 45.1865 61.7197 45.2216 61.912C45.3231 62.4695 45.3621 63.0408 45.3993 63.5926C45.5002 65.0894 45.5915 66.4436 46.9042 66.9921C49.0321 67.8809 50.146 65.4245 51.1718 63.162C51.2213 63.0526 51.2709 62.9438 51.3202 62.8358C53.2689 58.5626 53.4787 53.5939 51.7401 49.2128L51.66 49.0106C50.6387 46.432 49.2726 42.9818 46.9042 43.9022C45.5749 44.4188 45.5345 45.7414 45.4891 47.2411C45.4652 48.0338 45.4397 48.8762 45.2216 49.6747C45.1932 49.7785 45.1668 49.8806 45.1405 49.9803C44.9118 50.848 44.7248 51.5547 43.9598 51.9833C43.2934 52.3565 42.7601 52.2179 42.0653 52.037C41.9976 52.0194 41.9283 52.0013 41.8573 51.9833C40.785 51.7117 39.961 50.5468 39.3759 49.3339C39.3132 49.2041 39.2822 49.061 39.2821 48.9169V17.3212C39.2821 16.769 39.7299 16.3213 40.2821 16.3212H72.6014C73.5751 15.6315 74.4129 14.7421 74.6307 13.6503C74.8275 12.6641 75.0309 11.9595 74.6083 11.0643C74.1151 10.02 73.2791 9.8638 72.2557 9.536C69.9098 8.7846 67.2111 10.0195 66.3895 7.52819C65.407 4.54811 69.0998 2.8171 71.7186 1.52233Z" fill="#A8E6F1"/>
<ellipse cx="70.6486" cy="41.4336" rx="2.37362" ry="7.5828" fill="black"/>
<path d="M72.9562 30.6855C73.158 31.4298 71.3704 31.1931 69.4143 31.8192C67.4583 32.4454 66.0743 33.6973 65.8725 32.953C65.6707 32.2086 67.0929 31.0976 69.0489 30.4715C71.005 29.8453 72.7543 29.9411 72.9562 30.6855Z" fill="black"/>
<path d="M92.9438 32.6479C92.7788 33.4029 91.3354 32.2331 89.3513 31.7213C87.3672 31.2096 85.5939 31.5497 85.7588 30.7948C85.9237 30.0398 87.6658 29.8426 89.6499 30.3543C91.634 30.866 93.1087 31.8929 92.9438 32.6479Z" fill="black"/>
<ellipse cx="88.6501" cy="41.4336" rx="2.37362" ry="7.5828" fill="black"/>
<path d="M64.78 58.866C64.4482 58.5954 64.5694 58.4634 64.5694 58.4634C64.5694 58.4634 64.641 58.6072 64.78 58.866C65.3185 59.3052 67.0503 60.1097 72.4302 61.3077C78.0743 62.5646 93.1611 60.4619 93.1611 60.4619C93.1611 60.4619 85.2425 73.7064 79.2188 72.365C71.4773 70.641 65.9083 60.967 64.78 58.866Z" fill="black"/>
<path d="M7.7922 88.0975L52.2706 74.7926" stroke="black"/>
<path d="M111.483 60.6383C111.483 60.6383 117.759 72.6386 119.942 80.921C122.951 92.3412 122.284 110.916 122.284 110.916" stroke="black"/>
<line y1="-0.3" x2="2.07565" y2="-0.3" transform="matrix(0.563993 0.82578 0.83816 -0.545425 122.576 110.345)" stroke="black" stroke-width="0.6"/>
<line y1="-0.3" x2="2.07671" y2="-0.3" transform="matrix(-0.582528 0.812811 0.825834 0.563913 122.576 110.345)" stroke="black" stroke-width="0.6"/>
<line y1="-0.35" x2="2.424" y2="-0.35" transform="matrix(0.00563127 0.999984 0.999986 -0.00536266 122.48 110.342)" stroke="black" stroke-width="0.7"/>
<ellipse cx="46.5" cy="51" rx="8.5" ry="13" fill="#185D6D"/>
<path d="M130 53C130 60.1797 126.194 66 121.5 66C116.806 66 113 60.1797 113 53C113 45.8203 116.806 40 121.5 40C126.194 40 130 45.8203 130 53Z" fill="#185D6D"/>
<path d="M46 48C46 48 46 40 46 27.5C46 15 53.5 15 65.5 15C77.5 15 83 15 93 15C103 15 119.5 15 119.5 27.5C119.5 40 119.5 48 119.5 48" stroke="#185D6D" stroke-width="3"/>
<path d="M92 79C102 79 118.5 79 118.5 66.5C118.5 54 118.5 46 118.5 46" stroke="#185D6D" stroke-width="3"/>
<circle cx="90.5" cy="78.5" r="3.5" fill="#185D6D"/>
<g clip-path="url(#clip0_4096_6170)">
<path d="M109.114 101.249C109.65 100.166 110.595 99.3407 111.74 98.9543C112.885 98.568 114.136 98.6523 115.219 99.1887L139.717 111.325C140.8 111.862 141.625 112.806 142.012 113.951C142.398 115.096 142.314 116.348 141.777 117.431L136.721 127.638C136.184 128.721 135.239 129.547 134.094 129.933C132.949 130.319 131.698 130.235 130.615 129.698L106.117 117.562C105.034 117.026 104.209 116.081 103.822 114.936C103.436 113.791 103.52 112.539 104.057 111.456L109.114 101.249Z" fill="#A8E6F1"/>
<path d="M109.114 101.249C109.65 100.166 110.595 99.3406 111.74 98.9542C112.885 98.5678 114.136 98.6522 115.219 99.1886L139.717 111.325C140.8 111.861 141.625 112.806 142.012 113.951C142.398 115.096 142.314 116.348 141.777 117.431L136.721 127.638C136.184 128.721 135.239 129.546 134.094 129.933C132.949 130.319 131.698 130.235 130.615 129.698L106.117 117.562C105.034 117.026 104.209 116.081 103.822 114.936C103.436 113.791 103.52 112.539 104.057 111.456L109.114 101.249ZM135.4 114.907L134.894 115.928C134.755 116.209 134.87 116.551 135.152 116.691L136.173 117.197C136.308 117.264 136.465 117.274 136.608 117.226C136.751 117.178 136.869 117.074 136.936 116.939L137.442 115.918C137.509 115.783 137.519 115.627 137.471 115.483C137.423 115.34 137.319 115.222 137.184 115.155L136.163 114.649C136.028 114.582 135.872 114.572 135.728 114.62C135.585 114.668 135.467 114.772 135.4 114.907ZM111.684 107.607C111.549 107.54 111.392 107.53 111.249 107.578C111.106 107.626 110.988 107.73 110.921 107.865L110.415 108.886C110.276 109.167 110.391 109.509 110.673 109.649L111.694 110.155C111.829 110.222 111.985 110.232 112.129 110.184C112.272 110.136 112.39 110.032 112.457 109.897L112.963 108.876C113.03 108.741 113.04 108.584 112.992 108.441C112.944 108.298 112.84 108.18 112.705 108.113L111.684 107.607ZM115.004 109.888L114.498 110.908C114.359 111.19 114.474 111.532 114.756 111.672L115.777 112.177C115.912 112.244 116.068 112.255 116.212 112.207C116.355 112.158 116.473 112.055 116.54 111.92L117.045 110.899C117.113 110.764 117.123 110.607 117.075 110.464C117.026 110.321 116.923 110.203 116.788 110.136L115.767 109.63C115.632 109.563 115.475 109.553 115.332 109.601C115.189 109.649 115.071 109.752 115.004 109.888ZM119.85 111.653C119.715 111.586 119.558 111.575 119.415 111.624C119.272 111.672 119.154 111.775 119.087 111.91L118.581 112.931C118.442 113.213 118.557 113.555 118.839 113.694L119.86 114.2C119.995 114.267 120.151 114.278 120.295 114.229C120.438 114.181 120.556 114.078 120.623 113.943L121.128 112.922C121.196 112.786 121.206 112.63 121.158 112.487C121.109 112.344 121.006 112.226 120.871 112.159L119.85 111.653ZM123.17 113.933L122.664 114.954C122.525 115.236 122.64 115.578 122.922 115.717L123.943 116.223C124.078 116.29 124.234 116.3 124.377 116.252C124.521 116.204 124.639 116.101 124.706 115.965L125.211 114.944C125.278 114.809 125.289 114.653 125.241 114.51C125.192 114.366 125.089 114.248 124.954 114.181L123.933 113.676C123.798 113.609 123.641 113.598 123.498 113.646C123.355 113.695 123.237 113.798 123.17 113.933ZM134.141 118.732C134.005 118.665 133.849 118.655 133.706 118.703C133.563 118.751 133.444 118.855 133.377 118.99L132.872 120.011C132.732 120.292 132.847 120.634 133.129 120.774L134.15 121.28C134.285 121.347 134.442 121.357 134.585 121.309C134.728 121.261 134.846 121.157 134.913 121.022L135.419 120.001C135.486 119.866 135.496 119.709 135.448 119.566C135.4 119.423 135.297 119.305 135.161 119.238L134.141 118.732ZM132.118 122.815C131.983 122.748 131.826 122.738 131.683 122.786C131.54 122.834 131.422 122.938 131.355 123.073L130.849 124.094C130.709 124.375 130.825 124.717 131.106 124.857L132.127 125.363C132.263 125.43 132.419 125.44 132.562 125.392C132.705 125.344 132.823 125.24 132.89 125.105L133.396 124.084C133.463 123.949 133.474 123.792 133.425 123.649C133.377 123.506 133.274 123.388 133.139 123.321L132.118 122.815ZM128.016 115.698C127.881 115.631 127.724 115.621 127.581 115.669C127.438 115.717 127.32 115.82 127.253 115.956L126.747 116.977C126.608 117.258 126.723 117.6 127.005 117.74L130.067 119.257C130.202 119.324 130.359 119.334 130.502 119.286C130.645 119.238 130.763 119.135 130.83 118.999L131.336 117.979C131.403 117.843 131.413 117.687 131.365 117.544C131.317 117.401 131.214 117.282 131.078 117.215L128.016 115.698ZM127.272 121.05L126.766 122.071C126.626 122.353 126.742 122.695 127.024 122.834L128.044 123.34C128.18 123.407 128.336 123.417 128.479 123.369C128.622 123.321 128.74 123.218 128.807 123.082L129.313 122.062C129.38 121.926 129.391 121.77 129.342 121.627C129.294 121.483 129.191 121.365 129.056 121.298L128.035 120.793C127.9 120.726 127.743 120.715 127.6 120.763C127.457 120.812 127.339 120.915 127.272 121.05ZM132.08 112.627C131.945 112.56 131.789 112.549 131.645 112.597C131.502 112.646 131.384 112.749 131.317 112.884L130.811 113.905C130.672 114.187 130.787 114.529 131.069 114.668L132.09 115.174C132.225 115.241 132.382 115.251 132.525 115.203C132.668 115.155 132.786 115.052 132.853 114.916L133.359 113.896C133.426 113.76 133.436 113.604 133.388 113.461C133.34 113.318 133.236 113.199 133.101 113.132L132.08 112.627ZM127.234 110.862L126.728 111.882C126.589 112.164 126.704 112.506 126.986 112.645L128.007 113.151C128.142 113.218 128.299 113.229 128.442 113.18C128.585 113.132 128.703 113.029 128.77 112.894L129.276 111.873C129.343 111.738 129.353 111.581 129.305 111.438C129.257 111.295 129.153 111.177 129.018 111.11L127.997 110.604C127.862 110.537 127.706 110.526 127.562 110.575C127.419 110.623 127.301 110.726 127.234 110.862ZM123.914 108.581C123.779 108.514 123.623 108.504 123.479 108.552C123.336 108.6 123.218 108.703 123.151 108.839L122.646 109.86C122.506 110.141 122.621 110.483 122.903 110.623L123.924 111.128C124.059 111.195 124.216 111.206 124.359 111.158C124.502 111.109 124.62 111.006 124.687 110.871L125.193 109.85C125.26 109.715 125.27 109.558 125.222 109.415C125.174 109.272 125.071 109.154 124.935 109.087L123.914 108.581ZM119.068 106.816L118.563 107.837C118.423 108.119 118.538 108.46 118.82 108.6L119.841 109.106C119.976 109.173 120.133 109.183 120.276 109.135C120.419 109.087 120.537 108.984 120.604 108.848L121.11 107.827C121.177 107.692 121.187 107.536 121.139 107.392C121.091 107.249 120.988 107.131 120.852 107.064L119.831 106.559C119.696 106.491 119.54 106.481 119.396 106.529C119.253 106.578 119.135 106.681 119.068 106.816ZM113.707 103.524C113.572 103.457 113.415 103.447 113.272 103.495C113.129 103.543 113.011 103.647 112.944 103.782L112.438 104.803C112.299 105.084 112.414 105.426 112.696 105.566L115.758 107.083C115.893 107.15 116.05 107.161 116.193 107.112C116.336 107.064 116.454 106.961 116.521 106.825L117.027 105.805C117.094 105.669 117.104 105.513 117.056 105.37C117.008 105.227 116.905 105.109 116.769 105.041L113.707 103.524ZM108.898 111.948L108.393 112.969C108.253 113.25 108.368 113.592 108.65 113.732L109.671 114.238C109.806 114.305 109.963 114.315 110.106 114.267C110.249 114.219 110.367 114.115 110.434 113.98L110.94 112.959C111.007 112.824 111.017 112.667 110.969 112.524C110.921 112.381 110.818 112.263 110.682 112.196L109.662 111.69C109.526 111.623 109.37 111.613 109.227 111.661C109.083 111.709 108.965 111.813 108.898 111.948ZM113.744 113.713C113.609 113.646 113.453 113.636 113.31 113.684C113.166 113.732 113.048 113.835 112.981 113.971L112.476 114.991C112.336 115.273 112.451 115.615 112.733 115.755L123.961 121.317C124.097 121.384 124.253 121.395 124.396 121.346C124.539 121.298 124.657 121.195 124.725 121.06L125.23 120.039C125.297 119.903 125.308 119.747 125.259 119.604C125.211 119.461 125.108 119.343 124.973 119.276L113.744 113.713Z" fill="#185D6D"/>
</g>
<defs>
<clipPath id="clip0_4096_6170">
<rect width="36.4524" height="36.4524" fill="white" transform="translate(115.182 89) rotate(26.3541)"/>
</clipPath>
</defs>
</svg>
