<svg width="150" height="150" viewBox="0 0 150 150" fill="none" xmlns="http://www.w3.org/2000/svg">
<path d="M88 94L88.385 148.744" stroke="black"/>
<path d="M92.6535 149.334C92.6535 150.312 90.7417 149.924 88.3833 149.924C86.025 149.924 84.1132 150.312 84.1132 149.334C84.1132 148.356 86.025 147.563 88.3833 147.563C90.7417 147.563 92.6535 148.356 92.6535 149.334Z" fill="black"/>
<path d="M69.6989 95.6211V147.563" stroke="black"/>
<path d="M73.4365 148.744C73.4365 149.722 71.5247 149.334 69.1664 149.334C66.8081 149.334 64.8963 149.722 64.8963 148.744C64.8963 147.766 66.8081 146.973 69.1664 146.973C71.5247 146.973 73.4365 147.766 73.4365 148.744Z" fill="black"/>
<path d="M71.7186 1.52233C76.1389 -0.663151 81.1753 -0.457383 85.5253 1.8944C87.911 3.18421 90.7027 4.52777 89.7821 7.2821C89.0406 9.50024 86.7471 8.92042 84.6542 9.40612C83.4868 9.6771 82.1908 9.68547 81.6259 10.9901C81.2314 11.9012 81.4546 12.5898 81.6483 13.577C81.8369 14.5382 82.4922 15.5274 83.1493 16.3212H118.282C118.834 16.3212 119.282 16.7689 119.282 17.3212V95.3212C119.282 95.8734 118.834 96.3212 118.282 96.3212H84.5995C84.3225 96.3211 84.0561 96.2075 83.8739 95.9989C83.2033 95.2313 82.4721 94.2055 82.2831 93.2176C82.2621 93.1082 82.2413 93.0026 82.2206 92.9003C82.0701 92.1573 81.9532 91.5813 82.2792 90.8514C82.7218 89.8606 83.6287 89.6974 84.5448 89.5321C84.7278 89.4991 84.9115 89.4654 85.0917 89.4257C85.6142 89.3103 86.1496 89.2655 86.6669 89.2225C88.0701 89.1059 89.3398 89.0005 89.8514 87.5223C90.6804 85.1263 88.3753 83.878 86.2518 82.7284C86.1492 82.6728 86.0466 82.6176 85.9452 82.5624C81.9343 80.3782 77.2744 80.1509 73.1698 82.1161C73.1074 82.146 73.044 82.1765 72.9803 82.2069C70.5645 83.3613 67.3323 84.9062 68.2001 87.5692C68.6871 89.0638 69.9277 89.1062 71.3339 89.1542C72.0771 89.1795 72.8671 89.2063 73.6161 89.4501C73.7136 89.4818 73.8095 89.5124 73.9032 89.5419C74.7172 89.7975 75.3807 90.0054 75.7841 90.8651C76.1356 91.6144 76.006 92.2156 75.8378 92.9979C75.8214 93.0739 75.8046 93.1516 75.788 93.2313C75.5116 94.5528 74.2307 95.5419 72.9852 96.2098C72.8461 96.2844 72.6899 96.3212 72.5321 96.3212H40.2821C39.73 96.321 39.2822 95.8733 39.2821 95.3212V61.1024C39.2821 60.8488 39.3773 60.6031 39.5565 60.4237C40.2166 59.7632 41.0515 59.0932 41.8573 58.91C41.9545 58.8879 42.0486 58.8655 42.1395 58.8436L42.6112 58.7382C43.0643 58.6527 43.4739 58.6483 43.9598 58.91C44.8395 59.3839 44.9836 60.3508 45.1288 61.328C45.1578 61.5233 45.1865 61.7197 45.2216 61.912C45.3231 62.4695 45.3621 63.0408 45.3993 63.5926C45.5002 65.0894 45.5915 66.4436 46.9042 66.9921C49.0321 67.8809 50.146 65.4245 51.1718 63.162C51.2213 63.0526 51.2709 62.9438 51.3202 62.8358C53.2689 58.5626 53.4787 53.5939 51.7401 49.2128L51.66 49.0106C50.6387 46.432 49.2726 42.9818 46.9042 43.9022C45.5749 44.4188 45.5345 45.7414 45.4891 47.2411C45.4652 48.0338 45.4397 48.8762 45.2216 49.6747C45.1932 49.7785 45.1668 49.8806 45.1405 49.9803C44.9118 50.848 44.7248 51.5547 43.9598 51.9833C43.2934 52.3565 42.7601 52.2179 42.0653 52.037C41.9976 52.0194 41.9283 52.0013 41.8573 51.9833C40.785 51.7117 39.961 50.5468 39.3759 49.3339C39.3132 49.2041 39.2822 49.061 39.2821 48.9169V17.3212C39.2821 16.769 39.7299 16.3213 40.2821 16.3212H72.6014C73.5751 15.6315 74.4129 14.7421 74.6307 13.6503C74.8275 12.6641 75.0309 11.9595 74.6083 11.0643C74.1151 10.02 73.2791 9.8638 72.2557 9.536C69.9098 8.7846 67.2111 10.0195 66.3895 7.52819C65.407 4.54811 69.0998 2.8171 71.7186 1.52233Z" fill="#A8E6F1"/>
<ellipse cx="70.6486" cy="41.4336" rx="2.37362" ry="7.5828" fill="black"/>
<path d="M72.9562 30.6855C73.158 31.4298 71.3704 31.1931 69.4143 31.8192C67.4583 32.4454 66.0743 33.6973 65.8725 32.953C65.6707 32.2086 67.0929 31.0976 69.0489 30.4715C71.005 29.8453 72.7543 29.9411 72.9562 30.6855Z" fill="black"/>
<path d="M92.9438 32.6479C92.7788 33.4029 91.3354 32.2331 89.3513 31.7213C87.3672 31.2096 85.5939 31.5497 85.7588 30.7948C85.9237 30.0398 87.6658 29.8426 89.6499 30.3543C91.634 30.866 93.1087 31.8929 92.9438 32.6479Z" fill="black"/>
<ellipse cx="88.6501" cy="41.4336" rx="2.37362" ry="7.5828" fill="black"/>
<path d="M64.78 58.8659C64.4482 58.5952 64.5694 58.4632 64.5694 58.4632C64.5694 58.4632 64.641 58.6071 64.78 58.8659C65.3185 59.3051 67.0503 60.1095 72.4302 61.3076C78.0743 62.5645 93.1611 60.4618 93.1611 60.4618C93.1611 60.4618 85.2425 73.7063 79.2188 72.3648C71.4773 70.6409 65.9083 60.9668 64.78 58.8659Z" fill="black"/>
<path d="M7.7922 88.0977L52.2706 74.7927" stroke="black"/>
<path d="M79.6197 34.3302C77.4434 34.3302 74.8062 32.8657 71.9712 32.0345C68.1847 30.9243 54.6614 29.2594 51.0385 35.9198C48.8117 40.0136 51.9443 52.117 55.064 53.6811C59.4921 55.9013 70.5723 55.1758 72.7763 52.571C75.5942 49.2408 76.5628 39.2501 76.5628 38.1401C76.5628 37.03 77.8459 35.9953 79.6197 35.9954" stroke="#185D6D" stroke-width="3"/>
<path d="M69.9584 32.1101C77.6069 33.7752 75.9967 37.6605 75.5942 43.7659" stroke="#185D6D" stroke-width="2"/>
<path d="M78.5724 37.1055C77.3648 37.1055 77.2044 42.1008 75.9967 45.4311" stroke="#185D6D"/>
<path d="M38.0206 32.0054L37.9378 36.9827L50.3065 38.2991L50.5492 35.487L38.0206 32.0054Z" fill="#185D6D"/>
<path d="M75.1034 33.4849C78.2867 37.0358 76.9873 37.6489 75.8998 39.4512" stroke="#185D6D" stroke-width="2"/>
<path d="M79.3803 34.3302C81.5566 34.3302 84.1938 32.8657 87.0288 32.0345C90.8153 30.9243 104.339 29.2594 107.962 35.9198C110.188 40.0136 107.056 52.117 103.936 53.6811C99.5079 55.9013 88.4277 55.1758 86.2237 52.571C83.4058 49.2408 82.4372 39.2501 82.4372 38.1401C82.4372 37.03 81.1541 35.9953 79.3803 35.9954" stroke="#185D6D" stroke-width="3"/>
<path d="M89.0416 32.1101C81.3931 33.7752 83.0033 37.6605 83.4058 43.7659" stroke="#185D6D" stroke-width="2"/>
<path d="M80.4276 37.1055C81.6352 37.1055 81.7956 42.1008 83.0033 45.4311" stroke="#185D6D"/>
<path d="M120.979 32.0054L121.062 36.9827L108.694 38.2991L108.451 35.487L120.979 32.0054Z" fill="#185D6D"/>
<path d="M83.8966 33.4849C80.7133 37.0358 82.0127 37.6489 83.1002 39.4512" stroke="#185D6D" stroke-width="2"/>
<path d="M4 77H18C18.2652 77 18.5196 76.8946 18.7071 76.7071C18.8946 76.5196 19 76.2652 19 76V62H14V57H4C3.73478 57 3.48043 57.1054 3.29289 57.2929C3.10536 57.4804 3 57.7348 3 58V76C3 76.2652 3.10536 76.5196 3.29289 76.7071C3.48043 76.8946 3.73478 77 4 77Z" fill="#A8E6F1" stroke="#185D6D" stroke-width="2" stroke-linecap="round" stroke-linejoin="round"/>
<path d="M14 57L19 62L14 57ZM12.5 67L15 69.5L12.5 72M9.5 67L7 69.5L9.5 72" fill="#A8E6F1"/>
<path d="M14 57L19 62M12.5 67L15 69.5L12.5 72M9.5 67L7 69.5L9.5 72" stroke="#185D6D" stroke-width="2" stroke-linecap="round" stroke-linejoin="round"/>
<path d="M6.5 39.25C6.69891 39.25 6.88968 39.171 7.03033 39.0303C7.17098 38.8897 7.25 38.6989 7.25 38.5C7.25 38.3011 7.17098 38.1103 7.03033 37.9697C6.88968 37.829 6.69891 37.75 6.5 37.75C6.30109 37.75 6.11032 37.829 5.96967 37.9697C5.82902 38.1103 5.75 38.3011 5.75 38.5C5.75 38.6989 5.82902 38.8897 5.96967 39.0303C6.11032 39.171 6.30109 39.25 6.5 39.25ZM9 38.5C9 39.525 8.38438 40.4062 7.5 40.7906V42C7.5 42.5531 7.94688 43 8.5 43H13.5C14.0531 43 14.5 42.5531 14.5 42V40.7906C13.6156 40.4062 13 39.525 13 38.5C13 37.1187 14.1187 36 15.5 36C16.8813 36 18 37.1187 18 38.5C18 39.525 17.3844 40.4062 16.5 40.7906V42C16.5 43.6562 15.1562 45 13.5 45H12V47.2094C12.8844 47.5938 13.5 48.475 13.5 49.5C13.5 50.8813 12.3813 52 11 52C9.61875 52 8.5 50.8813 8.5 49.5C8.5 48.475 9.11562 47.5938 10 47.2094V45H8.5C6.84375 45 5.5 43.6562 5.5 42V40.7906C4.61563 40.4062 4 39.525 4 38.5C4 37.1187 5.11875 36 6.5 36C7.88125 36 9 37.1187 9 38.5ZM15.5 39.25C15.6989 39.25 15.8897 39.171 16.0303 39.0303C16.171 38.8897 16.25 38.6989 16.25 38.5C16.25 38.3011 16.171 38.1103 16.0303 37.9697C15.8897 37.829 15.6989 37.75 15.5 37.75C15.3011 37.75 15.1103 37.829 14.9697 37.9697C14.829 38.1103 14.75 38.3011 14.75 38.5C14.75 38.6989 14.829 38.8897 14.9697 39.0303C15.1103 39.171 15.3011 39.25 15.5 39.25ZM11.75 49.5C11.75 49.3011 11.671 49.1103 11.5303 48.9697C11.3897 48.829 11.1989 48.75 11 48.75C10.8011 48.75 10.6103 48.829 10.4697 48.9697C10.329 49.1103 10.25 49.3011 10.25 49.5C10.25 49.6989 10.329 49.8897 10.4697 50.0303C10.6103 50.171 10.8011 50.25 11 50.25C11.1989 50.25 11.3897 50.171 11.5303 50.0303C11.671 49.8897 11.75 49.6989 11.75 49.5Z" fill="#185D6D"/>
<path d="M3 33H17C17.2652 33 17.5196 32.8946 17.7071 32.7071C17.8946 32.5196 18 32.2652 18 32V18H13V13H3C2.73478 13 2.48043 13.1054 2.29289 13.2929C2.10536 13.4804 2 13.7348 2 14V32C2 32.2652 2.10536 32.5196 2.29289 32.7071C2.48043 32.8946 2.73478 33 3 33Z" fill="#A8E6F1" stroke="#185D6D" stroke-width="2" stroke-linecap="round" stroke-linejoin="round"/>
<path d="M13 13L18 18L13 13ZM11.5 23L14 25.5L11.5 28M8.5 23L6 25.5L8.5 28" fill="#A8E6F1"/>
<path d="M13 13L18 18M11.5 23L14 25.5L11.5 28M8.5 23L6 25.5L8.5 28" stroke="#185D6D" stroke-width="2" stroke-linecap="round" stroke-linejoin="round"/>
<g clip-path="url(#clip0_4096_6520)">
<path d="M104.988 89.097C105.518 88.0276 106.451 87.2124 107.582 86.8308C108.713 86.4492 109.949 86.5325 111.018 87.0623L135.212 99.0481C136.281 99.5779 137.096 100.511 137.478 101.642C137.86 102.772 137.776 104.009 137.247 105.078L132.252 115.159C131.723 116.228 130.79 117.043 129.659 117.425C128.528 117.807 127.292 117.723 126.223 117.193L102.029 105.208C100.959 104.678 100.144 103.745 99.7626 102.614C99.381 101.483 99.4642 100.247 99.9941 99.1778L104.988 89.097Z" fill="#A8E6F1"/>
<path d="M104.988 89.097C105.518 88.0276 106.451 87.2124 107.582 86.8308C108.713 86.4492 109.949 86.5325 111.018 87.0623L135.212 99.0481C136.281 99.5779 137.096 100.511 137.478 101.642C137.86 102.772 137.776 104.009 137.247 105.078L132.252 115.159C131.723 116.228 130.79 117.043 129.659 117.425C128.528 117.807 127.292 117.723 126.223 117.193L102.029 105.208C100.959 104.678 100.144 103.745 99.7626 102.614C99.381 101.483 99.4642 100.247 99.9941 99.1778L104.988 89.097ZM130.948 102.586L130.449 103.594C130.311 103.872 130.425 104.21 130.703 104.347L131.711 104.847C131.845 104.913 132 104.923 132.141 104.876C132.282 104.828 132.399 104.726 132.465 104.593L132.965 103.584C133.031 103.451 133.041 103.296 132.993 103.155C132.946 103.014 132.844 102.897 132.71 102.831L131.702 102.331C131.568 102.265 131.414 102.255 131.273 102.302C131.131 102.35 131.015 102.452 130.948 102.586ZM107.527 95.3766C107.393 95.3104 107.239 95.3 107.097 95.3477C106.956 95.3954 106.839 95.4973 106.773 95.631L106.274 96.639C106.136 96.9173 106.25 97.255 106.528 97.3928L107.536 97.8922C107.67 97.9584 107.824 97.9688 107.966 97.9211C108.107 97.8734 108.224 97.7715 108.29 97.6379L108.789 96.6298C108.855 96.4961 108.866 96.3416 108.818 96.2002C108.77 96.0589 108.669 95.9423 108.535 95.876L107.527 95.3766ZM110.805 97.6286L110.306 98.6367C110.168 98.9149 110.282 99.2526 110.56 99.3904L111.568 99.8898C111.702 99.9561 111.857 99.9665 111.998 99.9188C112.139 99.8711 112.256 99.7692 112.322 99.6355L112.822 98.6274C112.888 98.4937 112.898 98.3392 112.85 98.1979C112.803 98.0565 112.701 97.9399 112.567 97.8737L111.559 97.3743C111.425 97.308 111.271 97.2976 111.13 97.3453C110.988 97.393 110.872 97.4949 110.805 97.6286ZM115.591 99.3719C115.458 99.3057 115.303 99.2953 115.162 99.343C115.021 99.3907 114.904 99.4925 114.838 99.6262L114.338 100.634C114.2 100.913 114.314 101.25 114.593 101.388L115.601 101.887C115.734 101.954 115.889 101.964 116.03 101.916C116.172 101.869 116.288 101.767 116.354 101.633L116.854 100.625C116.92 100.491 116.93 100.337 116.883 100.195C116.835 100.054 116.733 99.9375 116.6 99.8713L115.591 99.3719ZM118.87 101.624L118.371 102.632C118.233 102.91 118.347 103.248 118.625 103.386L119.633 103.885C119.767 103.951 119.921 103.962 120.063 103.914C120.204 103.866 120.321 103.764 120.387 103.631L120.886 102.623C120.952 102.489 120.963 102.334 120.915 102.193C120.867 102.052 120.766 101.935 120.632 101.869L119.624 101.37C119.49 101.303 119.336 101.293 119.194 101.341C119.053 101.388 118.936 101.49 118.87 101.624ZM129.705 106.364C129.571 106.297 129.416 106.287 129.275 106.335C129.134 106.382 129.017 106.484 128.951 106.618L128.451 107.626C128.314 107.904 128.427 108.242 128.706 108.38L129.714 108.879C129.847 108.945 130.002 108.956 130.143 108.908C130.285 108.86 130.401 108.758 130.468 108.625L130.967 107.617C131.033 107.483 131.044 107.329 130.996 107.187C130.948 107.046 130.846 106.929 130.713 106.863L129.705 106.364ZM127.707 110.396C127.573 110.33 127.419 110.319 127.277 110.367C127.136 110.415 127.019 110.517 126.953 110.65L126.454 111.658C126.316 111.937 126.43 112.274 126.708 112.412L127.716 112.911C127.85 112.978 128.004 112.988 128.146 112.94C128.287 112.893 128.404 112.791 128.47 112.657L128.969 111.649C129.036 111.515 129.046 111.361 128.998 111.219C128.951 111.078 128.849 110.962 128.715 110.895L127.707 110.396ZM123.656 103.367C123.522 103.301 123.368 103.291 123.227 103.338C123.085 103.386 122.969 103.488 122.902 103.621L122.403 104.63C122.265 104.908 122.379 105.245 122.657 105.383L125.681 106.882C125.815 106.948 125.97 106.958 126.111 106.91C126.252 106.863 126.369 106.761 126.435 106.627L126.935 105.619C127.001 105.485 127.011 105.331 126.964 105.19C126.916 105.048 126.814 104.932 126.68 104.865L123.656 103.367ZM122.921 108.653L122.421 109.661C122.284 109.939 122.398 110.277 122.676 110.414L123.684 110.914C123.818 110.98 123.972 110.99 124.113 110.943C124.255 110.895 124.371 110.793 124.438 110.659L124.937 109.651C125.003 109.518 125.014 109.363 124.966 109.222C124.918 109.081 124.816 108.964 124.683 108.898L123.675 108.398C123.541 108.332 123.386 108.322 123.245 108.369C123.104 108.417 122.987 108.519 122.921 108.653ZM127.67 100.334C127.536 100.267 127.382 100.257 127.24 100.305C127.099 100.352 126.982 100.454 126.916 100.588L126.417 101.596C126.279 101.874 126.393 102.212 126.671 102.35L127.679 102.849C127.813 102.915 127.967 102.926 128.109 102.878C128.25 102.83 128.367 102.729 128.433 102.595L128.932 101.587C128.998 101.453 129.009 101.299 128.961 101.157C128.913 101.016 128.812 100.899 128.678 100.833L127.67 100.334ZM122.884 98.5904L122.384 99.5984C122.247 99.8767 122.36 100.214 122.639 100.352L123.647 100.852C123.78 100.918 123.935 100.928 124.076 100.881C124.218 100.833 124.334 100.731 124.401 100.597L124.9 99.5892C124.966 99.4555 124.977 99.301 124.929 99.1596C124.881 99.0183 124.779 98.9017 124.646 98.8354L123.638 98.336C123.504 98.2698 123.349 98.2594 123.208 98.3071C123.067 98.3548 122.95 98.4567 122.884 98.5904ZM119.605 96.3384C119.472 96.2722 119.317 96.2618 119.176 96.3095C119.034 96.3572 118.918 96.4591 118.851 96.5927L118.352 97.6008C118.214 97.879 118.328 98.2167 118.606 98.3546L119.614 98.854C119.748 98.9202 119.903 98.9306 120.044 98.8829C120.185 98.8352 120.302 98.7333 120.368 98.5996L120.868 97.5916C120.934 97.4579 120.944 97.3034 120.897 97.162C120.849 97.0207 120.747 96.904 120.613 96.8378L119.605 96.3384ZM114.819 94.5951L114.32 95.6032C114.182 95.8814 114.296 96.2191 114.574 96.3569L115.582 96.8563C115.716 96.9226 115.87 96.933 116.012 96.8853C116.153 96.8376 116.27 96.7357 116.336 96.602L116.835 95.5939C116.902 95.4602 116.912 95.3057 116.864 95.1644C116.817 95.023 116.715 94.9064 116.581 94.8402L115.573 94.3408C115.439 94.2745 115.285 94.2641 115.143 94.3118C115.002 94.3595 114.885 94.4614 114.819 94.5951ZM109.524 91.3443C109.391 91.2781 109.236 91.2677 109.095 91.3154C108.954 91.3631 108.837 91.465 108.771 91.5987L108.271 92.6067C108.133 92.885 108.247 93.2226 108.526 93.3605L111.55 94.8587C111.684 94.9249 111.838 94.9353 111.979 94.8876C112.121 94.8399 112.237 94.7381 112.304 94.6044L112.803 93.5963C112.869 93.4626 112.88 93.3081 112.832 93.1668C112.784 93.0254 112.682 92.9088 112.549 92.8426L109.524 91.3443ZM104.775 99.6633L104.276 100.671C104.138 100.95 104.252 101.287 104.53 101.425L105.538 101.925C105.672 101.991 105.827 102.001 105.968 101.953C106.109 101.906 106.226 101.804 106.292 101.67L106.792 100.662C106.858 100.528 106.868 100.374 106.821 100.233C106.773 100.091 106.671 99.9746 106.537 99.9084L105.529 99.4089C105.396 99.3427 105.241 99.3323 105.1 99.38C104.958 99.4277 104.842 99.5296 104.775 99.6633ZM109.562 101.407C109.428 101.34 109.273 101.33 109.132 101.378C108.991 101.425 108.874 101.527 108.808 101.661L108.308 102.669C108.171 102.947 108.284 103.285 108.563 103.423L119.652 108.916C119.785 108.982 119.94 108.993 120.081 108.945C120.222 108.897 120.339 108.796 120.405 108.662L120.905 107.654C120.971 107.52 120.981 107.366 120.934 107.224C120.886 107.083 120.784 106.966 120.65 106.9L109.562 101.407Z" fill="#185D6D"/>
</g>
<path d="M111.483 60.6382C111.483 60.6382 117.759 69.009 119.942 74.7864C122.951 82.7527 122.284 95.7098 122.284 95.7098" stroke="black"/>
<line y1="-0.3" x2="1.6733" y2="-0.3" transform="matrix(0.699604 0.71453 0.910579 -0.413336 122.576 95.3113)" stroke="black" stroke-width="0.6"/>
<line y1="-0.3" x2="1.68816" y2="-0.3" transform="matrix(-0.716606 0.697478 0.902816 0.430028 122.576 95.3113)" stroke="black" stroke-width="0.6"/>
<line y1="-0.35" x2="1.6909" y2="-0.35" transform="matrix(0.00807276 0.999967 0.999993 -0.00374077 122.48 95.3091)" stroke="black" stroke-width="0.7"/>
<defs>
<clipPath id="clip0_4096_6520">
<rect width="36" height="36" fill="white" transform="translate(110.981 77) rotate(26.3541)"/>
</clipPath>
</defs>
</svg>
