<svg width="150" height="150" viewBox="0 0 150 150" fill="none" xmlns="http://www.w3.org/2000/svg">
<path d="M88 94L88.385 148.744" stroke="black"/>
<path d="M92.6535 149.334C92.6535 150.312 90.7417 149.924 88.3833 149.924C86.025 149.924 84.1132 150.312 84.1132 149.334C84.1132 148.356 86.025 147.563 88.3833 147.563C90.7417 147.563 92.6535 148.356 92.6535 149.334Z" fill="black"/>
<path d="M69.6989 95.621V147.563" stroke="black"/>
<path d="M73.4365 148.744C73.4365 149.722 71.5247 149.334 69.1664 149.334C66.8081 149.334 64.8963 149.722 64.8963 148.744C64.8963 147.766 66.8081 146.973 69.1664 146.973C71.5247 146.973 73.4365 147.766 73.4365 148.744Z" fill="black"/>
<path d="M71.7186 1.52233C76.1389 -0.663151 81.1753 -0.457383 85.5253 1.8944C87.911 3.18421 90.7027 4.52777 89.7821 7.2821C89.0406 9.50024 86.7471 8.92042 84.6542 9.40612C83.4868 9.6771 82.1908 9.68547 81.6259 10.9901C81.2314 11.9012 81.4546 12.5898 81.6483 13.577C81.8369 14.5382 82.4922 15.5274 83.1493 16.3212H118.282C118.834 16.3212 119.282 16.7689 119.282 17.3212V95.3212C119.282 95.8734 118.834 96.3212 118.282 96.3212H84.5995C84.3225 96.3211 84.0561 96.2075 83.8739 95.9989C83.2033 95.2313 82.4721 94.2055 82.2831 93.2176C82.2621 93.1082 82.2413 93.0026 82.2206 92.9003C82.0701 92.1573 81.9532 91.5813 82.2792 90.8514C82.7218 89.8606 83.6287 89.6974 84.5448 89.5321C84.7278 89.4991 84.9115 89.4654 85.0917 89.4257C85.6142 89.3103 86.1496 89.2655 86.6669 89.2225C88.0701 89.1059 89.3398 89.0005 89.8514 87.5223C90.6804 85.1263 88.3753 83.878 86.2518 82.7284C86.1492 82.6728 86.0466 82.6176 85.9452 82.5624C81.9343 80.3782 77.2744 80.1509 73.1698 82.1161C73.1074 82.146 73.044 82.1765 72.9803 82.2069C70.5645 83.3613 67.3323 84.9062 68.2001 87.5692C68.6871 89.0638 69.9277 89.1062 71.3339 89.1542C72.0771 89.1795 72.8671 89.2063 73.6161 89.4501C73.7136 89.4818 73.8095 89.5124 73.9032 89.5419C74.7172 89.7975 75.3807 90.0054 75.7841 90.8651C76.1356 91.6144 76.006 92.2156 75.8378 92.9979C75.8214 93.0739 75.8046 93.1516 75.788 93.2313C75.5116 94.5528 74.2307 95.5419 72.9852 96.2098C72.8461 96.2844 72.6899 96.3212 72.5321 96.3212H40.2821C39.73 96.321 39.2822 95.8733 39.2821 95.3212V61.1024C39.2821 60.8488 39.3773 60.6031 39.5565 60.4237C40.2166 59.7632 41.0515 59.0932 41.8573 58.91C41.9545 58.8879 42.0486 58.8655 42.1395 58.8436L42.6112 58.7382C43.0643 58.6527 43.4739 58.6483 43.9598 58.91C44.8395 59.3839 44.9836 60.3508 45.1288 61.328C45.1578 61.5233 45.1865 61.7197 45.2216 61.912C45.3231 62.4695 45.3621 63.0408 45.3993 63.5926C45.5002 65.0894 45.5915 66.4436 46.9042 66.9921C49.0321 67.8809 50.146 65.4245 51.1718 63.162C51.2213 63.0526 51.2709 62.9438 51.3202 62.8358C53.2689 58.5626 53.4787 53.5939 51.7401 49.2128L51.66 49.0106C50.6387 46.432 49.2726 42.9818 46.9042 43.9022C45.5749 44.4188 45.5345 45.7414 45.4891 47.2411C45.4652 48.0338 45.4397 48.8762 45.2216 49.6747C45.1932 49.7785 45.1668 49.8806 45.1405 49.9803C44.9118 50.848 44.7248 51.5547 43.9598 51.9833C43.2934 52.3565 42.7601 52.2179 42.0653 52.037C41.9976 52.0194 41.9283 52.0013 41.8573 51.9833C40.785 51.7117 39.961 50.5468 39.3759 49.3339C39.3132 49.2041 39.2822 49.061 39.2821 48.9169V17.3212C39.2821 16.769 39.7299 16.3213 40.2821 16.3212H72.6014C73.5751 15.6315 74.4129 14.7421 74.6307 13.6503C74.8275 12.6641 75.0309 11.9595 74.6083 11.0643C74.1151 10.02 73.2791 9.8638 72.2557 9.536C69.9098 8.7846 67.2111 10.0195 66.3895 7.52819C65.407 4.54811 69.0998 2.8171 71.7186 1.52233Z" fill="#A8E6F1"/>
<ellipse cx="70.6486" cy="41.4337" rx="2.37362" ry="7.5828" fill="black"/>
<path d="M72.9562 30.6854C73.158 31.4297 71.3704 31.193 69.4143 31.8192C67.4583 32.4453 66.0743 33.6973 65.8725 32.9529C65.6707 32.2086 67.0929 31.0976 69.0489 30.4714C71.005 29.8453 72.7543 29.9411 72.9562 30.6854Z" fill="black"/>
<path d="M92.9438 32.648C92.7788 33.4029 91.3354 32.2331 89.3513 31.7214C87.3672 31.2096 85.5939 31.5498 85.7588 30.7948C85.9237 30.0398 87.6658 29.8426 89.6499 30.3544C91.634 30.8661 93.1087 31.893 92.9438 32.648Z" fill="black"/>
<ellipse cx="88.6501" cy="41.4337" rx="2.37362" ry="7.5828" fill="black"/>
<path d="M64.78 58.866C64.4482 58.5953 64.5694 58.4633 64.5694 58.4633C64.5694 58.4633 64.641 58.6072 64.78 58.866C65.3185 59.3052 67.0503 60.1097 72.4302 61.3077C78.0743 62.5646 93.1611 60.4619 93.1611 60.4619C93.1611 60.4619 85.2425 73.7064 79.2188 72.365C71.4773 70.641 65.9083 60.9669 64.78 58.866Z" fill="black"/>
<path d="M7.7922 88.0976L52.2706 74.7926" stroke="black"/>
<g clip-path="url(#clip0_3626_9505)">
<path d="M111.398 114.606C111.416 114.555 111.275 114.281 111.196 114.197C110.601 113.566 108.773 112.009 106.656 112.997C106.028 113.29 105.324 114.386 103.829 114.553C103.412 114.599 102.68 113.927 102.271 114.034C102.145 114.067 102.399 114.459 102.531 114.568C104.426 116.132 106.564 117.932 108.612 117.401C109.938 117.059 112.106 116.197 111.4 114.604" fill="#A8E6F1"/>
<path d="M107.369 116.857C107.036 116.785 106.855 116.531 106.829 116.205C106.789 115.736 106.958 115.796 106.296 115.495C106.007 115.364 105.955 115.074 105.897 114.81C105.85 114.599 106.024 114.276 106.18 114.137C106.219 114.102 106.244 114.082 106.268 114.064C106.277 114.006 106.293 113.95 106.316 113.897C106.381 113.724 106.529 113.584 106.689 113.496C106.741 113.469 106.573 113.327 106.369 113.178C105.801 113.596 105.102 114.41 103.828 114.553C103.412 114.599 102.68 113.927 102.271 114.034C102.144 114.067 102.399 114.459 102.531 114.568C104.425 116.132 106.564 117.931 108.612 117.401L108.636 117.395C108.306 117.141 107.881 116.968 107.37 116.855" fill="#185D6D"/>
<path d="M124.468 110.759C116.721 111.892 110.556 113.606 110.701 114.587C110.845 115.57 117.242 115.449 124.99 114.315C132.737 113.184 138.901 111.469 138.758 110.486C138.614 109.506 132.216 109.627 124.468 110.759Z" fill="#185D6D"/>
</g>
<line y1="-0.3" x2="2.07565" y2="-0.3" transform="matrix(0.563993 0.82578 0.83816 -0.545425 122.992 110.707)" stroke="black" stroke-width="0.6"/>
<line y1="-0.3" x2="2.07671" y2="-0.3" transform="matrix(-0.582528 0.812811 0.825834 0.563913 122.992 110.707)" stroke="black" stroke-width="0.6"/>
<line y1="-0.35" x2="2.424" y2="-0.35" transform="matrix(0.00563127 0.999984 0.999986 -0.00536266 122.896 110.704)" stroke="black" stroke-width="0.7"/>
<path d="M111.898 61C111.898 61 118.175 73.0002 120.357 81.2827C123.367 92.7029 122.699 111.278 122.699 111.278" stroke="black"/>
<path d="M24.4673 65.1335C17.9781 66.495 12.2956 70.3785 8.66986 75.9297C5.04407 81.4809 3.77199 88.2451 5.13348 94.7342C6.49496 101.223 10.3785 106.906 15.9297 110.532C21.4809 114.157 28.2451 115.43 34.7342 114.068C35.8157 113.841 36.7628 113.194 37.3671 112.269C37.9714 111.343 38.1834 110.216 37.9565 109.135C37.7341 108.074 37.1267 107.208 36.3259 106.638C35.5466 106.036 34.9392 105.17 34.7224 104.137C34.4955 103.055 34.7075 101.928 35.3118 101.003C35.9161 100.077 36.8632 99.4301 37.9447 99.2031L42.7566 98.1936C46.3617 97.4372 49.5187 95.2797 51.533 92.1957C53.5473 89.1117 54.254 85.3538 53.4976 81.7487C50.9765 69.7326 37.9786 62.2987 24.4673 65.1335Z" fill="#A8E6F1"/>
<path d="M44.553 86.4636C43.4714 86.6906 42.3441 86.4785 41.4189 85.8742C40.4937 85.2699 39.8464 84.3229 39.6195 83.2413C39.3926 82.1598 39.6046 81.0325 40.2089 80.1073C40.8132 79.182 41.7603 78.5348 42.8418 78.3079C43.9233 78.081 45.0507 78.293 45.9759 78.8973C46.9011 79.5016 47.5484 80.4487 47.7753 81.5302C48.0022 82.6117 47.7902 83.7391 47.1859 84.6643C46.5816 85.5895 45.6345 86.2367 44.553 86.4636ZM34.1157 77.3005C33.0341 77.5274 31.9068 77.3154 30.9816 76.7111C30.0564 76.1068 29.4091 75.1597 29.1822 74.0782C28.9553 72.9966 29.1673 71.8693 29.7716 70.9441C30.3759 70.0189 31.323 69.3716 32.4045 69.1447C33.486 68.9178 34.6134 69.1298 35.5386 69.7341C36.4638 70.3384 37.1111 71.2855 37.338 72.367C37.5649 73.4485 37.3529 74.5759 36.7486 75.5011C36.1443 76.4263 35.1972 77.0735 34.1157 77.3005ZM20.5227 80.1524C19.4412 80.3793 18.3139 80.1673 17.3887 79.563C16.4634 78.9587 15.8162 78.0116 15.5893 76.9301C15.3624 75.8486 15.5744 74.7212 16.1787 73.796C16.783 72.8708 17.7301 72.2235 18.8116 71.9966C19.8931 71.7697 21.0205 71.9817 21.9457 72.586C22.8709 73.1903 23.5181 74.1374 23.745 75.2189C23.972 76.3004 23.7599 77.4278 23.1556 78.353C22.5513 79.2782 21.6043 79.9255 20.5227 80.1524ZM14.6485 92.7379C13.567 92.9648 12.4396 92.7528 11.5144 92.1485C10.5892 91.5442 9.94198 90.5971 9.71507 89.5156C9.48816 88.4341 9.70017 87.3067 10.3045 86.3815C10.9088 85.4563 11.8558 84.809 12.9374 84.5821C14.0189 84.3552 15.1463 84.5672 16.0715 85.1715C16.9967 85.7758 17.6439 86.7229 17.8708 87.8044C18.0977 88.886 17.8857 90.0133 17.2814 90.9385C16.6771 91.8637 15.73 92.511 14.6485 92.7379ZM24.4673 65.1335C17.9781 66.495 12.2956 70.3785 8.66986 75.9297C5.04407 81.4809 3.77199 88.2451 5.13348 94.7342C6.49496 101.223 10.3785 106.906 15.9297 110.532C21.4809 114.157 28.2451 115.43 34.7342 114.068C35.8157 113.841 36.7628 113.194 37.3671 112.269C37.9714 111.343 38.1834 110.216 37.9565 109.135C37.7341 108.074 37.1267 107.208 36.3259 106.638C35.5466 106.036 34.9392 105.17 34.7224 104.137C34.4955 103.055 34.7075 101.928 35.3118 101.003C35.9161 100.077 36.8632 99.4301 37.9447 99.2031L42.7566 98.1936C46.3617 97.4372 49.5187 95.2797 51.533 92.1957C53.5473 89.1117 54.254 85.3538 53.4976 81.7487C50.9765 69.7326 37.9786 62.2987 24.4673 65.1335Z" fill="#185D6D"/>
<defs>
<clipPath id="clip0_3626_9505">
<rect width="26.2481" height="26.2481" fill="white" transform="translate(118.578 94) rotate(39.1682)"/>
</clipPath>
</defs>
</svg>
