<svg width="152" height="150" viewBox="0 0 152 150" fill="none" xmlns="http://www.w3.org/2000/svg">
<path d="M88 94L88.385 148.744" stroke="black"/>
<path d="M92.6535 149.334C92.6535 150.312 90.7417 149.924 88.3833 149.924C86.025 149.924 84.1132 150.312 84.1132 149.334C84.1132 148.356 86.025 147.563 88.3833 147.563C90.7417 147.563 92.6535 148.356 92.6535 149.334Z" fill="black"/>
<path d="M69.6989 95.621V147.563" stroke="black"/>
<path d="M73.4365 148.744C73.4365 149.722 71.5247 149.334 69.1664 149.334C66.808 149.334 64.8962 149.722 64.8962 148.744C64.8962 147.766 66.808 146.973 69.1664 146.973C71.5247 146.973 73.4365 147.766 73.4365 148.744Z" fill="black"/>
<path d="M71.7186 1.52233C76.1389 -0.663151 81.1753 -0.457383 85.5253 1.8944C87.911 3.18421 90.7027 4.52777 89.7821 7.2821C89.0406 9.50024 86.7471 8.92042 84.6542 9.40612C83.4868 9.6771 82.1908 9.68547 81.6259 10.9901C81.2314 11.9012 81.4546 12.5898 81.6483 13.577C81.8369 14.5382 82.4922 15.5274 83.1493 16.3212H118.282C118.834 16.3212 119.282 16.7689 119.282 17.3212V95.3212C119.282 95.8734 118.834 96.3212 118.282 96.3212H84.5995C84.3225 96.3211 84.0561 96.2075 83.8739 95.9989C83.2033 95.2313 82.4721 94.2055 82.2831 93.2176C82.2621 93.1082 82.2413 93.0026 82.2206 92.9003C82.0701 92.1573 81.9532 91.5813 82.2792 90.8514C82.7218 89.8606 83.6287 89.6974 84.5448 89.5321C84.7278 89.4991 84.9115 89.4654 85.0917 89.4257C85.6142 89.3103 86.1496 89.2655 86.6669 89.2225C88.0701 89.1059 89.3398 89.0005 89.8514 87.5223C90.6804 85.1263 88.3753 83.878 86.2518 82.7284C86.1492 82.6728 86.0466 82.6176 85.9452 82.5624C81.9343 80.3782 77.2744 80.1509 73.1698 82.1161C73.1074 82.146 73.044 82.1765 72.9803 82.2069C70.5645 83.3613 67.3323 84.9062 68.2001 87.5692C68.6871 89.0638 69.9277 89.1062 71.3339 89.1542C72.0771 89.1795 72.8671 89.2063 73.6161 89.4501C73.7136 89.4818 73.8095 89.5124 73.9032 89.5419C74.7172 89.7975 75.3807 90.0054 75.7841 90.8651C76.1356 91.6144 76.006 92.2156 75.8378 92.9979C75.8214 93.0739 75.8046 93.1516 75.788 93.2313C75.5116 94.5528 74.2307 95.5419 72.9852 96.2098C72.8461 96.2844 72.6899 96.3212 72.5321 96.3212H40.2821C39.73 96.321 39.2822 95.8733 39.2821 95.3212V61.1024C39.2821 60.8488 39.3773 60.6031 39.5565 60.4237C40.2166 59.7632 41.0515 59.0932 41.8573 58.91C41.9545 58.8879 42.0486 58.8655 42.1395 58.8436L42.6112 58.7382C43.0643 58.6527 43.4739 58.6483 43.9598 58.91C44.8395 59.3839 44.9836 60.3508 45.1288 61.328C45.1578 61.5233 45.1865 61.7197 45.2216 61.912C45.3231 62.4695 45.3621 63.0408 45.3993 63.5926C45.5002 65.0894 45.5915 66.4436 46.9042 66.9921C49.0321 67.8809 50.146 65.4245 51.1718 63.162C51.2213 63.0526 51.2709 62.9438 51.3202 62.8358C53.2689 58.5626 53.4787 53.5939 51.7401 49.2128L51.66 49.0106C50.6387 46.432 49.2726 42.9818 46.9042 43.9022C45.5749 44.4188 45.5345 45.7414 45.4891 47.2411C45.4652 48.0338 45.4397 48.8762 45.2216 49.6747C45.1932 49.7785 45.1668 49.8806 45.1405 49.9803C44.9118 50.848 44.7248 51.5547 43.9598 51.9833C43.2934 52.3565 42.7601 52.2179 42.0653 52.037C41.9976 52.0194 41.9283 52.0013 41.8573 51.9833C40.785 51.7117 39.961 50.5468 39.3759 49.3339C39.3132 49.2041 39.2822 49.061 39.2821 48.9169V17.3212C39.2821 16.769 39.7299 16.3213 40.2821 16.3212H72.6014C73.5751 15.6315 74.4129 14.7421 74.6307 13.6503C74.8275 12.6641 75.0309 11.9595 74.6083 11.0643C74.1151 10.02 73.2791 9.8638 72.2557 9.536C69.9098 8.7846 67.2111 10.0195 66.3895 7.52819C65.407 4.54811 69.0998 2.8171 71.7186 1.52233Z" fill="#A8E6F1"/>
<ellipse cx="70.6486" cy="41.4337" rx="2.37362" ry="7.5828" fill="black"/>
<path d="M72.9562 30.6854C73.158 31.4297 71.3704 31.193 69.4143 31.8192C67.4583 32.4453 66.0743 33.6973 65.8725 32.9529C65.6707 32.2086 67.0929 31.0976 69.0489 30.4714C71.005 29.8453 72.7543 29.9411 72.9562 30.6854Z" fill="black"/>
<path d="M92.9438 32.648C92.7788 33.4029 91.3354 32.2331 89.3513 31.7214C87.3672 31.2096 85.5939 31.5498 85.7588 30.7948C85.9237 30.0398 87.6658 29.8426 89.6499 30.3544C91.634 30.8661 93.1087 31.893 92.9438 32.648Z" fill="black"/>
<ellipse cx="88.6501" cy="41.4337" rx="2.37362" ry="7.5828" fill="black"/>
<path d="M64.78 58.866C64.4482 58.5953 64.5694 58.4633 64.5694 58.4633C64.5694 58.4633 64.641 58.6072 64.78 58.866C65.3185 59.3052 67.0503 60.1097 72.4302 61.3077C78.0743 62.5646 93.1611 60.4619 93.1611 60.4619C93.1611 60.4619 85.2425 73.7064 79.2188 72.365C71.4773 70.641 65.9083 60.9669 64.78 58.866Z" fill="black"/>
<g clip-path="url(#clip0_3732_6476)">
<path d="M146.107 50.4246L134.655 46.0443L133.078 45.9598L134.307 46.9517L145.749 51.3579L146.107 50.4246ZM148.441 51.3202L147.508 50.962L147.149 51.8955L148.083 52.2535C148.206 52.301 148.344 52.2973 148.465 52.2434C148.586 52.1895 148.681 52.0897 148.728 51.966C148.776 51.8422 148.772 51.7046 148.718 51.5836C148.664 51.4625 148.565 51.3678 148.441 51.3202Z" stroke="#185D6D" stroke-linecap="round" stroke-linejoin="round"/>
</g>
<path d="M15 88L52.2705 74.7926" stroke="black"/>
<g clip-path="url(#clip1_3732_6476)">
<path d="M15.1479 64.7754L28.484 97.135L24.4391 98.802C23.1447 99.3355 21.5454 98.6697 21.0119 97.3753L9.6762 69.8696C9.14276 68.5752 9.80858 66.9758 11.103 66.4424L15.1479 64.7754ZM46.5662 85.8974C47.2997 87.6772 46.4437 89.7335 44.6639 90.467L28.484 97.135L15.1479 64.7754L31.3278 58.1073C33.1075 57.3738 35.1639 58.2299 35.8973 60.0097L46.5662 85.8974Z" fill="#A8E6F1"/>
<path d="M13.5299 65.4422L26.8661 97.8018L24.4391 98.802C23.1447 99.3355 21.5453 98.6697 21.0119 97.3753L9.6762 69.8696C9.14275 68.5752 9.80858 66.9758 11.103 66.4424L13.5299 65.4422ZM46.5662 85.8974C47.2997 87.6772 46.4437 89.7335 44.6639 90.467L28.484 97.135L15.1479 64.7754L31.3278 58.1073C33.1075 57.3738 35.1638 58.2299 35.8973 60.0096L46.5662 85.8974ZM34.6618 66.1972L21.7179 71.5317L22.3847 73.1496L35.3286 67.8152L34.6618 66.1972ZM31.1414 71.4336L23.0515 74.7676L23.7183 76.3856L31.8083 73.0516L31.1414 71.4336Z" fill="#185D6D"/>
</g>
<line x1="14.6464" y1="87.6464" x2="23.6464" y2="78.6464" stroke="black"/>
<path d="M142.968 49L109.697 77.7926" stroke="black"/>
<defs>
<clipPath id="clip0_3732_6476">
<rect width="16" height="16" fill="white" transform="translate(145.054 38.4374) rotate(65.9955)"/>
</clipPath>
<clipPath id="clip1_3732_6476">
<rect width="35" height="35" fill="white" transform="matrix(-0.924562 0.381032 0.381032 0.924562 37.7997 55.4401)"/>
</clipPath>
</defs>
</svg>
