<svg width="151" height="153" viewBox="0 0 151 153" fill="none" xmlns="http://www.w3.org/2000/svg">
<path d="M95.5208 94L95.9058 148.744" stroke="black"/>
<path d="M100.174 149.334C100.174 150.312 98.2624 149.924 95.904 149.924C93.5457 149.924 91.6339 150.312 91.6339 149.334C91.6339 148.356 93.5457 147.563 95.904 147.563C98.2624 147.563 100.174 148.356 100.174 149.334Z" fill="black"/>
<path d="M77.2196 95.621V147.563" stroke="black"/>
<path d="M80.9572 148.744C80.9572 149.722 79.0454 149.334 76.6871 149.334C74.3288 149.334 72.417 149.722 72.417 148.744C72.417 147.766 74.3288 146.973 76.6871 146.973C79.0454 146.973 80.9572 147.766 80.9572 148.744Z" fill="black"/>
<path d="M79.2394 1.52233C83.6597 -0.663151 88.6961 -0.457383 93.046 1.8944C95.4317 3.18421 98.2234 4.52777 97.3029 7.2821C96.5614 9.50024 94.2679 8.92042 92.1749 9.40612C91.0075 9.6771 89.7115 9.68547 89.1466 10.9901C88.7521 11.9012 88.9754 12.5898 89.1691 13.577C89.3577 14.5382 90.0129 15.5274 90.67 16.3212H125.803C126.355 16.3212 126.803 16.7689 126.803 17.3212V95.3212C126.803 95.8734 126.355 96.3212 125.803 96.3212H92.1202C91.8433 96.3211 91.5769 96.2075 91.3947 95.9989C90.724 95.2313 89.9928 94.2055 89.8038 93.2176C89.7829 93.1082 89.7621 93.0026 89.7413 92.9003C89.5908 92.1573 89.4739 91.5813 89.7999 90.8514C90.2425 89.8606 91.1494 89.6974 92.0656 89.5321C92.2485 89.4991 92.4323 89.4654 92.6124 89.4257C93.1349 89.3103 93.6704 89.2655 94.1876 89.2225C95.5909 89.1059 96.8606 89.0005 97.3722 87.5223C98.2011 85.1263 95.896 83.878 93.7726 82.7284C93.67 82.6728 93.5674 82.6176 93.4659 82.5624C89.4551 80.3782 84.7952 80.1509 80.6906 82.1161C80.6281 82.146 80.5648 82.1765 80.5011 82.2069C78.0853 83.3613 74.853 84.9062 75.7208 87.5692C76.2079 89.0638 77.4485 89.1062 78.8546 89.1542C79.5978 89.1795 80.3878 89.2063 81.1368 89.4501C81.2344 89.4818 81.3303 89.5124 81.424 89.5419C82.2379 89.7975 82.9014 90.0054 83.3048 90.8651C83.6563 91.6144 83.5268 92.2156 83.3585 92.9979C83.3422 93.0739 83.3254 93.1516 83.3087 93.2313C83.0323 94.5528 81.7515 95.5419 80.506 96.2098C80.3669 96.2844 80.2107 96.3212 80.0529 96.3212H47.8029C47.2507 96.321 46.8029 95.8733 46.8029 95.3212V61.1024C46.8029 60.8488 46.8981 60.6031 47.0773 60.4237C47.7374 59.7632 48.5723 59.0932 49.3781 58.91C49.4753 58.8879 49.5694 58.8655 49.6603 58.8436L50.132 58.7382C50.5851 58.6527 50.9946 58.6483 51.4806 58.91C52.3602 59.3839 52.5044 60.3508 52.6495 61.328C52.6786 61.5233 52.7073 61.7197 52.7423 61.912C52.8439 62.4695 52.8828 63.0408 52.92 63.5926C53.021 65.0894 53.1123 66.4436 54.4249 66.9921C56.5529 67.8809 57.6667 65.4245 58.6925 63.162C58.7421 63.0526 58.7917 62.9438 58.8409 62.8358C60.7897 58.5626 60.9994 53.5939 59.2609 49.2128L59.1808 49.0106C58.1594 46.432 56.7933 42.9818 54.4249 43.9022C53.0956 44.4188 53.0552 45.7414 53.0099 47.2411C52.9859 48.0338 52.9604 48.8762 52.7423 49.6747C52.7139 49.7785 52.6876 49.8806 52.6613 49.9803C52.4325 50.848 52.2455 51.5547 51.4806 51.9833C50.8141 52.3565 50.2809 52.2179 49.5861 52.037C49.5184 52.0194 49.4491 52.0013 49.3781 51.9833C48.3058 51.7117 47.4818 50.5468 46.8966 49.3339C46.834 49.2041 46.8029 49.061 46.8029 48.9169V17.3212C46.8029 16.769 47.2507 16.3213 47.8029 16.3212H80.1222C81.0958 15.6315 81.9337 14.7421 82.1515 13.6503C82.3483 12.6641 82.5517 11.9595 82.129 11.0643C81.6358 10.02 80.7998 9.8638 79.7765 9.536C77.4305 8.7846 74.7318 10.0195 73.9103 7.52819C72.9278 4.54811 76.6206 2.8171 79.2394 1.52233Z" fill="#A8E6F1"/>
<ellipse cx="78.1693" cy="41.4337" rx="2.37362" ry="7.5828" fill="black"/>
<path d="M80.4768 30.6854C80.6787 31.4297 78.8911 31.193 76.935 31.8191C74.979 32.4453 73.595 33.6972 73.3932 32.9529C73.1914 32.2086 74.6136 31.0976 76.5696 30.4714C78.5257 29.8453 80.275 29.9411 80.4768 30.6854Z" fill="black"/>
<path d="M100.464 32.648C100.3 33.403 98.8561 32.2331 96.872 31.7214C94.8879 31.2097 93.1146 31.5498 93.2795 30.7948C93.4444 30.0398 95.1865 29.8426 97.1706 30.3544C99.1547 30.8661 100.629 31.893 100.464 32.648Z" fill="black"/>
<ellipse cx="96.1709" cy="41.4337" rx="2.37362" ry="7.5828" fill="black"/>
<path d="M72.3007 58.866C71.9689 58.5954 72.0902 58.4634 72.0902 58.4634C72.0902 58.4634 72.1618 58.6072 72.3007 58.866C72.8392 59.3052 74.5711 60.1097 79.951 61.3077C85.595 62.5646 100.682 60.4619 100.682 60.4619C100.682 60.4619 92.7633 73.7064 86.7395 72.365C78.998 70.641 73.429 60.967 72.3007 58.866Z" fill="black"/>
<path d="M19.5208 87L59.7914 74.7927" stroke="black"/>
<path d="M119.004 60.6383C119.004 60.6383 125.28 72.6386 127.462 80.921C130.472 92.3412 129.804 110.916 129.804 110.916" stroke="black"/>
<line y1="-0.3" x2="2.07565" y2="-0.3" transform="matrix(0.563993 0.82578 0.83816 -0.545425 130.097 110.345)" stroke="black" stroke-width="0.6"/>
<line y1="-0.3" x2="2.07671" y2="-0.3" transform="matrix(-0.582528 0.812811 0.825834 0.563913 130.097 110.345)" stroke="black" stroke-width="0.6"/>
<line y1="-0.35" x2="2.424" y2="-0.35" transform="matrix(0.00563127 0.999984 0.999986 -0.00536266 130.001 110.342)" stroke="black" stroke-width="0.7"/>
<path d="M69.7131 32.7383C81.8459 31.756 90.5436 31.7459 102.686 32.7568C105.097 32.9578 106.752 35.283 106.167 37.6523L103.873 46.9541C103.43 48.7506 101.825 50.0035 100.014 49.9531C95.5368 49.8287 92.5798 49.4038 90.2151 48.2324C87.9243 47.0977 85.0782 46.703 82.5999 47.8701C79.7837 49.1964 76.9846 49.7668 72.925 49.9395C71.2243 50.0117 69.6821 48.8766 69.1624 47.1914L66.2834 37.8545C65.5355 35.4287 67.2055 32.9413 69.7131 32.7383Z" stroke="#185D6D" stroke-width="2"/>
<path d="M105.521 43.9957L106.267 40.0261L126.393 41.5356L126.287 43.8189L105.521 43.9957Z" fill="#185D6D"/>
<path d="M67.3844 38.7395L66.7244 42.7243L46.5701 41.6498L46.6271 39.3648L67.3844 38.7395Z" fill="#185D6D"/>
<path d="M104.944 32.3398C104.779 33.0948 103.335 31.925 101.351 31.4132C99.3672 30.9015 97.5939 31.2416 97.7588 30.4867C97.9237 29.7317 99.6658 29.5345 101.65 30.0462C103.634 30.5579 105.109 31.5848 104.944 32.3398Z" fill="black"/>
<path d="M111.977 22.5765L61 22.2905C61 22.2905 64.3406 18.2473 66.2523 18.2581L107.034 18.4868C108.946 18.4975 111.977 22.5765 111.977 22.5765Z" fill="#185D6D"/>
<path d="M105.261 16.3081C105.258 22.8906 95.5357 19.0843 85.0375 19.0791C74.5393 19.0739 66.027 22.8712 66.0302 16.2887C66.0335 9.70627 74.5487 0.00420491 85.0469 0.00939192C95.5451 0.0145789 105.264 9.72566 105.261 16.3081Z" fill="#185D6D"/>
<path d="M88.9336 14.7921C88.9959 8.92678 89.0531 3.55028 89.0843 0.617697" stroke="#A8E6F1" stroke-width="3"/>
<path d="M81.5212 14.7861C81.6888 8.92449 81.8424 3.55133 81.9262 0.620563" stroke="#A8E6F1" stroke-width="3"/>
<g clip-path="url(#clip0_3626_9605)">
<path d="M64.738 130.046C64.7282 133.365 65.1482 136.404 66.5945 139.358C68.1336 142.501 70.8579 145.552 75.3953 148.786L78.0095 150.65L74.7996 150.601C72.8961 150.572 70.8145 150.426 68.8142 150.07C66.9611 149.74 65.2064 149.218 63.7449 148.519C62.3007 147.828 61.0494 146.917 60.3308 145.753C57.3535 140.932 58.5282 134.274 62.9998 129.37L64.7458 127.453L64.738 130.046ZM12.3748 124.944L17.0632 125.033L17.2009 125.035L17.3328 125.075L41.2332 132.295L41.5212 132.382L41.7126 132.613L48.5232 140.803L49.0681 141.458L48.5076 142.1L41.865 149.705L41.5662 150.047H7.99194L7.69507 149.604L2.68237 142.119L2.3396 141.606L2.64331 141.069L11.4861 125.451L11.7791 124.932L12.3748 124.944ZM36.0847 135.98C33.2795 135.98 30.9657 138.299 30.9656 141.136C30.9656 143.973 33.2794 146.293 36.0847 146.293C38.8901 146.293 41.2039 143.973 41.2039 141.136C41.2037 138.299 38.89 135.98 36.0847 135.98ZM12.5388 137.712C10.3672 137.712 8.56714 139.515 8.56714 141.715C8.56723 143.915 10.3674 145.717 12.5388 145.717C14.7104 145.717 16.5104 143.915 16.5105 141.715C16.5105 139.515 14.7105 137.712 12.5388 137.712ZM36.0847 136.75C38.518 136.75 40.4509 138.704 40.4509 141.137C40.4507 143.57 38.5177 145.523 36.0847 145.523C33.6518 145.523 31.7188 143.57 31.7185 141.137C31.7185 138.704 33.6515 136.75 36.0847 136.75ZM12.5388 138.483C14.3385 138.483 15.7576 139.919 15.7576 141.715C15.7575 143.511 14.3385 144.947 12.5388 144.947C10.7395 144.946 9.32114 143.511 9.32104 141.715C9.32104 139.92 10.7391 138.483 12.5388 138.483ZM58.0427 137.684L57.9626 138.758C57.8413 140.385 58.008 141.987 58.4783 143.496L58.8826 144.794H47.1648L48.613 143.136L50.0671 141.47L48.282 139.324L46.9187 137.684H58.0427ZM8.76147 114.1C12.7614 114.337 16.5972 114.221 20.4832 115.895L20.4949 115.9L20.5056 115.906C21.4869 116.357 22.4009 116.851 22.8191 117.778C23.1114 118.426 23.0985 119.159 22.9744 119.95C29.4266 121.855 36.1561 123.93 42.6472 125.857L42.866 125.119L34.8943 122.728L34.2566 122.536L34.1873 121.874L33.6482 116.738L33.5251 115.566L34.7019 115.635L51.0144 116.6L51.8445 116.65L51.947 117.475L54.2224 135.79L54.3621 136.913H46.2781L45.9783 136.553L41.949 131.706L17.3142 124.266L11.3494 124.153L7.37085 131.181L6.52319 132.678L5.64136 131.201L3.2439 127.18L2.99194 126.756L3.17358 126.298L7.77319 114.729L8.04077 114.057L8.76147 114.1ZM60.53 112.131L61.9265 128.989L61.9587 129.387L61.7078 129.699C60.7671 130.865 59.9936 132.109 59.3962 133.393L57.8044 136.814L57.4929 133.054L56.6492 122.879L54.9138 123.903L53.6013 124.676L53.4138 123.164L53.0417 120.173L52.9607 119.522L53.5261 119.188L56.2126 117.604L55.7888 112.483L55.7048 111.471L56.7175 111.403L59.4656 111.216L60.449 111.15L60.53 112.131ZM16.0837 129.264C14.4559 129.264 13.0967 130.623 13.0964 132.276C13.0964 133.929 14.4558 135.288 16.0837 135.288C17.7116 135.288 19.071 133.929 19.071 132.276C19.0708 130.623 17.7115 129.264 16.0837 129.264ZM16.0837 130.035C17.3391 130.035 18.3179 131.027 18.3181 132.276C18.3181 133.524 17.3398 134.518 16.0837 134.518C14.8275 134.518 13.8494 133.524 13.8494 132.276C13.8496 131.027 14.8281 130.035 16.0837 130.035ZM31.6179 104.618L33.3123 120.754L33.4685 122.241L32.0349 121.818L24.5984 119.625L23.9402 119.431L23.8845 118.747C23.794 117.634 23.3001 116.904 22.5164 116.294C21.676 115.64 20.554 115.162 19.2234 114.591L18.6042 114.327L18.6179 113.653C18.6669 111.215 19.3034 108.807 21.1228 106.957C22.9253 105.125 25.8703 103.858 30.5955 103.722L31.5212 103.696L31.6179 104.618ZM43.9695 106.161V115.899H39.5007V106.161H43.9695ZM30.9529 98.2806L31.0466 99.1761L31.3279 101.853L31.4402 102.917L30.3699 102.957C25.6054 103.132 22.5 104.471 20.5916 106.411C18.7891 108.244 18.0413 110.62 17.8904 113.017L17.8171 114.175L16.6824 113.931C15.8804 113.759 15.0563 113.608 14.2263 113.469L13.3914 113.329V98.2806H30.9529ZM59.7693 102.952L60.3015 109.37L60.3845 110.382L59.3718 110.451L56.6248 110.637L55.6414 110.703L55.5603 109.722L55.032 103.347L54.95 102.352L55.9451 102.268L58.6892 102.037L59.6873 101.954L59.7693 102.952Z" fill="#A8E6F1" stroke="#185D6D" stroke-width="2"/>
<path d="M64.738 130.046C64.7282 133.365 65.1482 136.404 66.5945 139.358C68.1336 142.501 70.8579 145.552 75.3953 148.786L78.0095 150.65L74.7996 150.601C72.8961 150.572 70.8145 150.426 68.8142 150.07C66.9611 149.74 65.2064 149.218 63.7449 148.519C62.3007 147.828 61.0494 146.917 60.3308 145.753C57.3535 140.932 58.5282 134.274 62.9998 129.37L64.7458 127.453L64.738 130.046ZM12.3748 124.944L17.0632 125.033L17.2009 125.035L17.3328 125.075L41.2332 132.295L41.5212 132.382L41.7126 132.613L48.5232 140.803L49.0681 141.458L48.5076 142.1L41.865 149.705L41.5662 150.047H7.99194L7.69507 149.604L2.68237 142.119L2.3396 141.606L2.64331 141.069L11.4861 125.451L11.7791 124.932L12.3748 124.944ZM36.0847 135.98C33.2795 135.98 30.9657 138.299 30.9656 141.136C30.9656 143.973 33.2794 146.293 36.0847 146.293C38.8901 146.293 41.2039 143.973 41.2039 141.136C41.2037 138.299 38.89 135.98 36.0847 135.98ZM12.5388 137.712C10.3672 137.712 8.56714 139.515 8.56714 141.715C8.56723 143.915 10.3674 145.717 12.5388 145.717C14.7104 145.717 16.5104 143.915 16.5105 141.715C16.5105 139.515 14.7105 137.712 12.5388 137.712ZM36.0847 136.75C38.518 136.75 40.4509 138.704 40.4509 141.137C40.4507 143.57 38.5177 145.523 36.0847 145.523C33.6518 145.523 31.7188 143.57 31.7185 141.137C31.7185 138.704 33.6515 136.75 36.0847 136.75ZM12.5388 138.483C14.3385 138.483 15.7576 139.919 15.7576 141.715C15.7575 143.511 14.3385 144.947 12.5388 144.947C10.7395 144.946 9.32114 143.511 9.32104 141.715C9.32104 139.92 10.7391 138.483 12.5388 138.483ZM58.0427 137.684L57.9626 138.758C57.8413 140.385 58.008 141.987 58.4783 143.496L58.8826 144.794H47.1648L48.613 143.136L50.0671 141.47L48.282 139.324L46.9187 137.684H58.0427ZM8.76147 114.1C12.7614 114.337 16.5972 114.221 20.4832 115.895L20.4949 115.9L20.5056 115.906C21.4869 116.357 22.4009 116.851 22.8191 117.778C23.1114 118.426 23.0985 119.159 22.9744 119.95C29.4266 121.855 36.1561 123.93 42.6472 125.857L42.866 125.119L34.8943 122.728L34.2566 122.536L34.1873 121.874L33.6482 116.738L33.5251 115.566L34.7019 115.635L51.0144 116.6L51.8445 116.65L51.947 117.475L54.2224 135.79L54.3621 136.913H46.2781L45.9783 136.553L41.949 131.706L17.3142 124.266L11.3494 124.153L7.37085 131.181L6.52319 132.678L5.64136 131.201L3.2439 127.18L2.99194 126.756L3.17358 126.298L7.77319 114.729L8.04077 114.057L8.76147 114.1ZM60.53 112.131L61.9265 128.989L61.9587 129.387L61.7078 129.699C60.7671 130.865 59.9936 132.109 59.3962 133.393L57.8044 136.814L57.4929 133.054L56.6492 122.879L54.9138 123.903L53.6013 124.676L53.4138 123.164L53.0417 120.173L52.9607 119.522L53.5261 119.188L56.2126 117.604L55.7888 112.483L55.7048 111.471L56.7175 111.403L59.4656 111.216L60.449 111.15L60.53 112.131ZM16.0837 129.264C14.4559 129.264 13.0967 130.623 13.0964 132.276C13.0964 133.929 14.4558 135.288 16.0837 135.288C17.7116 135.288 19.071 133.929 19.071 132.276C19.0708 130.623 17.7115 129.264 16.0837 129.264ZM16.0837 130.035C17.3391 130.035 18.3179 131.027 18.3181 132.276C18.3181 133.524 17.3398 134.518 16.0837 134.518C14.8275 134.518 13.8494 133.524 13.8494 132.276C13.8496 131.027 14.8281 130.035 16.0837 130.035ZM31.6179 104.618L33.3123 120.754L33.4685 122.241L32.0349 121.818L24.5984 119.625L23.9402 119.431L23.8845 118.747C23.794 117.634 23.3001 116.904 22.5164 116.294C21.676 115.64 20.554 115.162 19.2234 114.591L18.6042 114.327L18.6179 113.653C18.6669 111.215 19.3034 108.807 21.1228 106.957C22.9253 105.125 25.8703 103.858 30.5955 103.722L31.5212 103.696L31.6179 104.618ZM43.9695 106.161V115.899H39.5007V106.161H43.9695ZM30.9529 98.2806L31.0466 99.1761L31.3279 101.853L31.4402 102.917L30.3699 102.957C25.6054 103.132 22.5 104.471 20.5916 106.411C18.7891 108.244 18.0413 110.62 17.8904 113.017L17.8171 114.175L16.6824 113.931C15.8804 113.759 15.0563 113.608 14.2263 113.469L13.3914 113.329V98.2806H30.9529ZM59.7693 102.952L60.3015 109.37L60.3845 110.382L59.3718 110.451L56.6248 110.637L55.6414 110.703L55.5603 109.722L55.032 103.347L54.95 102.352L55.9451 102.268L58.6892 102.037L59.6873 101.954L59.7693 102.952Z" fill="#185D6D" stroke="#185D6D" stroke-width="2"/>
<path d="M64.738 130.047C64.7282 133.365 65.1482 136.405 66.5945 139.358C68.1336 142.501 70.8579 145.553 75.3953 148.787L78.0095 150.65L74.7996 150.601C72.8961 150.572 70.8145 150.425 68.8142 150.069C66.9612 149.739 65.2063 149.219 63.7449 148.519C62.3007 147.828 61.0494 146.917 60.3308 145.754C57.3534 140.932 58.5282 134.274 62.9998 129.37L64.7458 127.454L64.738 130.047ZM12.3748 124.943L17.0632 125.032L17.2009 125.035L17.3328 125.075L41.2332 132.295L41.5212 132.382L41.7126 132.613L48.5232 140.803L49.0681 141.459L48.5076 142.1L41.865 149.706L41.5662 150.048H7.99194L7.69507 149.604L2.68237 142.118L2.3396 141.606L2.64331 141.069L11.4861 125.451L11.7791 124.932L12.3748 124.943ZM36.0847 135.979C33.2794 135.979 30.9656 138.299 30.9656 141.136C30.9656 143.974 33.2795 146.293 36.0847 146.293C38.89 146.293 41.2038 143.974 41.2039 141.136C41.2039 138.299 38.8901 135.979 36.0847 135.979ZM12.5388 137.713C10.3674 137.713 8.5674 139.515 8.56714 141.715C8.56714 143.914 10.3673 145.717 12.5388 145.717C14.7104 145.717 16.5105 143.914 16.5105 141.715C16.5102 139.515 14.7104 137.713 12.5388 137.713ZM36.0847 136.75C38.518 136.75 40.4508 138.703 40.4509 141.136C40.4509 143.57 38.5179 145.523 36.0847 145.523C33.6516 145.523 31.7185 143.57 31.7185 141.136C31.7186 138.703 33.6515 136.75 36.0847 136.75ZM12.5388 138.483C14.3383 138.483 15.7573 139.919 15.7576 141.715C15.7576 143.51 14.3386 144.947 12.5388 144.947C10.7395 144.947 9.32104 143.51 9.32104 141.715C9.3213 139.919 10.7392 138.483 12.5388 138.483ZM58.0427 137.683L57.9626 138.758C57.8414 140.385 58.008 141.987 58.4783 143.497L58.8826 144.795H47.1648L48.613 143.136L50.0681 141.47L48.282 139.323L46.9187 137.683H58.0427ZM16.0837 129.264C14.4558 129.264 13.0965 130.623 13.0964 132.276C13.0964 133.929 14.4558 135.289 16.0837 135.289C17.7116 135.289 19.071 133.929 19.071 132.276C19.071 130.623 17.7116 129.264 16.0837 129.264ZM16.0837 130.035C17.3392 130.035 18.3181 131.027 18.3181 132.276C18.3181 133.525 17.3398 134.518 16.0837 134.518C14.8275 134.518 13.8494 133.524 13.8494 132.276C13.8494 131.027 14.828 130.035 16.0837 130.035Z" fill="black" stroke="#185D6D" stroke-width="2"/>
</g>
<defs>
<clipPath id="clip0_3626_9605">
<rect width="82" height="55" fill="white" transform="translate(0 98)"/>
</clipPath>
</defs>
</svg>
