<svg width="150" height="150" viewBox="0 0 150 150" fill="none" xmlns="http://www.w3.org/2000/svg">
<path d="M88 94L88.385 148.744" stroke="black"/>
<path d="M92.6535 149.334C92.6535 150.312 90.7417 149.924 88.3833 149.924C86.025 149.924 84.1132 150.312 84.1132 149.334C84.1132 148.356 86.025 147.563 88.3833 147.563C90.7417 147.563 92.6535 148.356 92.6535 149.334Z" fill="black"/>
<path d="M69.6989 95.621V147.563" stroke="black"/>
<path d="M73.4365 148.744C73.4365 149.722 71.5247 149.334 69.1664 149.334C66.8081 149.334 64.8963 149.722 64.8963 148.744C64.8963 147.766 66.8081 146.973 69.1664 146.973C71.5247 146.973 73.4365 147.766 73.4365 148.744Z" fill="black"/>
<path d="M71.7186 1.52233C76.1389 -0.663151 81.1753 -0.457383 85.5253 1.8944C87.911 3.18421 90.7027 4.52777 89.7821 7.2821C89.0406 9.50024 86.7471 8.92042 84.6542 9.40612C83.4868 9.6771 82.1908 9.68547 81.6259 10.9901C81.2314 11.9012 81.4546 12.5898 81.6483 13.577C81.8369 14.5382 82.4922 15.5274 83.1493 16.3212H118.282C118.834 16.3212 119.282 16.7689 119.282 17.3212V95.3212C119.282 95.8734 118.834 96.3212 118.282 96.3212H84.5995C84.3225 96.3211 84.0561 96.2075 83.8739 95.9989C83.2033 95.2313 82.4721 94.2055 82.2831 93.2176C82.2621 93.1082 82.2413 93.0026 82.2206 92.9003C82.0701 92.1573 81.9532 91.5813 82.2792 90.8514C82.7218 89.8606 83.6287 89.6974 84.5448 89.5321C84.7278 89.4991 84.9115 89.4654 85.0917 89.4257C85.6142 89.3103 86.1496 89.2655 86.6669 89.2225C88.0701 89.1059 89.3398 89.0005 89.8514 87.5223C90.6804 85.1263 88.3753 83.878 86.2518 82.7284C86.1492 82.6728 86.0466 82.6176 85.9452 82.5624C81.9343 80.3782 77.2744 80.1509 73.1698 82.1161C73.1074 82.146 73.044 82.1765 72.9803 82.2069C70.5645 83.3613 67.3323 84.9062 68.2001 87.5692C68.6871 89.0638 69.9277 89.1062 71.3339 89.1542C72.0771 89.1795 72.8671 89.2063 73.6161 89.4501C73.7136 89.4818 73.8095 89.5124 73.9032 89.5419C74.7172 89.7975 75.3807 90.0054 75.7841 90.8651C76.1356 91.6144 76.006 92.2156 75.8378 92.9979C75.8214 93.0739 75.8046 93.1516 75.788 93.2313C75.5116 94.5528 74.2307 95.5419 72.9852 96.2098C72.8461 96.2844 72.6899 96.3212 72.5321 96.3212H40.2821C39.73 96.321 39.2822 95.8733 39.2821 95.3212V61.1024C39.2821 60.8488 39.3773 60.6031 39.5565 60.4237C40.2166 59.7632 41.0515 59.0932 41.8573 58.91C41.9545 58.8879 42.0486 58.8655 42.1395 58.8436L42.6112 58.7382C43.0643 58.6527 43.4739 58.6483 43.9598 58.91C44.8395 59.3839 44.9836 60.3508 45.1288 61.328C45.1578 61.5233 45.1865 61.7197 45.2216 61.912C45.3231 62.4695 45.3621 63.0408 45.3993 63.5926C45.5002 65.0894 45.5915 66.4436 46.9042 66.9921C49.0321 67.8809 50.146 65.4245 51.1718 63.162C51.2213 63.0526 51.2709 62.9438 51.3202 62.8358C53.2689 58.5626 53.4787 53.5939 51.7401 49.2128L51.66 49.0106C50.6387 46.432 49.2726 42.9818 46.9042 43.9022C45.5749 44.4188 45.5345 45.7414 45.4891 47.2411C45.4652 48.0338 45.4397 48.8762 45.2216 49.6747C45.1932 49.7785 45.1668 49.8806 45.1405 49.9803C44.9118 50.848 44.7248 51.5547 43.9598 51.9833C43.2934 52.3565 42.7601 52.2179 42.0653 52.037C41.9976 52.0194 41.9283 52.0013 41.8573 51.9833C40.785 51.7117 39.961 50.5468 39.3759 49.3339C39.3132 49.2041 39.2822 49.061 39.2821 48.9169V17.3212C39.2821 16.769 39.7299 16.3213 40.2821 16.3212H72.6014C73.5751 15.6315 74.4129 14.7421 74.6307 13.6503C74.8275 12.6641 75.0309 11.9595 74.6083 11.0643C74.1151 10.02 73.2791 9.8638 72.2557 9.536C69.9098 8.7846 67.2111 10.0195 66.3895 7.52819C65.407 4.54811 69.0998 2.8171 71.7186 1.52233Z" fill="#A8E6F1"/>
<ellipse cx="70.6486" cy="41.4336" rx="2.37362" ry="7.5828" fill="black"/>
<path d="M72.9562 30.6855C73.158 31.4298 71.3704 31.1931 69.4143 31.8192C67.4583 32.4454 66.0743 33.6973 65.8725 32.953C65.6707 32.2086 67.0929 31.0976 69.0489 30.4715C71.005 29.8453 72.7543 29.9411 72.9562 30.6855Z" fill="black"/>
<path d="M92.9438 32.6479C92.7788 33.4029 91.3354 32.2331 89.3513 31.7213C87.3672 31.2096 85.5939 31.5497 85.7588 30.7948C85.9237 30.0398 87.6658 29.8426 89.6499 30.3543C91.634 30.866 93.1087 31.8929 92.9438 32.6479Z" fill="black"/>
<ellipse cx="88.6501" cy="41.4336" rx="2.37362" ry="7.5828" fill="black"/>
<path d="M64.78 58.866C64.4482 58.5954 64.5694 58.4634 64.5694 58.4634C64.5694 58.4634 64.641 58.6072 64.78 58.866C65.3185 59.3052 67.0503 60.1097 72.4302 61.3077C78.0743 62.5646 93.1611 60.4619 93.1611 60.4619C93.1611 60.4619 85.2425 73.7064 79.2188 72.365C71.4773 70.641 65.9083 60.967 64.78 58.866Z" fill="black"/>
<path d="M111.483 60.6383C111.483 60.6383 117.759 72.6386 119.942 80.921C122.951 92.3412 122.284 110.916 122.284 110.916" stroke="black"/>
<line y1="-0.3" x2="2.07565" y2="-0.3" transform="matrix(0.563993 0.82578 0.83816 -0.545425 122.576 110.345)" stroke="black" stroke-width="0.6"/>
<line y1="-0.3" x2="2.07671" y2="-0.3" transform="matrix(-0.582528 0.812811 0.825834 0.563913 122.576 110.345)" stroke="black" stroke-width="0.6"/>
<line y1="-0.35" x2="2.424" y2="-0.35" transform="matrix(0.00563127 0.999984 0.999986 -0.00536266 122.48 110.342)" stroke="black" stroke-width="0.7"/>
<path d="M23 83.0001L56.2706 70.7927" stroke="black"/>
<rect x="22.2588" y="61.6952" width="26" height="31" rx="1" transform="rotate(-15 22.2588 61.6952)" fill="#185D6D"/>
<g clip-path="url(#clip0_4096_6069)">
<rect x="23.7424" y="63.3682" width="24" height="28" rx="1" transform="rotate(-15 23.7424 63.3682)" fill="#A8E6F1"/>
<rect x="26.4507" y="65.7483" width="19" height="2" rx="1" transform="rotate(-15 26.4507 65.7483)" fill="#185D6D"/>
<rect x="27.2272" y="68.6461" width="19" height="2" rx="1" transform="rotate(-15 27.2272 68.6461)" fill="#185D6D"/>
<rect x="28.0036" y="71.5438" width="12" height="2" rx="1" transform="rotate(-15 28.0036 71.5438)" fill="#185D6D"/>
</g>
<rect x="27.3473" y="61.3671" width="15" height="2" rx="1" transform="rotate(-15 27.3473 61.3671)" fill="black"/>
<rect x="32.6252" y="57.8822" width="3" height="3" rx="1.5" transform="rotate(-15 32.6252 57.8822)" fill="black"/>
<line x1="23.6464" y1="82.6464" x2="32.6464" y2="73.6464" stroke="black"/>
<path d="M79.6197 31.3302C77.4434 31.3302 74.8062 29.8657 71.9712 29.0345C68.1847 27.9243 54.6614 26.2594 51.0385 32.9198C48.8117 37.0136 51.9443 49.117 55.064 50.6811C59.4921 52.9013 70.5723 52.1758 72.7763 49.571C75.5942 46.2408 76.5628 36.2501 76.5628 35.1401C76.5628 34.03 77.8459 32.9953 79.6197 32.9954" stroke="#185D6D" stroke-width="3"/>
<path d="M69.9584 29.1101C77.6069 30.7752 75.9967 34.6605 75.5942 40.7659" stroke="#185D6D" stroke-width="2"/>
<path d="M78.5724 34.1055C77.3648 34.1055 77.2044 39.1008 75.9967 42.4311" stroke="#185D6D"/>
<path d="M38.0206 29.0052L37.9378 33.9825L50.3065 35.299L50.5492 32.4869L38.0206 29.0052Z" fill="#185D6D"/>
<path d="M75.1034 30.4849C78.2867 34.0358 76.9873 34.6489 75.8998 36.4512" stroke="#185D6D" stroke-width="2"/>
<path d="M79.3803 31.3302C81.5566 31.3302 84.1938 29.8657 87.0288 29.0345C90.8153 27.9243 104.339 26.2594 107.962 32.9198C110.188 37.0136 107.056 49.117 103.936 50.6811C99.5079 52.9013 88.4277 52.1758 86.2237 49.571C83.4058 46.2408 82.4372 36.2501 82.4372 35.1401C82.4372 34.03 81.1541 32.9953 79.3803 32.9954" stroke="#185D6D" stroke-width="3"/>
<path d="M89.0416 29.1101C81.3931 30.7752 83.0033 34.6605 83.4058 40.7659" stroke="#185D6D" stroke-width="2"/>
<path d="M80.4276 34.1055C81.6352 34.1055 81.7956 39.1008 83.0033 42.4311" stroke="#185D6D"/>
<path d="M120.979 29.0052L121.062 33.9825L108.694 35.299L108.451 32.4869L120.979 29.0052Z" fill="#185D6D"/>
<path d="M83.8966 30.4849C80.7133 34.0358 82.0127 34.6489 83.1002 36.4512" stroke="#185D6D" stroke-width="2"/>
<defs>
<clipPath id="clip0_4096_6069">
<rect x="23.7424" y="63.3682" width="24" height="28" rx="1" transform="rotate(-15 23.7424 63.3682)" fill="white"/>
</clipPath>
</defs>
</svg>
