<svg width="150" height="157" viewBox="0 0 150 157" fill="none" xmlns="http://www.w3.org/2000/svg">
<path d="M88 94L88.385 148.744" stroke="black"/>
<path d="M92.6535 149.334C92.6535 150.312 90.7417 149.924 88.3833 149.924C86.025 149.924 84.1132 150.312 84.1132 149.334C84.1132 148.356 86.025 147.563 88.3833 147.563C90.7417 147.563 92.6535 148.356 92.6535 149.334Z" fill="black"/>
<path d="M69.6989 95.621V147.563" stroke="black"/>
<path d="M73.4365 148.744C73.4365 149.722 71.5247 149.334 69.1664 149.334C66.808 149.334 64.8962 149.722 64.8962 148.744C64.8962 147.766 66.808 146.973 69.1664 146.973C71.5247 146.973 73.4365 147.766 73.4365 148.744Z" fill="black"/>
<path d="M71.7186 1.52233C76.1389 -0.663151 81.1753 -0.457383 85.5253 1.8944C87.911 3.18421 90.7027 4.52777 89.7821 7.2821C89.0406 9.50024 86.7471 8.92042 84.6542 9.40612C83.4868 9.6771 82.1908 9.68547 81.6259 10.9901C81.2314 11.9012 81.4546 12.5898 81.6483 13.577C81.8369 14.5382 82.4922 15.5274 83.1493 16.3212H118.282C118.834 16.3212 119.282 16.7689 119.282 17.3212V95.3212C119.282 95.8734 118.834 96.3212 118.282 96.3212H84.5995C84.3225 96.3211 84.0561 96.2075 83.8739 95.9989C83.2033 95.2313 82.4721 94.2055 82.2831 93.2176C82.2621 93.1082 82.2413 93.0026 82.2206 92.9003C82.0701 92.1573 81.9532 91.5813 82.2792 90.8514C82.7218 89.8606 83.6287 89.6974 84.5448 89.5321C84.7278 89.4991 84.9115 89.4654 85.0917 89.4257C85.6142 89.3103 86.1496 89.2655 86.6669 89.2225C88.0701 89.1059 89.3398 89.0005 89.8514 87.5223C90.6804 85.1263 88.3753 83.878 86.2518 82.7284C86.1492 82.6728 86.0466 82.6176 85.9452 82.5624C81.9343 80.3782 77.2744 80.1509 73.1698 82.1161C73.1074 82.146 73.044 82.1765 72.9803 82.2069C70.5645 83.3613 67.3323 84.9062 68.2001 87.5692C68.6871 89.0638 69.9277 89.1062 71.3339 89.1542C72.0771 89.1795 72.8671 89.2063 73.6161 89.4501C73.7136 89.4818 73.8095 89.5124 73.9032 89.5419C74.7172 89.7975 75.3807 90.0054 75.7841 90.8651C76.1356 91.6144 76.006 92.2156 75.8378 92.9979C75.8214 93.0739 75.8046 93.1516 75.788 93.2313C75.5116 94.5528 74.2307 95.5419 72.9852 96.2098C72.8461 96.2844 72.6899 96.3212 72.5321 96.3212H40.2821C39.73 96.321 39.2822 95.8733 39.2821 95.3212V61.1024C39.2821 60.8488 39.3773 60.6031 39.5565 60.4237C40.2166 59.7632 41.0515 59.0932 41.8573 58.91C41.9545 58.8879 42.0486 58.8655 42.1395 58.8436L42.6112 58.7382C43.0643 58.6527 43.4739 58.6483 43.9598 58.91C44.8395 59.3839 44.9836 60.3508 45.1288 61.328C45.1578 61.5233 45.1865 61.7197 45.2216 61.912C45.3231 62.4695 45.3621 63.0408 45.3993 63.5926C45.5002 65.0894 45.5915 66.4436 46.9042 66.9921C49.0321 67.8809 50.146 65.4245 51.1718 63.162C51.2213 63.0526 51.2709 62.9438 51.3202 62.8358C53.2689 58.5626 53.4787 53.5939 51.7401 49.2128L51.66 49.0106C50.6387 46.432 49.2726 42.9818 46.9042 43.9022C45.5749 44.4188 45.5345 45.7414 45.4891 47.2411C45.4652 48.0338 45.4397 48.8762 45.2216 49.6747C45.1932 49.7785 45.1668 49.8806 45.1405 49.9803C44.9118 50.848 44.7248 51.5547 43.9598 51.9833C43.2934 52.3565 42.7601 52.2179 42.0653 52.037C41.9976 52.0194 41.9283 52.0013 41.8573 51.9833C40.785 51.7117 39.961 50.5468 39.3759 49.3339C39.3132 49.2041 39.2822 49.061 39.2821 48.9169V17.3212C39.2821 16.769 39.7299 16.3213 40.2821 16.3212H72.6014C73.5751 15.6315 74.4129 14.7421 74.6307 13.6503C74.8275 12.6641 75.0309 11.9595 74.6083 11.0643C74.1151 10.02 73.2791 9.8638 72.2557 9.536C69.9098 8.7846 67.2111 10.0195 66.3895 7.52819C65.407 4.54811 69.0998 2.8171 71.7186 1.52233Z" fill="#A8E6F1"/>
<ellipse cx="70.6486" cy="41.4336" rx="2.37362" ry="7.5828" fill="black"/>
<path d="M72.9562 30.6855C73.158 31.4298 71.3704 31.1931 69.4143 31.8192C67.4583 32.4454 66.0743 33.6973 65.8725 32.953C65.6707 32.2086 67.0929 31.0976 69.0489 30.4715C71.005 29.8453 72.7543 29.9411 72.9562 30.6855Z" fill="black"/>
<path d="M92.9438 32.6479C92.7788 33.4029 91.3354 32.2331 89.3513 31.7213C87.3672 31.2096 85.5939 31.5497 85.7588 30.7948C85.9237 30.0398 87.6658 29.8426 89.6499 30.3543C91.634 30.866 93.1087 31.8929 92.9438 32.6479Z" fill="black"/>
<ellipse cx="88.6501" cy="41.4336" rx="2.37362" ry="7.5828" fill="black"/>
<path d="M64.78 58.866C64.4482 58.5954 64.5694 58.4634 64.5694 58.4634C64.5694 58.4634 64.641 58.6072 64.78 58.866C65.3185 59.3052 67.0503 60.1097 72.4302 61.3077C78.0743 62.5646 93.1611 60.4619 93.1611 60.4619C93.1611 60.4619 85.2425 73.7064 79.2188 72.365C71.4773 70.641 65.9083 60.967 64.78 58.866Z" fill="black"/>
<path d="M7.7922 88.0975L52.2706 74.7926" stroke="black"/>
<path d="M111.483 60.6383C111.483 60.6383 117.759 72.6386 119.942 80.921C122.951 92.3412 122.284 110.916 122.284 110.916" stroke="black"/>
<line y1="-0.3" x2="2.07565" y2="-0.3" transform="matrix(0.563993 0.82578 0.83816 -0.545425 122.576 110.345)" stroke="black" stroke-width="0.6"/>
<line y1="-0.3" x2="2.07671" y2="-0.3" transform="matrix(-0.582528 0.812811 0.825834 0.563913 122.576 110.345)" stroke="black" stroke-width="0.6"/>
<line y1="-0.35" x2="2.424" y2="-0.35" transform="matrix(0.00563127 0.999984 0.999986 -0.00536266 122.48 110.342)" stroke="black" stroke-width="0.7"/>
<path d="M13.75 114.5H36.25C36.913 114.5 37.5489 114.763 38.0178 115.232C38.4866 115.701 38.75 116.337 38.75 117H11.25C11.25 116.337 11.5134 115.701 11.9822 115.232C12.4511 114.763 13.087 114.5 13.75 114.5ZM8.75 117V118.25C8.75 118.305 8.75333 118.359 8.76 118.413L12.1275 147.573C12.2679 148.791 12.8514 149.915 13.7669 150.732C14.6823 151.548 15.8659 151.999 17.0925 152H32.91C34.1362 152 35.3195 151.549 36.2349 150.733C37.1503 149.917 37.734 148.793 37.875 147.575L41.24 118.41L41.25 118.287V117C41.25 115.674 40.7232 114.402 39.7855 113.464C38.8479 112.527 37.5761 112 36.25 112H13.75C12.4239 112 11.1521 112.527 10.2145 113.464C9.27678 114.402 8.75 115.674 8.75 117ZM28.2475 126.375L29.3775 128.33C29.4596 128.472 29.5128 128.629 29.5342 128.792C29.5555 128.955 29.5446 129.121 29.502 129.279C29.4594 129.438 29.386 129.587 29.2859 129.717C29.1858 129.847 29.0611 129.957 28.9188 130.039C28.7764 130.121 28.6193 130.174 28.4564 130.195C28.2935 130.217 28.128 130.206 27.9694 130.163C27.8107 130.121 27.662 130.047 27.5317 129.947C27.4014 129.847 27.2921 129.722 27.21 129.58L26.0825 127.625C25.9728 127.435 25.815 127.277 25.625 127.168C25.435 127.058 25.2194 127 25 127C24.7806 127 24.565 127.058 24.375 127.168C24.185 127.277 24.0272 127.435 23.9175 127.625L22.7875 129.58C22.706 129.723 22.597 129.849 22.4667 129.95C22.3364 130.051 22.1875 130.125 22.0284 130.169C21.8693 130.212 21.7032 130.223 21.5397 130.202C21.3763 130.181 21.2186 130.127 21.0758 130.045C20.9331 129.962 20.808 129.852 20.7079 129.721C20.6078 129.591 20.5345 129.441 20.4924 129.282C20.4502 129.122 20.44 128.956 20.4624 128.793C20.4847 128.63 20.5391 128.472 20.6225 128.33L21.7525 126.375C23.195 123.875 26.8025 123.875 28.2475 126.375ZM30.4125 135.125L30.1425 134.66C29.9767 134.373 29.9319 134.031 30.018 133.711C30.104 133.39 30.3138 133.117 30.6013 132.951C30.8887 132.785 31.2302 132.741 31.5506 132.827C31.8711 132.913 32.1442 133.123 32.31 133.41L32.5775 133.875C32.9066 134.445 33.0799 135.092 33.0799 135.75C33.0799 136.408 32.9066 137.055 32.5775 137.625C32.2484 138.195 31.775 138.668 31.205 138.998C30.6349 139.327 29.9883 139.5 29.33 139.5H27.5C27.1685 139.5 26.8505 139.368 26.6161 139.134C26.3817 138.899 26.25 138.582 26.25 138.25C26.25 137.918 26.3817 137.601 26.6161 137.366C26.8505 137.132 27.1685 137 27.5 137H29.33C29.5494 137 29.765 136.942 29.955 136.833C30.145 136.723 30.3028 136.565 30.4125 136.375C30.5222 136.185 30.58 135.969 30.58 135.75C30.58 135.531 30.5222 135.315 30.4125 135.125ZM22.5 137C22.8315 137 23.1495 137.132 23.3839 137.366C23.6183 137.601 23.75 137.918 23.75 138.25C23.75 138.582 23.6183 138.899 23.3839 139.134C23.1495 139.368 22.8315 139.5 22.5 139.5H20.67C20.0115 139.5 19.3646 139.327 18.7942 138.998C18.2238 138.67 17.75 138.196 17.4206 137.626C17.0912 137.056 16.9177 136.409 16.9176 135.751C16.9175 135.092 17.0908 134.445 17.42 133.875L17.69 133.41C17.8569 133.125 18.1297 132.918 18.4489 132.834C18.768 132.749 19.1075 132.795 19.3934 132.96C19.6792 133.125 19.8882 133.396 19.9747 133.715C20.0612 134.033 20.0181 134.373 19.855 134.66L19.5875 135.125C19.4778 135.315 19.42 135.531 19.42 135.75C19.42 135.969 19.4778 136.185 19.5875 136.375C19.6972 136.565 19.855 136.723 20.045 136.833C20.235 136.942 20.4506 137 20.67 137H22.5Z" fill="#185D6D"/>
<path d="M115.963 148.5C115.146 148.5 114.431 148.252 113.819 147.756C113.206 147.26 112.798 146.619 112.594 145.831L110.625 138H133.375L131.406 145.831C131.202 146.619 130.794 147.26 130.181 147.756C129.569 148.252 128.854 148.5 128.038 148.5H115.963ZM122 124C122 121.083 123.021 118.604 125.062 116.562C127.104 114.521 129.583 113.5 132.5 113.5C132.5 116.125 131.669 118.4 130.006 120.325C128.344 122.25 126.258 123.417 123.75 123.825V127.5H137.75V132.75C137.75 133.712 137.408 134.537 136.723 135.223C136.038 135.909 135.214 136.251 134.25 136.25H109.75C108.787 136.25 107.964 135.908 107.279 135.223C106.594 134.538 106.251 133.714 106.25 132.75V127.5H120.25V123.825C117.742 123.417 115.656 122.25 113.994 120.325C112.331 118.4 111.5 116.125 111.5 113.5C114.417 113.5 116.896 114.521 118.938 116.562C120.979 118.604 122 121.083 122 124Z" fill="#185D6D"/>
</svg>
