<svg width="157" height="150" viewBox="0 0 157 150" fill="none" xmlns="http://www.w3.org/2000/svg">
<path d="M95 94L95.385 148.744" stroke="black"/>
<path d="M99.6535 149.334C99.6535 150.312 97.7417 149.924 95.3833 149.924C93.025 149.924 91.1132 150.312 91.1132 149.334C91.1132 148.356 93.025 147.563 95.3833 147.563C97.7417 147.563 99.6535 148.356 99.6535 149.334Z" fill="black"/>
<path d="M76.6989 95.621V147.563" stroke="black"/>
<path d="M80.4365 148.744C80.4365 149.722 78.5247 149.334 76.1664 149.334C73.808 149.334 71.8962 149.722 71.8962 148.744C71.8962 147.766 73.808 146.973 76.1664 146.973C78.5247 146.973 80.4365 147.766 80.4365 148.744Z" fill="black"/>
<path d="M78.7186 1.52233C83.1389 -0.663151 88.1753 -0.457383 92.5253 1.8944C94.911 3.18421 97.7027 4.52777 96.7821 7.2821C96.0406 9.50024 93.7471 8.92042 91.6542 9.40612C90.4868 9.6771 89.1908 9.68547 88.6259 10.9901C88.2314 11.9012 88.4546 12.5898 88.6483 13.577C88.8369 14.5382 89.4922 15.5274 90.1493 16.3212H125.282C125.834 16.3212 126.282 16.7689 126.282 17.3212V95.3212C126.282 95.8734 125.834 96.3212 125.282 96.3212H91.5995C91.3225 96.3211 91.0561 96.2075 90.8739 95.9989C90.2033 95.2313 89.4721 94.2055 89.2831 93.2176C89.2621 93.1082 89.2413 93.0026 89.2206 92.9003C89.0701 92.1573 88.9532 91.5813 89.2792 90.8514C89.7218 89.8606 90.6287 89.6974 91.5448 89.5321C91.7278 89.4991 91.9115 89.4654 92.0917 89.4257C92.6142 89.3103 93.1496 89.2655 93.6669 89.2225C95.0701 89.1059 96.3398 89.0005 96.8514 87.5223C97.6804 85.1263 95.3753 83.878 93.2518 82.7284C93.1492 82.6728 93.0466 82.6176 92.9452 82.5624C88.9343 80.3782 84.2744 80.1509 80.1698 82.1161C80.1074 82.146 80.044 82.1765 79.9803 82.2069C77.5645 83.3613 74.3323 84.9062 75.2001 87.5692C75.6871 89.0638 76.9277 89.1062 78.3339 89.1542C79.0771 89.1795 79.8671 89.2063 80.6161 89.4501C80.7136 89.4818 80.8095 89.5124 80.9032 89.5419C81.7172 89.7975 82.3807 90.0054 82.7841 90.8651C83.1356 91.6144 83.006 92.2156 82.8378 92.9979C82.8214 93.0739 82.8046 93.1516 82.788 93.2313C82.5116 94.5528 81.2307 95.5419 79.9852 96.2098C79.8461 96.2844 79.6899 96.3212 79.5321 96.3212H47.2821C46.73 96.321 46.2822 95.8733 46.2821 95.3212V61.1024C46.2821 60.8488 46.3773 60.6031 46.5565 60.4237C47.2166 59.7632 48.0515 59.0932 48.8573 58.91C48.9545 58.8879 49.0486 58.8655 49.1395 58.8436L49.6112 58.7382C50.0643 58.6527 50.4739 58.6483 50.9598 58.91C51.8395 59.3839 51.9836 60.3508 52.1288 61.328C52.1578 61.5233 52.1865 61.7197 52.2216 61.912C52.3231 62.4695 52.3621 63.0408 52.3993 63.5926C52.5002 65.0894 52.5915 66.4436 53.9042 66.9921C56.0321 67.8809 57.146 65.4245 58.1718 63.162C58.2213 63.0526 58.2709 62.9438 58.3202 62.8358C60.2689 58.5626 60.4787 53.5939 58.7401 49.2128L58.66 49.0106C57.6387 46.432 56.2726 42.9818 53.9042 43.9022C52.5749 44.4188 52.5345 45.7414 52.4891 47.2411C52.4652 48.0338 52.4397 48.8762 52.2216 49.6747C52.1932 49.7785 52.1668 49.8806 52.1405 49.9803C51.9118 50.848 51.7248 51.5547 50.9598 51.9833C50.2934 52.3565 49.7601 52.2179 49.0653 52.037C48.9976 52.0194 48.9283 52.0013 48.8573 51.9833C47.785 51.7117 46.961 50.5468 46.3759 49.3339C46.3132 49.2041 46.2822 49.061 46.2821 48.9169V17.3212C46.2821 16.769 46.7299 16.3213 47.2821 16.3212H79.6014C80.5751 15.6315 81.4129 14.7421 81.6307 13.6503C81.8275 12.6641 82.0309 11.9595 81.6083 11.0643C81.1151 10.02 80.2791 9.8638 79.2557 9.536C76.9098 8.7846 74.2111 10.0195 73.3895 7.52819C72.407 4.54811 76.0998 2.8171 78.7186 1.52233Z" fill="#A8E6F1"/>
<ellipse cx="77.6486" cy="41.4336" rx="2.37362" ry="7.5828" fill="black"/>
<path d="M79.9562 30.6855C80.158 31.4298 78.3704 31.1931 76.4143 31.8192C74.4583 32.4454 73.0743 33.6973 72.8725 32.953C72.6707 32.2086 74.0929 31.0976 76.0489 30.4715C78.005 29.8453 79.7543 29.9411 79.9562 30.6855Z" fill="black"/>
<path d="M99.9438 32.6479C99.7788 33.4029 98.3354 32.2331 96.3513 31.7213C94.3672 31.2096 92.5939 31.5497 92.7588 30.7948C92.9237 30.0398 94.6658 29.8426 96.6499 30.3543C98.634 30.866 100.109 31.8929 99.9438 32.6479Z" fill="black"/>
<ellipse cx="95.6501" cy="41.4336" rx="2.37362" ry="7.5828" fill="black"/>
<path d="M71.78 58.866C71.4482 58.5954 71.5694 58.4634 71.5694 58.4634C71.5694 58.4634 71.641 58.6072 71.78 58.866C72.3185 59.3052 74.0503 60.1097 79.4302 61.3077C85.0743 62.5646 100.161 60.4619 100.161 60.4619C100.161 60.4619 92.2425 73.7064 86.2188 72.365C78.4773 70.641 72.9083 60.967 71.78 58.866Z" fill="black"/>
<path d="M18.2731 95.1185L55.7897 67.7717" stroke="black"/>
<path d="M114.402 59.035C114.402 59.035 122.272 70.0564 125.574 77.9593C130.128 88.8562 132.025 107.346 132.025 107.346" stroke="black"/>
<line y1="-0.3" x2="2.07565" y2="-0.3" transform="matrix(0.672351 0.740232 0.755051 -0.655666 132.236 106.74)" stroke="black" stroke-width="0.6"/>
<line y1="-0.3" x2="2.07671" y2="-0.3" transform="matrix(-0.465029 0.885295 0.895631 0.444798 132.236 106.74)" stroke="black" stroke-width="0.6"/>
<line y1="-0.35" x2="2.424" y2="-0.35" transform="matrix(0.143304 0.989679 0.989717 -0.143038 132.141 106.75)" stroke="black" stroke-width="0.7"/>
<path d="M8.09374 94.4688H19.1778C19.4816 94.4678 19.7826 94.5272 20.0632 94.6436C20.3438 94.76 20.5985 94.9309 20.8125 95.1466L22.3069 96.6367L23.8028 95.1466C24.2365 94.7133 24.8244 94.4698 25.4375 94.4698C26.0505 94.4698 26.6385 94.7133 27.0721 95.1466L30.5409 98.6154C30.9742 99.049 31.2177 99.637 31.2177 100.25C31.2177 100.863 30.9742 101.451 30.5409 101.885L29.0508 103.381L30.5409 104.875C30.7566 105.089 30.9275 105.344 31.0439 105.624C31.1603 105.905 31.2197 106.206 31.2187 106.51V122.219C31.2187 122.832 30.9751 123.42 30.5414 123.854C30.1077 124.288 29.5196 124.531 28.9062 124.531H8.09374C7.48042 124.531 6.89223 124.288 6.45856 123.854C6.02488 123.42 5.78124 122.832 5.78124 122.219V96.7813C5.78124 96.1679 6.02488 95.5798 6.45856 95.1461C6.89223 94.7124 7.48042 94.4688 8.09374 94.4688ZM28.9062 100.25L25.4375 96.7813L23.943 98.2757L27.4118 101.744L28.9062 100.25ZM10.8687 117.825C10.7473 117.916 10.6449 118.03 10.5676 118.161C10.4902 118.292 10.4393 118.436 10.4179 118.586C10.3964 118.737 10.4047 118.89 10.4424 119.037C10.4801 119.184 10.5464 119.322 10.6375 119.444C10.7286 119.565 10.8427 119.668 10.9734 119.745C11.104 119.822 11.2487 119.873 11.399 119.895C11.5493 119.916 11.7024 119.908 11.8494 119.87C11.9965 119.832 12.1348 119.766 12.2562 119.675L18.5 114.992L24.7437 119.675C24.9891 119.859 25.2974 119.938 25.601 119.895C25.9046 119.851 26.1785 119.689 26.3625 119.444C26.5465 119.198 26.6255 118.89 26.5821 118.586C26.5387 118.283 26.3766 118.009 26.1312 117.825L20.4266 113.547L26.1312 109.269C26.3766 109.085 26.5387 108.811 26.5821 108.507C26.6255 108.204 26.5465 107.895 26.3625 107.65C26.1785 107.405 25.9046 107.243 25.601 107.199C25.2974 107.156 24.9891 107.235 24.7437 107.419L18.5 112.102L12.2562 107.419C12.0109 107.235 11.7025 107.156 11.399 107.199C11.0954 107.243 10.8215 107.405 10.6375 107.65C10.4535 107.895 10.3745 108.204 10.4179 108.507C10.4612 108.811 10.6234 109.085 10.8687 109.269L16.5734 113.547L10.8687 117.825ZM11.5625 101.406H17.3437C17.6504 101.406 17.9445 101.284 18.1613 101.068C18.3782 100.851 18.5 100.557 18.5 100.25C18.5 99.9434 18.3782 99.6493 18.1613 99.4324C17.9445 99.2156 17.6504 99.0938 17.3437 99.0938H11.5625C11.2558 99.0938 10.9617 99.2156 10.7449 99.4324C10.5281 99.6493 10.4062 99.9434 10.4062 100.25C10.4062 100.557 10.5281 100.851 10.7449 101.068C10.9617 101.284 11.2558 101.406 11.5625 101.406Z" fill="#185D6D"/>
<path d="M126.473 70.6091C126.25 62.6108 126.097 57.112 126.186 54L115.215 54.7896C108.223 62.9949 94.0909 81.1649 93.4945 88.2022C92.8981 95.2395 96.8533 102.949 98.9054 105.923L127.429 104.904L127.072 92.1045L126.473 70.6091L126.473 70.6091Z" fill="#185D6D"/>
<path d="M46.066 72.501L46.0418 54L57.2707 54.7806C64.0358 62.7388 77.7537 80.4082 78.5042 87.4201C79.2548 94.4319 75.7657 102.272 73.9273 105.316L46.1089 105.28L46.0948 94.5022L46.066 72.501Z" fill="#185D6D"/>
<path d="M127.085 119.175L124.415 117.825L126.305 114H139.01L140.915 117.825L138.245 119.16L137.165 117H128.165L127.085 119.175ZM142.595 123H135.8L134.615 118.5H130.715L129.5 123H122.75L120.815 126.825L123.5 128.16L124.595 126H140.75L141.815 128.175L144.5 126.84L142.595 123ZM141.32 144H138.215L137.855 142.65L132.665 134.85L127.46 142.65L127.115 144H124.01L128.345 127.5H131.45L130.91 129.525L132.665 132.15L134.405 129.525L133.88 127.5H137L141.32 144ZM131.75 133.5L130.415 131.475L128.645 138.195L131.75 133.5ZM136.685 138.18L134.915 131.46L133.565 133.5L136.685 138.18ZM123.5 135L117.5 129V133.5H111.5V136.5H117.5V141L123.5 135Z" fill="#185D6D"/>
</svg>
