<svg width="150" height="150" viewBox="0 0 150 150" fill="none" xmlns="http://www.w3.org/2000/svg">
<path d="M88 96L88.385 149.744" stroke="black"/>
<path d="M92.6535 149.334C92.6535 150.312 90.7417 149.924 88.3833 149.924C86.025 149.924 84.1132 150.312 84.1132 149.334C84.1132 148.356 86.025 147.563 88.3833 147.563C90.7417 147.563 92.6535 148.356 92.6535 149.334Z" fill="black"/>
<path d="M69.6989 95.6211V147.563" stroke="black"/>
<path d="M73.4365 148.744C73.4365 149.722 71.5247 149.334 69.1664 149.334C66.8081 149.334 64.8963 149.722 64.8963 148.744C64.8963 147.766 66.8081 146.973 69.1664 146.973C71.5247 146.973 73.4365 147.766 73.4365 148.744Z" fill="black"/>
<path d="M71.7186 7.52233C76.1389 5.33685 81.1753 5.54262 85.5253 7.8944C87.911 9.18421 90.7027 10.5278 89.7821 13.2821C89.0406 15.5002 86.7471 14.9204 84.6542 15.4061C83.4868 15.6771 82.1908 15.6855 81.6259 16.9901C81.2314 17.9012 81.4546 18.5898 81.6483 19.577C81.8369 20.5382 82.4922 21.5274 83.1493 22.3212H118.282C118.834 22.3212 119.282 22.7689 119.282 23.3212V101.321C119.282 101.873 118.834 102.321 118.282 102.321H84.5995C84.3225 102.321 84.0561 102.207 83.8739 101.999C83.2033 101.231 82.4721 100.206 82.2831 99.2176C82.2621 99.1082 82.2413 99.0026 82.2206 98.9003C82.0701 98.1573 81.9532 97.5813 82.2792 96.8514C82.7218 95.8606 83.6287 95.6974 84.5448 95.5321C84.7278 95.4991 84.9115 95.4654 85.0917 95.4257C85.6142 95.3103 86.1496 95.2655 86.6669 95.2225C88.0701 95.1059 89.3398 95.0005 89.8514 93.5223C90.6804 91.1263 88.3753 89.878 86.2518 88.7284C86.1492 88.6728 86.0466 88.6176 85.9452 88.5624C81.9343 86.3782 77.2744 86.1509 73.1698 88.1161C73.1074 88.146 73.044 88.1765 72.9803 88.2069C70.5645 89.3613 67.3323 90.9062 68.2001 93.5692C68.6871 95.0638 69.9277 95.1062 71.3339 95.1542C72.0771 95.1795 72.8671 95.2063 73.6161 95.4501C73.7136 95.4818 73.8095 95.5124 73.9032 95.5419C74.7172 95.7975 75.3807 96.0054 75.7841 96.8651C76.1356 97.6144 76.006 98.2156 75.8378 98.9979C75.8214 99.0739 75.8046 99.1516 75.788 99.2313C75.5116 100.553 74.2307 101.542 72.9852 102.21C72.8461 102.284 72.6899 102.321 72.5321 102.321H40.2821C39.73 102.321 39.2822 101.873 39.2821 101.321V67.1024C39.2821 66.8488 39.3773 66.6031 39.5565 66.4237C40.2166 65.7632 41.0515 65.0932 41.8573 64.91C41.9545 64.8879 42.0486 64.8655 42.1395 64.8436L42.6112 64.7382C43.0643 64.6527 43.4739 64.6483 43.9598 64.91C44.8395 65.3839 44.9836 66.3508 45.1288 67.328C45.1578 67.5233 45.1865 67.7197 45.2216 67.912C45.3231 68.4695 45.3621 69.0408 45.3993 69.5926C45.5002 71.0894 45.5915 72.4436 46.9042 72.9921C49.0321 73.8809 50.146 71.4245 51.1718 69.162C51.2213 69.0526 51.2709 68.9438 51.3202 68.8358C53.2689 64.5626 53.4787 59.5939 51.7401 55.2128L51.66 55.0106C50.6387 52.432 49.2726 48.9818 46.9042 49.9022C45.5749 50.4188 45.5345 51.7414 45.4891 53.2411C45.4652 54.0338 45.4397 54.8762 45.2216 55.6747C45.1932 55.7785 45.1668 55.8806 45.1405 55.9803C44.9118 56.848 44.7248 57.5547 43.9598 57.9833C43.2934 58.3565 42.7601 58.2179 42.0653 58.037C41.9976 58.0194 41.9283 58.0013 41.8573 57.9833C40.785 57.7117 39.961 56.5468 39.3759 55.3339C39.3132 55.2041 39.2822 55.061 39.2821 54.9169V23.3212C39.2821 22.769 39.7299 22.3213 40.2821 22.3212H72.6014C73.5751 21.6315 74.4129 20.7421 74.6307 19.6503C74.8275 18.6641 75.0309 17.9595 74.6083 17.0643C74.1151 16.02 73.2791 15.8638 72.2557 15.536C69.9098 14.7846 67.2111 16.0195 66.3895 13.5282C65.407 10.5481 69.0998 8.8171 71.7186 7.52233Z" fill="#A8E6F1"/>
<ellipse cx="70.6486" cy="41.4336" rx="2.37362" ry="7.5828" fill="black"/>
<path d="M72.9562 30.6855C73.158 31.4298 71.3704 31.1931 69.4143 31.8192C67.4583 32.4454 66.0743 33.6973 65.8725 32.953C65.6707 32.2086 67.0929 31.0976 69.0489 30.4715C71.005 29.8453 72.7543 29.9411 72.9562 30.6855Z" fill="black"/>
<path d="M92.9438 32.6479C92.7788 33.4029 91.3354 32.2331 89.3513 31.7213C87.3672 31.2096 85.5939 31.5497 85.7588 30.7948C85.9237 30.0398 87.6658 29.8426 89.6499 30.3543C91.634 30.866 93.1087 31.8929 92.9438 32.6479Z" fill="black"/>
<ellipse cx="88.6501" cy="41.4336" rx="2.37362" ry="7.5828" fill="black"/>
<path d="M64.78 58.8659C64.4482 58.5952 64.5694 58.4632 64.5694 58.4632C64.5694 58.4632 64.641 58.6071 64.78 58.8659C65.3185 59.3051 67.0503 60.1095 72.4302 61.3076C78.0743 62.5645 93.1611 60.4618 93.1611 60.4618C93.1611 60.4618 85.2425 73.7063 79.2188 72.3648C71.4773 70.6409 65.9083 60.9668 64.78 58.8659Z" fill="black"/>
<path d="M7.7922 88.0977L52.2706 74.7927" stroke="black"/>
<path d="M114.5 73.5001C114.5 73.5001 131.317 71.2825 133.5 63.0001C136.509 51.5799 124 15.5 124 15.5" stroke="black"/>
<path d="M124 16.7502L125.14 14.0925" stroke="black" stroke-width="0.6"/>
<path d="M124 16.5L121 15.5" stroke="black" stroke-width="0.6"/>
<path d="M124.069 16.4738L123 13.5" stroke="black" stroke-width="0.7"/>
<path d="M56.7609 64.5776C54.6838 65.4488 53.433 67.1873 53.967 68.4605C54.5011 69.7337 56.6179 70.0596 58.6949 69.1884C60.772 68.3171 62.0229 66.5787 61.4888 65.3054C60.9548 64.0322 58.838 63.7063 56.7609 64.5776Z" fill="#185D6D"/>
<path d="M78.9243 79.8661L83.0022 82.0022L79 90L74.6752 82.3248L78.9243 79.8661Z" fill="#185D6D"/>
<path d="M79 112L83.3594 107.384L79 84L74.6406 107.384L79 112Z" fill="#185D6D"/>
<path d="M108.979 16.7617C108.998 26.0104 93.8608 26.8255 79.1103 26.8563C64.3598 26.8871 50.0541 26.0104 50.0347 16.7617C54.0322 8.20718 64.3039 0.0931767 79.0544 0.062374C93.8049 0.0315712 102.353 7.16652 108.979 16.7617Z" fill="#185D6D"/>
<path d="M56.6805 28.3194C59.8588 21.3848 101.467 24.8521 102.911 28.3194" stroke="#A8E6F1" stroke-width="5"/>
<path d="M103.397 28.3101C103.403 25.553 92.7983 26.008 79.4227 23.6964C66.2156 25.4301 56.9894 25.4513 56.9836 28.2083C56.9779 30.9654 66.3838 33.8971 79.4227 33.9243C92.4617 33.9516 103.392 31.0671 103.397 28.3101Z" fill="#185D6D"/>
<path d="M37.5 52.5C30.8333 60 23 75.5 58 67" stroke="#185D6D" stroke-width="1.5"/>
<ellipse cx="43.5" cy="49" rx="8.5" ry="13" fill="#185D6D"/>
<path d="M127 51C127 58.1797 123.194 64 118.5 64C113.806 64 110 58.1797 110 51C110 43.8203 113.806 38 118.5 38C123.194 38 127 43.8203 127 51Z" fill="#185D6D"/>
<path d="M43 46C43 46 43 38 43 25.5C43 13 50.5 13 62.5 13C74.5 13 80 13 90 13C100 13 116.5 13 116.5 25.5C116.5 38 116.5 46 116.5 46" stroke="#185D6D" stroke-width="3"/>
<path d="M89 77C99 77 115.5 77 115.5 64.5C115.5 52 115.5 44 115.5 44" stroke="#185D6D" stroke-width="3"/>
<circle cx="87.5" cy="76.5" r="3.5" fill="#185D6D"/>
<path d="M78.929 4.62622L80.486 9.41793L85.5243 9.41793L81.4482 12.3794L83.0051 17.1711L78.929 14.2096L74.853 17.1711L76.4099 12.3794L72.3338 9.41793L77.3721 9.41793L78.929 4.62622Z" fill="#A8E6F1"/>
<path d="M68.3333 55.6667H61.3333C57.5533 55.6667 54.24 52.7267 53.7733 48.9934L52.6067 42.0167C52.35 40.0334 52.91 38.1667 54.1233 36.8134C55.3367 35.4601 57.11 34.6667 59 34.6667H73C74.9367 34.6667 76.6867 35.4834 77.8067 36.9067C78.0633 37.2567 78.2967 37.6301 78.4833 38.0501C79.4867 37.8401 80.5133 37.8401 81.4933 38.0501C81.68 37.6301 81.9133 37.2567 82.1933 36.9067C83.29 35.4834 85.04 34.6667 87 34.6667H101C102.89 34.6667 104.663 35.4601 105.877 36.8134C107.067 38.1667 107.627 40.0334 107.393 41.9234L106.203 49.0867C105.76 52.7267 102.423 55.6667 98.6667 55.6667H91.6667C88.0267 55.6667 84.48 52.8901 83.5933 49.3667L81.4933 43.0434C80.6067 42.3901 79.37 42.3901 78.4833 43.0434L76.3367 49.5301C75.4967 52.9134 71.9733 55.6667 68.3333 55.6667Z" fill="#185D6D"/>
</svg>
