<svg width="159" height="150" viewBox="0 0 159 150" fill="none" xmlns="http://www.w3.org/2000/svg">
<path d="M97 94L97.385 148.744" stroke="black"/>
<path d="M101.653 149.334C101.653 150.312 99.7417 149.924 97.3833 149.924C95.025 149.924 93.1132 150.312 93.1132 149.334C93.1132 148.356 95.025 147.563 97.3833 147.563C99.7417 147.563 101.653 148.356 101.653 149.334Z" fill="black"/>
<path d="M78.6989 95.6211V147.563" stroke="black"/>
<path d="M82.4365 148.744C82.4365 149.722 80.5247 149.334 78.1664 149.334C75.8081 149.334 73.8963 149.722 73.8963 148.744C73.8963 147.766 75.8081 146.973 78.1664 146.973C80.5247 146.973 82.4365 147.766 82.4365 148.744Z" fill="black"/>
<path d="M80.7186 1.52233C85.1389 -0.663151 90.1753 -0.457383 94.5253 1.8944C96.911 3.18421 99.7027 4.52777 98.7821 7.2821C98.0406 9.50024 95.7471 8.92042 93.6542 9.40612C92.4868 9.6771 91.1908 9.68547 90.6259 10.9901C90.2314 11.9012 90.4546 12.5898 90.6483 13.577C90.8369 14.5382 91.4922 15.5274 92.1493 16.3212H127.282C127.834 16.3212 128.282 16.7689 128.282 17.3212V95.3212C128.282 95.8734 127.834 96.3212 127.282 96.3212H93.5995C93.3225 96.3211 93.0561 96.2075 92.8739 95.9989C92.2033 95.2313 91.4721 94.2055 91.2831 93.2176C91.2621 93.1082 91.2413 93.0026 91.2206 92.9003C91.0701 92.1573 90.9532 91.5813 91.2792 90.8514C91.7218 89.8606 92.6287 89.6974 93.5448 89.5321C93.7278 89.4991 93.9115 89.4654 94.0917 89.4257C94.6142 89.3103 95.1496 89.2655 95.6669 89.2225C97.0701 89.1059 98.3398 89.0005 98.8514 87.5223C99.6804 85.1263 97.3753 83.878 95.2518 82.7284C95.1492 82.6728 95.0466 82.6176 94.9452 82.5624C90.9343 80.3782 86.2744 80.1509 82.1698 82.1161C82.1074 82.146 82.044 82.1765 81.9803 82.2069C79.5645 83.3613 76.3323 84.9062 77.2001 87.5692C77.6871 89.0638 78.9277 89.1062 80.3339 89.1542C81.0771 89.1795 81.8671 89.2063 82.6161 89.4501C82.7136 89.4818 82.8095 89.5124 82.9032 89.5419C83.7172 89.7975 84.3807 90.0054 84.7841 90.8651C85.1356 91.6144 85.006 92.2156 84.8378 92.9979C84.8214 93.0739 84.8046 93.1516 84.788 93.2313C84.5116 94.5528 83.2307 95.5419 81.9852 96.2098C81.8461 96.2844 81.6899 96.3212 81.5321 96.3212H49.2821C48.73 96.321 48.2822 95.8733 48.2821 95.3212V61.1024C48.2821 60.8488 48.3773 60.6031 48.5565 60.4237C49.2166 59.7632 50.0515 59.0932 50.8573 58.91C50.9545 58.8879 51.0486 58.8655 51.1395 58.8436L51.6112 58.7382C52.0643 58.6527 52.4739 58.6483 52.9598 58.91C53.8395 59.3839 53.9836 60.3508 54.1288 61.328C54.1578 61.5233 54.1865 61.7197 54.2216 61.912C54.3231 62.4695 54.3621 63.0408 54.3993 63.5926C54.5002 65.0894 54.5915 66.4436 55.9042 66.9921C58.0321 67.8809 59.146 65.4245 60.1718 63.162C60.2213 63.0526 60.2709 62.9438 60.3202 62.8358C62.2689 58.5626 62.4787 53.5939 60.7401 49.2128L60.66 49.0106C59.6387 46.432 58.2726 42.9818 55.9042 43.9022C54.5749 44.4188 54.5345 45.7414 54.4891 47.2411C54.4652 48.0338 54.4397 48.8762 54.2216 49.6747C54.1932 49.7785 54.1668 49.8806 54.1405 49.9803C53.9118 50.848 53.7248 51.5547 52.9598 51.9833C52.2934 52.3565 51.7601 52.2179 51.0653 52.037C50.9976 52.0194 50.9283 52.0013 50.8573 51.9833C49.785 51.7117 48.961 50.5468 48.3759 49.3339C48.3132 49.2041 48.2822 49.061 48.2821 48.9169V17.3212C48.2821 16.769 48.7299 16.3213 49.2821 16.3212H81.6014C82.5751 15.6315 83.4129 14.7421 83.6307 13.6503C83.8275 12.6641 84.0309 11.9595 83.6083 11.0643C83.1151 10.02 82.2791 9.8638 81.2557 9.536C78.9098 8.7846 76.2111 10.0195 75.3895 7.52819C74.407 4.54811 78.0998 2.8171 80.7186 1.52233Z" fill="#A8E6F1"/>
<ellipse cx="79.6486" cy="41.4336" rx="2.37362" ry="7.5828" fill="black"/>
<path d="M81.9562 30.6855C82.158 31.4298 80.3704 31.1931 78.4143 31.8192C76.4583 32.4454 75.0743 33.6973 74.8725 32.953C74.6707 32.2086 76.0929 31.0976 78.0489 30.4715C80.005 29.8453 81.7543 29.9411 81.9562 30.6855Z" fill="black"/>
<path d="M101.944 32.6479C101.779 33.4029 100.335 32.2331 98.3513 31.7213C96.3672 31.2096 94.5939 31.5497 94.7588 30.7948C94.9237 30.0398 96.6658 29.8426 98.6499 30.3543C100.634 30.866 102.109 31.8929 101.944 32.6479Z" fill="black"/>
<ellipse cx="97.6501" cy="41.4336" rx="2.37362" ry="7.5828" fill="black"/>
<path d="M74.7927 59.4217C73.2833 58.7747 73.5694 58.4632 73.5694 58.4632C73.5694 58.4632 73.9632 58.8428 74.7927 59.4217C75.8607 59.8795 77.8274 60.5053 81.4302 61.3076C87.0743 62.5645 102.161 60.4618 102.161 60.4618C102.161 60.4618 92.0237 65.3414 86 64C80.1281 62.6924 76.518 60.6258 74.7927 59.4217Z" fill="black"/>
<path d="M1.00001 63.2471L58.2706 70.5398" stroke="black"/>
<path d="M120.483 60.6382C120.483 60.6382 135.317 71.2176 137.5 79.5C140.509 90.9202 131.283 110.916 131.283 110.916" stroke="black"/>
<line y1="-0.3" x2="2.07565" y2="-0.3" transform="matrix(0.563993 0.82578 0.83816 -0.545425 131.576 110.345)" stroke="black" stroke-width="0.6"/>
<line y1="-0.3" x2="2.07671" y2="-0.3" transform="matrix(-0.582528 0.812811 0.825834 0.563913 131.576 110.345)" stroke="black" stroke-width="0.6"/>
<line y1="-0.35" x2="2.424" y2="-0.35" transform="matrix(0.00563127 0.999984 0.999986 -0.00536266 131.48 110.342)" stroke="black" stroke-width="0.7"/>
<path d="M48.5 68L48.5 49.5L59.3714 50.2663C65.9116 58.2156 79.1715 75.8667 79.8893 82.8773C80.6071 89.8878 77.2189 97.732 75.4351 100.778L48.5 100.778L48.5 90.0001L48.5 68Z" fill="#185D6D"/>
<path d="M54.4419 48.8231C59.1232 56.4905 67.9031 70.8045 67.7641 74.2899C67.6251 77.7753 66.902 85.4855 66.5952 87.9669M48 88.5C53.6015 88.7234 58.5 89 63.4588 88.456C74.7577 87.2166 78.0221 82.803 80.5862 81.0351" stroke="#A8E6F1" stroke-width="3"/>
<path d="M48.5 95.5C74.0182 96.5177 71.9241 95.0274 81.4834 89.7982" stroke="#A8E6F1" stroke-width="3"/>
<path d="M128.5 68C128.5 60 128.5 54.5 128.659 51.3936L118.701 51.7907C112.161 59.74 98.9006 77.3911 98.1828 84.4017C97.465 91.4122 100.853 99.2564 102.637 102.302L128.5 102.302L128.5 89.5L128.5 68L128.5 68Z" fill="#185D6D"/>
<path d="M123.63 50.3475C118.949 58.0148 110.169 72.3288 110.308 75.8143C110.447 79.2997 111.17 87.0099 111.477 89.4912M128.5 89.9804C122.898 90.2038 123.883 91.148 114.613 89.9804C103.336 88.56 100.05 84.3274 97.4859 82.5595" stroke="#A8E6F1" stroke-width="3"/>
<path d="M128.5 96.5002C102.982 97.5179 106.148 96.552 96.5887 91.3227" stroke="#A8E6F1" stroke-width="3"/>
<path d="M106 13C106 18.0823 106 16.9722 86.5 16.9722C69.5 16.9722 69 17.5 69 15C69 8.69421 77.2827 0 87.5 0C97.7173 0 106 6.69421 106 13Z" fill="#185D6D"/>
<rect x="54" y="15" width="48" height="2" rx="1" fill="#185D6D"/>
</svg>
