<svg width="150" height="151" viewBox="0 0 150 151" fill="none" xmlns="http://www.w3.org/2000/svg">
<path d="M88 95L88.385 149.744" stroke="black"/>
<path d="M92.6535 150.334C92.6535 151.312 90.7417 150.924 88.3833 150.924C86.025 150.924 84.1132 151.312 84.1132 150.334C84.1132 149.356 86.025 148.563 88.3833 148.563C90.7417 148.563 92.6535 149.356 92.6535 150.334Z" fill="black"/>
<path d="M69.6989 96.6211V148.563" stroke="black"/>
<path d="M73.4365 149.744C73.4365 150.722 71.5247 150.334 69.1664 150.334C66.808 150.334 64.8962 150.722 64.8962 149.744C64.8962 148.766 66.808 147.973 69.1664 147.973C71.5247 147.973 73.4365 148.766 73.4365 149.744Z" fill="black"/>
<path d="M71.7186 2.52233C76.1389 0.336849 81.1753 0.542617 85.5253 2.8944C87.911 4.18421 90.7027 5.52777 89.7821 8.2821C89.0406 10.5002 86.7471 9.92042 84.6542 10.4061C83.4868 10.6771 82.1908 10.6855 81.6259 11.9901C81.2314 12.9012 81.4546 13.5898 81.6483 14.577C81.8369 15.5382 82.4922 16.5274 83.1493 17.3212H118.282C118.834 17.3212 119.282 17.7689 119.282 18.3212V96.3212C119.282 96.8734 118.834 97.3212 118.282 97.3212H84.5995C84.3225 97.3211 84.0561 97.2075 83.8739 96.9989C83.2033 96.2313 82.4721 95.2055 82.2831 94.2176C82.2621 94.1082 82.2413 94.0026 82.2206 93.9003C82.0701 93.1573 81.9532 92.5813 82.2792 91.8514C82.7218 90.8606 83.6287 90.6974 84.5448 90.5321C84.7278 90.4991 84.9115 90.4654 85.0917 90.4257C85.6142 90.3103 86.1496 90.2655 86.6669 90.2225C88.0701 90.1059 89.3398 90.0005 89.8514 88.5223C90.6804 86.1263 88.3753 84.878 86.2518 83.7284C86.1492 83.6728 86.0466 83.6176 85.9452 83.5624C81.9343 81.3782 77.2744 81.1509 73.1698 83.1161C73.1074 83.146 73.044 83.1765 72.9803 83.2069C70.5645 84.3613 67.3323 85.9062 68.2001 88.5692C68.6871 90.0638 69.9277 90.1062 71.3339 90.1542C72.0771 90.1795 72.8671 90.2063 73.6161 90.4501C73.7136 90.4818 73.8095 90.5124 73.9032 90.5419C74.7172 90.7975 75.3807 91.0054 75.7841 91.8651C76.1356 92.6144 76.006 93.2156 75.8378 93.9979C75.8214 94.0739 75.8046 94.1516 75.788 94.2313C75.5116 95.5528 74.2307 96.5419 72.9852 97.2098C72.8461 97.2844 72.6899 97.3212 72.5321 97.3212H40.2821C39.73 97.321 39.2822 96.8733 39.2821 96.3212V62.1024C39.2821 61.8488 39.3773 61.6031 39.5565 61.4237C40.2166 60.7632 41.0515 60.0932 41.8573 59.91C41.9545 59.8879 42.0486 59.8655 42.1395 59.8436L42.6112 59.7382C43.0643 59.6527 43.4739 59.6483 43.9598 59.91C44.8395 60.3839 44.9836 61.3508 45.1288 62.328C45.1578 62.5233 45.1865 62.7197 45.2216 62.912C45.3231 63.4695 45.3621 64.0408 45.3993 64.5926C45.5002 66.0894 45.5915 67.4436 46.9042 67.9921C49.0321 68.8809 50.146 66.4245 51.1718 64.162C51.2213 64.0526 51.2709 63.9438 51.3202 63.8358C53.2689 59.5626 53.4787 54.5939 51.7401 50.2128L51.66 50.0106C50.6387 47.432 49.2726 43.9818 46.9042 44.9022C45.5749 45.4188 45.5345 46.7414 45.4891 48.2411C45.4652 49.0338 45.4397 49.8762 45.2216 50.6747C45.1932 50.7785 45.1668 50.8806 45.1405 50.9803C44.9118 51.848 44.7248 52.5547 43.9598 52.9833C43.2934 53.3565 42.7601 53.2179 42.0653 53.037C41.9976 53.0194 41.9283 53.0013 41.8573 52.9833C40.785 52.7117 39.961 51.5468 39.3759 50.3339C39.3132 50.2041 39.2822 50.061 39.2821 49.9169V18.3212C39.2821 17.769 39.7299 17.3213 40.2821 17.3212H72.6014C73.5751 16.6315 74.4129 15.7421 74.6307 14.6503C74.8275 13.6641 75.0309 12.9595 74.6083 12.0643C74.1151 11.02 73.2791 10.8638 72.2557 10.536C69.9098 9.7846 67.2111 11.0195 66.3895 8.52819C65.407 5.54811 69.0998 3.8171 71.7186 2.52233Z" fill="#A8E6F1"/>
<ellipse cx="70.6486" cy="42.4336" rx="2.37362" ry="7.5828" fill="black"/>
<path d="M72.9562 31.6855C73.158 32.4298 71.3704 32.1931 69.4143 32.8192C67.4583 33.4454 66.0743 34.6973 65.8725 33.953C65.6707 33.2086 67.0929 32.0976 69.0489 31.4715C71.005 30.8453 72.7543 30.9411 72.9562 31.6855Z" fill="black"/>
<path d="M92.9438 33.6479C92.7788 34.4029 91.3354 33.2331 89.3513 32.7213C87.3672 32.2096 85.5939 32.5497 85.7588 31.7948C85.9237 31.0398 87.6658 30.8426 89.6499 31.3543C91.634 31.866 93.1087 32.8929 92.9438 33.6479Z" fill="black"/>
<ellipse cx="88.6501" cy="42.4336" rx="2.37362" ry="7.5828" fill="black"/>
<path d="M64.78 59.8659C64.4482 59.5952 64.5694 59.4632 64.5694 59.4632C64.5694 59.4632 64.641 59.6071 64.78 59.8659C65.3185 60.3051 67.0503 61.1095 72.4302 62.3076C78.0743 63.5645 93.1611 61.4618 93.1611 61.4618C93.1611 61.4618 85.2425 74.7063 79.2188 73.3648C71.4773 71.6409 65.9083 61.9668 64.78 59.8659Z" fill="black"/>
<path d="M15 43.5L15 79.5L43.5 73" stroke="black"/>
<path d="M117.898 69C117.898 69 124.175 81.0003 126.357 89.2827C129.367 100.703 128.699 119.278 128.699 119.278" stroke="black"/>
<line y1="-0.3" x2="2.07565" y2="-0.3" transform="matrix(0.563993 0.82578 0.83816 -0.545425 128.992 118.707)" stroke="black" stroke-width="0.6"/>
<line y1="-0.3" x2="2.07671" y2="-0.3" transform="matrix(-0.582528 0.812811 0.825834 0.563913 128.992 118.707)" stroke="black" stroke-width="0.6"/>
<line y1="-0.35" x2="2.424" y2="-0.35" transform="matrix(0.00563127 0.999984 0.999986 -0.00536266 128.896 118.704)" stroke="black" stroke-width="0.7"/>
<path d="M39.5 69L39.5 50.5L50.3714 51.2663C56.9116 59.2156 70.1715 76.8667 70.8893 83.8773C71.6071 90.8878 68.2189 98.732 66.4351 101.778L39.5 101.778L39.5 91.0001L39.5 69Z" fill="#185D6D"/>
<path d="M119.5 69C119.5 61 119.5 55.5 119.659 52.3936L109.701 52.7907C103.161 60.74 89.9006 78.3911 89.1828 85.4017C88.465 92.4122 91.8532 100.256 93.637 103.302L119.5 103.302L119.5 90.5L119.5 69L119.5 69Z" fill="#185D6D"/>
<path d="M110.043 27.4458L48.07 27.2582C48.07 27.2582 52.1184 22.3325 54.4424 22.3395L104.021 22.4896C106.345 22.4966 110.043 27.4458 110.043 27.4458Z" fill="#185D6D"/>
<path d="M101.858 19.8466C101.875 27.8488 90.0443 23.2521 77.2819 23.2788C64.5194 23.3054 54.183 27.9484 54.1663 19.9462C54.1496 11.944 64.471 0.122682 77.2334 0.0960307C89.9959 0.0693794 101.842 11.8445 101.858 19.8466Z" fill="#185D6D"/>
</svg>
