<svg width="155" height="159" viewBox="0 0 155 159" fill="none" xmlns="http://www.w3.org/2000/svg">
<path d="M93 103L93.385 157.744" stroke="black"/>
<path d="M97.6535 158.334C97.6535 159.312 95.7417 158.924 93.3833 158.924C91.025 158.924 89.1132 159.312 89.1132 158.334C89.1132 157.356 91.025 156.563 93.3833 156.563C95.7417 156.563 97.6535 157.356 97.6535 158.334Z" fill="black"/>
<path d="M74.6989 104.621V156.563" stroke="black"/>
<path d="M78.4365 157.744C78.4365 158.722 76.5247 158.334 74.1664 158.334C71.808 158.334 69.8962 158.722 69.8962 157.744C69.8962 156.766 71.808 155.973 74.1664 155.973C76.5247 155.973 78.4365 156.766 78.4365 157.744Z" fill="black"/>
<path d="M76.7186 10.5223C81.1389 8.33685 86.1753 8.54262 90.5253 10.8944C92.911 12.1842 95.7027 13.5278 94.7821 16.2821C94.0406 18.5002 91.7471 17.9204 89.6542 18.4061C88.4868 18.6771 87.1908 18.6855 86.6259 19.9901C86.2314 20.9012 86.4546 21.5898 86.6483 22.577C86.8369 23.5382 87.4922 24.5274 88.1493 25.3212H123.282C123.834 25.3212 124.282 25.7689 124.282 26.3212V104.321C124.282 104.873 123.834 105.321 123.282 105.321H89.5995C89.3225 105.321 89.0561 105.207 88.8739 104.999C88.2033 104.231 87.4721 103.206 87.2831 102.218C87.2621 102.108 87.2413 102.003 87.2206 101.9C87.0701 101.157 86.9532 100.581 87.2792 99.8514C87.7218 98.8606 88.6287 98.6974 89.5448 98.5321C89.7278 98.4991 89.9115 98.4654 90.0917 98.4257C90.6142 98.3103 91.1496 98.2655 91.6669 98.2225C93.0701 98.1059 94.3398 98.0005 94.8514 96.5223C95.6804 94.1263 93.3753 92.878 91.2518 91.7284C91.1492 91.6728 91.0466 91.6176 90.9452 91.5624C86.9343 89.3782 82.2744 89.1509 78.1698 91.1161C78.1074 91.146 78.044 91.1765 77.9803 91.2069C75.5645 92.3613 72.3323 93.9062 73.2001 96.5692C73.6871 98.0638 74.9277 98.1062 76.3339 98.1542C77.0771 98.1795 77.8671 98.2063 78.6161 98.4501C78.7136 98.4818 78.8095 98.5124 78.9032 98.5419C79.7172 98.7975 80.3807 99.0054 80.7841 99.8651C81.1356 100.614 81.006 101.216 80.8378 101.998C80.8214 102.074 80.8046 102.152 80.788 102.231C80.5116 103.553 79.2307 104.542 77.9852 105.21C77.8461 105.284 77.6899 105.321 77.5321 105.321H45.2821C44.73 105.321 44.2822 104.873 44.2821 104.321V70.1024C44.2821 69.8488 44.3773 69.6031 44.5565 69.4237C45.2166 68.7632 46.0515 68.0932 46.8573 67.91C46.9545 67.8879 47.0486 67.8655 47.1395 67.8436L47.6112 67.7382C48.0643 67.6527 48.4739 67.6483 48.9598 67.91C49.8395 68.3839 49.9836 69.3508 50.1288 70.328C50.1578 70.5233 50.1865 70.7197 50.2216 70.912C50.3231 71.4695 50.3621 72.0408 50.3993 72.5926C50.5002 74.0894 50.5915 75.4436 51.9042 75.9921C54.0321 76.8809 55.146 74.4245 56.1718 72.162C56.2213 72.0526 56.2709 71.9438 56.3202 71.8358C58.2689 67.5626 58.4787 62.5939 56.7401 58.2128L56.66 58.0106C55.6387 55.432 54.2726 51.9818 51.9042 52.9022C50.5749 53.4188 50.5345 54.7414 50.4891 56.2411C50.4652 57.0338 50.4397 57.8762 50.2216 58.6747C50.1932 58.7785 50.1668 58.8806 50.1405 58.9803C49.9118 59.848 49.7248 60.5547 48.9598 60.9833C48.2934 61.3565 47.7601 61.2179 47.0653 61.037C46.9976 61.0194 46.9283 61.0013 46.8573 60.9833C45.785 60.7117 44.961 59.5468 44.3759 58.3339C44.3132 58.2041 44.2822 58.061 44.2821 57.9169V26.3212C44.2821 25.769 44.7299 25.3213 45.2821 25.3212H77.6014C78.5751 24.6315 79.4129 23.7421 79.6307 22.6503C79.8275 21.6641 80.0309 20.9595 79.6083 20.0643C79.1151 19.02 78.2791 18.8638 77.2557 18.536C74.9098 17.7846 72.2111 19.0195 71.3895 16.5282C70.407 13.5481 74.0998 11.8171 76.7186 10.5223Z" fill="#A8E6F1"/>
<ellipse cx="75.6486" cy="50.4336" rx="2.37362" ry="7.5828" fill="black"/>
<path d="M90.0928 40.3295C90.1519 39.5606 91.7569 40.3824 93.8097 40.4476C95.8626 40.5128 97.5859 39.7968 97.5267 40.5657C97.4675 41.3347 95.7554 41.9051 93.7026 41.8399C91.6498 41.7747 90.0336 41.0984 90.0928 40.3295Z" fill="black"/>
<path d="M79.4602 40.3417C79.401 39.5728 77.7961 40.3946 75.7432 40.4598C73.6904 40.5251 71.9671 39.809 72.0263 40.5779C72.0854 41.3469 73.7976 41.9173 75.8504 41.8521C77.9032 41.7869 79.5194 41.1106 79.4602 40.3417Z" fill="black"/>
<ellipse cx="93.6501" cy="50.4336" rx="2.37362" ry="7.5828" fill="black"/>
<path d="M81.5 71.5002C72.805 69.5639 69.5694 67.4635 69.5694 67.4635C69.5694 67.4635 72.805 71.5639 81.5 73.5002C87.5238 74.8416 98.1611 69.462 98.1611 69.462C98.1611 69.462 87.1441 72.7571 81.5 71.5002Z" fill="black"/>
<path d="M37 92L57.2706 83.7927" stroke="black"/>
<path d="M121.5 73.0002C121.5 73.0002 137.317 77.7177 139.5 86.0001C142.509 97.4203 122.5 98.5001 122.5 98.5001" stroke="black"/>
<line y1="-0.3" x2="2.07565" y2="-0.3" transform="matrix(0.563993 0.82578 0.83816 -0.545425 122 97)" stroke="black" stroke-width="0.6"/>
<line y1="-0.3" x2="2.07671" y2="-0.3" transform="matrix(-0.582528 0.812811 0.825834 0.563913 123.21 98)" stroke="black" stroke-width="0.6"/>
<line y1="-0.35" x2="2.424" y2="-0.35" transform="matrix(0.00563127 0.999984 0.999986 -0.00536266 123 98)" stroke="black" stroke-width="0.7"/>
<path d="M112.979 16.7617C112.998 26.0104 97.8608 26.8255 83.1103 26.8563C68.3598 26.8871 54.0541 26.0104 54.0347 16.7617C58.0322 8.20718 68.3039 0.0931767 83.0544 0.062374C97.8049 0.0315712 106.353 7.16652 112.979 16.7617Z" fill="#A8E6F1"/>
<path d="M61 28C66.5 19.5 105.562 23.6698 107 28" stroke="#185D6D" stroke-width="5"/>
<path d="M107.397 28.3101C107.403 25.553 96.8667 23.9886 83.4227 23.6964C69.9788 23.4043 60.9894 25.4513 60.9836 28.2083C60.9779 30.9654 70.3838 33.8971 83.4227 33.9243C96.4617 33.9516 107.392 31.0671 107.397 28.3101Z" fill="black"/>
<path d="M82.9291 4.62622L84.486 9.41793L89.5243 9.41793L85.4482 12.3794L87.0051 17.1711L82.9291 14.2096L78.853 17.1711L80.4099 12.3794L76.3339 9.41793L81.3721 9.41793L82.9291 4.62622Z" fill="#185D6D"/>
<path d="M16.5422 89.5072C20.6089 91.2463 22.4658 95.8798 20.781 99.8198C19.096 103.76 14.4634 105.617 10.3967 103.878C6.33008 102.139 4.47298 97.5064 6.15761 93.5665C7.84248 89.6264 12.4754 87.7681 16.5422 89.5072Z" stroke="#185D6D" stroke-width="5"/>
<path d="M4.92328 94.0295C5.57659 84.6253 22.8535 77.6986 26.4128 79.2206C28.5779 80.1465 31.2952 82.5716 30.6864 83.9953C30.1993 85.1343 30.3492 86.0966 30.485 86.4353C29.0987 90.3335 23.9437 104.689 16.167 105.153" stroke="#185D6D" stroke-width="3"/>
<path d="M15.441 87.1593C10.4373 84.6827 6.34514 90.7077 4.92453 94.0298L7.05545 89.0467C10.696 86.1126 18.902 80.0504 22.6018 79.2748C27.2266 78.3054 27.0253 80.7454 28.9571 81.1505C30.5027 81.4746 30.5191 85.0463 30.3341 86.7916C29.0485 89.4697 26.2947 95.253 25.5641 96.9615C24.8335 98.67 21.7378 100.658 20.2813 101.439L22.26 96.8117C23.4777 93.9642 21.6956 90.255 15.441 87.1593Z" fill="#185D6D" stroke="#185D6D" stroke-width="0.75"/>
<ellipse cx="30.6882" cy="77.099" rx="3.2149" ry="2.20789" transform="rotate(39.8438 30.6882 77.099)" fill="#185D6D"/>
<path d="M30.1233 77.4391C28.6995 76.8303 25.6998 75.9686 24.1754 76.5797L29.6666 78.5069L31.3456 80.488L32.5165 82.6728C32.6172 81.4528 31.547 78.048 30.1233 77.4391Z" fill="#185D6D" stroke="#185D6D" stroke-width="0.5"/>
<path d="M29.5286 96.5518C28.4608 96.0952 27.5452 95.2827 25.159 98.8935L24.0397 97.5728C25.2637 95.2626 28.5995 90.2996 29.2932 90.3774C29.778 89.1191 30.476 87.4445 30.9944 86.2321C31.7734 85.7232 33.4738 84.7662 34.0433 85.0097C34.2063 85.4162 34.5007 84.9246 34.5514 84.806L32.1161 90.501C31.454 90.2178 30.3697 89.8998 29.3064 91.3626C29.0407 93.0265 29.6162 93.6421 30.95 94.2125L29.5286 96.5518Z" fill="#185D6D" stroke="#185D6D"/>
<path d="M43.5932 101.075C39.536 99.3401 34.8897 101.203 33.1909 105.176C31.4921 109.148 33.3548 113.795 37.412 115.53C41.4692 117.264 46.1155 115.401 47.8143 111.429C49.5129 107.456 47.6503 102.81 43.5932 101.075Z" stroke="#185D6D" stroke-width="5"/>
<path d="M48.3499 112.6C54.6982 105.631 47.7714 88.3542 44.2121 86.8321C42.047 85.9062 38.4164 85.6168 37.8076 87.0405C37.3205 88.1795 36.5212 88.7359 36.1825 88.8717C34.3216 92.5669 27.503 106.211 32.54 112.154" stroke="#185D6D" stroke-width="3"/>
<path d="M46.0515 100.249C51.2987 102.156 49.7693 109.277 48.3487 112.599L50.4796 107.616C50.0862 102.957 48.8006 92.8361 46.8054 89.6252C44.3115 85.6116 42.6864 87.4427 41.059 86.3258C39.757 85.4322 37.1632 87.8877 36.029 89.2271C34.9808 92.0067 32.7015 97.993 31.9709 99.7014C31.2403 101.41 31.9413 105.022 32.3831 106.614L34.3618 101.987C35.5795 99.1394 39.4924 97.8656 46.0515 100.249Z" fill="#185D6D" stroke="#185D6D"/>
<ellipse cx="3.2149" cy="2.20789" rx="3.2149" ry="2.20789" transform="matrix(-0.993647 -0.112545 -0.112545 0.993647 46.2355 80.4431)" fill="#185D6D"/>
<path d="M42.937 82.9185C44.3607 83.5274 47.056 85.101 47.6672 86.6254L42.4803 83.9863L39.8881 84.1409L37.4996 84.8036C38.3122 83.888 41.5132 82.3097 42.937 82.9185Z" fill="#185D6D" stroke="#185D6D" stroke-width="0.5"/>
<path d="M29.5285 96.5519C30.5964 97.0085 31.8164 97.1092 30.8539 101.329L32.5821 101.226C33.4069 98.745 34.6909 92.9046 34.1555 92.4568C34.7304 91.2369 35.459 89.5755 35.9775 88.3631C35.8073 87.4483 35.3246 85.5577 34.7551 85.3142C34.3486 85.4772 34.5007 84.9247 34.5514 84.8061L32.1161 90.501C32.7782 90.7842 33.7571 91.3485 33.434 93.1278C32.4145 94.4694 31.5719 94.4785 30.2381 93.9081L29.5285 96.5519Z" fill="#185D6D" stroke="#185D6D"/>
</svg>
