<svg width="150" height="150" viewBox="0 0 150 150" fill="none" xmlns="http://www.w3.org/2000/svg">
<path d="M2.1164 87.648C2.19889 87.1989 2.39009 86.7755 2.67318 86.415C2.95627 86.0545 3.32259 85.768 3.73994 85.5806L17.0831 79.1312C17.4027 78.9824 17.6907 78.7723 17.9305 78.5131L23.9575 72.0417C24.4634 71.4986 25.1614 71.176 25.8981 71.1449C26.6348 71.1138 27.3498 71.3768 27.8858 71.876L28.0475 72.0266L29.9548 69.9787L34.8052 74.4961L32.8979 76.544L33.1081 76.7397C33.6237 77.2439 33.9192 77.9325 33.9314 78.6585C33.9436 79.3844 33.6715 80.0901 33.1734 80.6247L36.0261 87.8706C36.2173 88.3595 36.2662 88.8942 36.1671 89.4135C36.0681 89.9327 35.8251 90.4154 35.466 90.8061L34.5047 91.8382C33.9973 92.3745 33.3012 92.6912 32.5683 92.7191C31.8353 92.7471 31.1249 92.4841 30.5917 91.9875L26.5012 88.1779L21.153 101.798C21.0196 102.132 20.8258 102.439 20.5813 102.703C20.193 103.105 19.6988 103.389 19.1576 103.519C18.7271 103.621 18.2798 103.62 17.8527 103.515C17.4256 103.409 17.031 103.204 16.7016 102.914L2.94251 90.1C2.61491 89.7921 2.36843 89.4078 2.22446 88.9805C2.0805 88.5532 2.0434 88.0958 2.1164 87.648ZM7.731 94.6515L11.773 98.416C11.2672 98.9591 10.5691 99.2817 9.83243 99.3128C9.09573 99.3438 8.38073 99.0808 7.84472 98.5816C7.30872 98.0824 6.99561 97.3879 6.97428 96.6509C6.95296 95.9138 7.22515 95.1946 7.731 94.6515Z" fill="#185D6D"/>
<path d="M88 94L88.385 148.744" stroke="black"/>
<path d="M92.6535 149.334C92.6535 150.312 90.7417 149.924 88.3833 149.924C86.025 149.924 84.1132 150.312 84.1132 149.334C84.1132 148.356 86.025 147.563 88.3833 147.563C90.7417 147.563 92.6535 148.356 92.6535 149.334Z" fill="black"/>
<path d="M69.6989 95.6211V147.563" stroke="black"/>
<path d="M73.4365 148.744C73.4365 149.722 71.5247 149.334 69.1664 149.334C66.8081 149.334 64.8963 149.722 64.8963 148.744C64.8963 147.766 66.8081 146.973 69.1664 146.973C71.5247 146.973 73.4365 147.766 73.4365 148.744Z" fill="black"/>
<path d="M71.7186 1.52233C76.1389 -0.663151 81.1753 -0.457383 85.5253 1.8944C87.911 3.18421 90.7027 4.52777 89.7821 7.2821C89.0406 9.50024 86.7471 8.92042 84.6542 9.40612C83.4868 9.6771 82.1908 9.68547 81.6259 10.9901C81.2314 11.9012 81.4546 12.5898 81.6483 13.577C81.8369 14.5382 82.4922 15.5274 83.1493 16.3212H118.282C118.834 16.3212 119.282 16.7689 119.282 17.3212V95.3212C119.282 95.8734 118.834 96.3212 118.282 96.3212H84.5995C84.3225 96.3211 84.0561 96.2075 83.8739 95.9989C83.2033 95.2313 82.4721 94.2055 82.2831 93.2176C82.2621 93.1082 82.2413 93.0026 82.2206 92.9003C82.0701 92.1573 81.9532 91.5813 82.2792 90.8514C82.7218 89.8606 83.6287 89.6974 84.5448 89.5321C84.7278 89.4991 84.9115 89.4654 85.0917 89.4257C85.6142 89.3103 86.1496 89.2655 86.6669 89.2225C88.0701 89.1059 89.3398 89.0005 89.8514 87.5223C90.6804 85.1263 88.3753 83.878 86.2518 82.7284C86.1492 82.6728 86.0466 82.6176 85.9452 82.5624C81.9343 80.3782 77.2744 80.1509 73.1698 82.1161C73.1074 82.146 73.044 82.1765 72.9803 82.2069C70.5645 83.3613 67.3323 84.9062 68.2001 87.5692C68.6871 89.0638 69.9277 89.1062 71.3339 89.1542C72.0771 89.1795 72.8671 89.2063 73.6161 89.4501C73.7136 89.4818 73.8095 89.5124 73.9032 89.5419C74.7172 89.7975 75.3807 90.0054 75.7841 90.8651C76.1356 91.6144 76.006 92.2156 75.8378 92.9979C75.8214 93.0739 75.8046 93.1516 75.788 93.2313C75.5116 94.5528 74.2307 95.5419 72.9852 96.2098C72.8461 96.2844 72.6899 96.3212 72.5321 96.3212H40.2821C39.73 96.321 39.2822 95.8733 39.2821 95.3212V61.1024C39.2821 60.8488 39.3773 60.6031 39.5565 60.4237C40.2166 59.7632 41.0515 59.0932 41.8573 58.91C41.9545 58.8879 42.0486 58.8655 42.1395 58.8436L42.6112 58.7382C43.0643 58.6527 43.4739 58.6483 43.9598 58.91C44.8395 59.3839 44.9836 60.3508 45.1288 61.328C45.1578 61.5233 45.1865 61.7197 45.2216 61.912C45.3231 62.4695 45.3621 63.0408 45.3993 63.5926C45.5002 65.0894 45.5915 66.4436 46.9042 66.9921C49.0321 67.8809 50.146 65.4245 51.1718 63.162C51.2213 63.0526 51.2709 62.9438 51.3202 62.8358C53.2689 58.5626 53.4787 53.5939 51.7401 49.2128L51.66 49.0106C50.6387 46.432 49.2726 42.9818 46.9042 43.9022C45.5749 44.4188 45.5345 45.7414 45.4891 47.2411C45.4652 48.0338 45.4397 48.8762 45.2216 49.6747C45.1932 49.7785 45.1668 49.8806 45.1405 49.9803C44.9118 50.848 44.7248 51.5547 43.9598 51.9833C43.2934 52.3565 42.7601 52.2179 42.0653 52.037C41.9976 52.0194 41.9283 52.0013 41.8573 51.9833C40.785 51.7117 39.961 50.5468 39.3759 49.3339C39.3132 49.2041 39.2822 49.061 39.2821 48.9169V17.3212C39.2821 16.769 39.7299 16.3213 40.2821 16.3212H72.6014C73.5751 15.6315 74.4129 14.7421 74.6307 13.6503C74.8275 12.6641 75.0309 11.9595 74.6083 11.0643C74.1151 10.02 73.2791 9.8638 72.2557 9.536C69.9098 8.7846 67.2111 10.0195 66.3895 7.52819C65.407 4.54811 69.0998 2.8171 71.7186 1.52233Z" fill="#A8E6F1"/>
<ellipse cx="70.6486" cy="41.4336" rx="2.37362" ry="7.5828" fill="black"/>
<path d="M72.9562 30.6855C73.158 31.4298 71.3704 31.1931 69.4143 31.8192C67.4583 32.4454 66.0743 33.6973 65.8725 32.953C65.6707 32.2086 67.0929 31.0976 69.0489 30.4715C71.005 29.8453 72.7543 29.9411 72.9562 30.6855Z" fill="black"/>
<path d="M92.9438 32.6479C92.7788 33.4029 91.3354 32.2331 89.3513 31.7213C87.3672 31.2096 85.5939 31.5497 85.7588 30.7948C85.9237 30.0398 87.6658 29.8426 89.6499 30.3543C91.634 30.866 93.1087 31.8929 92.9438 32.6479Z" fill="black"/>
<ellipse cx="88.6501" cy="41.4336" rx="2.37362" ry="7.5828" fill="black"/>
<path d="M64.78 58.8659C64.4482 58.5952 64.5694 58.4632 64.5694 58.4632C64.5694 58.4632 64.641 58.6071 64.78 58.8659C65.3185 59.3051 67.0503 60.1095 72.4302 61.3076C78.0743 62.5645 93.1611 60.4618 93.1611 60.4618C93.1611 60.4618 85.2425 73.7063 79.2188 72.3648C71.4773 70.6409 65.9083 60.9668 64.78 58.8659Z" fill="black"/>
<path d="M33 85.9999L52.2706 74.7926" stroke="black"/>
<path d="M108.018 74.638C108.018 74.638 114.631 68.5057 116.93 64.2732C120.101 58.4373 119.398 48.945 119.398 48.945" stroke="black"/>
<line y1="-0.3" x2="1.51275" y2="-0.3" transform="matrix(0.815319 -0.579012 0.953627 0.300992 119.706 49.2371)" stroke="black" stroke-width="0.6"/>
<line y1="-0.3" x2="1.53901" y2="-0.3" transform="matrix(-0.828168 -0.56048 0.949289 -0.314403 119.706 49.2371)" stroke="black" stroke-width="0.6"/>
<line y1="-0.35" x2="1.23877" y2="-0.35" transform="matrix(0.0116096 -0.999933 0.999997 0.00260108 119.605 49.2385)" stroke="black" stroke-width="0.7"/>
<path d="M21.7012 78.5167C21.3248 78.9209 21.3472 79.5536 21.7514 79.93L25.5101 83.4307C25.9143 83.8071 26.547 83.7846 26.9234 83.3804L30.5193 79.5194C30.8957 79.1153 30.8732 78.4825 30.4691 78.1061L26.7103 74.6055C26.3062 74.2291 25.6734 74.2516 25.297 74.6557L21.7012 78.5167Z" fill="#A8E6F1"/>
<path d="M110.576 24.5076C110.691 24.3728 110.838 24.2694 111.003 24.2068C111.169 24.1442 111.348 24.1245 111.523 24.1495L144.735 28.9334C144.941 28.9631 145.132 29.053 145.286 29.1916C145.44 29.3302 145.55 29.5114 145.601 29.7122C145.652 29.9131 145.643 30.1246 145.574 30.32C145.505 30.5155 145.38 30.6861 145.214 30.8104L136.555 37.29L143.033 45.9498C143.157 46.1159 143.229 46.315 143.24 46.5219C143.251 46.7289 143.201 46.9345 143.095 47.1127C142.989 47.2909 142.833 47.4338 142.646 47.5233C142.459 47.6128 142.25 47.6449 142.045 47.6156L118.384 44.2076L122.028 55.9306C122.069 56.0622 122.083 56.2005 122.071 56.3377C122.058 56.4749 122.019 56.6082 121.954 56.7302C121.89 56.8521 121.803 56.9602 121.697 57.0483C121.591 57.1364 121.469 57.2028 121.337 57.2437C121.206 57.2846 121.067 57.2991 120.93 57.2865C120.793 57.274 120.66 57.2345 120.538 57.1703C120.416 57.1062 120.308 57.0187 120.22 56.9128C120.131 56.8069 120.065 56.6847 120.024 56.5531L110.371 25.4987C110.319 25.3296 110.31 25.1501 110.346 24.9768C110.382 24.8035 110.461 24.6421 110.576 24.5076Z" fill="#185D6D"/>
<path d="M110.576 24.5076C110.691 24.3728 110.838 24.2694 111.003 24.2068C111.169 24.1442 111.348 24.1245 111.523 24.1495L144.735 28.9334C144.941 28.9631 145.132 29.053 145.286 29.1916C145.44 29.3302 145.55 29.5114 145.601 29.7122C145.652 29.9131 145.643 30.1246 145.574 30.32C145.505 30.5155 145.38 30.6861 145.214 30.8104L136.555 37.29L143.033 45.9499C143.157 46.1159 143.229 46.315 143.24 46.5219C143.251 46.7289 143.201 46.9345 143.095 47.1127C142.989 47.2909 142.833 47.4338 142.646 47.5233C142.459 47.6128 142.25 47.6449 142.045 47.6156L118.384 44.2076L122.028 55.9306C122.069 56.0622 122.083 56.2005 122.071 56.3377C122.058 56.4749 122.019 56.6082 121.954 56.7302C121.89 56.8521 121.803 56.9602 121.697 57.0483C121.591 57.1364 121.469 57.2028 121.337 57.2437C121.206 57.2846 121.067 57.2991 120.93 57.2865C120.793 57.274 120.66 57.2345 120.538 57.1703C120.416 57.1062 120.308 57.0187 120.22 56.9128C120.131 56.8069 120.065 56.6847 120.024 56.5531L110.371 25.4987C110.319 25.3296 110.31 25.1501 110.346 24.9768C110.382 24.8035 110.461 24.6421 110.576 24.5076ZM117.693 41.9892L139.835 45.1785L134.246 37.7061C134.08 37.4835 134.008 37.2039 134.048 36.9289C134.088 36.6539 134.235 36.4058 134.457 36.2392L141.93 30.6482L112.869 26.4623L117.693 41.9892Z" fill="#185D6D"/>
<path d="M125.734 38.8C124.984 38.7645 124.276 38.4411 123.757 37.897C123.239 37.3528 122.95 36.6298 122.95 35.878C122.95 34.2634 124.262 32.9512 125.876 32.9512C127.446 32.9512 128.723 34.1854 128.796 35.7366L127.772 35.4293C127.693 35.0911 127.524 34.7804 127.284 34.5292C127.044 34.278 126.742 34.0955 126.408 34.0005C126.074 33.9055 125.72 33.9015 125.384 33.9889C125.048 34.0763 124.741 34.2519 124.496 34.4976C124.25 34.7432 124.075 35.0501 123.987 35.3863C123.9 35.7226 123.904 36.0761 123.999 36.4103C124.094 36.7445 124.276 37.0472 124.527 37.2872C124.779 37.5273 125.089 37.6959 125.427 37.7756L125.734 38.8ZM130.751 35.878C130.751 36.0244 130.746 36.1707 130.732 36.3171L129.771 36.0293C129.776 35.9805 129.776 35.9268 129.776 35.878C129.776 33.722 128.031 31.9756 125.876 31.9756C123.721 31.9756 121.975 33.722 121.975 35.878C121.975 38.0341 123.721 39.7805 125.876 39.7805C125.924 39.7805 125.978 39.7805 126.027 39.7756L126.314 40.7366C126.168 40.7512 126.022 40.7561 125.876 40.7561C123.184 40.7561 121 38.5707 121 35.878C121 33.1854 123.184 31 125.876 31C128.567 31 130.751 33.1854 130.751 35.878ZM128.913 37.9561L130.751 37.3415L125.876 35.878L127.338 40.7561L127.953 38.9171L130.035 41L131 40.0341L128.913 37.9561Z" fill="#A8E6F1"/>
</svg>
