<svg width="150" height="151" viewBox="0 0 150 151" fill="none" xmlns="http://www.w3.org/2000/svg">
<path d="M88 94L88.385 148.744" stroke="black"/>
<path d="M92.6535 149.334C92.6535 150.312 90.7417 149.924 88.3833 149.924C86.025 149.924 84.1132 150.312 84.1132 149.334C84.1132 148.356 86.025 147.563 88.3833 147.563C90.7417 147.563 92.6535 148.356 92.6535 149.334Z" fill="black"/>
<path d="M69.6989 95.6211V147.563" stroke="black"/>
<path d="M73.4365 148.744C73.4365 149.722 71.5247 149.334 69.1664 149.334C66.808 149.334 64.8962 149.722 64.8962 148.744C64.8962 147.766 66.808 146.973 69.1664 146.973C71.5247 146.973 73.4365 147.766 73.4365 148.744Z" fill="black"/>
<path d="M71.7186 1.52233C76.1389 -0.663151 81.1753 -0.457383 85.5253 1.8944C87.911 3.18421 90.7027 4.52777 89.7821 7.2821C89.0406 9.50024 86.7471 8.92042 84.6542 9.40612C83.4868 9.6771 82.1908 9.68547 81.6259 10.9901C81.2314 11.9012 81.4546 12.5898 81.6483 13.577C81.8369 14.5382 82.4922 15.5274 83.1493 16.3212H118.282C118.834 16.3212 119.282 16.7689 119.282 17.3212V95.3212C119.282 95.8734 118.834 96.3212 118.282 96.3212H84.5995C84.3225 96.3211 84.0561 96.2075 83.8739 95.9989C83.2033 95.2313 82.4721 94.2055 82.2831 93.2176C82.2621 93.1082 82.2413 93.0026 82.2206 92.9003C82.0701 92.1573 81.9532 91.5813 82.2792 90.8514C82.7218 89.8606 83.6287 89.6974 84.5448 89.5321C84.7278 89.4991 84.9115 89.4654 85.0917 89.4257C85.6142 89.3103 86.1496 89.2655 86.6669 89.2225C88.0701 89.1059 89.3398 89.0005 89.8514 87.5223C90.6804 85.1263 88.3753 83.878 86.2518 82.7284C86.1492 82.6728 86.0466 82.6176 85.9452 82.5624C81.9343 80.3782 77.2744 80.1509 73.1698 82.1161C73.1074 82.146 73.044 82.1765 72.9803 82.2069C70.5645 83.3613 67.3323 84.9062 68.2001 87.5692C68.6871 89.0638 69.9277 89.1062 71.3339 89.1542C72.0771 89.1795 72.8671 89.2063 73.6161 89.4501C73.7136 89.4818 73.8095 89.5124 73.9032 89.5419C74.7172 89.7975 75.3807 90.0054 75.7841 90.8651C76.1356 91.6144 76.006 92.2156 75.8378 92.9979C75.8214 93.0739 75.8046 93.1516 75.788 93.2313C75.5116 94.5528 74.2307 95.5419 72.9852 96.2098C72.8461 96.2844 72.6899 96.3212 72.5321 96.3212H40.2821C39.73 96.321 39.2822 95.8733 39.2821 95.3212V61.1024C39.2821 60.8488 39.3773 60.6031 39.5565 60.4237C40.2166 59.7632 41.0515 59.0932 41.8573 58.91C41.9545 58.8879 42.0486 58.8655 42.1395 58.8436L42.6112 58.7382C43.0643 58.6527 43.4739 58.6483 43.9598 58.91C44.8395 59.3839 44.9836 60.3508 45.1288 61.328C45.1578 61.5233 45.1865 61.7197 45.2216 61.912C45.3231 62.4695 45.3621 63.0408 45.3993 63.5926C45.5002 65.0894 45.5915 66.4436 46.9042 66.9921C49.0321 67.8809 50.146 65.4245 51.1718 63.162C51.2213 63.0526 51.2709 62.9438 51.3202 62.8358C53.2689 58.5626 53.4787 53.5939 51.7401 49.2128L51.66 49.0106C50.6387 46.432 49.2726 42.9818 46.9042 43.9022C45.5749 44.4188 45.5345 45.7414 45.4891 47.2411C45.4652 48.0338 45.4397 48.8762 45.2216 49.6747C45.1932 49.7785 45.1668 49.8806 45.1405 49.9803C44.9118 50.848 44.7248 51.5547 43.9598 51.9833C43.2934 52.3565 42.7601 52.2179 42.0653 52.037C41.9976 52.0194 41.9283 52.0013 41.8573 51.9833C40.785 51.7117 39.961 50.5468 39.3759 49.3339C39.3132 49.2041 39.2822 49.061 39.2821 48.9169V17.3212C39.2821 16.769 39.7299 16.3213 40.2821 16.3212H72.6014C73.5751 15.6315 74.4129 14.7421 74.6307 13.6503C74.8275 12.6641 75.0309 11.9595 74.6083 11.0643C74.1151 10.02 73.2791 9.8638 72.2557 9.536C69.9098 8.7846 67.2111 10.0195 66.3895 7.52819C65.407 4.54811 69.0998 2.8171 71.7186 1.52233Z" fill="#A8E6F1"/>
<ellipse cx="70.6486" cy="41.4336" rx="2.37362" ry="7.5828" fill="black"/>
<path d="M72.9562 30.6855C73.158 31.4298 71.3704 31.1931 69.4143 31.8192C67.4583 32.4454 66.0743 33.6973 65.8725 32.953C65.6707 32.2086 67.0929 31.0976 69.0489 30.4715C71.005 29.8453 72.7543 29.9411 72.9562 30.6855Z" fill="black"/>
<path d="M92.9438 32.6479C92.7788 33.4029 91.3354 32.2331 89.3513 31.7213C87.3672 31.2096 85.5939 31.5497 85.7588 30.7948C85.9237 30.0398 87.6658 29.8426 89.6499 30.3543C91.634 30.866 93.1087 31.8929 92.9438 32.6479Z" fill="black"/>
<ellipse cx="88.6501" cy="41.4336" rx="2.37362" ry="7.5828" fill="black"/>
<path d="M64.78 58.8659C64.4482 58.5952 64.5694 58.4632 64.5694 58.4632C64.5694 58.4632 64.641 58.6071 64.78 58.8659C65.3185 59.3051 67.0503 60.1095 72.4302 61.3076C78.0743 62.5645 93.1611 60.4618 93.1611 60.4618C93.1611 60.4618 85.2425 73.7063 79.2188 72.3648C71.4773 70.6409 65.9083 60.9668 64.78 58.8659Z" fill="black"/>
<path d="M7.7922 88.0977L52.2706 74.7927" stroke="black"/>
<path d="M111.483 60.6382C111.483 60.6382 117.759 72.6384 119.942 80.9209C122.951 92.3411 122.284 110.916 122.284 110.916" stroke="black"/>
<line y1="-0.3" x2="2.07565" y2="-0.3" transform="matrix(0.563993 0.82578 0.83816 -0.545425 122.576 110.345)" stroke="black" stroke-width="0.6"/>
<line y1="-0.3" x2="2.07671" y2="-0.3" transform="matrix(-0.582528 0.812811 0.825834 0.563913 122.576 110.345)" stroke="black" stroke-width="0.6"/>
<line y1="-0.35" x2="2.424" y2="-0.35" transform="matrix(0.00563127 0.999984 0.999986 -0.00536266 122.48 110.342)" stroke="black" stroke-width="0.7"/>
<path d="M68.3974 117.5C62.8441 117.5 60.0634 117.5 57.7395 116.546C55.1498 115.467 52.9593 113.61 51.4709 111.231C50.0846 109.037 49.4743 106.163 48.2537 100.42C47.2109 95.5053 46.6896 93.052 47.1948 91.1039C47.4559 90.0634 47.9236 89.0861 48.57 88.23C49.2165 87.3739 50.0284 86.6566 50.9576 86.1205C52.6389 85.1667 55.0154 85.1667 59.7684 85.1667H98.9039C103.653 85.1667 106.029 85.1667 107.711 86.1205C109.558 87.1633 110.916 88.9658 111.469 91.1039C111.979 93.052 111.457 95.5093 110.419 100.42C109.194 106.163 108.584 109.037 107.197 111.231C105.711 113.611 103.52 115.469 100.929 116.546C98.6048 117.5 95.8241 117.5 90.2709 117.5" fill="#185D6D"/>
<path d="M68.3974 117.5C62.8441 117.5 60.0634 117.5 57.7395 116.546C55.1498 115.467 52.9593 113.61 51.4709 111.231C50.0846 109.037 49.4743 106.163 48.2537 100.42C47.2109 95.5053 46.6896 93.052 47.1948 91.1039C47.4559 90.0634 47.9236 89.0861 48.57 88.23C49.2165 87.3739 50.0284 86.6566 50.9576 86.1205C52.6389 85.1667 55.0154 85.1667 59.7684 85.1667H98.9039C103.653 85.1667 106.029 85.1667 107.711 86.1205C109.558 87.1633 110.916 88.9658 111.469 91.1039C111.979 93.052 111.457 95.5093 110.419 100.42C109.194 106.163 108.584 109.037 107.197 111.231C105.711 113.611 103.52 115.469 100.929 116.546C98.6048 117.5 95.8241 117.5 90.2709 117.5M56.5 84.5C57.0592 82.2598 55.18 75.9208 57 74.5C58.82 73.0792 60.6911 70.9989 63 71" stroke="#185D6D" stroke-width="1.5" stroke-linecap="round" stroke-linejoin="round"/>
<path d="M68.357 109.417L71.4933 131.941C71.6752 133.242 71.7681 133.897 71.5862 134.406C70.7537 136.759 67.5648 135.231 65.839 135.942C65.3067 136.162 64.8343 136.506 64.4608 136.945C64.0081 137.47 63.7292 138.189 63.1674 139.632C62.1126 142.356 59.732 146.192 62.2904 148.775C63.3412 149.833 65.2004 149.833 68.9187 149.833H89.7455C93.4678 149.833 95.331 149.833 96.3778 148.775C98.9362 146.188 96.5557 142.356 95.5008 139.632C94.939 138.189 94.6601 137.47 94.2075 136.945C93.835 136.507 93.3641 136.163 92.8333 135.942C91.1035 135.231 87.9146 136.759 87.082 134.406C86.9001 133.897 86.9931 133.242 87.1749 131.941L90.3113 109.417" fill="#185D6D"/>
<path d="M68.357 109.417L71.4933 131.941C71.6752 133.242 71.7681 133.897 71.5862 134.406C70.7537 136.759 67.5648 135.231 65.839 135.942C65.3067 136.162 64.8343 136.506 64.4608 136.945C64.0081 137.47 63.7292 138.189 63.1674 139.632C62.1126 142.356 59.732 146.192 62.2904 148.775C63.3412 149.833 65.2004 149.833 68.9187 149.833H89.7455C93.4678 149.833 95.331 149.833 96.3778 148.775C98.9362 146.188 96.5557 142.356 95.5008 139.632C94.939 138.189 94.6601 137.47 94.2075 136.945C93.835 136.507 93.3641 136.163 92.8333 135.942C91.1035 135.231 87.9146 136.759 87.082 134.406C86.9001 133.897 86.9931 133.242 87.1749 131.941L90.3113 109.417" stroke="#185D6D" stroke-width="1.5" stroke-linecap="round" stroke-linejoin="round"/>
<circle cx="67" cy="71" r="4" fill="black"/>
<path d="M57 71.5L64 69.5L65.5 74L58 75L57 71.5Z" fill="black"/>
<path d="M102.917 73.2083H106.458V71.7916H102.917V73.2083ZM102.917 71.0833H106.458V69.6666H102.917V71.0833ZM96.5417 75.3333H102.208V74.9437C102.208 74.4124 101.949 73.9905 101.429 73.6779C100.91 73.3653 100.225 73.2087 99.375 73.2083C98.525 73.2078 97.8403 73.3643 97.3209 73.6779C96.8014 73.9914 96.5417 74.4134 96.5417 74.9437V75.3333ZM99.375 72.4999C99.7646 72.4999 100.098 72.3613 100.376 72.0841C100.654 71.8069 100.792 71.4733 100.792 71.0833C100.791 70.6932 100.653 70.3598 100.376 70.0831C100.099 69.8064 99.7655 69.6675 99.375 69.6666C98.9845 69.6656 98.6511 69.8045 98.3749 70.0831C98.0986 70.3617 97.9598 70.6951 97.9584 71.0833C97.9569 71.4714 98.0958 71.805 98.3749 72.0841C98.6539 72.3632 98.9873 72.5018 99.375 72.4999ZM95.8334 78.1666C95.4438 78.1666 95.1104 78.028 94.8332 77.7508C94.556 77.4736 94.4172 77.14 94.4167 76.7499V68.2499C94.4167 67.8603 94.5555 67.5269 94.8332 67.2498C95.1109 66.9726 95.4442 66.8337 95.8334 66.8333H107.167C107.556 66.8333 107.89 66.9721 108.168 67.2498C108.445 67.5274 108.584 67.8608 108.583 68.2499V76.7499C108.583 77.1395 108.445 77.4731 108.168 77.7508C107.89 78.0285 107.557 78.1671 107.167 78.1666H95.8334Z" fill="#185D6D"/>
</svg>
