<svg width="150" height="150" viewBox="0 0 150 150" fill="none" xmlns="http://www.w3.org/2000/svg">
<path d="M88 94L88.385 148.744" stroke="black"/>
<path d="M92.6535 149.334C92.6535 150.312 90.7417 149.924 88.3833 149.924C86.025 149.924 84.1132 150.312 84.1132 149.334C84.1132 148.356 86.025 147.563 88.3833 147.563C90.7417 147.563 92.6535 148.356 92.6535 149.334Z" fill="black"/>
<path d="M69.6989 95.6211V147.563" stroke="black"/>
<path d="M73.4365 148.744C73.4365 149.722 71.5247 149.334 69.1664 149.334C66.8081 149.334 64.8963 149.722 64.8963 148.744C64.8963 147.766 66.8081 146.973 69.1664 146.973C71.5247 146.973 73.4365 147.766 73.4365 148.744Z" fill="black"/>
<path d="M71.7186 1.52233C76.1389 -0.663151 81.1753 -0.457383 85.5253 1.8944C87.911 3.18421 90.7027 4.52777 89.7821 7.2821C89.0406 9.50024 86.7471 8.92042 84.6542 9.40612C83.4868 9.6771 82.1908 9.68547 81.6259 10.9901C81.2314 11.9012 81.4546 12.5898 81.6483 13.577C81.8369 14.5382 82.4922 15.5274 83.1493 16.3212H118.282C118.834 16.3212 119.282 16.7689 119.282 17.3212V95.3212C119.282 95.8734 118.834 96.3212 118.282 96.3212H84.5995C84.3225 96.3211 84.0561 96.2075 83.8739 95.9989C83.2033 95.2313 82.4721 94.2055 82.2831 93.2176C82.2621 93.1082 82.2413 93.0026 82.2206 92.9003C82.0701 92.1573 81.9532 91.5813 82.2792 90.8514C82.7218 89.8606 83.6287 89.6974 84.5448 89.5321C84.7278 89.4991 84.9115 89.4654 85.0917 89.4257C85.6142 89.3103 86.1496 89.2655 86.6669 89.2225C88.0701 89.1059 89.3398 89.0005 89.8514 87.5223C90.6804 85.1263 88.3753 83.878 86.2518 82.7284C86.1492 82.6728 86.0466 82.6176 85.9452 82.5624C81.9343 80.3782 77.2744 80.1509 73.1698 82.1161C73.1074 82.146 73.044 82.1765 72.9803 82.2069C70.5645 83.3613 67.3323 84.9062 68.2001 87.5692C68.6871 89.0638 69.9277 89.1062 71.3339 89.1542C72.0771 89.1795 72.8671 89.2063 73.6161 89.4501C73.7136 89.4818 73.8095 89.5124 73.9032 89.5419C74.7172 89.7975 75.3807 90.0054 75.7841 90.8651C76.1356 91.6144 76.006 92.2156 75.8378 92.9979C75.8214 93.0739 75.8046 93.1516 75.788 93.2313C75.5116 94.5528 74.2307 95.5419 72.9852 96.2098C72.8461 96.2844 72.6899 96.3212 72.5321 96.3212H40.2821C39.73 96.321 39.2822 95.8733 39.2821 95.3212V61.1024C39.2821 60.8488 39.3773 60.6031 39.5565 60.4237C40.2166 59.7632 41.0515 59.0932 41.8573 58.91C41.9545 58.8879 42.0486 58.8655 42.1395 58.8436L42.6112 58.7382C43.0643 58.6527 43.4739 58.6483 43.9598 58.91C44.8395 59.3839 44.9836 60.3508 45.1288 61.328C45.1578 61.5233 45.1865 61.7197 45.2216 61.912C45.3231 62.4695 45.3621 63.0408 45.3993 63.5926C45.5002 65.0894 45.5915 66.4436 46.9042 66.9921C49.0321 67.8809 50.146 65.4245 51.1718 63.162C51.2213 63.0526 51.2709 62.9438 51.3202 62.8358C53.2689 58.5626 53.4787 53.5939 51.7401 49.2128L51.66 49.0106C50.6387 46.432 49.2726 42.9818 46.9042 43.9022C45.5749 44.4188 45.5345 45.7414 45.4891 47.2411C45.4652 48.0338 45.4397 48.8762 45.2216 49.6747C45.1932 49.7785 45.1668 49.8806 45.1405 49.9803C44.9118 50.848 44.7248 51.5547 43.9598 51.9833C43.2934 52.3565 42.7601 52.2179 42.0653 52.037C41.9976 52.0194 41.9283 52.0013 41.8573 51.9833C40.785 51.7117 39.961 50.5468 39.3759 49.3339C39.3132 49.2041 39.2822 49.061 39.2821 48.9169V17.3212C39.2821 16.769 39.7299 16.3213 40.2821 16.3212H72.6014C73.5751 15.6315 74.4129 14.7421 74.6307 13.6503C74.8275 12.6641 75.0309 11.9595 74.6083 11.0643C74.1151 10.02 73.2791 9.8638 72.2557 9.536C69.9098 8.7846 67.2111 10.0195 66.3895 7.52819C65.407 4.54811 69.0998 2.8171 71.7186 1.52233Z" fill="#A8E6F1"/>
<ellipse cx="70.6486" cy="41.4336" rx="2.37362" ry="7.5828" fill="black"/>
<path d="M72.9562 30.6855C73.158 31.4298 71.3704 31.1931 69.4143 31.8192C67.4583 32.4454 66.0743 33.6973 65.8725 32.953C65.6707 32.2086 67.0929 31.0976 69.0489 30.4715C71.005 29.8453 72.7543 29.9411 72.9562 30.6855Z" fill="black"/>
<path d="M92.9438 32.6479C92.7788 33.4029 91.3354 32.2331 89.3513 31.7213C87.3672 31.2096 85.5939 31.5497 85.7588 30.7948C85.9237 30.0398 87.6658 29.8426 89.6499 30.3543C91.634 30.866 93.1087 31.8929 92.9438 32.6479Z" fill="black"/>
<ellipse cx="88.6501" cy="41.4336" rx="2.37362" ry="7.5828" fill="black"/>
<path d="M64.78 58.8659C64.4482 58.5952 64.5694 58.4632 64.5694 58.4632C64.5694 58.4632 64.641 58.6071 64.78 58.8659C65.3185 59.3051 67.0503 60.1095 72.4302 61.3076C78.0743 62.5645 93.1611 60.4618 93.1611 60.4618C93.1611 60.4618 85.2425 73.7063 79.2188 72.3648C71.4773 70.6409 65.9083 60.9668 64.78 58.8659Z" fill="black"/>
<path d="M114.794 100.88C114.794 95.9796 113.439 94.6431 121.12 94.6431" stroke="#185D6D" stroke-width="3"/>
<path d="M127.445 100.88C127.445 95.9796 128.801 94.6431 121.119 94.6431" stroke="#185D6D" stroke-width="3"/>
<path d="M97.4393 107.263C97.4393 105.606 98.7824 104.263 100.439 104.263H143.225C144.882 104.263 146.225 105.606 146.225 107.263V128.643C146.225 130.3 144.882 131.643 143.225 131.643H100.439C98.7824 131.643 97.4393 130.3 97.4393 128.643V107.263Z" fill="#185D6D"/>
<path d="M95.3333 102.778C95.3581 101.139 96.6938 99.823 98.333 99.823H145.289C146.946 99.823 148.289 101.166 148.289 102.823V122.999C148.289 124.135 147.643 125.184 146.611 125.659C124.075 136.041 102.674 128.25 96.6652 125.629C95.6259 125.176 95.0108 124.138 95.0279 123.004L95.3333 102.778Z" fill="#185D6D"/>
<path d="M117 125.643C117 125.091 117.448 124.643 118 124.643H125.007C125.559 124.643 126.007 125.091 126.007 125.643V128.083C126.007 128.635 125.559 129.083 125.007 129.083H118C117.448 129.083 117 128.635 117 128.083V125.643Z" fill="#A8E6F1"/>
<path d="M113 71.1431C113 71.1431 118.791 71.0157 121.5 79.143C123 83.643 123 93.643 123 93.643" stroke="black"/>
<line y1="-0.3" x2="2.07565" y2="-0.3" transform="matrix(0.563993 0.82578 0.83816 -0.545425 123.21 93.6462)" stroke="black" stroke-width="0.6"/>
<line y1="-0.3" x2="2.07671" y2="-0.3" transform="matrix(-0.582528 0.812811 0.825834 0.563913 123.21 93.6462)" stroke="black" stroke-width="0.6"/>
<line y1="-0.35" x2="2.424" y2="-0.35" transform="matrix(0.00563127 0.999984 0.999986 -0.00536266 123.114 93.6431)" stroke="black" stroke-width="0.7"/>
<path d="M42.5242 81.8403C42.5242 81.8403 33.2687 81.9826 28.9387 72.9043C26.5413 67.8777 26.5413 56.7077 26.5413 56.7077" stroke="black"/>
<line y1="-0.3" x2="2.67702" y2="-0.3" transform="matrix(-0.698927 -0.715193 -0.910283 0.413986 26.206 56.7039)" stroke="black" stroke-width="0.6"/>
<line y1="-0.3" x2="2.70066" y2="-0.3" transform="matrix(0.715945 -0.698156 -0.902499 -0.430692 26.206 56.7039)" stroke="black" stroke-width="0.6"/>
<line y1="-0.35" x2="2.70767" y2="-0.35" transform="matrix(-0.00805748 -0.999968 -0.999993 0.00374786 26.3598 56.7075)" stroke="black" stroke-width="0.7"/>
<path d="M44.3395 64.641L40.9312 55.6508C40.7704 55.2257 40.4505 54.8798 40.0392 54.6863C39.6278 54.4928 39.1574 54.467 38.7274 54.6143L33.0422 56.5544C32.231 55.9258 30.7111 54.444 29.7952 51.6436C28.8824 48.8371 29.2404 46.7397 29.5274 45.7626L35.2623 43.9793C35.6966 43.8451 36.0616 43.5472 36.2801 43.1486C36.4986 42.75 36.5534 42.282 36.433 41.8437L33.8938 32.5731C33.7738 32.1338 33.4872 31.7586 33.0949 31.5272C32.7027 31.2958 32.2357 31.2264 31.7931 31.3337L26.9318 32.5149C26.5245 32.6484 26.1803 32.9267 25.9646 33.2971C25.7428 33.6752 20.5983 42.6855 24.1161 53.4946C27.1872 62.92 34.7819 67.3582 36.9376 68.4547C37.2526 68.615 37.4508 68.704 37.5039 68.7271C37.8965 68.8984 38.3382 68.9198 38.7455 68.7873L43.3692 66.8766C43.7907 66.7043 44.1281 66.374 44.3094 65.9563C44.4906 65.5386 44.5014 65.0666 44.3395 64.641Z" fill="#185D6D"/>
</svg>
