<svg width="194" height="178" viewBox="0 0 194 178" fill="none" xmlns="http://www.w3.org/2000/svg">
<path d="M60.4832 110.52L61.029 158.08" stroke="black"/>
<path d="M56.6796 158.684C56.6898 159.579 58.6351 159.196 61.0397 159.161C63.4444 159.126 65.3978 159.452 65.3875 158.557C65.3772 157.661 63.4196 156.964 61.0149 156.999C58.6103 157.034 56.6693 157.788 56.6796 158.684Z" fill="black"/>
<path d="M79.5186 109.161L80.0644 156.722" stroke="black"/>
<path d="M76.2653 157.859C76.2755 158.754 78.2208 158.371 80.6254 158.336C83.0301 158.301 84.9835 158.627 84.9732 157.732C84.9629 156.836 83.0053 156.139 80.6006 156.174C78.196 156.209 76.255 156.963 76.2653 157.859Z" fill="black"/>
<path fill-rule="evenodd" clip-rule="evenodd" d="M109.715 37.0986C109.709 36.5463 109.256 36.1052 108.704 36.1132L28.4157 37.2844C27.8634 37.2925 27.4209 37.7467 27.4272 38.299L28.2624 111.071C28.2687 111.624 28.7215 112.065 29.2738 112.057L64.3105 111.546C64.5844 111.542 64.8468 111.427 65.0254 111.219C65.6002 110.549 66.147 109.741 66.3013 108.964C66.3216 108.861 66.3425 108.762 66.3627 108.666C66.5095 107.97 66.6234 107.43 66.2803 106.752C65.8144 105.833 64.8803 105.693 63.9362 105.553C63.7475 105.525 63.5584 105.496 63.3725 105.462C62.8337 105.362 62.2822 105.328 61.7495 105.296C60.3049 105.208 58.9983 105.128 58.4562 103.755C57.5774 101.527 59.9352 100.326 62.1073 99.2197C62.2124 99.1661 62.317 99.1128 62.4208 99.0596C66.523 96.958 71.3131 96.6762 75.5562 98.4513C75.6207 98.4783 75.686 98.5056 75.7518 98.533C78.2492 99.5758 81.5907 100.971 80.7266 103.473C80.2416 104.878 78.9659 104.936 77.5199 105.002C76.7556 105.037 75.9437 105.074 75.1758 105.313C75.0757 105.344 74.9775 105.373 74.8814 105.402C74.0468 105.654 73.3671 105.858 72.9614 106.668C72.6078 107.373 72.7471 107.933 72.9286 108.661C72.9462 108.732 72.9643 108.805 72.9824 108.879C73.2265 109.887 74.16 110.675 75.197 111.261C75.3431 111.343 75.5094 111.382 75.6774 111.38L109.562 110.885C110.114 110.877 110.557 110.423 110.55 109.871L110.197 79.0548C110.194 78.8308 110.117 78.6148 109.97 78.4469C109.411 77.8121 107.897 76.2287 106.484 75.9582C106.384 75.939 106.287 75.9193 106.193 75.9002C105.512 75.7614 104.984 75.6538 104.321 75.9898C103.422 76.4459 103.284 77.3519 103.145 78.2675L103.145 78.2676C103.118 78.4506 103.09 78.634 103.056 78.8142C102.957 79.3369 102.924 79.8715 102.891 80.3879C102.804 81.7884 102.724 83.055 101.38 83.5873C99.2005 84.4503 98.0287 82.1713 96.9493 80.072C96.8971 79.9704 96.8451 79.8693 96.7932 79.7689C94.7428 75.8041 94.4731 71.1635 96.2144 67.0424L96.2946 66.8524C97.3175 64.4269 98.6862 61.1816 101.132 62.0063C102.505 62.4692 102.56 63.7052 102.623 65.1062C102.656 65.8467 102.692 66.6333 102.925 67.3763C102.955 67.4731 102.984 67.568 103.012 67.661L103.012 67.6612C103.256 68.4687 103.456 69.1264 104.247 69.5155C104.937 69.8545 105.484 69.7167 106.197 69.5372L106.197 69.5371C106.266 69.5196 106.337 69.5018 106.41 69.4839C108.659 68.9321 109.801 64.9054 109.995 64.1552C110.016 64.0759 110.024 63.997 110.023 63.9152L109.715 37.0986Z" fill="#4C78E7"/>
<path d="M63.3866 38.2586L79.6077 38.1752C79.6077 38.1752 74.2745 36.9008 73.6364 34.1787C73.4254 33.2783 73.2101 32.636 73.6319 31.8097C74.1238 30.8462 74.9747 30.6915 76.0147 30.3761C78.3988 29.6531 81.1632 30.7437 81.9747 28.4503C82.9455 25.7067 79.1618 24.1766 76.4779 23.0299C71.9478 21.0946 66.8152 21.358 62.4046 23.5761C59.9855 24.7927 57.1523 26.0645 58.1201 28.573C58.8995 30.5931 61.2325 30.0274 63.3718 30.4411C64.5649 30.6719 65.8858 30.6604 66.4755 31.8465C66.8874 32.675 66.6672 33.3086 66.48 34.2155C66.0796 36.1563 63.3866 38.2586 63.3866 38.2586Z" fill="#4C78E7"/>
<ellipse cx="2.42049" cy="6.94359" rx="2.42049" ry="6.94359" transform="matrix(-0.999894 0.0145861 0.0114756 0.999934 83.7051 52.3428)" fill="black"/>
<path d="M77.4626 49.869C77.4707 50.5795 79.1481 49.8444 81.2274 49.8141C83.3066 49.7837 85.0003 50.4696 84.9922 49.7591C84.984 49.0486 83.2919 48.4972 81.2126 48.5276C79.1334 48.5579 77.4544 49.1585 77.4626 49.869Z" fill="black"/>
<path d="M59.0797 50.7085C59.1602 51.4144 60.755 50.5203 62.8216 50.2883C64.8882 50.0562 66.6441 50.5739 66.5635 49.868C66.4829 49.1621 64.7423 48.778 62.6757 49.0101C60.6091 49.2422 58.9991 50.0026 59.0797 50.7085Z" fill="black"/>
<ellipse cx="2.42049" cy="6.94359" rx="2.42049" ry="6.94359" transform="matrix(-0.999894 0.0145861 0.0114756 0.999934 66.6051 52.5918)" fill="black"/>
<line y1="-0.35" x2="3.44008" y2="-0.35" transform="matrix(-0.945639 0.328061 0.329077 0.943309 50.8427 123.634)" stroke="black" stroke-width="0.7"/>
<line y1="-0.35" x2="3.44044" y2="-0.35" transform="matrix(-0.960301 -0.275854 -0.28258 0.960153 50.8668 125.711)" stroke="black" stroke-width="0.7"/>
<line y1="-0.35" x2="3.42844" y2="-0.35" transform="matrix(-0.656467 -0.752317 -0.758828 0.653639 49.795 127.342)" stroke="black" stroke-width="0.7"/>
<path d="M77.5888 78.0113C85.9127 81.4481 82.7516 83.6289 82.7516 83.6289C82.7516 83.6289 75.4443 89.348 67.1204 85.9113C61.3537 83.5303 55.4303 74.5278 55.4303 74.5278C55.4303 74.5278 71.8222 75.6304 77.5888 78.0113Z" fill="black"/>
<path d="M105.041 81.6746L155.004 67.4808" stroke="black"/>
<line y1="-0.3" x2="2.07933" y2="-0.3" transform="matrix(0.729577 -0.686161 -0.691833 -0.719904 153.477 67.8662)" stroke="black" stroke-width="0.6"/>
<line y1="-0.3" x2="2.01979" y2="-0.3" transform="matrix(0.911885 0.407542 0.441023 -0.89889 154.803 67.2539)" stroke="black" stroke-width="0.6"/>
<line y1="-0.35" x2="2.43146" y2="-0.35" transform="matrix(0.981761 -0.192975 -0.159736 -0.986697 154.813 67.3447)" stroke="black" stroke-width="0.7"/>
<path d="M39.3885 74.0694C39.3885 74.0694 22.9478 77.0611 20.1389 84.723C19.2534 87.1386 18.875 89.2345 18.9045 91.802C19.096 108.489 48.6795 124.746 48.6795 124.746" stroke="black"/>
<path fill-rule="evenodd" clip-rule="evenodd" d="M159.338 65.6369C157.605 65.0438 156.76 64.9633 156.189 65.3369C155.773 65.6091 155.564 65.8791 155.181 66.6433C154.777 67.4489 154.715 67.8826 154.916 68.4843C155.078 68.9705 155.364 69.2776 155.84 69.4784C155.97 69.5329 156.347 69.7687 156.679 70.0026C157.01 70.2363 157.604 70.6047 157.998 70.821C159.037 71.3918 159.018 71.3697 158.793 71.7597C158.45 72.3521 157.947 73.107 157.538 73.6409C157.316 73.9313 156.931 74.4368 156.682 74.7642C156.434 75.0915 156.178 75.4158 156.114 75.4848C155.868 75.7489 153.773 78.2789 153.462 78.6878C152.316 80.1909 150.682 81.9845 149.037 83.5443C148.283 84.2588 147.491 85.0235 147.277 85.2435C147.063 85.4635 146.453 86.0316 145.923 86.5059C144.52 87.7594 143.884 88.3933 143.234 89.186C142.417 90.1805 142.133 90.6663 141.814 91.6088C141.191 93.454 141.249 93.8785 142.269 94.9147C142.595 95.2464 143.592 95.7941 145.4 96.6341C146.07 96.9457 147.105 97.4794 147.699 97.8202C148.715 98.4022 149.959 99.0728 152.168 100.229C152.686 100.5 153.251 100.797 153.424 100.889C154.662 101.552 155.384 101.945 155.514 102.026C155.598 102.078 155.965 102.271 156.33 102.456C156.912 102.751 157.661 103.205 158.926 104.03C160.197 104.86 161.434 105.524 162.491 105.944C163.747 106.444 163.95 106.471 164.939 106.272C166.393 105.98 167.552 105.125 168.028 103.995C168.412 103.084 168.55 101.75 168.346 100.936C168.226 100.46 167.851 99.8065 167.555 99.5591C167.368 99.4032 167.242 99.3636 166.851 99.3374C166.589 99.3198 166.358 99.2794 166.338 99.2476C166.318 99.2158 166.096 99.0813 165.844 98.9488C165.592 98.8163 165.296 98.6341 165.186 98.544C165.076 98.454 164.734 98.2736 164.425 98.1433C163.646 97.8145 163.478 97.6837 163.566 97.4751C163.681 97.2006 163.563 97.0573 163.087 96.8964L162.656 96.7503L163.104 96.6738C163.351 96.6317 163.787 96.5257 164.074 96.4382C164.501 96.3075 164.652 96.2152 164.918 95.9212C165.097 95.7244 165.307 95.512 165.386 95.4493C165.465 95.3865 165.734 95.1071 165.984 94.8284C166.234 94.5496 166.928 93.8489 167.527 93.2711C168.125 92.6934 168.666 92.1484 168.729 92.06C168.904 91.8123 168.904 91.5591 168.728 91.3615L168.569 91.1818L169.247 90.9987C170.36 90.6986 170.367 90.694 171.383 89.5965C172.506 88.3833 173.473 87.2451 173.563 87.0302C173.705 86.6932 173.487 86.2711 172.76 85.4794C172.669 85.3806 173.723 85.878 174.24 86.1775C174.579 86.3746 174.593 86.375 174.856 86.2013C175.133 86.0184 175.959 85.1718 176.898 84.1081C177.191 83.7756 177.492 83.4389 177.566 83.3599C177.766 83.1466 177.917 82.7407 177.851 82.5918C177.802 82.4816 177.857 82.4449 178.199 82.3567C178.671 82.2351 178.913 82.0212 179.38 81.3135C179.566 81.0318 179.795 80.6961 179.888 80.5674C180.551 79.6548 181.026 78.4456 181.059 77.5867C181.122 75.9564 180.339 75.065 177.749 73.8163C177.065 73.4868 176.197 73.0484 175.82 72.8423C175.147 72.4744 174.643 72.2367 170.382 70.2767C167.869 69.1208 160.627 66.0782 159.338 65.6369ZM158.712 65.7576C157.675 65.4499 157.237 65.3844 156.719 65.4602C156.222 65.5329 155.936 65.7925 155.487 66.5803C155.045 67.3548 154.962 67.7422 155.119 68.3015C155.204 68.6082 155.288 68.7287 155.534 68.898C156.535 69.5867 157.415 70.1517 157.96 70.4551C158.302 70.6454 158.985 71.03 159.479 71.3098C160.312 71.7819 163.247 73.1649 166.71 74.7164C169.381 75.9135 170.663 76.5049 171.878 77.1024C173.521 77.9097 176.677 79.2566 176.913 79.251C177.088 79.2469 177.077 79.2235 176.773 78.9461C176.285 78.5015 176.148 77.8569 176.381 77.1048C176.5 76.7192 177.045 76.0883 177.601 75.6938C177.934 75.4573 178.656 75.2461 179.12 75.2495C179.591 75.2531 179.468 75.1195 178.554 74.637C174.023 72.2457 170.077 70.4109 163.868 67.8095C160.973 66.5968 159.313 65.936 158.712 65.7576ZM179.349 75.5697C178.239 75.6351 177.874 75.7946 177.148 76.533C176.668 77.0205 176.451 77.8423 176.663 78.3715C176.773 78.647 177.232 79.006 177.503 79.0286C178.028 79.0724 178.55 78.6026 178.749 77.9062C178.886 77.4252 178.846 77.0505 178.627 76.7782C178.401 76.4972 178.162 76.3976 177.857 76.4573C177.662 76.4954 177.607 76.4797 177.572 76.3764C177.497 76.1501 177.917 76.0758 178.321 76.2439C179.035 76.5403 179.275 77.1623 179.01 78.03C178.807 78.6964 178.537 78.9996 177.853 79.3309C177.214 79.6408 176.953 79.6568 176.242 79.4298C175.737 79.2682 171.386 77.2692 170.383 76.7376C169.952 76.5092 168.781 75.972 167.78 75.544C166.779 75.1159 165.445 74.5162 164.814 74.2114C163.13 73.3981 159.258 71.6084 159.22 71.6265C159.202 71.6352 158.981 71.9648 158.729 72.3592C158.035 73.4419 157.266 74.4719 156.057 75.9407C155.455 76.6713 154.297 78.0883 153.483 79.0897C152.05 80.854 151.435 81.5666 150.764 82.2451C150.586 82.4239 150.435 82.5864 150.426 82.6062C150.412 82.6403 147.566 85.3957 146.817 86.1005C146.623 86.2829 146.097 86.7576 145.647 87.1554C144.32 88.3293 143.394 89.3519 142.602 90.5196C142.043 91.3448 141.52 93.1025 141.68 93.6184C141.86 94.1966 142.495 94.8191 143.339 95.2442C143.705 95.4282 144.116 95.6391 144.254 95.7128C144.392 95.7865 145.037 96.0977 145.688 96.4045C146.339 96.7111 147.232 97.172 147.672 97.4287C148.113 97.6853 148.613 97.9715 148.785 98.0646C148.957 98.1577 149.406 98.4025 149.783 98.6087C150.16 98.8148 150.784 99.1358 151.17 99.3219C151.555 99.5081 152.222 99.8498 152.652 100.081C153.082 100.313 153.787 100.687 154.219 100.913C155.014 101.329 156.22 101.979 156.844 102.328C157.165 102.507 157.998 103.026 158.818 103.558C159.017 103.687 159.443 103.944 159.766 104.13C160.089 104.315 160.457 104.547 160.584 104.645C160.712 104.742 160.919 104.865 161.045 104.916L161.274 105.01L161.162 104.822C161.1 104.718 160.941 104.297 160.809 103.886C160.433 102.716 160.491 101.505 160.964 100.656C161.272 100.103 162.086 98.9246 162.528 98.3911C163.068 97.74 163.312 97.4131 163.295 97.3627C163.287 97.3397 162.892 97.2023 162.418 97.0573C161.518 96.7827 161.212 96.5994 161.301 96.3884C161.326 96.3282 161.383 96.3052 161.426 96.3373C161.47 96.3694 161.552 96.3796 161.609 96.3599C161.665 96.3404 161.839 96.3499 161.994 96.3812C162.15 96.4124 162.384 96.4304 162.514 96.4212C162.645 96.4119 162.835 96.4118 162.936 96.421C163.038 96.4301 163.375 96.3739 163.685 96.2962C164.119 96.1876 164.309 96.0929 164.504 95.8882C164.645 95.7415 164.965 95.4135 165.215 95.1591C165.466 94.9047 165.799 94.5551 165.955 94.3822C166.112 94.2092 166.678 93.6427 167.215 93.1234C168.419 91.957 168.6 91.7505 168.55 91.5988C168.529 91.5366 168.457 91.4625 168.39 91.4344C168.082 91.3046 168.022 90.9037 168.31 90.9002C168.384 90.8992 168.664 90.8291 168.932 90.7442C169.199 90.6593 169.558 90.5611 169.729 90.526C169.9 90.4907 170.142 90.3796 170.268 90.2789C170.497 90.0953 171.829 88.6707 172.446 87.9496C172.627 87.7379 172.883 87.4529 173.014 87.3162C173.37 86.9461 173.363 86.7349 172.978 86.2322C172.801 86.0021 172.583 85.7448 172.492 85.6603C172.315 85.4958 171.23 84.8462 170.731 84.6056C170.565 84.5253 170.401 84.4432 170.367 84.423C170.278 84.3695 170.385 84.1581 170.482 84.1958C171.681 84.6605 173.944 85.6798 174.158 85.8517C174.418 86.0604 174.444 86.0656 174.673 85.9548C174.989 85.8015 177.295 83.2682 177.448 82.9067C177.557 82.648 177.553 82.6383 177.303 82.5223C177.162 82.4568 177.02 82.3826 176.989 82.3573C176.957 82.332 176.639 82.1833 176.282 82.0269C175.761 81.7989 175.634 81.7165 175.642 81.6118C175.647 81.5399 175.672 81.4715 175.696 81.4596C175.72 81.4479 176.197 81.6079 176.756 81.8151C177.698 82.1643 177.796 82.1859 178.1 82.1094C178.511 82.0057 178.784 81.6996 179.609 80.4172C180.625 78.8354 180.948 77.6979 180.674 76.6642C180.545 76.1795 180.22 75.7271 179.919 75.6133C179.822 75.5766 179.566 75.557 179.349 75.5697ZM159.659 74.751C159.426 74.9354 159.425 75.0478 159.657 74.9442C159.872 74.8482 159.872 74.8483 160.004 75.0749C160.176 75.3693 160.441 75.4761 160.803 75.3974L161.094 75.334L161.224 75.5892C161.409 75.9512 161.828 76.1636 162.303 76.1358C162.761 76.109 163.116 76.2455 163.338 76.5344C163.542 76.7985 164.135 77.0528 164.509 77.0359C165.059 77.011 165.382 77.1427 165.685 77.5151C166.036 77.9487 166.431 78.1231 167.192 78.1819L167.773 78.2268L168.044 78.5747C168.355 78.9728 168.72 79.1585 169.207 79.1667C169.62 79.1737 169.904 79.2946 170.147 79.5664C170.514 79.9785 170.856 80.165 171.428 80.2648C172.076 80.3777 172.351 80.3051 171.774 80.1735C171.142 80.0296 170.496 79.7262 170.301 79.4817C169.987 79.0883 169.839 79.0138 169.326 78.99C168.718 78.9618 168.488 78.8673 168.246 78.5465C167.982 78.197 167.672 78.0621 166.929 77.9737L166.29 77.8978L165.879 77.4618C165.396 76.9484 165.346 76.9236 164.753 76.904C164.184 76.8853 163.659 76.6678 163.324 76.3121C163.113 76.0881 163.009 76.03 162.766 75.9988C162.601 75.9778 162.421 75.976 162.364 75.995C162.165 76.0621 161.604 75.8481 161.482 75.6585C161.171 75.1756 161.164 75.1709 160.826 75.2291C160.429 75.2973 160.249 75.2251 160.116 74.945C159.985 74.6687 159.84 74.6071 159.659 74.751ZM158.737 78.9896C158.162 79.0483 157.919 78.965 157.599 78.5984C157.386 78.3548 157.334 78.3266 157.14 78.3525C156.835 78.3934 156.509 78.5748 156.64 78.6303C156.694 78.6529 156.819 78.6271 156.918 78.5728C157.128 78.4581 157.385 78.5485 157.553 78.7964C157.735 79.0659 158.171 79.215 158.636 79.1668C159.262 79.1017 159.461 79.1649 159.871 79.5583C160.253 79.9261 160.337 79.9563 161.423 80.1154C161.776 80.1672 161.815 80.1912 162.048 80.5076C162.287 80.8321 162.743 81.1204 162.947 81.076C162.997 81.0652 163.19 81.0669 163.377 81.0797C163.706 81.1023 163.727 81.116 163.992 81.4821C164.228 81.8089 164.314 81.8742 164.614 81.9565C165.795 82.2801 165.739 82.2536 166.054 82.628C166.385 83.0214 166.652 83.1595 167.389 83.3187C167.774 83.402 167.967 83.4863 168.289 83.7115C168.617 83.9405 168.803 84.0205 169.212 84.109C170.015 84.2826 170.035 84.1609 169.247 83.8953C168.878 83.7707 168.446 83.5763 168.287 83.4632C168.092 83.3241 167.837 83.2215 167.5 83.146C166.786 82.9861 166.45 82.8219 166.189 82.5068C165.854 82.101 165.685 81.9913 165.31 81.935C164.687 81.8415 164.301 81.6477 164.141 81.3484C163.972 81.0328 163.699 80.9038 163.168 80.8885C162.667 80.8741 162.418 80.7503 162.204 80.4085C161.98 80.0523 161.716 79.9303 161.08 79.8894C160.469 79.8501 160.242 79.755 159.963 79.4208C159.657 79.0543 159.308 78.9313 158.737 78.9896ZM156.902 83.0715C156.626 83.076 156.24 83.0752 156.044 83.0698L155.687 83.0598L155.335 82.5812C154.872 81.9527 154.626 81.8901 153.686 82.1622C153.665 82.1682 153.663 82.2162 153.68 82.2687C153.7 82.3284 153.874 82.3205 154.144 82.2475C154.382 82.1834 154.645 82.1585 154.729 82.1923C154.814 82.2262 155.017 82.4478 155.181 82.685C155.353 82.9333 155.57 83.1543 155.693 83.2061C155.874 83.2821 156.51 83.294 156.997 83.2305C157.331 83.1869 157.748 83.3601 158.067 83.6753C158.468 84.0711 158.807 84.2152 159.677 84.3604C160.416 84.4837 160.405 84.4774 160.882 85.0626C161.257 85.5215 161.492 85.6177 162.447 85.7022L163.058 85.7561L163.306 86.2021L163.554 86.6482L164.361 87.195C165.193 87.547 165.404 87.4486 165.599 87.7165C165.85 88.0601 166.315 88.3039 166.631 88.2568C166.871 88.2212 166.992 88.0792 166.769 88.0955C166.408 88.1219 166.014 87.9177 165.712 87.5468C165.392 87.1533 165.223 87.0624 164.302 86.7889C163.749 86.6246 163.683 86.5638 163.407 85.9573C163.265 85.6449 162.959 85.5098 162.332 85.4841C161.642 85.4557 161.317 85.2978 160.898 84.7882C160.523 84.3317 160.355 84.2496 159.592 84.1509C158.906 84.0621 158.579 83.9267 158.242 83.5911C157.828 83.1797 157.523 83.0612 156.902 83.0715ZM153.897 86.2914C153.776 86.2793 153.425 86.2649 153.117 86.2594C152.81 86.254 152.521 86.2339 152.476 86.2148C152.431 86.1958 152.263 86.0078 152.103 85.7971C151.943 85.5865 151.734 85.3804 151.638 85.3392C151.443 85.2559 150.934 85.4167 151.01 85.5378C151.036 85.5795 151.152 85.5758 151.268 85.5295C151.543 85.4194 151.618 85.4585 151.883 85.8501C152.184 86.2957 152.645 86.4892 153.314 86.4508C154.068 86.4076 154.337 86.5011 154.701 86.9328C155.142 87.456 155.564 87.6657 156.433 87.7937L157.156 87.9L157.482 88.3709C157.877 88.9418 158.238 89.1245 159.076 89.1778C159.762 89.2213 160.108 89.3635 160.49 89.7577C160.823 90.101 161.39 90.373 162.079 90.5198C162.426 90.5937 162.613 90.686 163.066 91.0067C163.675 91.439 164.071 91.5732 164.587 91.5232C164.945 91.4885 164.868 91.3779 164.476 91.3625C164.125 91.3487 163.313 91.0008 163.05 90.7515C162.86 90.5715 162.532 90.4455 161.491 90.1531C161.096 90.0421 160.618 89.7147 160.504 89.4775C160.411 89.2839 159.617 89.0065 159.049 88.9694C158.299 88.9204 158.018 88.7828 157.698 88.3063C157.472 87.9711 157.372 87.8882 157.029 87.7528C156.808 87.6652 156.495 87.5895 156.333 87.5845C155.838 87.5694 155.176 87.2336 154.856 86.8362C154.577 86.4884 154.301 86.3317 153.897 86.2914ZM147.573 89.3809C147.415 89.4053 147.227 89.4221 147.155 89.4182C147.082 89.4143 147.009 89.4455 146.991 89.4876C146.933 89.6248 147.221 89.6793 147.61 89.6046L147.991 89.5315L148.364 90.0533C148.828 90.701 149.107 90.84 149.837 90.7864C150.618 90.7288 150.738 90.7658 151.117 91.1811C151.525 91.6292 151.958 91.8852 152.431 91.9583C152.629 91.9889 153.017 92.064 153.293 92.1253C153.786 92.2345 153.802 92.2445 154.144 92.6554C154.652 93.2675 154.807 93.35 155.559 93.4092C156.272 93.4655 156.642 93.5876 156.795 93.8172C157.232 94.4778 157.307 94.5494 157.751 94.7309C157.997 94.8315 158.278 94.9234 158.376 94.9352C158.473 94.9469 158.712 95.0857 158.906 95.2435C159.305 95.5677 159.754 95.7824 159.801 95.6714C159.818 95.6306 159.751 95.5632 159.653 95.5217C159.554 95.4802 159.301 95.2968 159.09 95.1142C158.766 94.8342 158.644 94.7703 158.304 94.7047C157.706 94.5894 157.385 94.3738 157.071 93.8785C156.74 93.356 156.551 93.2634 155.732 93.2242C155.016 93.19 154.693 93.037 154.294 92.5422C153.858 92.0023 153.777 91.9629 152.836 91.8271L151.967 91.7018L151.546 91.2855C150.882 90.6286 150.773 90.5823 149.9 90.5895C149.187 90.5954 149.118 90.5819 148.907 90.3941C148.783 90.2831 148.576 90.0325 148.447 89.837C148.177 89.4255 147.973 89.3192 147.573 89.3809ZM163.059 98.2284C162.809 98.4972 162.277 99.1957 161.932 99.7108C161.794 99.9166 161.614 100.171 161.533 100.276C161.229 100.669 161.238 100.709 161.696 100.959C163.516 101.955 163.615 102.012 164.014 102.292L164.24 102.45L164.191 102.009C164.15 101.632 164.172 101.498 164.348 101.082C164.648 100.375 165.201 99.7782 165.736 99.5861C166.025 99.4821 165.804 99.3114 164.44 98.5848C163.268 97.9602 163.301 97.9689 163.059 98.2284ZM166.864 99.7041C166.731 99.6933 166.609 99.7168 166.593 99.7565C166.576 99.7961 166.515 99.8086 166.458 99.7844C166.31 99.7221 165.707 99.9459 165.434 100.164C164.555 100.869 164.251 101.784 164.629 102.59C164.719 102.781 164.773 102.985 164.748 103.043C164.724 103.101 164.693 103.143 164.68 103.138C164.667 103.132 164.18 102.832 163.599 102.472C163.018 102.112 162.29 101.687 161.982 101.528C161.674 101.369 161.361 101.19 161.287 101.13C161.16 101.028 161.143 101.042 161.009 101.36C160.931 101.546 160.861 101.805 160.853 101.936C160.74 103.865 161.426 105.227 162.79 105.781C163.667 106.138 164.659 106.095 165.784 105.651C166.411 105.404 166.851 105.089 167.312 104.557C168.098 103.649 168.436 101.872 168.025 100.804C167.718 100.006 167.45 99.7517 166.864 99.7041Z" fill="black"/>
<path d="M74.9662 60.8118L74.547 51.0197L88.6891 50.9759L88.1767 68.231L75.0964 68.625L74.9662 60.8118ZM74.9662 60.8118L70.972 61.1424M70.972 61.1424L70.589 51.5976L58.0034 51.9194L58.0614 59.2378M70.972 61.1424L71.0662 68.7082L58.4806 69.03L58.0614 59.2378M58.0614 59.2378C57.8179 60.9523 52.8001 55.0437 49.1701 53.7145C48.0104 53.2899 46.9554 54.0633 46.346 55.1374C45.8547 56.0034 46.2125 57.6834 46.2125 57.6834" stroke="black" stroke-width="0.5"/>
</svg>
