<svg width="48" height="49" viewBox="0 0 48 49" fill="none" xmlns="http://www.w3.org/2000/svg">
<mask id="mask0_3691_7436" style="mask-type:alpha" maskUnits="userSpaceOnUse" x="0" y="0" width="48" height="49">
<rect y="0.5" width="48" height="48" fill="#D9D9D9"/>
</mask>
<g mask="url(#mask0_3691_7436)">
<path d="M9 42.5008C8.2 42.5008 7.5 42.2008 6.9 41.6008C6.3 41.0008 6 40.3008 6 39.5008V9.50078C6 8.70078 6.3 8.00078 6.9 7.40078C7.5 6.80078 8.2 6.50078 9 6.50078H29.25L26.25 9.50078H9V39.5008H39V22.1008L42 19.1008V39.5008C42 40.3008 41.7 41.0008 41.1 41.6008C40.5 42.2008 39.8 42.5008 39 42.5008H9ZM18 30.5008V22.0008L37.1 2.90078C37.4 2.60078 37.7333 2.38411 38.1 2.25078C38.4667 2.11745 38.8333 2.05078 39.2 2.05078C39.5667 2.05078 39.9387 2.12578 40.316 2.27578C40.693 2.42578 41.0377 2.65078 41.35 2.95078L45.5 7.15078C45.787 7.44945 46.0087 7.77912 46.165 8.13978C46.3217 8.50078 46.4 8.86778 46.4 9.24078C46.4 9.61411 46.325 9.99245 46.175 10.3758C46.025 10.7591 45.8 11.1008 45.5 11.4008L26.5 30.5008H18ZM21 27.5008H25.25L37.9 14.8508L33.6 10.6508L21 23.2008V27.5008Z" fill="#1C1B1F"/>
</g>
</svg>
