<svg width="150" height="150" viewBox="0 0 150 150" fill="none" xmlns="http://www.w3.org/2000/svg">
<path d="M88 94L88.385 148.744" stroke="black"/>
<path d="M92.6535 149.334C92.6535 150.312 90.7417 149.924 88.3833 149.924C86.025 149.924 84.1132 150.312 84.1132 149.334C84.1132 148.356 86.025 147.563 88.3833 147.563C90.7417 147.563 92.6535 148.356 92.6535 149.334Z" fill="black"/>
<path d="M69.6989 95.6211V147.563" stroke="black"/>
<path d="M73.4365 148.744C73.4365 149.722 71.5247 149.334 69.1664 149.334C66.808 149.334 64.8962 149.722 64.8962 148.744C64.8962 147.766 66.808 146.973 69.1664 146.973C71.5247 146.973 73.4365 147.766 73.4365 148.744Z" fill="black"/>
<path d="M71.7186 4.52233C76.1389 2.33685 81.1753 2.54262 85.5253 4.8944C87.911 6.18421 90.7027 7.52777 89.7821 10.2821C89.0406 12.5002 86.7471 11.9204 84.6542 12.4061C83.4868 12.6771 82.1908 12.6855 81.6259 13.9901C81.2314 14.9012 81.4546 15.5898 81.6483 16.577C81.8369 17.5382 82.4922 18.5274 83.1493 19.3212H118.282C118.834 19.3212 119.282 19.7689 119.282 20.3212V98.3212C119.282 98.8734 118.834 99.3212 118.282 99.3212H84.5995C84.3225 99.3211 84.0561 99.2075 83.8739 98.9989C83.2033 98.2313 82.4721 97.2055 82.2831 96.2176C82.2621 96.1082 82.2413 96.0026 82.2206 95.9003C82.0701 95.1573 81.9532 94.5813 82.2792 93.8514C82.7218 92.8606 83.6287 92.6974 84.5448 92.5321C84.7278 92.4991 84.9115 92.4654 85.0917 92.4257C85.6142 92.3103 86.1496 92.2655 86.6669 92.2225C88.0701 92.1059 89.3398 92.0005 89.8514 90.5223C90.6804 88.1263 88.3753 86.878 86.2518 85.7284C86.1492 85.6728 86.0466 85.6176 85.9452 85.5624C81.9343 83.3782 77.2744 83.1509 73.1698 85.1161C73.1074 85.146 73.044 85.1765 72.9803 85.2069C70.5645 86.3613 67.3323 87.9062 68.2001 90.5692C68.6871 92.0638 69.9277 92.1062 71.3339 92.1542C72.0771 92.1795 72.8671 92.2063 73.6161 92.4501C73.7136 92.4818 73.8095 92.5124 73.9032 92.5419C74.7172 92.7975 75.3807 93.0054 75.7841 93.8651C76.1356 94.6144 76.006 95.2156 75.8378 95.9979C75.8214 96.0739 75.8046 96.1516 75.788 96.2313C75.5116 97.5528 74.2307 98.5419 72.9852 99.2098C72.8461 99.2844 72.6899 99.3212 72.5321 99.3212H40.2821C39.73 99.321 39.2822 98.8733 39.2821 98.3212V64.1024C39.2821 63.8488 39.3773 63.6031 39.5565 63.4237C40.2166 62.7632 41.0515 62.0932 41.8573 61.91C41.9545 61.8879 42.0486 61.8655 42.1395 61.8436L42.6112 61.7382C43.0643 61.6527 43.4739 61.6483 43.9598 61.91C44.8395 62.3839 44.9836 63.3508 45.1288 64.328C45.1578 64.5233 45.1865 64.7197 45.2216 64.912C45.3231 65.4695 45.3621 66.0408 45.3993 66.5926C45.5002 68.0894 45.5915 69.4436 46.9042 69.9921C49.0321 70.8809 50.146 68.4245 51.1718 66.162C51.2213 66.0526 51.2709 65.9438 51.3202 65.8358C53.2689 61.5626 53.4787 56.5939 51.7401 52.2128L51.66 52.0106C50.6387 49.432 49.2726 45.9818 46.9042 46.9022C45.5749 47.4188 45.5345 48.7414 45.4891 50.2411C45.4652 51.0338 45.4397 51.8762 45.2216 52.6747C45.1932 52.7785 45.1668 52.8806 45.1405 52.9803C44.9118 53.848 44.7248 54.5547 43.9598 54.9833C43.2934 55.3565 42.7601 55.2179 42.0653 55.037C41.9976 55.0194 41.9283 55.0013 41.8573 54.9833C40.785 54.7117 39.961 53.5468 39.3759 52.3339C39.3132 52.2041 39.2822 52.061 39.2821 51.9169V20.3212C39.2821 19.769 39.7299 19.3213 40.2821 19.3212H72.6014C73.5751 18.6315 74.4129 17.7421 74.6307 16.6503C74.8275 15.6641 75.0309 14.9595 74.6083 14.0643C74.1151 13.02 73.2791 12.8638 72.2557 12.536C69.9098 11.7846 67.2111 13.0195 66.3895 10.5282C65.407 7.54811 69.0998 5.8171 71.7186 4.52233Z" fill="#A8E6F1"/>
<ellipse cx="70.6486" cy="41.4336" rx="2.37362" ry="7.5828" fill="black"/>
<path d="M72.9562 30.6855C73.158 31.4298 71.3704 31.1931 69.4143 31.8192C67.4583 32.4454 66.0743 33.6973 65.8725 32.953C65.6707 32.2086 67.0929 31.0976 69.0489 30.4715C71.005 29.8453 72.7543 29.9411 72.9562 30.6855Z" fill="black"/>
<path d="M92.9438 32.6479C92.7788 33.4029 91.3354 32.2331 89.3513 31.7213C87.3672 31.2096 85.5939 31.5497 85.7588 30.7948C85.9237 30.0398 87.6658 29.8426 89.6499 30.3543C91.634 30.866 93.1087 31.8929 92.9438 32.6479Z" fill="black"/>
<ellipse cx="88.6501" cy="41.4336" rx="2.37362" ry="7.5828" fill="black"/>
<path d="M64.78 58.8659C64.4482 58.5952 64.5694 58.4632 64.5694 58.4632C64.5694 58.4632 64.641 58.6071 64.78 58.8659C65.3185 59.3051 67.0503 60.1095 72.4302 61.3076C78.0743 62.5645 93.1611 60.4618 93.1611 60.4618C93.1611 60.4618 85.2425 73.7063 79.2188 72.3648C71.4773 70.6409 65.9083 60.9668 64.78 58.8659Z" fill="black"/>
<path d="M7.7922 88.0977L52.2706 74.7927" stroke="black"/>
<path d="M111.483 60.6382C111.483 60.6382 117.759 72.6384 119.942 80.9209C122.951 92.3411 122.284 110.916 122.284 110.916" stroke="black"/>
<line y1="-0.3" x2="2.07565" y2="-0.3" transform="matrix(0.563993 0.82578 0.83816 -0.545425 122.576 110.345)" stroke="black" stroke-width="0.6"/>
<line y1="-0.3" x2="2.07671" y2="-0.3" transform="matrix(-0.582528 0.812811 0.825834 0.563913 122.576 110.345)" stroke="black" stroke-width="0.6"/>
<line y1="-0.35" x2="2.424" y2="-0.35" transform="matrix(0.00563127 0.999984 0.999986 -0.00536266 122.48 110.342)" stroke="black" stroke-width="0.7"/>
<path d="M123.5 66.851C123.5 58.851 123.5 53.3511 123.659 50.2446L113.701 50.6418C107.16 58.591 93.9006 76.2422 93.1828 83.2527C92.4649 90.2633 95.8532 98.1075 97.637 101.153L123.5 101.153L123.5 88.3511L123.5 66.8511L123.5 66.851Z" fill="#185D6D"/>
<path d="M123.5 88.8316C117.898 89.055 118.883 89.9991 109.613 88.8316C98.3357 87.4112 95.05 83.1785 92.4859 81.4107" stroke="#A8E6F1" stroke-width="3"/>
<path d="M123.5 95.3512C97.9817 96.3689 101.148 95.403 91.5886 90.1738" stroke="#A8E6F1" stroke-width="3"/>
<path d="M37.0418 69.4124L37.0418 50.9124L47.9132 51.6787C54.4534 59.6279 67.7133 77.2791 68.4311 84.2896C69.1489 91.3002 65.7607 99.1444 63.9769 102.19L37.0418 102.19L37.0418 91.4124L37.0418 69.4124Z" fill="#185D6D"/>
<path d="M36.5418 89.9125C42.1433 90.1359 47.0418 90.4124 52.0006 89.8685C63.2995 88.629 66.5639 84.2154 69.1279 82.4475" stroke="#A8E6F1" stroke-width="3"/>
<path d="M37.0418 96.9124C62.56 97.9301 60.4659 96.4398 70.0253 91.2106" stroke="#A8E6F1" stroke-width="3"/>
<path d="M79.2242 2.375C53.6578 2.375 55.5828 28.2695 55.5828 28.2695C55.5828 28.2695 62.2602 22.2484 79.3719 22.2484C96.4836 22.2484 102.395 27.7117 102.395 27.7117C102.395 27.7117 104.796 2.375 79.2242 2.375Z" fill="#185D6D"/>
<mask id="mask0_3827_6409" style="mask-type:luminance" maskUnits="userSpaceOnUse" x="55" y="2" width="48" height="27">
<path d="M79.2242 2.375C53.6578 2.375 55.5828 28.2695 55.5828 28.2695C55.5828 28.2695 62.2602 22.2484 79.3719 22.2484C96.4836 22.2484 102.395 27.7117 102.395 27.7117C102.395 27.7117 104.796 2.375 79.2242 2.375Z" fill="white"/>
</mask>
<g mask="url(#mask0_3827_6409)">
<path d="M69.7688 3.66016L73.5696 2.375V15.3633C72.7985 9.75234 71.6938 5.68906 69.7688 3.66016Z" fill="#185D6D"/>
</g>
<mask id="mask1_3827_6409" style="mask-type:luminance" maskUnits="userSpaceOnUse" x="55" y="2" width="48" height="27">
<path d="M79.2242 2.375C53.6578 2.375 55.5828 28.2695 55.5828 28.2695C55.5828 28.2695 62.2602 22.2484 79.3719 22.2484C96.4836 22.2484 102.395 27.7117 102.395 27.7117C102.395 27.7117 104.796 2.375 79.2242 2.375Z" fill="white"/>
</mask>
<g mask="url(#mask1_3827_6409)">
<path d="M88.6852 3.66016L84.8844 2.375V15.3633C85.6555 9.75234 86.7602 5.68906 88.6852 3.66016Z" fill="#185D6D"/>
</g>
<path d="M82.0734 21.4664H76.2766C74.7344 21.4664 73.4875 20.2195 73.4875 18.6773V2.97656C73.4875 1.43438 74.7344 0.1875 76.2766 0.1875H82.0734C83.6156 0.1875 84.8625 1.43438 84.8625 2.97656V18.6719C84.8625 20.2141 83.6156 21.4664 82.0734 21.4664Z" fill="#185D6D"/>
<path d="M87.6187 11.9454C85.5078 8.29229 88.182 6.71729 88.182 6.71729L85.9343 3.84619C85.9343 3.84619 84.1515 4.404 82.2758 4.1251C80.4656 3.85713 79.0984 2.34229 79.0054 2.23838V2.23291L79 2.23838L78.9945 2.23291V2.24385C78.9015 2.34775 77.5343 3.8626 75.7242 4.13057C73.8484 4.40947 72.0656 3.85166 72.0656 3.85166L69.8179 6.72275C69.8179 6.72275 72.4922 8.29775 70.3812 11.9509C68.2703 15.604 69.5664 19.4868 75.489 20.1868C77.0586 20.3728 78.6281 21.0181 78.6281 21.0181L78.7156 21.0399V21.1985L79 21.122L79.2843 21.204V21.0454L79.3718 21.0235C79.3718 21.0235 80.9468 20.3728 82.5109 20.1923C88.4336 19.4868 89.7297 15.604 87.6187 11.9454Z" fill="#A8E6F1"/>
<path d="M79 18.4642C82.7784 18.4642 85.8414 15.5652 85.8414 11.9892C85.8414 8.41312 82.7784 5.51416 79 5.51416C75.2216 5.51416 72.1586 8.41312 72.1586 11.9892C72.1586 15.5652 75.2216 18.4642 79 18.4642Z" fill="black"/>
<path d="M78.3492 8.43989C78.043 8.16099 77.8844 7.74536 77.9391 7.34614C77.7367 7.5813 77.6438 7.89849 77.6164 8.12817C77.5016 9.18364 78.7266 9.51724 78.7485 9.49536C78.7867 9.44614 78.8633 9.31489 78.7703 9.05786C78.6281 8.67505 79 8.46177 79 8.46177C79 8.46177 78.8578 8.76802 78.9617 8.89927C79.1258 9.10708 79.2735 9.09614 79.3445 9.20005C79.4211 9.30942 79.3336 9.47896 79.257 9.51724C79.8094 9.47349 80.2469 8.99771 80.3617 8.48911C80.4766 7.98052 80.3289 7.45005 80.1102 6.9688C80.0774 7.35708 79.6781 7.67974 79.2625 7.66333C79.3828 7.51567 79.5742 7.10552 79.4539 6.65708C79.3336 6.20864 78.6281 5.96802 78.6281 5.96802C78.6281 5.96802 78.825 6.17036 78.836 6.58052C78.836 7.00161 77.8735 7.47739 78.3492 8.43989Z" fill="#A8E6F1"/>
<path d="M81.8985 15.8719L76.468 10.5781L75.4891 11.2727L80.9359 16.5555C81.0125 16.632 81.1438 16.6758 81.2805 16.6758C81.4227 16.6758 81.5703 16.6375 81.6852 16.5555C81.8438 16.4461 81.9586 16.2602 81.975 16.1016C81.9807 16.06 81.9768 16.0176 81.9635 15.9778C81.9503 15.938 81.928 15.9017 81.8985 15.8719Z" fill="#A8E6F1"/>
<path d="M76.9273 9.99846C76.8508 9.94377 76.6976 9.93283 76.6101 9.92189C76.6265 9.88908 76.7906 9.54455 77.0203 9.47893C77.2117 9.42424 77.1625 9.18361 76.9875 9.12346C76.6047 8.99768 75.8117 9.01408 75.1445 9.60471C75.068 9.67033 74.0672 10.5836 73.5695 11.0539C73.5367 11.0813 73.4984 11.1031 73.4437 11.1141C73.1484 11.1906 72.9625 11.4641 73.039 11.7321C73.1101 11.9891 73.2797 12.3883 73.6734 12.6508C74.0453 12.9024 74.718 13.0664 74.7344 13.0664C75.0133 13.0664 75.2539 12.9461 75.3359 12.7C75.3851 12.5524 75.2703 12.4649 75.4289 12.2735C75.4289 12.2735 77.0258 10.8516 77.1844 10.6328C77.343 10.4141 77.2117 10.2117 76.9273 9.99846Z" fill="#A8E6F1"/>
<path d="M76.1016 15.8719L81.532 10.5781L82.511 11.2727L77.0641 16.5555C76.9875 16.632 76.8563 16.6758 76.7195 16.6758C76.5774 16.6758 76.4297 16.6375 76.3149 16.5555C76.1563 16.4461 76.036 16.2602 76.025 16.1016C76.0141 15.9867 76.0578 15.9156 76.1016 15.8719Z" fill="#A8E6F1"/>
<path d="M81.0727 9.99846C81.1492 9.94377 81.3024 9.93283 81.3899 9.92189C81.3734 9.88908 81.2094 9.54455 80.9797 9.47893C80.7883 9.42424 80.8375 9.18361 81.0125 9.12346C81.3953 8.99768 82.1883 9.01408 82.8555 9.60471C82.932 9.67033 83.9328 10.5836 84.4305 11.0539C84.4633 11.0813 84.5016 11.1031 84.5563 11.1141C84.8516 11.1906 85.0375 11.4641 84.9609 11.7321C84.8899 11.9891 84.7203 12.3883 84.3266 12.6508C83.9547 12.9024 83.282 13.0664 83.2656 13.0664C82.9922 13.0664 82.7461 12.9461 82.6641 12.7C82.6148 12.5524 82.7297 12.4649 82.5711 12.2735C82.5711 12.2735 80.9742 10.8516 80.8156 10.6328C80.657 10.4141 80.7883 10.2117 81.0727 9.99846Z" fill="#A8E6F1"/>
<path d="M79.0765 18.918C78.9453 18.918 78.825 18.918 78.6992 18.9234C69.1836 18.9727 63.2226 20.7609 59.4984 22.9102C54.0187 26.0656 53.3625 29.9977 53.3187 30.3039V30.3258L55.2328 31.3648C55.2328 31.3648 56.5289 28.7344 58.2515 27.5695C62.4023 24.7641 68.1336 23.1016 78.7101 23.0359C78.8414 23.0359 78.9672 23.0305 79.0984 23.0305V18.918H79.0765Z" fill="#185D6D"/>
<path d="M79.0109 18.918C79.1422 18.918 79.2625 18.918 79.3883 18.9234C88.9039 18.9727 94.8649 20.7609 98.5891 22.9102C104.069 26.0656 104.725 29.9977 104.769 30.3039V30.3258L103.32 31.3648C103.32 31.3648 101.559 28.7344 99.8414 27.5695C95.6906 24.7641 89.9594 23.1016 79.3828 23.0359C79.2516 23.0359 79.1258 23.0305 78.9891 23.0305V18.918H79.0109Z" fill="#185D6D"/>
</svg>
