<svg width="152" height="156" viewBox="0 0 152 156" fill="none" xmlns="http://www.w3.org/2000/svg">
<path d="M90 94L90.385 148.744" stroke="black"/>
<path d="M94.6535 149.334C94.6535 150.312 92.7417 149.924 90.3833 149.924C88.025 149.924 86.1132 150.312 86.1132 149.334C86.1132 148.356 88.025 147.563 90.3833 147.563C92.7417 147.563 94.6535 148.356 94.6535 149.334Z" fill="black"/>
<path d="M71.6989 95.6211V147.563" stroke="black"/>
<path d="M75.4365 148.744C75.4365 149.722 73.5247 149.334 71.1664 149.334C68.808 149.334 66.8962 149.722 66.8962 148.744C66.8962 147.766 68.808 146.973 71.1664 146.973C73.5247 146.973 75.4365 147.766 75.4365 148.744Z" fill="black"/>
<path d="M73.7186 1.52233C78.1389 -0.663151 83.1753 -0.457383 87.5253 1.8944C89.911 3.18421 92.7027 4.52777 91.7821 7.2821C91.0406 9.50024 88.7471 8.92042 86.6542 9.40612C85.4868 9.6771 84.1908 9.68547 83.6259 10.9901C83.2314 11.9012 83.4546 12.5898 83.6483 13.577C83.8369 14.5382 84.4922 15.5274 85.1493 16.3212H120.282C120.834 16.3212 121.282 16.7689 121.282 17.3212V95.3212C121.282 95.8734 120.834 96.3212 120.282 96.3212H86.5995C86.3225 96.3211 86.0561 96.2075 85.8739 95.9989C85.2033 95.2313 84.4721 94.2055 84.2831 93.2176C84.2621 93.1082 84.2413 93.0026 84.2206 92.9003C84.0701 92.1573 83.9532 91.5813 84.2792 90.8514C84.7218 89.8606 85.6287 89.6974 86.5448 89.5321C86.7278 89.4991 86.9115 89.4654 87.0917 89.4257C87.6142 89.3103 88.1496 89.2655 88.6669 89.2225C90.0701 89.1059 91.3398 89.0005 91.8514 87.5223C92.6804 85.1263 90.3753 83.878 88.2518 82.7284C88.1492 82.6728 88.0466 82.6176 87.9452 82.5624C83.9343 80.3782 79.2744 80.1509 75.1698 82.1161C75.1074 82.146 75.044 82.1765 74.9803 82.2069C72.5645 83.3613 69.3323 84.9062 70.2001 87.5692C70.6871 89.0638 71.9277 89.1062 73.3339 89.1542C74.0771 89.1795 74.8671 89.2063 75.6161 89.4501C75.7136 89.4818 75.8095 89.5124 75.9032 89.5419C76.7172 89.7975 77.3807 90.0054 77.7841 90.8651C78.1356 91.6144 78.006 92.2156 77.8378 92.9979C77.8214 93.0739 77.8046 93.1516 77.788 93.2313C77.5116 94.5528 76.2307 95.5419 74.9852 96.2098C74.8461 96.2844 74.6899 96.3212 74.5321 96.3212H42.2821C41.73 96.321 41.2822 95.8733 41.2821 95.3212V61.1024C41.2821 60.8488 41.3773 60.6031 41.5565 60.4237C42.2166 59.7632 43.0515 59.0932 43.8573 58.91C43.9545 58.8879 44.0486 58.8655 44.1395 58.8436L44.6112 58.7382C45.0643 58.6527 45.4739 58.6483 45.9598 58.91C46.8395 59.3839 46.9836 60.3508 47.1288 61.328C47.1578 61.5233 47.1865 61.7197 47.2216 61.912C47.3231 62.4695 47.3621 63.0408 47.3993 63.5926C47.5002 65.0894 47.5915 66.4436 48.9042 66.9921C51.0321 67.8809 52.146 65.4245 53.1718 63.162C53.2213 63.0526 53.2709 62.9438 53.3202 62.8358C55.2689 58.5626 55.4787 53.5939 53.7401 49.2128L53.66 49.0106C52.6387 46.432 51.2726 42.9818 48.9042 43.9022C47.5749 44.4188 47.5345 45.7414 47.4891 47.2411C47.4652 48.0338 47.4397 48.8762 47.2216 49.6747C47.1932 49.7785 47.1668 49.8806 47.1405 49.9803C46.9118 50.848 46.7248 51.5547 45.9598 51.9833C45.2934 52.3565 44.7601 52.2179 44.0653 52.037C43.9976 52.0194 43.9283 52.0013 43.8573 51.9833C42.785 51.7117 41.961 50.5468 41.3759 49.3339C41.3132 49.2041 41.2822 49.061 41.2821 48.9169V17.3212C41.2821 16.769 41.7299 16.3213 42.2821 16.3212H74.6014C75.5751 15.6315 76.4129 14.7421 76.6307 13.6503C76.8275 12.6641 77.0309 11.9595 76.6083 11.0643C76.1151 10.02 75.2791 9.8638 74.2557 9.536C71.9098 8.7846 69.2111 10.0195 68.3895 7.52819C67.407 4.54811 71.0998 2.8171 73.7186 1.52233Z" fill="#A8E6F1"/>
<ellipse cx="72.6486" cy="41.4336" rx="2.37362" ry="7.5828" fill="black"/>
<path d="M74.9562 30.6855C75.158 31.4298 73.3704 31.1931 71.4143 31.8192C69.4583 32.4454 68.0743 33.6973 67.8725 32.953C67.6707 32.2086 69.0929 31.0976 71.0489 30.4715C73.005 29.8453 74.7543 29.9411 74.9562 30.6855Z" fill="black"/>
<path d="M94.9438 32.6479C94.7788 33.4029 93.3354 32.2331 91.3513 31.7213C89.3672 31.2096 87.5939 31.5497 87.7588 30.7948C87.9237 30.0398 89.6658 29.8426 91.6499 30.3543C93.634 30.866 95.1087 31.8929 94.9438 32.6479Z" fill="black"/>
<ellipse cx="90.6501" cy="41.4336" rx="2.37362" ry="7.5828" fill="black"/>
<path d="M66.78 58.8659C66.4482 58.5952 66.5694 58.4632 66.5694 58.4632C66.5694 58.4632 66.641 58.6071 66.78 58.8659C67.3185 59.3051 69.0503 60.1095 74.4302 61.3076C80.0743 62.5645 95.1611 60.4618 95.1611 60.4618C95.1611 60.4618 87.2425 73.7063 81.2188 72.3648C73.4773 70.6409 67.9083 60.9668 66.78 58.8659Z" fill="black"/>
<path d="M9.7922 88.0977L54.2706 74.7927" stroke="black"/>
<path d="M113.483 60.6382C113.483 60.6382 119.759 72.6384 121.942 80.9209C124.951 92.3411 124.284 110.916 124.284 110.916" stroke="black"/>
<line y1="-0.3" x2="2.07565" y2="-0.3" transform="matrix(0.563993 0.82578 0.83816 -0.545425 124.576 110.345)" stroke="black" stroke-width="0.6"/>
<line y1="-0.3" x2="2.07671" y2="-0.3" transform="matrix(-0.582528 0.812811 0.825834 0.563913 124.576 110.345)" stroke="black" stroke-width="0.6"/>
<line y1="-0.35" x2="2.424" y2="-0.35" transform="matrix(0.00563127 0.999984 0.999986 -0.00536266 124.48 110.342)" stroke="black" stroke-width="0.7"/>
<path d="M81.9243 74.8661L86.0022 77.0022L82 85L77.6752 77.3248L81.9243 74.8661Z" fill="#185D6D"/>
<path d="M82 107L86.3594 102.384L82 79L77.6406 102.384L82 107Z" fill="#185D6D"/>
<path d="M18.6552 76.7652L27.3317 79.1565L22.549 96.5095L1.33984 90.664L6.1225 73.311L14.799 75.7024M17.4936 84.7433L21.3499 85.8061L17.4936 84.7433ZM16.6965 87.6355L22.4809 89.2297L16.6965 87.6355ZM15.8994 90.5276L21.6838 92.1219L15.8994 90.5276ZM5.05968 77.1673L26.2689 83.0127L5.05968 77.1673Z" fill="#185D6D"/>
<path d="M18.6552 76.7652L27.3317 79.1565L22.549 96.5095L1.33984 90.664L6.1225 73.311L14.799 75.7024M17.4936 84.7433L21.3499 85.8061M16.6965 87.6355L22.4809 89.2297M15.8994 90.5276L21.6838 92.1219M5.05968 77.1673L26.2689 83.0127" stroke="black" stroke-miterlimit="10" stroke-linecap="round" stroke-linejoin="round"/>
<path d="M18.1238 78.6932L14.2675 77.6304L15.5961 72.8101L18.0556 71.4134L19.4523 73.8729L18.1238 78.6932ZM16.7271 76.2337L17.2585 74.3056L16.7271 76.2337ZM12.7074 87.0546L9.4167 87.7036L6.92309 85.4604L7.85305 82.0862L11.1438 81.4372L13.6374 83.6804L12.7074 87.0546Z" fill="#185D6D"/>
<path d="M16.7271 76.2337L17.2585 74.3056M18.1238 78.6932L14.2675 77.6304L15.5961 72.8101L18.0556 71.4134L19.4523 73.8729L18.1238 78.6932ZM12.7074 87.0546L9.4167 87.7036L6.92309 85.4604L7.85305 82.0862L11.1438 81.4372L13.6374 83.6804L12.7074 87.0546Z" stroke="black" stroke-miterlimit="10" stroke-linecap="round" stroke-linejoin="round"/>
<path d="M18.1238 78.6934L14.2675 77.6306L15.5961 72.8103L18.0556 71.4136L19.4523 73.8731L18.1238 78.6934ZM16.7271 76.2339L17.2585 74.3058L16.7271 76.2339ZM12.7074 87.0548L9.4167 87.7038L6.92309 85.4606L7.85305 82.0864L11.1438 81.4375L13.6374 83.6806L12.7074 87.0548Z" fill="#A8E6F1"/>
<path d="M16.7271 76.2339L17.2585 74.3058M18.1238 78.6934L14.2675 77.6306L15.5961 72.8103L18.0556 71.4136L19.4523 73.8731L18.1238 78.6934ZM12.7074 87.0548L9.4167 87.7038L6.92309 85.4606L7.85305 82.0864L11.1438 81.4375L13.6374 83.6806L12.7074 87.0548Z" stroke="black" stroke-miterlimit="10" stroke-linecap="round" stroke-linejoin="round"/>
<path d="M7.85304 82.0863L9.99747 83.7147L13.3717 84.6446M12.9084 93.8525L13.5727 91.4424L9.15098 88.6678L3.93215 88.7853L3.2679 91.1955M8.61958 90.5959L8.08817 92.524L8.61958 90.5959Z" fill="#A8E6F1"/>
<path d="M7.85304 82.0863L9.99747 83.7147L13.3717 84.6446M12.9084 93.8525L13.5727 91.4424L9.15098 88.6678L3.93215 88.7853L3.2679 91.1955M8.61958 90.5959L8.08817 92.524" stroke="black" stroke-miterlimit="10" stroke-linecap="round" stroke-linejoin="round"/>
<path d="M121.5 63C66 114.5 58.4193 68.1805 18 71.5C26.9821 69.1569 39 92.5 41.5 65.5" stroke="black" stroke-width="0.4"/>
<path d="M53.8 117.75C54.3835 117.75 54.9431 117.987 55.3556 118.409C55.7682 118.831 56 119.403 56 120C56 120.597 55.7682 121.169 55.3556 121.591C54.9431 122.013 54.3835 122.25 53.8 122.25V144.75C54.3835 144.75 54.9431 144.987 55.3556 145.409C55.7682 145.831 56 146.403 56 147C56 147.597 55.7682 148.169 55.3556 148.591C54.9431 149.013 54.3835 149.25 53.8 149.25H14.2C13.6165 149.25 13.0569 149.013 12.6444 148.591C12.2318 148.169 12 147.597 12 147C12 146.403 12.2318 145.831 12.6444 145.409C13.0569 144.987 13.6165 144.75 14.2 144.75V122.25C13.6165 122.25 13.0569 122.013 12.6444 121.591C12.2318 121.169 12 120.597 12 120C12 119.403 12.2318 118.831 12.6444 118.409C13.0569 117.987 13.6165 117.75 14.2 117.75H53.8ZM47.2 111C47.7835 111 48.3431 111.237 48.7556 111.659C49.1682 112.081 49.4 112.653 49.4 113.25C49.4 113.847 49.1682 114.419 48.7556 114.841C48.3431 115.263 47.7835 118 47.2 118H20.8C20.2165 118 19.6569 115.263 19.2444 114.841C18.8318 114.419 18.6 113.847 18.6 113.25C18.6 112.653 18.8318 112.081 19.2444 111.659C19.6569 111.237 20.2165 111 20.8 111H47.2Z" fill="#A8E6F1"/>
<path d="M54.25 117.75C54.8467 117.75 55.419 117.987 55.841 118.409C56.2629 118.831 56.5 119.403 56.5 120C56.5 120.597 56.2629 121.169 55.841 121.591C55.419 122.013 54.8467 122.25 54.25 122.25V144.75C54.8467 144.75 55.419 144.987 55.841 145.409C56.2629 145.831 56.5 146.403 56.5 147C56.5 147.597 56.2629 148.169 55.841 148.591C55.419 149.013 54.8467 149.25 54.25 149.25H13.75C13.1533 149.25 12.581 149.013 12.159 148.591C11.7371 148.169 11.5 147.597 11.5 147C11.5 146.403 11.7371 145.831 12.159 145.409C12.581 144.987 13.1533 144.75 13.75 144.75V122.25C13.1533 122.25 12.581 122.013 12.159 121.591C11.7371 121.169 11.5 120.597 11.5 120C11.5 119.403 11.7371 118.831 12.159 118.409C12.581 117.987 13.1533 117.75 13.75 117.75H54.25ZM22.75 126.75C22.1533 126.75 21.581 126.987 21.159 127.409C20.7371 127.831 20.5 128.403 20.5 129V144.75H25V129C25 128.403 24.7629 127.831 24.341 127.409C23.919 126.987 23.3467 126.75 22.75 126.75ZM34 126.75C33.4033 126.75 32.831 126.987 32.409 127.409C31.9871 127.831 31.75 128.403 31.75 129V144.75H36.25V129C36.25 128.403 36.0129 127.831 35.591 127.409C35.169 126.987 34.5967 126.75 34 126.75ZM45.25 126.75C44.6533 126.75 44.081 126.987 43.659 127.409C43.2371 127.831 43 128.403 43 129V144.75H47.5V129C47.5 128.403 47.2629 127.831 46.841 127.409C46.419 126.987 45.8467 126.75 45.25 126.75ZM47.5 111C48.0967 111 48.669 111.237 49.091 111.659C49.5129 112.081 49.75 112.653 49.75 113.25C49.75 113.847 49.5129 114.419 49.091 114.841C48.669 115.263 48.0967 115.5 47.5 115.5H20.5C19.9033 115.5 19.331 115.263 18.909 114.841C18.4871 114.419 18.25 113.847 18.25 113.25C18.25 112.653 18.4871 112.081 18.909 111.659C19.331 111.237 19.9033 111 20.5 111H47.5Z" fill="#185D6D"/>
</svg>
