<svg width="150" height="150" viewBox="0 0 150 150" fill="none" xmlns="http://www.w3.org/2000/svg">
<path d="M88 94L88.385 148.744" stroke="black"/>
<path d="M92.6535 149.334C92.6535 150.312 90.7417 149.924 88.3833 149.924C86.025 149.924 84.1132 150.312 84.1132 149.334C84.1132 148.356 86.025 147.563 88.3833 147.563C90.7417 147.563 92.6535 148.356 92.6535 149.334Z" fill="black"/>
<path d="M69.6989 95.6211V147.563" stroke="black"/>
<path d="M73.4365 148.744C73.4365 149.722 71.5247 149.334 69.1664 149.334C66.8081 149.334 64.8963 149.722 64.8963 148.744C64.8963 147.766 66.8081 146.973 69.1664 146.973C71.5247 146.973 73.4365 147.766 73.4365 148.744Z" fill="black"/>
<path d="M71.7186 1.52233C76.1389 -0.663151 81.1753 -0.457383 85.5253 1.8944C87.911 3.18421 90.7027 4.52777 89.7821 7.2821C89.0406 9.50024 86.7471 8.92042 84.6542 9.40612C83.4868 9.6771 82.1908 9.68547 81.6259 10.9901C81.2314 11.9012 81.4546 12.5898 81.6483 13.577C81.8369 14.5382 82.4922 15.5274 83.1493 16.3212H118.282C118.834 16.3212 119.282 16.7689 119.282 17.3212V95.3212C119.282 95.8734 118.834 96.3212 118.282 96.3212H84.5995C84.3225 96.3211 84.0561 96.2075 83.8739 95.9989C83.2033 95.2313 82.4721 94.2055 82.2831 93.2176C82.2621 93.1082 82.2413 93.0026 82.2206 92.9003C82.0701 92.1573 81.9532 91.5813 82.2792 90.8514C82.7218 89.8606 83.6287 89.6974 84.5448 89.5321C84.7278 89.4991 84.9115 89.4654 85.0917 89.4257C85.6142 89.3103 86.1496 89.2655 86.6669 89.2225C88.0701 89.1059 89.3398 89.0005 89.8514 87.5223C90.6804 85.1263 88.3753 83.878 86.2518 82.7284C86.1492 82.6728 86.0466 82.6176 85.9452 82.5624C81.9343 80.3782 77.2744 80.1509 73.1698 82.1161C73.1074 82.146 73.044 82.1765 72.9803 82.2069C70.5645 83.3613 67.3323 84.9062 68.2001 87.5692C68.6871 89.0638 69.9277 89.1062 71.3339 89.1542C72.0771 89.1795 72.8671 89.2063 73.6161 89.4501C73.7136 89.4818 73.8095 89.5124 73.9032 89.5419C74.7172 89.7975 75.3807 90.0054 75.7841 90.8651C76.1356 91.6144 76.006 92.2156 75.8378 92.9979C75.8214 93.0739 75.8046 93.1516 75.788 93.2313C75.5116 94.5528 74.2307 95.5419 72.9852 96.2098C72.8461 96.2844 72.6899 96.3212 72.5321 96.3212H40.2821C39.73 96.321 39.2822 95.8733 39.2821 95.3212V61.1024C39.2821 60.8488 39.3773 60.6031 39.5565 60.4237C40.2166 59.7632 41.0515 59.0932 41.8573 58.91C41.9545 58.8879 42.0486 58.8655 42.1395 58.8436L42.6112 58.7382C43.0643 58.6527 43.4739 58.6483 43.9598 58.91C44.8395 59.3839 44.9836 60.3508 45.1288 61.328C45.1578 61.5233 45.1865 61.7197 45.2216 61.912C45.3231 62.4695 45.3621 63.0408 45.3993 63.5926C45.5002 65.0894 45.5915 66.4436 46.9042 66.9921C49.0321 67.8809 50.146 65.4245 51.1718 63.162C51.2213 63.0526 51.2709 62.9438 51.3202 62.8358C53.2689 58.5626 53.4787 53.5939 51.7401 49.2128L51.66 49.0106C50.6387 46.432 49.2726 42.9818 46.9042 43.9022C45.5749 44.4188 45.5345 45.7414 45.4891 47.2411C45.4652 48.0338 45.4397 48.8762 45.2216 49.6747C45.1932 49.7785 45.1668 49.8806 45.1405 49.9803C44.9118 50.848 44.7248 51.5547 43.9598 51.9833C43.2934 52.3565 42.7601 52.2179 42.0653 52.037C41.9976 52.0194 41.9283 52.0013 41.8573 51.9833C40.785 51.7117 39.961 50.5468 39.3759 49.3339C39.3132 49.2041 39.2822 49.061 39.2821 48.9169V17.3212C39.2821 16.769 39.7299 16.3213 40.2821 16.3212H72.6014C73.5751 15.6315 74.4129 14.7421 74.6307 13.6503C74.8275 12.6641 75.0309 11.9595 74.6083 11.0643C74.1151 10.02 73.2791 9.8638 72.2557 9.536C69.9098 8.7846 67.2111 10.0195 66.3895 7.52819C65.407 4.54811 69.0998 2.8171 71.7186 1.52233Z" fill="#A8E6F1"/>
<ellipse cx="70.6486" cy="39.4336" rx="2.37362" ry="7.5828" fill="black"/>
<path d="M73.1927 28.4023C72.9473 27.497 71.607 28.9099 69.6509 29.5361C67.6948 30.1622 65.8636 29.7645 66.1091 30.6698C66.3545 31.5752 68.1392 31.8015 70.0953 31.1753C72.0514 30.5492 73.4382 29.3077 73.1927 28.4023Z" fill="black"/>
<path d="M92.9438 30.6479C92.7788 31.4029 91.3354 30.2331 89.3513 29.7213C87.3672 29.2096 85.5939 29.5497 85.7588 28.7948C85.9237 28.0398 87.6658 27.8426 89.6499 28.3543C91.634 28.866 93.1087 29.8929 92.9438 30.6479Z" fill="black"/>
<ellipse cx="88.6501" cy="39.4336" rx="2.37362" ry="7.5828" fill="black"/>
<path d="M78 60.5C69.305 58.5637 64.5694 54.4632 64.5694 54.4632C64.5694 54.4632 70.5238 66.4285 79.2188 68.3648C85.2425 69.7062 93.161 56.4618 93.161 56.4618C93.161 56.4618 83.6441 61.7569 78 60.5Z" fill="black"/>
<path d="M133 61.9999L118 72.2928" stroke="black"/>
<rect x="112.825" y="43" width="10.3599" height="15.0046" rx="2" transform="rotate(10.8539 112.825 43)" fill="#185D6D"/>
<rect x="43.1525" y="85" width="10.3599" height="15.0046" rx="2" transform="rotate(0.582502 43.1525 85)" fill="#185D6D"/>
<rect x="105.153" y="85" width="10.3599" height="15.0046" rx="2" transform="rotate(0.582502 105.153 85)" fill="#185D6D"/>
<rect x="92.1525" y="87" width="10.3599" height="15.0046" rx="2" transform="rotate(0.582502 92.1525 87)" fill="#185D6D"/>
<rect x="56.1525" y="88" width="8.41182" height="15.0046" rx="2" transform="rotate(0.582502 56.1525 88)" fill="#185D6D"/>
<path d="M115.447 59C115.578 59.4257 115.91 60.4069 115.961 61.0207C116.08 62.482 115.912 64.9421 115.663 65.4354C115.478 65.8025 114.692 66.4133 113.86 66.8152C112.5 67.4719 110.91 66.909 110.612 66.7103C110.337 66.5267 110.278 65.9922 110.295 65.3949C110.304 65.0677 110.443 64.8556 110.625 64.5655C110.874 64.1667 111.205 63.9048 111.666 63.8129C113.159 63.5153 113.656 63.9949 114.202 64.24C115.1 64.6427 115.181 65.4331 115.43 66.0018C115.689 66.5929 115.612 67.3641 115.662 68.0244C115.733 68.9585 115.614 70.1834 115.151 70.9209C114.441 72.0511 112.171 72.6386 110.963 72.8538C110.618 72.9152 110.253 72.8851 109.952 72.7789C109.361 72.5702 109.152 72.1503 109.102 71.891C109.025 71.486 109.151 71.1085 109.3 70.8791C109.566 70.4687 110.078 70.4336 110.92 70.326C111.752 70.2198 112.463 70.371 112.811 70.4933C113.375 70.6919 113.69 71.4414 114.17 73.4124C114.45 74.5636 114.189 75.366 114.007 75.748C113.495 76.8275 112.302 77.4809 111.689 77.8492C111.098 78.2037 110.447 78.5237 109.437 78.754C108.996 78.8548 108.689 78.8317 108.507 78.7402C108.102 78.5366 108.026 77.9756 108.041 77.4234C108.057 76.8708 109.509 76.657 110.953 76.5936C111.412 76.5734 111.931 76.9899 112.544 77.4184C113.383 78.0056 113.459 80.1972 113.311 81.2051C113.187 82.0519 111.316 82.932 109.967 83.5963C109.392 83.8799 108.102 83.9195 107.314 83.7214C107.088 83.6643 107.065 83.3687 107.015 83.1701C106.959 82.9465 107.064 82.7251 107.245 82.5416C107.914 81.8649 110.529 81.9885 111.668 82.1563C112.192 82.2335 112.628 82.6303 113.06 82.9375C113.549 83.2852 113.755 83.9471 114.038 84.6372C114.375 85.459 114.089 86.4924 113.66 87.1048C113.238 87.7062 112.304 87.9637 110.715 88.3779C110.129 88.5308 109.487 88.5172 108.825 88.4869C108.414 88.4681 108.126 88.1816 107.861 87.9062C107.683 87.7211 107.661 87.5067 107.628 87.3232C107.611 87.2321 107.66 87.1398 107.743 87.0625C108.361 86.4836 110.336 86.4943 111.089 86.6009C111.668 86.683 112.066 87.1674 112.711 87.7637C113.282 88.2912 113.525 88.7913 113.756 89.2359C113.963 89.6323 114.121 89.9867 114.254 90.3549C114.287 90.4474 114.32 90.5384 114.353 90.6308C114.387 90.7232 114.419 90.8143 114.553 91" stroke="#185D6D" stroke-linecap="round"/>
<path d="M94.0049 66.4435C94.1091 62.379 98.0451 61.121 100 61V76C100 76 97.0024 74.1855 95.9598 72.7339C95.5051 72.1008 93.9006 70.5081 94.0049 66.4435Z" fill="#185D6D" stroke="#185D6D"/>
<path d="M106.995 66.4435C106.891 62.379 102.955 61.121 101 61V76C101 76 103.998 74.1855 105.04 72.7339C105.495 72.1008 107.099 70.5081 106.995 66.4435Z" fill="#185D6D" stroke="#185D6D"/>
<path d="M100.855 64L101.833 67.0091H104.997L102.437 68.8689L103.415 71.878L100.855 70.0182L98.2951 71.878L99.2729 68.8689L96.7131 67.0091H99.8771L100.855 64Z" fill="#A8E6F1"/>
<path d="M119 89C103.704 94.6465 61.1384 94.7748 39 89V95.0957C90.8239 100.87 97.0294 96.4859 119 95.0957V89Z" fill="#185D6D" stroke="#185D6D"/>
<path d="M79 14.6667C91.1503 14.6667 101 11.3834 101 7.33333C101 3.28325 91.1503 0 79 0C66.8497 0 57 3.28325 57 7.33333C57 11.3834 66.8497 14.6667 79 14.6667Z" fill="#185D6D"/>
<path d="M61.5779 14.6648V16.4981C61.5779 18.524 69.375 20.1648 78.9945 20.1648C88.614 20.1648 96.4112 18.524 96.4112 16.4981V14.6648H61.5779Z" fill="#185D6D"/>
<path d="M95.4964 14.6647V10.998C95.4964 10.998 88.6214 6.87305 78.9945 6.87305C69.3732 6.87305 62.4982 10.998 62.4982 10.998V14.6647H95.4964Z" fill="#185D6D"/>
<path d="M96.4112 14.6648H61.5779C61.0737 14.6648 60.6612 15.0773 60.6612 15.5815C60.6612 16.0856 61.0737 16.4981 61.5779 16.4981H96.4112C96.9154 16.4981 97.3279 16.0856 97.3279 15.5815C97.3279 15.0773 96.9154 14.6648 96.4112 14.6648Z" fill="#A8E6F1"/>
<path d="M83.1195 2.75H83.1158C82.9141 2.75308 82.7157 2.80109 82.5349 2.89052C82.3542 2.97995 82.1956 3.10857 82.0708 3.267C81.5556 3.3935 80.848 3.421 79.9496 3.13683C79.6932 2.89061 79.3514 2.75326 78.9959 2.7536C78.6405 2.75394 78.2989 2.89195 78.043 3.13867C77.1428 3.42283 76.4351 3.39533 75.9218 3.26883C75.7968 3.11016 75.638 2.98141 75.4568 2.89196C75.2757 2.80252 75.0769 2.75464 74.875 2.75183H74.8713C74.5066 2.75183 74.1569 2.8967 73.899 3.15456C73.6412 3.41242 73.4963 3.76216 73.4963 4.12683C73.4963 4.49151 73.6412 4.84124 73.899 5.0991C74.1569 5.35697 74.5066 5.50183 74.8713 5.50183H74.875C74.875 11.0018 77.6213 12.3768 78.9945 12.3768C80.3713 12.3768 83.1158 11.0018 83.1158 5.50183H83.1195C83.4844 5.50183 83.8344 5.35687 84.0924 5.09884C84.3504 4.8408 84.4954 4.49083 84.4954 4.12592C84.4954 3.761 84.3504 3.41103 84.0924 3.153C83.8344 2.89496 83.4844 2.75 83.1195 2.75Z" fill="#A8E6F1"/>
<g clip-path="url(#clip0_3827_6384)">
<path d="M63.2495 113.286C64.995 114.452 64.8003 117.444 61.7675 117.999C61.015 118.136 39.8086 121.949 29.9378 123.772L29.2231 120.281C38.6282 118.098 59.2767 113.232 60.6971 112.921C61.7638 112.685 62.6296 112.871 63.2495 113.286ZM38.0978 118.329L38.8484 121.998L37.731 122.209L36.9906 118.583L38.0978 118.329ZM35.8817 118.837L36.6168 122.422L35.501 122.636L34.7743 119.087L35.8817 118.837ZM33.6659 119.335L34.3841 122.853C34.0074 122.928 33.6369 123.002 33.2725 123.076L32.5566 119.578C32.9191 119.5 33.2889 119.418 33.6659 119.335ZM31.4459 119.818L32.1592 123.302C31.7786 123.38 31.4082 123.457 31.0481 123.533L30.3354 120.052C30.7058 119.975 31.076 119.897 31.4459 119.818ZM29.2231 120.281L29.9378 123.772C29.2924 123.912 28.6934 124.048 28.15 124.178C27.9674 124.225 27.7769 124.232 27.5912 124.199C27.4055 124.167 27.2289 124.095 27.073 123.989C25.9615 123.246 25.7549 120.932 27.4137 120.63C28.0181 120.52 28.6213 120.404 29.2231 120.281ZM26.3341 121.685C26.3951 122.15 26.3825 122.661 26.6096 123.072C26.2949 123.289 24.7015 124.443 24.3906 124.665C23.1414 125.56 22.1215 124.886 21.3791 124.394C20.4903 123.806 19.7884 123.342 18.3684 124.301C18.0103 124.543 17.9774 124.777 17.9918 124.975C18.082 126.175 20.4043 128.299 22.9624 129.518C24.465 130.234 25.2759 130.24 25.4318 130.133C25.4318 130.133 25.5338 130.03 25.5463 129.535C25.5408 129.038 25.5049 128.542 25.4388 128.049C25.3918 127.624 25.3439 127.184 25.3277 126.774C25.3055 126.152 26.6129 123.971 27.0253 123.35C27.1225 123.437 27.3357 123.362 27.4437 123.435C27.7154 123.617 27.8158 123.417 28.1345 123.49C27.6372 124.187 26.6645 126.569 26.6708 126.72C26.685 127.084 26.7306 127.499 26.7753 127.901C26.9293 129.304 27.0745 130.627 26.1995 131.236C25.6871 131.591 24.6107 131.79 22.3843 130.732C21.7017 130.401 21.0432 130.023 20.4138 129.599C18.6034 128.389 16.7702 126.673 16.6507 125.075C16.6136 124.541 16.7467 123.781 17.6187 123.19C19.7838 121.727 21.192 122.66 22.1253 123.274C22.9277 123.805 23.1613 123.896 23.6124 123.573C24.0635 123.25 25.945 121.948 26.3341 121.685Z" fill="#A8E6F1"/>
<path d="M63.2495 113.286C64.995 114.452 64.8003 117.444 61.7675 117.999C61.015 118.136 49.8354 119.969 39.9646 121.792L39.2032 118.075C48.6083 115.892 59.2767 113.232 60.6971 112.921C61.7638 112.685 62.6296 112.871 63.2495 113.286ZM38.0978 118.329L38.8484 121.998L37.731 122.209L36.9906 118.583L38.0978 118.329ZM35.8817 118.837L36.6168 122.422L35.501 122.636L34.7743 119.087L35.8817 118.837ZM33.6659 119.335L34.3841 122.853C34.0074 122.928 33.6369 123.002 33.2725 123.076L32.5566 119.578C32.9191 119.5 33.2889 119.418 33.6659 119.335ZM31.4459 119.818L32.1592 123.302C31.7786 123.38 31.4082 123.457 31.0481 123.533L30.3355 120.052C30.7059 119.975 31.076 119.897 31.4459 119.818ZM29.2231 120.281L29.9379 123.772C29.2925 123.912 28.6934 124.048 28.15 124.178C27.9674 124.225 27.7769 124.232 27.5912 124.199C27.4055 124.167 27.2289 124.095 27.073 123.989C25.9615 123.246 25.7549 120.932 27.4137 120.63C28.0182 120.52 28.6213 120.404 29.2231 120.281Z" fill="#185D6D"/>
</g>
<path d="M42.5816 69C42.5816 69 36.3286 81.0003 34.1541 89.2827C31.1557 100.703 31.8209 119.278 31.8209 119.278" stroke="black"/>
<line y1="-0.3" x2="2.07321" y2="-0.3" transform="matrix(-0.562566 0.826753 -0.837232 -0.546847 31.5292 118.707)" stroke="black" stroke-width="0.6"/>
<line y1="-0.3" x2="2.07411" y2="-0.3" transform="matrix(0.5811 0.813832 -0.824857 0.565341 31.5292 118.707)" stroke="black" stroke-width="0.6"/>
<line y1="-0.35" x2="2.424" y2="-0.35" transform="matrix(-0.00561042 0.999984 -0.999986 -0.0053826 31.625 118.704)" stroke="black" stroke-width="0.7"/>
<defs>
<clipPath id="clip0_3827_6384">
<rect width="43" height="43" fill="white" transform="translate(33.45 88.551) rotate(33.7652)"/>
</clipPath>
</defs>
</svg>
