<svg width="150" height="153" viewBox="0 0 150 153" fill="none" xmlns="http://www.w3.org/2000/svg">
<path d="M88 94L88.385 148.744" stroke="black"/>
<path d="M92.6535 149.334C92.6535 150.312 90.7417 149.924 88.3833 149.924C86.025 149.924 84.1132 150.312 84.1132 149.334C84.1132 148.356 86.025 147.563 88.3833 147.563C90.7417 147.563 92.6535 148.356 92.6535 149.334Z" fill="black"/>
<path d="M69.6989 95.6211V147.563" stroke="black"/>
<path d="M73.4365 148.744C73.4365 149.722 71.5247 149.334 69.1664 149.334C66.8081 149.334 64.8963 149.722 64.8963 148.744C64.8963 147.766 66.8081 146.973 69.1664 146.973C71.5247 146.973 73.4365 147.766 73.4365 148.744Z" fill="black"/>
<path d="M71.7186 1.52233C76.1389 -0.663151 81.1753 -0.457383 85.5253 1.8944C87.911 3.18421 90.7027 4.52777 89.7821 7.2821C89.0406 9.50024 86.7471 8.92042 84.6542 9.40612C83.4868 9.6771 82.1908 9.68547 81.6259 10.9901C81.2314 11.9012 81.4546 12.5898 81.6483 13.577C81.8369 14.5382 82.4922 15.5274 83.1493 16.3212H118.282C118.834 16.3212 119.282 16.7689 119.282 17.3212V95.3212C119.282 95.8734 118.834 96.3212 118.282 96.3212H84.5995C84.3225 96.3211 84.0561 96.2075 83.8739 95.9989C83.2033 95.2313 82.4721 94.2055 82.2831 93.2176C82.2621 93.1082 82.2413 93.0026 82.2206 92.9003C82.0701 92.1573 81.9532 91.5813 82.2792 90.8514C82.7218 89.8606 83.6287 89.6974 84.5448 89.5321C84.7278 89.4991 84.9115 89.4654 85.0917 89.4257C85.6142 89.3103 86.1496 89.2655 86.6669 89.2225C88.0701 89.1059 89.3398 89.0005 89.8514 87.5223C90.6804 85.1263 88.3753 83.878 86.2518 82.7284C86.1492 82.6728 86.0466 82.6176 85.9452 82.5624C81.9343 80.3782 77.2744 80.1509 73.1698 82.1161C73.1074 82.146 73.044 82.1765 72.9803 82.2069C70.5645 83.3613 67.3323 84.9062 68.2001 87.5692C68.6871 89.0638 69.9277 89.1062 71.3339 89.1542C72.0771 89.1795 72.8671 89.2063 73.6161 89.4501C73.7136 89.4818 73.8095 89.5124 73.9032 89.5419C74.7172 89.7975 75.3807 90.0054 75.7841 90.8651C76.1356 91.6144 76.006 92.2156 75.8378 92.9979C75.8214 93.0739 75.8046 93.1516 75.788 93.2313C75.5116 94.5528 74.2307 95.5419 72.9852 96.2098C72.8461 96.2844 72.6899 96.3212 72.5321 96.3212H40.2821C39.73 96.321 39.2822 95.8733 39.2821 95.3212V61.1024C39.2821 60.8488 39.3773 60.6031 39.5565 60.4237C40.2166 59.7632 41.0515 59.0932 41.8573 58.91C41.9545 58.8879 42.0486 58.8655 42.1395 58.8436L42.6112 58.7382C43.0643 58.6527 43.4739 58.6483 43.9598 58.91C44.8395 59.3839 44.9836 60.3508 45.1288 61.328C45.1578 61.5233 45.1865 61.7197 45.2216 61.912C45.3231 62.4695 45.3621 63.0408 45.3993 63.5926C45.5002 65.0894 45.5915 66.4436 46.9042 66.9921C49.0321 67.8809 50.146 65.4245 51.1718 63.162C51.2213 63.0526 51.2709 62.9438 51.3202 62.8358C53.2689 58.5626 53.4787 53.5939 51.7401 49.2128L51.66 49.0106C50.6387 46.432 49.2726 42.9818 46.9042 43.9022C45.5749 44.4188 45.5345 45.7414 45.4891 47.2411C45.4652 48.0338 45.4397 48.8762 45.2216 49.6747C45.1932 49.7785 45.1668 49.8806 45.1405 49.9803C44.9118 50.848 44.7248 51.5547 43.9598 51.9833C43.2934 52.3565 42.7601 52.2179 42.0653 52.037C41.9976 52.0194 41.9283 52.0013 41.8573 51.9833C40.785 51.7117 39.961 50.5468 39.3759 49.3339C39.3132 49.2041 39.2822 49.061 39.2821 48.9169V17.3212C39.2821 16.769 39.7299 16.3213 40.2821 16.3212H72.6014C73.5751 15.6315 74.4129 14.7421 74.6307 13.6503C74.8275 12.6641 75.0309 11.9595 74.6083 11.0643C74.1151 10.02 73.2791 9.8638 72.2557 9.536C69.9098 8.7846 67.2111 10.0195 66.3895 7.52819C65.407 4.54811 69.0998 2.8171 71.7186 1.52233Z" fill="#A8E6F1"/>
<ellipse cx="70.6486" cy="41.4336" rx="2.37362" ry="7.5828" fill="black"/>
<path d="M72.9562 30.6855C73.158 31.4298 71.3704 31.1931 69.4143 31.8192C67.4583 32.4454 66.0743 33.6973 65.8725 32.953C65.6707 32.2086 67.0929 31.0976 69.0489 30.4715C71.005 29.8453 72.7543 29.9411 72.9562 30.6855Z" fill="black"/>
<path d="M92.9438 32.6479C92.7788 33.4029 91.3354 32.2331 89.3513 31.7213C87.3672 31.2096 85.5939 31.5497 85.7588 30.7948C85.9237 30.0398 87.6658 29.8426 89.6499 30.3543C91.634 30.866 93.1087 31.8929 92.9438 32.6479Z" fill="black"/>
<ellipse cx="88.6501" cy="41.4336" rx="2.37362" ry="7.5828" fill="black"/>
<path d="M79.2188 64C70.5238 62.0637 64.5694 60.4635 64.5694 60.4635C64.5694 60.4635 70.5238 64.5637 79.2188 66.5C85.2425 67.8414 93.1611 62.462 93.1611 62.462C93.1611 62.462 84.8628 65.2569 79.2188 64Z" fill="black"/>
<path d="M111.483 60.6382C111.483 60.6382 117.759 72.6384 119.942 80.9209C122.951 92.3411 122.284 110.916 122.284 110.916" stroke="black"/>
<line y1="-0.3" x2="2.07565" y2="-0.3" transform="matrix(0.563993 0.82578 0.83816 -0.545425 122.576 110.345)" stroke="black" stroke-width="0.6"/>
<line y1="-0.3" x2="2.07671" y2="-0.3" transform="matrix(-0.582528 0.812811 0.825834 0.563913 122.576 110.345)" stroke="black" stroke-width="0.6"/>
<line y1="-0.35" x2="2.424" y2="-0.35" transform="matrix(0.00563127 0.999984 0.999986 -0.00536266 122.48 110.342)" stroke="black" stroke-width="0.7"/>
<path d="M78.6197 36.3302C76.4434 36.3302 73.8062 34.8657 70.9712 34.0345C67.1847 32.9243 53.6614 31.2594 50.0385 37.9198C47.8117 42.0136 50.9443 54.117 54.064 55.6811C58.4921 57.9013 69.5723 57.1758 71.7763 54.571C74.5942 51.2408 75.5628 41.2501 75.5628 40.1401C75.5628 39.03 76.8459 37.9953 78.6197 37.9954" stroke="#185D6D" stroke-width="3"/>
<path d="M68.9584 34.1101C76.6069 35.7752 74.9967 39.6605 74.5942 45.7659" stroke="#185D6D" stroke-width="2"/>
<path d="M77.5724 39.1055C76.3648 39.1055 76.2044 44.1008 74.9967 47.4311" stroke="#185D6D"/>
<path d="M37.0206 34.0054L36.9378 38.9827L49.3065 40.2991L49.5492 37.487L37.0206 34.0054Z" fill="#185D6D"/>
<path d="M74.1034 35.4849C77.2867 39.0358 75.9873 39.6489 74.8998 41.4512" stroke="#185D6D" stroke-width="2"/>
<path d="M78.3803 36.3302C80.5566 36.3302 83.1938 34.8657 86.0288 34.0345C89.8153 32.9243 103.339 31.2594 106.962 37.9198C109.188 42.0136 106.056 54.117 102.936 55.6811C98.5079 57.9013 87.4277 57.1758 85.2237 54.571C82.4058 51.2408 81.4372 41.2501 81.4372 40.1401C81.4372 39.03 80.1541 37.9953 78.3803 37.9954" stroke="#185D6D" stroke-width="3"/>
<path d="M88.0416 34.1101C80.3931 35.7752 82.0033 39.6605 82.4058 45.7659" stroke="#185D6D" stroke-width="2"/>
<path d="M79.4276 39.1055C80.6352 39.1055 80.7956 44.1008 82.0033 47.4311" stroke="#185D6D"/>
<path d="M119.979 34.0054L120.062 38.9827L107.694 40.2991L107.451 37.487L119.979 34.0054Z" fill="#185D6D"/>
<path d="M82.8966 35.4849C79.7133 39.0358 81.0127 39.6489 82.1002 41.4512" stroke="#185D6D" stroke-width="2"/>
<rect x="21.665" y="106" width="20.5094" height="2.51486" transform="rotate(15.3322 21.665 106)" fill="#185D6D"/>
<path d="M42.9294 113.096L40.6896 113.854L41.3276 111.357L42.9294 113.096Z" fill="#185D6D"/>
<rect x="123.653" y="86.6145" width="20.1572" height="24.0336" rx="1" transform="rotate(37.566 123.653 86.6145)" fill="#185D6D"/>
<g clip-path="url(#clip0_3827_6359)">
<rect x="123.322" y="88.3164" width="18.6067" height="21.7078" rx="1" transform="rotate(37.566 123.322 88.3164)" fill="#A8E6F1"/>
<rect x="123.078" y="91.9138" width="14.9258" height="1.40512" rx="0.702562" transform="rotate(37.566 123.078 91.9138)" fill="#185D6D"/>
<rect x="121.797" y="93.759" width="14.9258" height="1.40512" rx="0.702562" transform="rotate(37.566 121.797 93.759)" fill="#185D6D"/>
<rect x="120.449" y="95.6516" width="8.18046" height="1.27124" rx="0.635619" transform="rotate(37.566 120.449 95.6516)" fill="#185D6D"/>
<rect x="119.13" y="97.406" width="10.9028" height="1.23964" rx="0.619821" transform="rotate(37.566 119.13 97.406)" fill="#185D6D"/>
</g>
<rect x="126.253" y="89.5925" width="11.6292" height="1.55056" rx="0.775278" transform="rotate(37.566 126.253 89.5925)" fill="black"/>
<rect x="130.885" y="91.1995" width="2.32583" height="2.32583" rx="1.16292" transform="rotate(37.566 130.885 91.1995)" fill="black"/>
<path d="M32.3954 121.629C32.3954 121.629 32.0667 124.167 29.0116 125.013C25.9563 125.859 20.174 125.013 20.174 125.013L19.1934 125.915L19.753 126.541L19.6783 126.737L16.1344 136.124L16.0938 136.233V136.35C16.0938 137.642 16.6579 138.691 17.4845 139.358C18.3109 140.025 19.3686 140.336 20.4196 140.336C21.4707 140.337 22.5304 140.025 23.357 139.358C24.1836 138.691 24.7477 137.643 24.7477 136.35V136.224L24.7007 136.109L20.9452 126.906C22.5821 126.7 26.4732 126.322 28.8407 127.011C30.4174 127.469 31.312 128.401 31.81 129.196L29.4088 142.231L30.8722 144.303C29.6588 144.833 28.6441 146.001 28.3044 147.813C24.4711 148.237 21.7782 149.231 21.7782 150.389H43.0978C43.0978 149.231 40.405 148.237 36.5718 147.813C36.2361 145.995 35.234 144.798 34.0296 144.265L35.4652 142.231L33.0469 129.093C33.5566 128.323 34.4406 127.45 35.9501 127.011C38.3396 126.315 42.2812 126.708 43.8904 126.912L40.4126 136.124L40.3699 136.233V136.35C40.3699 137.642 40.934 138.691 41.7606 139.358C42.587 140.025 43.6468 140.336 44.6978 140.336C45.7488 140.336 46.8085 140.025 47.6352 139.358C48.4616 138.691 49.0258 137.642 49.0258 136.35V136.224L48.9788 136.109L45.1465 126.72L45.0824 126.564L45.6827 125.987L44.6167 125.013C44.6167 125.013 38.8365 125.859 35.7812 125.013C32.726 124.167 32.3954 121.629 32.3954 121.629ZM20.2999 128.709L23.3228 136.117H17.5015L20.2999 128.709ZM44.5783 128.709L47.601 136.117H41.7777L44.5782 128.709L44.5783 128.709Z" fill="#185D6D"/>
<defs>
<clipPath id="clip0_3827_6359">
<rect x="123.322" y="88.3164" width="18.6067" height="21.7078" rx="1" transform="rotate(37.566 123.322 88.3164)" fill="white"/>
</clipPath>
</defs>
</svg>
